<svg width="24" height="24" viewBox="0 0 24 24" fill="none" xmlns="http://www.w3.org/2000/svg">
<path d="M11.8001 11.8002L13.2101 13.2102C13.9901 13.9902 13.9901 15.2602 13.2101 16.0402C12.4301 16.8202 11.1601 16.8202 10.3801 16.0402L8.1601 13.8202C6.6001 12.2602 6.6001 9.73023 8.1601 8.16023C9.7201 6.60023 12.2501 6.60023 13.8201 8.16023L16.2401 10.5802C17.5801 11.9202 17.5801 14.0902 16.2401 15.4302" stroke="#8286AB" stroke-width="1.5" stroke-linecap="round" stroke-linejoin="round"/>
<path d="M15 22H9C4 22 2 20 2 15V9C2 4 4 2 9 2H15C20 2 22 4 22 9V15C22 20 20 22 15 22Z" stroke="#8286AB" stroke-width="1.5" stroke-linecap="round" stroke-linejoin="round"/>
</svg>
