<svg width="26" height="30" viewBox="0 0 26 30" fill="none" xmlns="http://www.w3.org/2000/svg">
<path d="M18.3051 10.4838C15.634 8.83258 14.6627 6.55005 13.7886 4.89885C11.8946 1.49933 8.88356 0.479479 5.72686 1.25651C5.09552 0.139528 3.97854 -0.394682 2.81299 0.333786C1.59888 1.06225 1.50175 2.32493 2.13309 3.44192C-0.100882 5.87014 -0.780785 9.17253 1.06467 12.572C1.98739 14.2232 3.3472 16.2629 3.39576 19.5168C3.44433 21.8479 1.59888 23.4019 4.36705 28.4041L25.1041 15.7773C22.3845 10.7752 20.1991 11.6493 18.3051 10.4838Z" fill="#FFCE31"/>
<path d="M16.8479 11.3585C14.4682 9.51308 13.4483 7.27911 12.5256 5.62792C10.6316 2.2284 7.96055 0.965727 5.38663 1.40281C4.75529 0.285824 3.784 -0.345515 2.81271 0.237259C1.84142 0.820033 1.84142 2.03415 2.47276 3.15113C0.773003 5.33653 0.481615 8.3961 2.32707 11.8442C3.24979 13.4954 4.56104 15.5351 4.90099 18.6432C5.09525 20.8286 3.68687 22.1399 6.45505 27.1906L23.0641 17.0891C20.2959 12.0384 18.5476 12.6698 16.8479 11.3585Z" fill="#FFE62E"/>
<path d="M25.104 15.8254C25.9781 17.4281 22.093 21.6046 16.3624 25.0527C10.6317 28.5493 5.28964 30.0548 4.36692 28.4522C3.49276 26.8496 7.37792 22.673 13.1085 19.225C18.8877 15.7283 24.2298 14.2228 25.104 15.8254Z" fill="#7D888E"/>
<path d="M24.5698 16.3113C25.3954 17.7682 21.6559 21.6048 16.2653 24.9072C10.8746 28.161 5.87245 29.6665 5.04685 28.161C4.22126 26.7041 7.96072 22.8675 13.3514 19.5651C18.742 16.3113 23.7928 14.8544 24.5698 16.3113Z" fill="#C28200"/>
<path d="M5.67871 26.0249C7.81555 25.7821 11.2636 24.4223 14.8574 22.2369C18.4512 20.0515 21.3165 17.5747 22.5792 15.7778C20.4423 15.9721 16.9942 17.3805 13.3519 19.5659C9.75813 21.7513 6.89282 24.2281 5.67871 26.0249Z" fill="#594640"/>
<path d="M8.6405 22.9157C8.30055 23.207 8.00916 23.4499 7.71777 23.7413C8.49481 25.441 10.2431 26.4609 12.0886 26.1209C10.6316 26.4123 9.17471 25.0039 8.6405 22.9157ZM14.3711 18.9819L13.6426 19.419C13.6426 19.419 13.6426 19.4676 13.6912 19.4676C14.0312 20.0989 14.274 20.7788 14.4197 21.4587C14.5654 22.1872 14.5654 22.9157 14.3711 23.5956C14.2254 24.2755 13.8369 24.9554 13.3513 25.3925C13.0113 25.781 12.6228 26.0238 12.1371 26.1209C14.3225 25.6838 15.828 23.4984 15.391 21.1673C15.2453 20.2932 14.8568 19.5647 14.3711 18.9819Z" fill="#F2B200"/>
<path d="M14.3712 21.4591C14.2255 20.7307 13.9827 20.0508 13.6428 19.468C13.6428 19.468 13.6428 19.4194 13.5942 19.4194C13.5942 19.4194 13.5456 19.4194 13.5456 19.468C13.4971 19.5166 13.4485 19.5166 13.3514 19.5651L13.3028 19.6137C11.5545 20.6821 9.95187 21.8477 8.64062 22.9161C9.17483 25.0044 10.6318 26.3642 12.0887 26.1213C12.5744 26.0242 12.9629 25.7814 13.3028 25.3929C13.7885 24.9558 14.177 24.2759 14.3227 23.596C14.5169 22.9161 14.5169 22.1876 14.3712 21.4591Z" fill="#FFCE31"/>
</svg>
