<svg width="9" height="10" viewBox="0 0 9 10" fill="none" xmlns="http://www.w3.org/2000/svg">
<path d="M8.75249 2.85714C8.91449 2.63571 9 2.39286 9 2.14286C9 0.942857 7.02446 0 4.5 0C1.97554 0 0 0.942857 0 2.14286C0 2.39286 0.0854999 2.63571 0.247507 2.85714C0.0855071 3.07857 0 3.32143 0 3.57143C0 3.82143 0.0854999 4.06429 0.247507 4.28571C0.0855071 4.50714 0 4.75 0 5C0 5.25 0.0854999 5.49286 0.247507 5.71429C0.0855071 5.93571 0 6.17857 0 6.42857C0 6.67857 0.0854999 6.92143 0.247507 7.14286C0.0855071 7.36429 0 7.60714 0 7.85714C0 9.05714 1.97554 10 4.5 10C7.02446 10 9 9.05714 9 7.85714C9 7.60714 8.9145 7.36429 8.75249 7.14286C8.91449 6.92143 9 6.67857 9 6.42857C9 6.17857 8.9145 5.93571 8.75249 5.71429C8.91449 5.49286 9 5.25 9 5C9 4.75 8.9145 4.50714 8.75249 4.28571C8.91449 4.06429 9 3.82143 9 3.57143C9 3.32143 8.9145 3.07857 8.75249 2.85714ZM4.50003 9.28571C2.38049 9.28571 0.900029 8.53214 0.900029 7.85714C0.900029 7.81786 0.904529 7.77857 0.918029 7.73929C1.73252 8.25001 3.02403 8.57143 4.50003 8.57143C5.97603 8.57143 7.26756 8.25 8.08203 7.73929C8.09553 7.77858 8.10003 7.81786 8.10003 7.85714C8.10003 8.53214 6.61956 9.28571 4.50003 9.28571ZM8.08203 6.5464C8.03253 6.74997 7.85252 6.95712 7.56903 7.14283C6.95703 7.5464 5.85903 7.85712 4.5001 7.85712C3.14117 7.85712 2.04317 7.5464 1.43117 7.14283C1.14767 6.95712 0.967665 6.74998 0.918173 6.5464C0.904673 6.50711 0.900173 6.46783 0.900173 6.42855C0.900173 6.38927 0.904673 6.34998 0.918173 6.3107C0.985673 6.35355 1.05317 6.39284 1.12517 6.42855C1.40417 6.58213 1.72817 6.7107 2.09268 6.81783C2.78568 7.02497 3.60914 7.14283 4.50022 7.14283C5.39129 7.14283 6.21468 7.02498 6.90775 6.81783C7.27224 6.71069 7.59624 6.58211 7.87526 6.42855C7.94726 6.39283 8.01476 6.35355 8.08226 6.3107C8.09576 6.34998 8.10026 6.38927 8.10026 6.42855C8.10026 6.46783 8.09576 6.50712 8.08226 6.5464H8.08203ZM8.08203 5.11783C8.03253 5.32139 7.85252 5.52855 7.56903 5.71426C7.38903 5.83569 7.16403 5.9464 6.90752 6.03927C6.28652 6.27498 5.45859 6.42855 4.49999 6.42855C3.54138 6.42855 2.71352 6.27497 2.09245 6.03927C1.83596 5.94641 1.61094 5.8357 1.43094 5.71426C1.14744 5.52855 0.967435 5.32141 0.917942 5.11783C0.904442 5.07854 0.899942 5.03926 0.899942 4.99998C0.899942 4.9607 0.904442 4.92141 0.917942 4.88213C0.985442 4.92498 1.05294 4.96427 1.12494 4.99998C1.40394 5.15355 1.72794 5.28213 2.09245 5.38926C2.78545 5.5964 3.60891 5.71426 4.49999 5.71426C5.39106 5.71426 6.21445 5.59641 6.90752 5.38926C7.27201 5.28211 7.59601 5.15354 7.87503 4.99998C7.94703 4.96426 8.01453 4.92498 8.08203 4.88213C8.09553 4.92141 8.10003 4.9607 8.10003 4.99998C8.10003 5.03926 8.09553 5.07855 8.08203 5.11783ZM8.08203 3.68926C8.03253 3.89282 7.85252 4.09998 7.56903 4.28569C7.38903 4.40712 7.16403 4.51783 6.90752 4.6107C6.28652 4.84641 5.45859 4.99998 4.49999 4.99998C3.54138 4.99998 2.71352 4.8464 2.09245 4.6107C1.83596 4.51784 1.61094 4.40713 1.43094 4.28569C1.14744 4.09998 0.967435 3.89283 0.917942 3.68926C0.904442 3.64997 0.899942 3.61069 0.899942 3.57141C0.899942 3.53213 0.904442 3.49283 0.917942 3.45355C0.985442 3.49641 1.05294 3.5357 1.12494 3.57141C1.40394 3.72498 1.72794 3.85355 2.09245 3.96069C2.78545 4.16783 3.60891 4.28569 4.49999 4.28569C5.39106 4.28569 6.21445 4.16784 6.90752 3.96069C7.27201 3.85354 7.59601 3.72497 7.87503 3.57141C7.94703 3.53569 8.01453 3.49641 8.08203 3.45355C8.09553 3.49284 8.10003 3.53213 8.10003 3.57141C8.10003 3.61069 8.09553 3.64998 8.08203 3.68926ZM8.08203 2.26069C8.03253 2.46425 7.85252 2.67141 7.56903 2.85712C7.38903 2.97855 7.16403 3.08926 6.90752 3.18213C6.28652 3.41784 5.45859 3.57141 4.49999 3.57141C3.54138 3.57141 2.71352 3.41783 2.09245 3.18213C1.83596 3.08927 1.61094 2.97856 1.43094 2.85712C1.14744 2.67141 0.967435 2.46426 0.917942 2.26069C0.904442 2.2214 0.899942 2.18211 0.899942 2.14283C0.899942 1.46784 2.38041 0.714263 4.49994 0.714263C6.61948 0.714263 8.09994 1.46784 8.09994 2.14283C8.09994 2.18212 8.09553 2.22141 8.08203 2.26069Z" fill="#048372"/>
</svg>
