<svg width="15" height="17" viewBox="0 0 15 17" fill="none" xmlns="http://www.w3.org/2000/svg">
<g clip-path="url(#clip0_366_29800)">
<path d="M10.9823 12.8032L11.1048 13.157C11.1467 13.2782 11.2254 13.3833 11.3298 13.4577C11.4342 13.5321 11.5592 13.572 11.6874 13.572H13.0226L7.22168 16.922V8.55582L13.8868 4.70679L13.8875 4.70713V11.1679H10.4157L10.7417 12.1086L10.9823 12.8032Z" fill="#F9A83D"/>
<path d="M7.22161 8.55592L4.90039 7.21549L11.5658 3.36646L13.8867 4.70688L7.22161 8.55592Z" fill="#FFDD95"/>
<path d="M11.5655 3.36626L4.90002 7.2153L3.20129 6.23429L9.86637 2.38525L11.5655 3.36626Z" fill="#DF3260"/>
<path d="M7.22172 0.857666L9.86685 2.38527L3.20177 6.2343H3.20143L0.556641 4.7067L7.22172 0.857666Z" fill="#FEBC1F"/>
<path d="M7.22126 8.55582V16.922L0.555481 13.0726V4.70713L0.556175 4.70679L3.20096 6.23439V11.7819L4.00814 11.4485L4.88823 12.4486V7.22234L4.90004 7.2154L7.22126 8.55582Z" fill="#FFD06C"/>
<path d="M4.90007 7.21539L4.88826 7.22233V12.4486L4.00817 11.4485L3.20099 11.7819V6.23438H3.20134L4.90007 7.21539Z" fill="#E93565"/>
<path d="M1.41783 13.1392C1.35337 13.1392 1.29156 13.1136 1.24598 13.068C1.20041 13.0224 1.1748 12.9606 1.1748 12.8961V11.996C1.1748 11.9315 1.20041 11.8697 1.24598 11.8241C1.29156 11.7785 1.35337 11.7529 1.41783 11.7529C1.48228 11.7529 1.5441 11.7785 1.58967 11.8241C1.63525 11.8697 1.66085 11.9315 1.66085 11.996V12.8961C1.66085 12.9606 1.63525 13.0224 1.58967 13.068C1.5441 13.1136 1.48228 13.1392 1.41783 13.1392Z" fill="#E93565"/>
<path d="M2.40422 13.7167C2.33976 13.7167 2.27795 13.6911 2.23237 13.6455C2.1868 13.5999 2.16119 13.5381 2.16119 13.4736V12.6628C2.16119 12.5983 2.1868 12.5365 2.23237 12.4909C2.27795 12.4453 2.33976 12.4197 2.40422 12.4197C2.46867 12.4197 2.53048 12.4453 2.57606 12.4909C2.62164 12.5365 2.64724 12.5983 2.64724 12.6628V13.4736C2.64724 13.5381 2.62164 13.5999 2.57606 13.6455C2.53048 13.6911 2.46867 13.7167 2.40422 13.7167Z" fill="#E93565"/>
<path d="M3.39146 14.2866C3.32701 14.2866 3.26519 14.2609 3.21962 14.2154C3.17404 14.1698 3.14844 14.1079 3.14844 14.0435V13.3295C3.14844 13.265 3.17404 13.2032 3.21962 13.1576C3.26519 13.112 3.32701 13.0864 3.39146 13.0864C3.45591 13.0864 3.51773 13.112 3.5633 13.1576C3.60888 13.2032 3.63448 13.265 3.63448 13.3295V14.0435C3.63448 14.1079 3.60888 14.1698 3.5633 14.2154C3.51773 14.2609 3.45591 14.2866 3.39146 14.2866Z" fill="#E93565"/>
<path d="M4.37785 14.8564C4.3134 14.8564 4.25158 14.8308 4.20601 14.7852C4.16043 14.7396 4.13483 14.6778 4.13483 14.6133V13.9963C4.13483 13.9318 4.16043 13.87 4.20601 13.8244C4.25158 13.7788 4.3134 13.7532 4.37785 13.7532C4.4423 13.7532 4.50412 13.7788 4.54969 13.8244C4.59527 13.87 4.62087 13.9318 4.62087 13.9963V14.6133C4.62087 14.6778 4.59527 14.7396 4.54969 14.7852C4.50412 14.8308 4.4423 14.8564 4.37785 14.8564Z" fill="#E93565"/>
<path d="M5.36412 15.4395C5.29966 15.4395 5.23785 15.4139 5.19227 15.3683C5.1467 15.3227 5.12109 15.2609 5.12109 15.1964V14.663C5.12109 14.5985 5.1467 14.5367 5.19227 14.4911C5.23785 14.4455 5.29966 14.4199 5.36412 14.4199C5.42857 14.4199 5.49038 14.4455 5.53596 14.4911C5.58154 14.5367 5.60714 14.5985 5.60714 14.663V15.1964C5.60714 15.2609 5.58154 15.3227 5.53596 15.3683C5.49038 15.4139 5.42857 15.4395 5.36412 15.4395Z" fill="#E93565"/>
<path d="M12.967 13.5779L11.2138 14.0815C11.1493 14.0815 10.7213 13.7103 10.6757 13.6647C9.23315 15.125 8.60997 14.1856 10.0855 13.1786C10.0855 13.1141 9.31084 12.8943 9.35641 12.8487C9.40199 12.8031 10.2293 11.1297 10.2938 11.1297L11.9082 9.67125C11.9726 9.67125 13.1858 8.50618 13.2274 10.6957C13.4635 9.00971 13.8871 11.0826 13.8871 11.1471C13.9391 11.0603 13.4813 12.3864 13.4357 12.432C13.3902 12.4776 13.0315 13.5779 12.967 13.5779Z" fill="#F9A83D"/>
<path d="M12.4639 9.8623L13.8873 11.1819L13.7831 13.0918L13.1929 13.4738L12.5854 13.8211L12.4639 9.8623Z" fill="#F9A83D"/>
</g>
<defs>
<clipPath id="clip0_366_29800">
<rect width="14.4078" height="16.9116" fill="white"/>
</clipPath>
</defs>
</svg>
