<svg width="20" height="20" viewBox="0 0 20 20" fill="none" xmlns="http://www.w3.org/2000/svg">
<path d="M15.4262 10.7205C14.7457 10.7204 14.0804 10.922 13.5145 11.3C12.9486 11.678 12.5075 12.2153 12.247 12.844C11.9865 13.4727 11.9182 14.1645 12.0509 14.8319C12.1835 15.4994 12.5111 16.1125 12.9922 16.5938C13.4733 17.0751 14.0864 17.4029 14.7538 17.5358C15.4212 17.6687 16.1131 17.6007 16.7418 17.3403C17.3706 17.08 17.908 16.6391 18.2862 16.0733C18.6644 15.5076 18.8663 14.8424 18.8664 14.1619C18.8654 13.2497 18.5026 12.3751 17.8577 11.73C17.2128 11.0848 16.3384 10.7218 15.4262 10.7205Z" fill="#ECEFF1"/>
<path d="M14.2958 10.2557L13.6829 9.19472L10.8869 4.35011C10.7454 4.105 10.5418 3.90146 10.2967 3.75995C10.0515 3.61844 9.77347 3.54395 9.49043 3.54395C9.20738 3.54395 8.92932 3.61844 8.68419 3.75995C8.43906 3.90146 8.23549 4.105 8.09395 4.35011L5.29805 9.1946L2.50203 14.038C2.36059 14.2831 2.28613 14.561 2.28613 14.844C2.28614 15.1269 2.36061 15.4049 2.50207 15.6499C2.64353 15.8949 2.84698 16.0984 3.092 16.2399C3.33701 16.3814 3.61495 16.456 3.89789 16.456H12.0711C11.7077 15.9255 11.4753 15.3163 11.3932 14.6785C11.3111 14.0407 11.3815 13.3925 11.5987 12.7872C11.8158 12.1819 12.1736 11.6368 12.6424 11.1967C13.1113 10.7566 13.678 10.434 14.2958 10.2556V10.2557Z" fill="#FFE177"/>
<path d="M9.49069 6.92303C9.32151 6.92349 9.15415 6.95804 8.99861 7.0246C8.84307 7.09116 8.70253 7.18838 8.58538 7.31045C8.4748 7.42382 8.38856 7.55859 8.33194 7.70649C8.27532 7.85439 8.24952 8.0123 8.25612 8.17053L8.39784 11.3951C8.4244 12.0005 8.90444 12.4745 9.49069 12.4745C10.0732 12.4745 10.5527 12.001 10.5825 11.3951L10.7242 8.17049C10.7308 8.01222 10.705 7.85427 10.6483 7.70634C10.5917 7.5584 10.5054 7.4236 10.3948 7.31021C10.2778 7.18825 10.1375 7.09111 9.98216 7.02459C9.82682 6.95807 9.65967 6.92352 9.49069 6.92303ZM9.95815 11.366C9.94483 11.6371 9.7394 11.8495 9.49069 11.8495C9.23987 11.8495 9.03409 11.6378 9.02222 11.3676L8.8805 8.14314C8.87791 8.06926 8.89043 7.99563 8.9173 7.92677C8.94416 7.8579 8.98481 7.79524 9.03675 7.74264C9.09514 7.6812 9.16541 7.63227 9.2433 7.59883C9.32118 7.56539 9.40505 7.54813 9.48981 7.54811C9.57458 7.54808 9.65846 7.56529 9.73636 7.59868C9.81427 7.63208 9.88457 7.68096 9.943 7.74236C9.99499 7.79499 10.0357 7.85768 10.0626 7.92659C10.0895 7.9955 10.1021 8.06917 10.0995 8.1431L9.95815 11.366ZM9.49069 12.7232C9.27422 12.723 9.06255 12.787 8.88246 12.9071C8.70236 13.0272 8.56194 13.198 8.47895 13.3979C8.39596 13.5979 8.37414 13.8179 8.41623 14.0302C8.45833 14.2426 8.56246 14.4377 8.71546 14.5908C8.86845 14.744 9.06342 14.8483 9.27572 14.8906C9.48801 14.9329 9.70809 14.9113 9.9081 14.8285C10.1081 14.7457 10.2791 14.6055 10.3994 14.4255C10.5197 14.2455 10.5839 14.0339 10.5839 13.8174C10.5835 13.5275 10.4683 13.2495 10.2634 13.0444C10.0585 12.8393 9.78062 12.7238 9.49069 12.7232ZM9.49069 14.2867C9.39784 14.2869 9.307 14.2596 9.22969 14.2081C9.15238 14.1567 9.09206 14.0835 9.05638 13.9978C9.02069 13.912 9.01124 13.8177 9.02923 13.7266C9.04721 13.6355 9.09181 13.5517 9.1574 13.486C9.22298 13.4203 9.30659 13.3755 9.39765 13.3573C9.48871 13.3391 9.58311 13.3483 9.66892 13.3838C9.75473 13.4193 9.82809 13.4794 9.8797 13.5566C9.93131 13.6338 9.95886 13.7246 9.95886 13.8174C9.95871 13.9417 9.90938 14.0608 9.82164 14.1487C9.73391 14.2366 9.61491 14.2863 9.49069 14.2867ZM16.3055 10.1916L12.4211 3.46506C12.1241 2.95059 11.6968 2.52337 11.1823 2.22635C10.6678 1.92932 10.0842 1.77295 9.49015 1.77295C8.89607 1.77295 8.31246 1.92932 7.79797 2.22635C7.28348 2.52337 6.85623 2.95059 6.55917 3.46506L0.967218 13.1518C0.670138 13.6662 0.513713 14.2497 0.513672 14.8436C0.51363 15.4376 0.669973 16.0212 0.966981 16.5355C1.26399 17.0499 1.69119 17.4771 2.20563 17.774C2.72008 18.0709 3.30363 18.2272 3.89761 18.227H15.0827C15.1428 18.227 15.2012 18.2258 15.2612 18.2235C15.3159 18.2256 15.3706 18.227 15.4259 18.227C16.4276 18.2269 17.3939 17.857 18.1396 17.1883C18.8854 16.5197 19.3581 15.5992 19.4671 14.6035C19.5761 13.6079 19.3137 12.607 18.7302 11.7928C18.1468 10.9786 17.2833 10.4084 16.3055 10.1916ZM3.89761 17.602C3.41288 17.605 2.93608 17.479 2.51622 17.2367C2.09635 16.9945 1.74854 16.6448 1.50855 16.2236C1.00261 15.3463 1.00257 14.3406 1.50855 13.4643L7.1003 3.77771C7.60757 2.9008 8.47882 2.39787 9.49069 2.39787C9.97555 2.39502 10.4524 2.52131 10.8723 2.76377C11.2922 3.00623 11.64 3.35612 11.8799 3.77748L15.529 10.0968C15.4948 10.096 15.4604 10.0955 15.4259 10.0955C15.264 10.0956 15.1023 10.1052 14.9416 10.1245L14.2239 8.88201L11.4278 4.03736C11.2314 3.69728 10.9489 3.41487 10.6088 3.21853C10.2687 3.02219 9.88284 2.91883 9.49011 2.91883C9.09738 2.91883 8.71156 3.02219 8.37143 3.21853C8.0313 3.41487 7.74883 3.69728 7.55241 4.03736L4.75648 8.88201L1.96085 13.7249C1.54894 14.4354 1.5489 15.251 1.96062 15.9626C2.15293 16.3061 2.43441 16.5913 2.77535 16.7881C3.11628 16.985 3.50404 17.0862 3.89769 17.081H12.599C12.8015 17.277 13.0236 17.4516 13.2619 17.602H3.89761ZM14.2955 10.2555C13.6776 10.434 13.111 10.7565 12.6421 11.1966C12.1733 11.6367 11.8155 12.1818 11.5984 12.7871C11.3812 13.3924 11.3108 14.0406 11.3929 14.6784C11.4751 15.3162 11.7074 15.9254 12.0708 16.456H3.89761C3.61467 16.4559 3.33673 16.3814 3.09172 16.2399C2.8467 16.0984 2.64325 15.8949 2.50179 15.6499C2.36033 15.4048 2.28586 15.1269 2.28585 14.8439C2.28584 14.561 2.3603 14.283 2.50175 14.038L5.29773 9.19455L8.09366 4.3501C8.23521 4.10499 8.43878 3.90145 8.68391 3.75994C8.92904 3.61843 9.2071 3.54393 9.49015 3.54393C9.77319 3.54393 10.0513 3.61843 10.2964 3.75994C10.5415 3.90145 10.7451 4.10499 10.8866 4.3501L13.6827 9.19471L14.2955 10.2555ZM15.4259 17.602C14.7454 17.6021 14.08 17.4004 13.5141 17.0224C12.9482 16.6443 12.5071 16.1069 12.2466 15.4782C11.9861 14.8495 11.9179 14.1576 12.0507 13.4901C12.1834 12.8226 12.5112 12.2094 12.9924 11.7282C13.4736 11.247 14.0868 10.9193 14.7543 10.7865C15.4218 10.6538 16.1136 10.722 16.7424 10.9825C17.3711 11.243 17.9085 11.6841 18.2865 12.25C18.6646 12.8159 18.8663 13.4812 18.8662 14.1618C18.865 15.0739 18.5022 15.9482 17.8572 16.5931C17.2123 17.238 16.338 17.6008 15.4259 17.602ZM16.6971 12.4044L14.8632 14.2293L14.1469 13.524C13.9941 13.3785 13.7901 13.2992 13.5792 13.3032C13.3683 13.3072 13.1675 13.3943 13.0205 13.5456C12.8734 13.6968 12.792 13.8999 12.7938 14.1109C12.7957 14.3218 12.8807 14.5235 13.0304 14.6721L14.31 15.9252C14.461 16.0706 14.6628 16.1513 14.8725 16.1502C15.0821 16.1491 15.283 16.0662 15.4325 15.9192L17.8247 13.5392C17.8995 13.4652 17.9589 13.3771 17.9996 13.2801C18.0403 13.1831 18.0615 13.079 18.0619 12.9738C18.0623 12.8686 18.0419 12.7643 18.0019 12.667C17.9619 12.5697 17.9031 12.4813 17.8288 12.4067C17.6789 12.2566 17.4756 12.172 17.2634 12.1716C17.0512 12.1712 16.8476 12.2549 16.6971 12.4044ZM17.3848 13.0954L14.9921 15.476C14.9594 15.5081 14.9156 15.5263 14.8698 15.5266C14.824 15.5269 14.7798 15.5093 14.7467 15.4777L13.4678 14.2253V14.2251C13.4512 14.2089 13.438 14.1896 13.4289 14.1683C13.4198 14.147 13.415 14.1241 13.4148 14.101C13.4145 14.0778 13.4189 14.0548 13.4275 14.0333C13.4362 14.0119 13.449 13.9923 13.4653 13.9758C13.4974 13.9429 13.5413 13.924 13.5873 13.9232C13.6333 13.9224 13.6778 13.9397 13.7111 13.9715L14.6457 14.8917C14.7043 14.9494 14.7834 14.9817 14.8657 14.9815C14.9481 14.9813 15.027 14.9486 15.0853 14.8905L17.1382 12.8475C17.1627 12.8229 17.194 12.8062 17.2281 12.7994C17.2621 12.7926 17.2974 12.7961 17.3295 12.8094C17.3616 12.8228 17.389 12.8453 17.4082 12.8743C17.4274 12.9032 17.4376 12.9372 17.4374 12.9719C17.4373 12.995 17.4326 13.0178 17.4235 13.039C17.4145 13.0602 17.4013 13.0793 17.3848 13.0954Z" fill="black"/>
<path d="M9.49074 7.5481C9.40591 7.54839 9.32201 7.56578 9.24404 7.59921C9.16608 7.63265 9.09565 7.68145 9.03695 7.7427C8.98502 7.79531 8.94437 7.85797 8.9175 7.92684C8.89064 7.9957 8.87811 8.06933 8.8807 8.14321L9.02242 11.3677C9.03414 11.6379 9.24008 11.8495 9.4909 11.8495C9.73969 11.8495 9.94504 11.6372 9.95836 11.3661L10.1 8.14317C10.1026 8.06924 10.09 7.99557 10.0631 7.92666C10.0362 7.85775 9.9955 7.79506 9.94352 7.74243C9.88497 7.68128 9.81471 7.63256 9.73692 7.59917C9.65912 7.56578 9.5754 7.54841 9.49074 7.5481Z" fill="#FE646F"/>
<path d="M17.1378 12.8477L15.085 14.8907C15.0266 14.9488 14.9477 14.9815 14.8654 14.9817C14.7831 14.9819 14.704 14.9496 14.6453 14.8919L13.7109 13.9716C13.6776 13.9399 13.6331 13.9225 13.5871 13.9233C13.5411 13.9241 13.4972 13.943 13.4651 13.9759C13.4488 13.9925 13.436 14.012 13.4273 14.0335C13.4187 14.055 13.4143 14.0779 13.4146 14.1011C13.4148 14.1243 13.4196 14.1472 13.4287 14.1685C13.4378 14.1898 13.451 14.2091 13.4676 14.2252V14.2255L14.7466 15.4778C14.7796 15.5095 14.8238 15.527 14.8696 15.5267C14.9154 15.5264 14.9592 15.5083 14.9919 15.4762L17.3848 13.0955C17.4012 13.0794 17.4143 13.0601 17.4233 13.0389C17.4323 13.0176 17.4369 12.9948 17.437 12.9717C17.4371 12.9487 17.4326 12.9258 17.4238 12.9045C17.415 12.8832 17.4021 12.8638 17.3858 12.8475C17.3528 12.8147 17.3082 12.7964 17.2618 12.7964C17.2153 12.7964 17.1707 12.8149 17.1378 12.8477Z" fill="#60B7FF"/>
<path d="M9.49037 13.3484C9.39751 13.3482 9.30668 13.3755 9.22937 13.4269C9.15206 13.4784 9.09174 13.5516 9.05605 13.6373C9.02037 13.723 9.01092 13.8174 9.0289 13.9085C9.04689 13.9996 9.09149 14.0833 9.15708 14.1491C9.22266 14.2148 9.30627 14.2596 9.39733 14.2778C9.48838 14.296 9.58279 14.2868 9.6686 14.2513C9.75441 14.2158 9.82776 14.1557 9.87937 14.0785C9.93099 14.0013 9.95854 13.9105 9.95854 13.8176C9.95839 13.6934 9.90906 13.5743 9.82132 13.4864C9.73359 13.3984 9.61459 13.3488 9.49037 13.3484Z" fill="#FE646F"/>
<path d="M3.89746 17.0811C3.50381 17.0863 3.11606 16.9851 2.77512 16.7883C2.43418 16.5914 2.1527 16.3062 1.96039 15.9627C1.54867 15.2512 1.54871 14.4355 1.96062 13.7251L4.75632 8.88214L7.55226 4.03764C7.74868 3.69756 8.03114 3.41516 8.37128 3.21882C8.71141 3.02248 9.09722 2.91911 9.48995 2.91911C9.88269 2.91911 10.2685 3.02248 10.6086 3.21882C10.9488 3.41516 11.2312 3.69756 11.4276 4.03764L14.2237 8.88229L14.9414 10.1248C15.1021 10.1055 15.2639 10.0958 15.4258 10.0958C15.4602 10.0958 15.4946 10.0962 15.5289 10.0971L11.8797 3.77761C11.6398 3.35625 11.2921 3.00636 10.8722 2.7639C10.4523 2.52143 9.9754 2.39514 9.49054 2.398C8.47882 2.398 7.60742 2.90093 7.10019 3.77784L1.50832 13.4644C1.00242 14.3407 1.00246 15.3464 1.50832 16.2238C1.74831 16.6449 2.09612 16.9946 2.51599 17.2368C2.93585 17.4791 3.41265 17.6052 3.89738 17.6021H13.2618C13.0235 17.4517 12.8013 17.2771 12.5989 17.0811H3.89746Z" fill="#FE646F"/>
</svg>
