<svg width="73" height="73" viewBox="0 0 73 73" fill="none" xmlns="http://www.w3.org/2000/svg">
<path d="M22.5583 52.418C22.5583 53.5462 22.1577 54.3434 21.516 54.7154L18.0577 56.7265C18.6995 56.3504 19.1001 55.5574 19.1042 54.4292C19.1083 52.1564 17.51 49.3849 15.5315 48.2445C14.5341 47.6681 13.6348 47.615 12.9849 47.9951L16.439 45.9839C17.093 45.6079 17.9923 45.661 18.9897 46.2333C20.9682 47.3779 22.5665 50.1453 22.5583 52.418Z" fill="#2D2C2B"/>
<path d="M6.08496 38.7453L26.1485 27.0857L51.9622 41.9893L31.8987 53.6489L6.08496 38.7453Z" fill="#FF5230"/>
<path d="M31.8982 53.6485L31.8807 60.1737L19.8174 53.5593L19.8006 53.5493L12.2551 49.4098L10.0414 48.1941L7.70041 46.9114C6.79951 46.3889 6.06941 45.1263 6.07277 44.0915L6.08349 38.7451L31.8982 53.6485Z" fill="#E5392C"/>
<path d="M31.8987 53.6489L51.9622 41.9893L51.9463 47.5913L31.8828 59.2509L31.8987 53.6489Z" fill="#FF5230"/>
<path d="M31.9403 39.0542L52.0038 27.3945L51.9624 41.9893L31.8989 53.6489L31.9403 39.0542Z" fill="#FD5330"/>
<path d="M34.0649 50.2654L54.1285 38.6057C54.1269 39.1364 54.4999 39.7825 54.9618 40.0491L34.8983 51.7087C34.4364 51.4421 34.0634 50.7961 34.0649 50.2654Z" fill="#FF5230"/>
<path d="M64.6055 54.3019L44.542 65.9615C44.857 65.7784 45.0521 65.3889 45.0536 64.8347L65.1171 53.175C65.1156 53.7292 64.9205 54.1188 64.6055 54.3019Z" fill="#FF5230"/>
<path d="M34.0827 43.9878L54.1462 32.3281L54.1284 38.6058L34.0649 50.2655L34.0827 43.9878Z" fill="#FF5230"/>
<path d="M34.3268 43.4514L54.3904 31.7917C54.2403 31.879 54.1473 32.0644 54.1465 32.3281L34.083 43.9877C34.0838 43.7241 34.1768 43.5386 34.3268 43.4514Z" fill="#FF5230"/>
<path d="M34.8984 51.709L54.9619 40.0493L61.7082 43.9443L41.6447 55.6039L34.8984 51.709Z" fill="#FF5230"/>
<path d="M34.3267 43.4514L54.3902 31.7918C54.5422 31.7034 54.7527 31.7159 54.9851 31.8501L34.9216 43.5097C34.6892 43.3755 34.4787 43.3631 34.3267 43.4514Z" fill="#638DFF"/>
<path d="M42.4828 54.6455L62.5463 42.9858L62.545 43.465L42.4814 55.1246L42.4828 54.6455Z" fill="#638DFF"/>
<path d="M62.3006 44.0016L42.2371 55.6613C42.0854 55.7494 41.8756 55.7371 41.6445 55.6037L61.708 43.9441C61.9391 44.0775 62.1489 44.0898 62.3006 44.0016Z" fill="#FF5230"/>
<path d="M62.3008 44.0016L42.2373 55.6613C42.3874 55.574 42.4807 55.3884 42.4814 55.1245L62.5449 43.4648C62.5442 43.7288 62.4509 43.9144 62.3008 44.0016Z" fill="#638DFF"/>
<path d="M42.3857 54.1391L62.4492 42.4795C62.513 42.6541 62.5468 42.8287 62.5463 42.9859L42.4828 54.6456C42.4833 54.4883 42.4495 54.3138 42.3857 54.1391Z" fill="#638DFF"/>
<path d="M65.8733 52.0739L65.8694 53.4389L63.1489 51.8682L63.1528 50.5032L65.8733 52.0739Z" fill="#832619"/>
<path d="M45.0776 56.4045L65.1411 44.7449L65.1172 53.175L45.0537 64.8346L45.0776 56.4045Z" fill="#FF5230"/>
<path d="M34.9219 43.5097L54.9854 31.8501L59.046 34.1945L38.9824 45.8541L34.9219 43.5097Z" fill="#638DFF"/>
<path d="M39.7183 46.7885L59.7818 35.1289L62.4489 42.4793L42.3854 54.1389L39.7183 46.7885Z" fill="#638DFF"/>
<path d="M38.9824 45.8542L59.0459 34.1946C59.356 34.3736 59.6377 34.7331 59.7822 35.1291L39.7187 46.7887C39.5742 46.3927 39.2925 46.0332 38.9824 45.8542Z" fill="#638DFF"/>
<path d="M42.8166 63.8053C42.8166 64.9335 42.416 65.7306 41.7743 66.1026L38.316 68.1137C38.9578 67.7377 39.3584 66.9446 39.3625 65.8164C39.3666 63.5436 37.7683 60.7721 35.7898 59.6317C34.7924 59.0553 33.8931 59.0022 33.2432 59.3823L36.6973 57.3711C37.3513 56.9951 38.2506 57.0482 39.248 57.6205C41.2265 58.7651 42.8248 61.5325 42.8166 63.8053Z" fill="#2D2C2B"/>
<path d="M44.8752 55.3378C45.009 55.7079 45.0787 56.073 45.0777 56.4047L45.0538 65.4996C45.0507 66.6151 44.2634 67.0637 43.2926 66.5033L31.8828 59.9158L31.8987 53.649L31.9401 39.0542L40.0847 43.7565C40.7348 44.1318 41.3302 44.889 41.6319 45.7228L44.8752 55.3378ZM42.4813 55.1247L42.4826 54.6455C42.4831 54.4883 42.4493 54.3137 42.3855 54.1391L39.7184 46.7887C39.5739 46.3927 39.2922 46.0332 38.9822 45.8542L34.9216 43.5098C34.4598 43.2432 34.0843 43.4571 34.0828 43.9878L34.065 50.2656C34.0635 50.7963 34.4365 51.4423 34.8984 51.7089L41.6446 55.6039C42.1043 55.8693 42.4798 55.6554 42.4813 55.1247Z" fill="#E5392C"/>
<path d="M42.4856 54.64V55.1311C42.4856 55.6487 42.1006 55.8743 41.6494 55.6089L38.8488 53.9896L37.0969 52.9809L34.8935 51.7067C34.4423 51.4413 34.0574 50.7909 34.0706 50.26V47.9903L34.0839 43.982C34.0839 43.4511 34.4555 43.2387 34.9201 43.5041L36.8712 44.6324L38.9816 45.8534C39.2868 46.0393 39.5789 46.3976 39.7248 46.7825L40.4947 48.9061L41.2777 51.0829L42.3794 54.1356C42.4457 54.3082 42.4856 54.494 42.4856 54.64Z" fill="#638DFF"/>
<path d="M31.9399 39.0542L52.0034 27.3945L60.1481 32.0969L40.0846 43.7565L31.9399 39.0542Z" fill="#FF5230"/>
<path d="M65.1409 44.7434L45.0766 56.4049C45.0799 56.0733 45.0096 55.7083 44.8756 55.3365L41.6304 45.7214L61.6947 34.0632L64.9399 43.6784C65.0739 44.0468 65.1409 44.4119 65.1409 44.7434Z" fill="#F4462F"/>
<path d="M40.085 43.7566L60.1485 32.0969C60.7985 32.4722 61.3939 33.2294 61.6957 34.0632L41.6322 45.7229C41.3304 44.8891 40.735 44.1319 40.085 43.7566Z" fill="#FF5230"/>
<path d="M31.9706 31.2088L31.9401 39.0541L31.8987 53.6489L6.08496 38.7453L6.1568 16.3052L31.9706 31.2088Z" fill="#DDB040"/>
<path d="M6.15674 16.3051L26.2202 4.64551L52.034 19.5491L31.9705 31.2087L6.15674 16.3051Z" fill="#FFD651"/>
<path d="M31.9704 31.2087L52.0339 19.5491L52.0034 27.3945L31.9399 39.0541L31.9704 31.2087Z" fill="#EFC348"/>
<path d="M64.3194 44.3271L61.4259 46.0128L54.0861 50.2733L51.4449 51.8129L45.6447 55.1843C45.6314 55.1444 45.6181 55.1178 45.6049 55.0781L44.7289 52.5031L42.5654 46.0658L46.2419 43.9289L53.5818 39.6684L56.223 38.1288L61.2667 35.2087L62.6205 39.2171L64.2132 43.9289C64.2663 44.0617 64.2929 44.1944 64.3194 44.3271Z" fill="#638DFF"/>
<path d="M44.9816 64.899L44.9777 67.5252L42.4248 66.0513L42.4287 63.425L44.9816 64.899Z" fill="#D9DDDD"/>
<path d="M66.9265 52.1458L66.9226 54.772L44.9775 67.5251L44.9814 64.8988L66.9265 52.1458Z" fill="#D9DDDD"/>
<path d="M65.1236 51.1045L66.9272 52.1458L44.9821 64.8989L42.4292 63.425L42.9329 63.1323L44.8106 64.2163L65.1414 52.4014" fill="#EAEFEF"/>
<path d="M20.3262 53.8219L13.1136 49.865L10.9976 48.703C11.5642 47.352 12.7487 46.731 13.9236 46.731C14.6535 46.731 15.409 46.955 16.1709 47.3968C18.2934 48.6165 19.9965 51.3152 20.3262 53.8219Z" fill="#D62D29"/>
<path d="M19.104 54.427C19.0976 56.6999 17.4874 57.6187 15.509 56.4759C13.5305 55.333 11.9331 52.5638 11.9395 50.2909C11.9459 48.018 13.5529 47.1024 15.5314 48.2453C17.5098 49.3849 19.1105 52.1541 19.104 54.427Z" fill="#434240"/>
<path d="M17.4999 53.5016C17.4963 54.7566 16.6072 55.2639 15.5149 54.6329C14.4225 54.0019 13.5404 52.4729 13.544 51.2179C13.5475 49.9628 14.4348 49.4573 15.5272 50.0884C16.6196 50.7176 17.5034 52.2466 17.4999 53.5016Z" fill="#EAEFEF"/>
<path d="M40.5855 64.9501L33.3729 60.9932L31.2568 59.8311C31.8235 58.4802 33.008 57.8591 34.1829 57.8591C34.9127 57.8591 35.6683 58.0832 36.4302 58.525C38.5527 59.7447 40.2558 62.4434 40.5855 64.9501Z" fill="#D62D29"/>
<path d="M39.3628 65.8145C39.3564 68.0874 37.7462 69.0062 35.7677 67.8633C33.7893 66.7204 32.1919 63.9513 32.1983 61.6784C32.2047 59.4054 33.8117 58.4898 35.7901 59.6327C37.7686 60.7724 39.3692 63.5415 39.3628 65.8145Z" fill="#434240"/>
<path d="M37.7582 64.8888C37.7546 66.1438 36.8655 66.6511 35.7732 66.0201C34.6808 65.3891 33.7987 63.8601 33.8023 62.6051C33.8058 61.3501 34.6931 60.8445 35.7855 61.4756C36.8779 62.1048 37.7617 63.6338 37.7582 64.8888Z" fill="#EAEFEF"/>
<path d="M50.3923 58.5466L50.395 59.483L46.154 61.9316L46.1514 60.9951L50.3923 58.5466Z" fill="#FFD06C"/>
<path d="M50.382 54.8679L50.3911 58.0737L46.1502 60.5222L46.1411 57.3164L50.382 54.8679Z" fill="white"/>
<path d="M64.0515 50.6606L64.0541 51.5971L59.8132 54.0456L59.8105 53.1092L64.0515 50.6606Z" fill="#FFD06C"/>
<path d="M64.0412 46.9819L64.0503 50.1877L59.8094 52.6362L59.8003 49.4304L64.0412 46.9819Z" fill="white"/>
<path d="M58.9807 54.1095L51.8778 58.2059L51.8726 54.725L58.9754 50.6233L58.9807 54.1095Z" fill="#434240"/>
<path d="M28.4763 7.89618L22.9531 11.1059L22.458 10.8201L27.9812 7.61035L28.4763 7.89618Z" fill="#CCCECE"/>
<path d="M29.7211 8.06282C29.8655 8.14618 29.8662 8.28313 29.7227 8.36649L23.7692 11.8263C23.6258 11.9097 23.3894 11.9097 23.245 11.8263L19.996 9.95056C19.8516 9.86717 19.8509 9.73022 19.9943 9.64686L25.9478 6.18705C26.0913 6.10369 26.3277 6.10365 26.4722 6.18705L29.7211 8.06282ZM22.953 11.1058L28.4762 7.89607L27.9811 7.61024L22.4579 10.82L22.953 11.1058ZM21.7308 10.4001L27.254 7.19043L26.7589 6.90459L21.2357 10.1143L21.7308 10.4001Z" fill="white"/>
<path d="M27.2541 7.19037L21.7309 10.4001L21.2358 10.1143L26.759 6.90454L27.2541 7.19037Z" fill="#CCCECE"/>
<path d="M40.0686 12.6385L23.1303 22.4833L21.2456 21.401L38.1901 11.5562L40.0686 12.6385Z" fill="#DDB040"/>
<g opacity="0.25">
<path d="M53.5814 39.6685L51.4445 51.813L45.6443 55.1843C45.6311 55.1444 45.6178 55.1179 45.6045 55.0781L44.7285 52.5032L46.2415 43.929L53.5814 39.6685Z" fill="white"/>
<path d="M62.6203 39.2171L61.4257 46.0128L54.0859 50.2733L56.2228 38.1288L61.2664 35.2087L62.6203 39.2171Z" fill="white"/>
</g>
<g opacity="0.25">
<path d="M40.4947 48.9061L37.0969 52.9808L34.8935 51.7066C34.4423 51.4412 34.0574 50.7908 34.0706 50.2599V47.9903L36.8712 44.6323L38.9816 45.8534C39.2868 46.0392 39.5789 46.3975 39.7248 46.7825L40.4947 48.9061Z" fill="white"/>
<path d="M42.4854 54.6398V55.1309C42.4854 55.6486 42.1005 55.8742 41.6492 55.6087L38.8486 53.9895L41.2776 51.0828L42.3792 54.1355C42.4456 54.308 42.4854 54.4939 42.4854 54.6398Z" fill="white"/>
</g>
</svg>
