<svg width="22" height="22" viewBox="0 0 22 22" fill="none" xmlns="http://www.w3.org/2000/svg">
<rect width="20" height="20" rx="10" transform="matrix(-1 0 0 1 21 1)" fill="#048372" stroke="white" stroke-width="2"/>
<path d="M20 6.10733V11.5561C20 11.5561 18.8338 11.7859 18.5936 11.8161C18.3541 11.8462 17.6015 12.0892 17.0561 11.565C16.215 10.7588 13.2265 7.78682 13.2265 7.78682C13.2265 7.78682 12.7112 7.2812 11.8838 7.71818C11.1244 8.11848 9.99853 8.70512 9.52828 8.93356C8.63933 9.40671 7.90255 8.65602 7.90255 8.08419C7.90255 7.64064 8.17933 7.3396 8.57497 7.11821C9.64723 6.46819 11.9072 5.19963 12.8485 4.6995C13.4207 4.39519 13.8329 4.36911 14.6184 5.03086C15.5859 5.8445 16.4468 6.58615 16.4468 6.58615C16.4468 6.58615 16.7276 6.82051 17.1755 6.72612C18.2752 6.49361 20 6.10733 20 6.10733ZM8.10498 15.3398C8.24971 14.9679 8.20133 14.5521 7.92386 14.2667C7.67454 14.0115 7.31053 13.9443 6.96344 14.0238C7.06051 13.6796 7.00691 13.3131 6.75624 13.0546C6.50616 12.8 6.14283 12.7314 5.79578 12.8117C5.89213 12.4679 5.83867 12.1015 5.58785 11.8437C5.19511 11.4409 4.51578 11.4582 4.06951 11.8836C3.62559 12.3095 3.34122 13.0813 3.73742 13.5356C4.13296 13.9875 4.58744 13.7125 4.93391 13.6336C4.83753 13.9773 4.54872 14.2971 4.90439 14.747C5.25972 15.1972 5.75437 14.9241 6.10121 14.8458C6.0045 15.1883 5.7283 15.5401 6.0703 15.9573C6.4154 16.3758 6.98061 16.1528 7.35393 16.0369C7.20985 16.4073 6.90148 16.8065 7.29767 17.254C7.69325 17.7046 8.60741 17.4961 9.05394 17.0701C9.49927 16.6441 9.54201 15.969 9.15032 15.5649C8.8799 15.2876 8.47677 15.2231 8.10498 15.3398ZM16.2527 12.505C13.0248 9.27702 14.543 10.7959 12.8059 9.05508C12.8059 9.05508 12.2838 8.53533 11.5958 8.83724C11.1127 9.04891 10.4909 9.33738 10.0229 9.55761C9.50875 9.82724 9.1387 9.9107 8.96496 9.90953C7.97093 9.90303 7.16446 9.10407 7.16446 8.11103C7.16446 7.46682 7.50646 6.90596 8.01655 6.5876C8.73383 6.09124 10.3848 5.21307 10.3848 5.21307C10.3848 5.21307 9.88188 4.57573 8.78006 4.57573C7.67857 4.57573 5.37725 6.08336 5.37725 6.08336C5.37725 6.08336 4.72439 6.50153 3.79375 6.12487L2 5.50024V11.7352C2 11.7352 2.51219 11.8835 2.97241 12.0714C3.07636 11.775 3.24407 11.5013 3.47673 11.2752C4.24024 10.548 5.50578 10.5404 6.20043 11.2557C6.40969 11.4731 6.55573 11.7325 6.63025 12.0192C6.91016 12.1056 7.16369 12.2587 7.36744 12.4686C7.57444 12.6811 7.72277 12.9437 7.79795 13.2307C8.07753 13.3172 8.3307 13.4708 8.53513 13.6809C8.76535 13.9183 8.91872 14.205 8.99034 14.5157C9.28211 14.6006 9.54702 14.7594 9.75941 14.9767C10.1769 15.4055 10.3251 15.9873 10.2353 16.5485L10.238 16.5498C10.2449 16.5587 10.4967 16.8394 10.6537 16.9978C10.9615 17.3058 11.464 17.3058 11.7727 16.9978C12.0794 16.6898 12.0808 16.1883 11.7727 15.8788C11.7617 15.8678 10.6624 14.718 10.7509 14.6288C10.8387 14.5403 12.2392 15.9976 12.2653 16.0242C12.5727 16.3316 13.0749 16.3316 13.3836 16.0242C13.6916 15.7163 13.691 15.2147 13.3836 14.9059C13.3685 14.8916 13.3055 14.8312 13.2821 14.8071C13.2821 14.8071 11.8935 13.5701 11.9992 13.4644C12.1062 13.3581 13.831 14.9677 13.8338 14.9677C14.1438 15.2469 14.6214 15.2449 14.9197 14.9464C15.2099 14.6563 15.2161 14.1972 14.9588 13.8879C14.9534 13.8715 13.6443 12.5034 13.7465 12.4005C13.8502 12.2962 15.1454 13.63 15.1482 13.6327C15.4548 13.9401 15.9577 13.9401 16.2665 13.6327C16.5738 13.3254 16.5738 12.8232 16.2665 12.5131C16.2623 12.5104 16.2568 12.5077 16.2527 12.505Z" fill="#E6E6E9"/>
</svg>
