<svg width="22" height="22" viewBox="0 0 22 22" fill="none" xmlns="http://www.w3.org/2000/svg">
<g clip-path="url(#clip0_366_26180)">
<path d="M6.215 13.1893L5.05957 15.0569C4.94227 15.2466 4.73473 15.3624 4.51172 15.3624C4.28871 15.3624 4.08117 15.2466 3.96387 15.0569L2.34223 12.4362H2.27133C1.01879 12.4362 0 11.4159 0 10.1615V2.27468C0 1.02029 1.01879 0 2.27133 0H6.20984L8.92852 4.43841L6.215 13.1893Z" fill="#FFDE32"/>
<path d="M12.4181 2.27468V10.1616C12.4181 10.1994 12.4168 10.2373 12.4151 10.2747C12.4073 10.4348 12.3403 10.5867 12.2273 10.7003L10.6847 12.2451C10.5713 12.3588 10.4196 12.4259 10.2593 12.4332C10.222 12.4349 10.1846 12.4362 10.1468 12.4362H6.68133L6.21512 13.1893L6.20996 0H10.1468C11.3993 0 12.4181 1.02029 12.4181 2.27468Z" fill="#FFA900"/>
<path d="M15.791 8.8009L18.5152 16.4778L15.791 22H11.8534C10.6008 22 9.58203 20.9798 9.58203 19.7254V11.8385C9.58203 10.5841 10.6008 9.56386 11.8534 9.56386H15.3188L15.791 8.8009Z" fill="#D4174B"/>
<path d="M6.21292 7.09466H5.34495L6.21163 4.81568L6.83549 4.26775L6.21077 2.58191C5.89581 2.58535 5.61694 2.77557 5.49749 3.06733C5.49534 3.07205 5.49362 3.07721 5.49147 3.08194L3.24893 8.97901C3.12218 9.31206 3.28932 9.68516 3.6219 9.81209C3.95491 9.93902 4.32702 9.77166 4.45378 9.43856L4.85425 8.38557H6.21335L6.78084 7.68114L6.21292 7.09466Z" fill="white"/>
<path d="M8.79465 9.81256C8.71945 9.84096 8.64254 9.85428 8.56734 9.85428C8.30652 9.85428 8.0616 9.69508 7.96406 9.43689L7.56789 8.38561H6.21352L6.21309 7.09466H7.08148L6.21738 4.8015L6.2118 4.81568L6.21094 2.58191H6.21867H6.21953C6.53664 2.58191 6.81981 2.77166 6.94055 3.06557C6.94313 3.07158 6.94527 3.0776 6.94785 3.08366L9.1702 8.98073C9.29566 9.31425 9.12766 9.68688 8.79465 9.81256Z" fill="white"/>
<path d="M22 11.8385V19.7254C22 20.9797 20.9812 22 19.7287 22H15.791V8.80087L16.9404 6.9432C17.0577 6.75345 17.2653 6.6377 17.4883 6.6377C17.7113 6.6377 17.9188 6.75345 18.0361 6.9432L19.6578 9.56382H19.7287C20.9812 9.56382 22 10.5841 22 11.8385Z" fill="#FF3A70"/>
<path d="M14.4311 13.7181C14.2665 13.8829 14.1785 14.1028 14.1832 14.3369C14.1926 14.7961 14.5867 15.1687 15.0619 15.1687H15.7911L16.5069 15.8142L15.7911 16.4596H15.0318C14.8054 16.4596 14.5918 16.5483 14.4311 16.7088C14.2665 16.874 14.1785 17.0939 14.1832 17.3271C14.1926 17.7863 14.5867 18.1594 15.0619 18.1594H15.7911L16.5069 18.8184L15.7911 19.4503H15.0619C13.8901 19.4503 12.9178 18.5101 12.8945 17.3543C12.8821 16.7716 13.1008 16.2225 13.5094 15.8064C13.1395 15.4303 12.9057 14.9225 12.8945 14.3635C12.8821 13.7753 13.1042 13.2215 13.5202 12.8045C13.9249 12.4004 14.4616 12.178 15.0314 12.178H15.7507C15.7644 12.178 15.7778 12.178 15.7911 12.1788L16.5069 13.1514L15.7911 13.4715C15.7778 13.4698 15.7644 13.4689 15.7507 13.4689H15.0314C14.8054 13.4689 14.5918 13.5576 14.4311 13.7181Z" fill="white"/>
<path d="M17.2227 15.8142C17.2227 15.9923 17.1505 16.1537 17.0341 16.2703C16.9177 16.3874 16.7561 16.4597 16.5782 16.4597H15.791V15.1687H16.5782C16.9344 15.1687 17.2227 15.4579 17.2227 15.8142Z" fill="white"/>
<path d="M16.8975 14.086C16.5623 14.2065 16.1932 14.0313 16.0733 13.6957C16.0295 13.5731 15.9186 13.4866 15.791 13.4715V12.1788C16.4622 12.1952 17.0603 12.6259 17.2868 13.2607C17.4071 13.5963 17.2326 13.9659 16.8975 14.086Z" fill="white"/>
<path d="M18.6394 18.1254C18.3081 18.93 17.5325 19.4503 16.6629 19.4503H15.791V18.1593H16.6629C17.0079 18.1593 17.316 17.9528 17.4475 17.6335C17.5832 17.3039 17.9596 17.1468 18.2888 17.2824C18.6179 17.4183 18.7752 17.7957 18.6394 18.1254Z" fill="white"/>
</g>
<defs>
<clipPath id="clip0_366_26180">
<rect width="22" height="22" fill="white"/>
</clipPath>
</defs>
</svg>
