<svg width="7" height="9" viewBox="0 0 7 9" fill="none" xmlns="http://www.w3.org/2000/svg">
<path d="M3.30491 8.5C2.70858 7.99134 2.15584 7.4337 1.65246 6.83291C0.897048 5.93067 4.14952e-07 4.58699 4.14952e-07 3.30657C-0.000327195 2.65265 0.193342 2.01333 0.556497 1.46952C0.919652 0.925713 1.43597 0.501859 2.04011 0.251602C2.64424 0.00134402 3.30904 -0.064068 3.95037 0.0636439C4.59169 0.191356 5.18072 0.506451 5.6429 0.969052C5.95061 1.2754 6.19451 1.63973 6.36048 2.04096C6.52646 2.4422 6.6112 2.87236 6.60982 3.30657C6.60982 4.58699 5.71277 5.93067 4.95737 6.83291C4.45398 7.4337 3.90124 7.99134 3.30491 8.5ZM3.30491 1.89018C2.92926 1.89018 2.569 2.0394 2.30337 2.30503C2.03775 2.57065 1.88852 2.93092 1.88852 3.30657C1.88852 3.68222 2.03775 4.04248 2.30337 4.30811C2.569 4.57373 2.92926 4.72296 3.30491 4.72296C3.68056 4.72296 4.04083 4.57373 4.30645 4.30811C4.57207 4.04248 4.7213 3.68222 4.7213 3.30657C4.7213 2.93092 4.57207 2.57065 4.30645 2.30503C4.04083 2.0394 3.68056 1.89018 3.30491 1.89018Z" fill="#048372"/>
</svg>
