<svg width="24" height="24" viewBox="0 0 24 24" fill="none" xmlns="http://www.w3.org/2000/svg">
<path d="M19.6428 10.0547C19.4512 10.0547 19.2634 9.97632 19.1279 9.83038L16.3152 6.80695C16.1942 6.67694 16.127 6.50574 16.127 6.32812V3C16.127 2.61163 16.4417 2.29688 16.8301 2.29688H19.6426C20.0309 2.29688 20.3457 2.61163 20.3457 3V9.35156C20.3457 9.6405 20.1688 9.90015 19.8998 10.006C19.8163 10.0388 19.7292 10.0547 19.6428 10.0547Z" fill="#00215A"/>
<path d="M19.6416 23.2969H4.17285C3.78467 23.2969 3.46973 22.9821 3.46973 22.5938V8.76379C3.46973 8.57501 3.54572 8.3941 3.6803 8.2619L11.5095 0.576417C11.7836 0.307252 12.2231 0.307984 12.4963 0.577882L20.1358 8.12476C20.2695 8.25696 20.3447 8.43713 20.3447 8.625V22.5938C20.3447 22.9821 20.03 23.2969 19.6416 23.2969Z" fill="#F6EFEA"/>
<path d="M20.1357 8.12482L12.4962 0.577945C12.3587 0.442264 12.1793 0.374698 12 0.375247V23.2969H19.6415C20.0299 23.2969 20.3447 22.9822 20.3447 22.5938V8.62506C20.3447 8.4372 20.2694 8.25702 20.1357 8.12482Z" fill="#EEE1DC"/>
<path d="M21.8438 24H2.15625C1.76788 24 1.45312 23.6852 1.45312 23.2969C1.45312 22.9085 1.76788 22.5938 2.15625 22.5938H21.8438C22.2321 22.5938 22.5469 22.9085 22.5469 23.2969C22.5469 23.6852 22.2321 24 21.8438 24Z" fill="#0040A0"/>
<path d="M21.8438 11.25C21.6638 11.25 21.4839 11.1813 21.3466 11.044L12 1.69757L2.65338 11.044C2.37891 11.3187 1.93378 11.3187 1.65912 11.044C1.38446 10.7695 1.38446 10.3244 1.65912 10.0497L11.5029 0.205994C11.6347 0.0741577 11.8136 0 12 0C12.1866 0 12.3655 0.0741577 12.4971 0.205994L22.3409 10.0497C22.6155 10.3244 22.6155 10.7695 22.3409 11.044C22.2037 11.1813 22.0237 11.25 21.8438 11.25Z" fill="#27D8F6"/>
<path d="M22.3409 10.0497L12.4971 0.205994C12.3655 0.0741577 12.1866 0 12 0V1.69757L21.3466 11.044C21.4839 11.1813 21.6638 11.25 21.8438 11.25C22.0237 11.25 22.2037 11.1813 22.3409 11.044C22.6155 10.7695 22.6155 10.3244 22.3409 10.0497Z" fill="#00AADF"/>
<path d="M21.8438 22.5938H12V24H21.8438C22.2321 24 22.5469 23.6852 22.5469 23.2969C22.5469 22.9085 22.2321 22.5938 21.8438 22.5938Z" fill="#00215A"/>
<path d="M11.9072 21.1875C10.438 21.1875 9.15314 19.309 8.51794 18.1893C7.58704 16.5482 6.98535 14.6889 6.98535 13.4531C6.98535 10.7391 9.19342 8.53125 11.9072 8.53125C14.6212 8.53125 16.8291 10.7391 16.8291 13.4531C16.8291 14.6891 16.2276 16.5482 15.2965 18.1893C14.6615 19.309 13.3765 21.1875 11.9072 21.1875Z" fill="#FF0059"/>
<path d="M12 8.53223V21.1846C13.4304 21.1081 14.6748 19.2853 15.2964 18.1892C16.2275 16.548 16.829 14.6888 16.829 13.453C16.829 10.7701 14.6713 8.58203 12 8.53223Z" fill="#D20041"/>
<path d="M11.9072 14.8594C11.132 14.8594 10.501 14.2286 10.501 13.4531C10.501 12.6777 11.132 12.0469 11.9072 12.0469C12.6827 12.0469 13.3135 12.6777 13.3135 13.4531C13.3135 14.2286 12.6827 14.8594 11.9072 14.8594Z" fill="#FDF6C8"/>
<path d="M12 12.05V14.8558C12.7322 14.8078 13.3134 14.1971 13.3134 13.453C13.3134 12.7089 12.7322 12.0982 12 12.05Z" fill="#FFE898"/>
</svg>
