<svg width="20" height="20" viewBox="0 0 20 20" fill="none" xmlns="http://www.w3.org/2000/svg">
<g clip-path="url(#clip0_366_26123)">
<path d="M11.6666 10.8333C10.2882 10.8333 9.16658 9.71167 9.16658 8.33333C9.16658 6.955 10.2882 5.83333 11.6666 5.83333H13.3332V5V2.5C13.3332 1.12167 12.2116 0 10.8332 0H1.87492C1.60075 0 1.34408 0.135 1.18825 0.360833C1.03325 0.586667 0.998249 0.874167 1.09658 1.13L7.13825 16.9633C7.26075 17.2867 7.57075 17.5 7.91658 17.5H10.8332C12.2116 17.5 13.3332 16.3783 13.3332 15V11.6667V10.8333H11.6666Z" fill="#FF0000"/>
<path d="M15.5143 12.4367C15.2035 12.3075 15.0002 12.0033 15.0002 11.6667V9.16666H11.6668C11.2068 9.16666 10.8335 8.79333 10.8335 8.33333C10.8335 7.87333 11.2068 7.49999 11.6668 7.49999H15.0002V4.99999C15.0002 4.66333 15.2035 4.35916 15.5143 4.22999C15.826 4.10083 16.1843 4.17249 16.4227 4.41083L19.756 7.74416C20.0818 8.06999 20.0818 8.59666 19.756 8.92249L16.4227 12.2558C16.1843 12.4942 15.826 12.5658 15.5143 12.4367Z" fill="#393939"/>
<path d="M7.205 1.7517L2.1975 0.0825318C1.0675 -0.264968 0 0.569198 0 1.6667V16.6667C0 17.3792 0.453333 18.015 1.12833 18.2484L6.135 19.9175C6.31917 19.9742 6.48833 20 6.66667 20C7.58583 20 8.33333 19.2525 8.33333 18.3334V3.33336C8.33333 2.62087 7.88 1.98503 7.205 1.7517Z" fill="#A71212"/>
</g>
<defs>
<clipPath id="clip0_366_26123">
<rect width="20" height="20" fill="white"/>
</clipPath>
</defs>
</svg>
