<svg width="18" height="16" viewBox="0 0 18 16" fill="none" xmlns="http://www.w3.org/2000/svg">
<path fill-rule="evenodd" clip-rule="evenodd" d="M9.00041 2.60939e-05C11.4641 2.60939e-05 13.7003 0.761837 15.3236 1.99217C16.9769 3.24592 18 4.9864 18 6.91547C18 10.9846 12.6181 14.4715 9.14386 15.929C8.8479 16.0533 8.5174 16.0162 8.26801 15.8032L8.26726 15.8039C8.01412 15.5871 7.91498 15.2551 8.00735 14.9322L8.33035 13.8119C6.09723 13.686 4.08852 12.9349 2.60804 11.7887C-0.898266 9.07118 -0.863076 4.67628 2.67715 1.99214C4.30038 0.761113 6.53653 2.60939e-05 9.00041 2.60939e-05ZM5.06067 5.81558C4.45824 5.81558 3.96999 6.3083 3.96999 6.91623C3.96999 7.52416 4.45824 8.01688 5.06067 8.01688C5.66309 8.01688 6.15134 7.52416 6.15134 6.91623C6.15134 6.3083 5.66234 5.81558 5.06067 5.81558ZM12.9396 5.81558C12.3371 5.81558 11.8489 6.3083 11.8489 6.91623C11.8489 7.52416 12.3371 8.01688 12.9396 8.01688C13.542 8.01688 14.0302 7.52416 14.0302 6.91623C14.0302 6.3083 13.542 5.81558 12.9396 5.81558ZM9.0006 5.81558C8.39818 5.81558 7.90992 6.3083 7.90992 6.91623C7.90992 7.52416 8.39818 8.01688 9.0006 8.01688C9.60302 8.01688 10.0913 7.52416 10.0913 6.91623C10.0913 6.3083 9.60302 5.81558 9.0006 5.81558ZM14.8821 2.58558C11.6439 0.131206 6.35654 0.130429 3.1183 2.58558C-0.023804 4.96796 -0.0620709 8.78245 3.05595 11.1974C4.5222 12.333 6.55553 13.0493 8.81422 13.0864C9.06436 13.0879 9.23637 13.326 9.16878 13.5609L8.71357 15.1937C8.71808 15.2089 8.72785 15.224 8.74287 15.2362L8.74212 15.2369L8.8608 15.2422C11.1278 14.2909 13.4061 12.8742 15.0233 11.249C16.3769 9.88838 17.261 8.38984 17.261 6.91621C17.261 5.23189 16.3521 3.70061 14.8821 2.58558Z" fill="#979797"/>
</svg>
