<svg width="34" height="28" viewBox="0 0 34 28" fill="none" xmlns="http://www.w3.org/2000/svg">
<path d="M32.9347 0.343852C32.8711 0.253681 32.7889 0.177271 32.6931 0.119475C32.5974 0.0616789 32.4903 0.0237587 32.3786 0.00812266C32.2669 -0.00751339 32.1531 -0.00052371 32.0443 0.0286477C31.9355 0.0578191 31.8342 0.108535 31.7468 0.177575C22.8115 7.28373 14.5558 15.8175 11.7628 21.0774L4.52935 13.1567C4.24128 12.8412 3.83567 12.649 3.40133 12.6221C2.96698 12.5952 2.53929 12.7357 2.21191 13.013L0.561123 14.411C0.238767 14.684 0.0393214 15.0679 0.00522045 15.4809C-0.0288805 15.8939 0.105054 16.3034 0.37853 16.6224L9.65996 27.4485C9.80789 27.621 9.99337 27.7599 10.2032 27.8553C10.413 27.9506 10.6419 28 10.8738 28H13.1224C13.4117 27.9989 13.6951 27.9213 13.9419 27.7755C14.1887 27.6297 14.3895 27.4214 14.5225 27.1731C20.4316 16.2039 25.7551 9.99501 33.7443 2.66824C33.8849 2.53994 33.9737 2.36755 33.995 2.18181C34.0163 1.99607 33.9687 1.80905 33.8606 1.6541L32.9347 0.343852Z" fill="#4CD964"/>
</svg>
