<svg width="20" height="21" viewBox="0 0 20 21" fill="none" xmlns="http://www.w3.org/2000/svg">
<path d="M6.38965 16.8008H13.6107V17.2452C13.6107 19.2386 11.9958 20.8536 10.0024 20.8536C8.00901 20.8536 6.39405 19.2386 6.39405 17.2452L6.38965 16.8008Z" fill="#FFBB17"/>
<path d="M9.99777 17.7116H18.9746C19.5379 17.7116 19.9955 17.2539 19.9955 16.6907V15.2473C19.9955 14.8909 19.8591 14.5433 19.6083 14.2881L18.0329 12.6379C17.7425 12.3343 17.5841 11.9338 17.5841 11.5158V7.59061C17.5841 3.4014 14.187 0.00427246 9.99777 0.00427246C5.80856 0.00427246 2.41143 3.4014 2.41143 7.59061V11.5158C2.41143 11.9338 2.24862 12.3343 1.96259 12.6379L0.387237 14.2881C0.136413 14.5433 0 14.8865 0 15.2473V16.6907C0 17.2539 0.457644 17.7116 1.0209 17.7116H9.99777Z" fill="#FFDD00"/>
<path d="M13.6103 16.8008V17.2452C13.6103 19.2386 11.9953 20.8536 10.002 20.8536V16.8008H13.6103Z" fill="#FF8848"/>
<path d="M19.9997 15.2475V16.6908C19.9997 17.2541 19.5421 17.7117 18.9788 17.7117H10.002V0C14.1912 0 17.5883 3.39713 17.5883 7.58633V11.5115C17.5883 11.9296 17.7511 12.3344 18.0371 12.6336L19.6125 14.2838C19.8589 14.5434 19.9997 14.8866 19.9997 15.2475Z" fill="#FFBB17"/>
</svg>
