<svg width="24" height="24" viewBox="0 0 24 24" fill="none" xmlns="http://www.w3.org/2000/svg">
<g clip-path="url(#clip0_366_26982)">
<path fill-rule="evenodd" clip-rule="evenodd" d="M7.86502 4.0757C8.32444 4.33253 8.90185 4.55922 9.59724 4.75558C10.1557 4.91326 10.7865 5.05005 11.4898 5.16583C11.2718 4.58411 11.0298 4.07833 10.7825 3.63316C10.4565 3.04637 10.1176 2.56051 9.81146 2.14412C9.01139 1.0562 8.20214 0.696155 7.57219 0.770265C7.24932 0.80828 6.97243 0.963296 6.77377 1.19064C6.57108 1.42258 6.44785 1.73003 6.43688 2.06734C6.41569 2.71773 6.81192 3.47945 7.84632 4.06431C7.85269 4.06797 7.85892 4.07176 7.86502 4.0757ZM16.6357 4.72506C16.1174 5.01944 15.4772 5.27364 14.7156 5.48842C13.9695 5.69884 13.1022 5.87284 12.1141 6.01108C12.0956 6.01403 12.0768 6.01567 12.0577 6.01586H12.0572H12.0498H12.0493C12.0302 6.01567 12.0113 6.01403 11.9928 6.01108C11.0048 5.87284 10.1378 5.69837 9.39188 5.48772C8.64253 5.27612 8.00972 5.02572 7.49344 4.73664C7.48599 4.73303 7.47863 4.72919 7.47132 4.72506C6.15192 3.97905 5.64853 2.94733 5.67797 2.04358C5.6948 1.52659 5.88661 1.05194 6.20236 0.690671C6.5221 0.324811 6.96722 0.0753896 7.48594 0.0143583C8.35889 -0.0883448 9.43453 0.348483 10.4246 1.69478C10.7434 2.12837 11.0979 2.63711 11.4463 3.2642C11.6526 3.63564 11.8555 4.04716 12.0457 4.50686C12.2257 4.03764 12.4142 3.61394 12.6112 3.23575C12.9506 2.58395 13.3197 2.05637 13.7182 1.65311C14.6484 0.711858 15.7145 0.571843 16.5474 0.866265C16.9486 1.00806 17.2956 1.25186 17.5488 1.55744C17.809 1.87136 17.9717 2.25208 17.9965 2.65844C18.0399 3.37206 17.661 4.14273 16.6357 4.72506ZM14.5103 4.75628C15.2138 4.55786 15.7975 4.32742 16.2607 4.06436C16.9916 3.64923 17.2646 3.14791 17.2375 2.70306C17.2231 2.46489 17.123 2.23614 16.9625 2.0425C16.7951 1.84051 16.5637 1.67866 16.2944 1.5835C15.7101 1.37697 14.9478 1.48975 14.2598 2.18584C13.9168 2.53291 13.5924 2.99997 13.2868 3.58694C13.0475 4.04645 12.8222 4.57319 12.6112 5.16695C13.317 5.05103 13.9501 4.91425 14.5103 4.75628Z" fill="#048372"/>
<path fill-rule="evenodd" clip-rule="evenodd" d="M2.34277 9.34229H21.6566V22.2748C21.6566 23.2236 20.8803 23.9998 19.9315 23.9998H4.06782C3.11912 23.9998 2.34282 23.2236 2.34282 22.2748L2.34277 9.34229Z" fill="#FFC107"/>
<path fill-rule="evenodd" clip-rule="evenodd" d="M12 9.34229H21.6569V22.2748C21.6569 23.2236 20.8806 23.9998 19.9318 23.9998H12V9.34229Z" fill="#FFA000"/>
<path fill-rule="evenodd" clip-rule="evenodd" d="M1.10295 10.1995H22.8972C23.3991 10.1995 23.8098 9.78892 23.8098 9.28703V6.5485C23.8098 6.04661 23.3991 5.63599 22.8972 5.63599H1.10295C0.601055 5.63599 0.19043 6.04661 0.19043 6.5485V9.28703C0.190383 9.78888 0.601055 10.1995 1.10295 10.1995Z" fill="#FFD944"/>
<path fill-rule="evenodd" clip-rule="evenodd" d="M12 10.1995H22.8971C23.399 10.1995 23.8096 9.78892 23.8096 9.28703V6.5485C23.8096 6.04661 23.399 5.63599 22.8971 5.63599H12V10.1995Z" fill="#FFC107"/>
<path fill-rule="evenodd" clip-rule="evenodd" d="M13.5809 5.46606V23.9997H12.819V5.46606H13.5809ZM11.1809 5.48397V23.9998H10.4189V5.48397H11.1809Z" fill="#048372"/>
<path d="M22.1283 22.3224C24.3639 20.0867 24.3639 16.4621 22.1283 14.2265C19.8926 11.9908 16.268 11.9908 14.0323 14.2265C11.7967 16.4621 11.7967 20.0867 14.0323 22.3224C16.268 24.558 19.8926 24.558 22.1283 22.3224Z" fill="#FFD944"/>
<path fill-rule="evenodd" clip-rule="evenodd" d="M18.084 12.5488C21.2461 12.5488 23.8095 15.1122 23.8095 18.2744C23.8095 21.4365 21.2461 23.9999 18.084 23.9999V12.5488Z" fill="#FFC107"/>
<path fill-rule="evenodd" clip-rule="evenodd" d="M19.92 15.0484C20.0509 14.8666 20.3044 14.8253 20.4862 14.9562C20.668 15.0871 20.7093 15.3406 20.5784 15.5224L16.2517 21.5449C16.1208 21.7268 15.8673 21.7681 15.6855 21.6372C15.5037 21.5063 15.4624 21.2528 15.5933 21.071L19.92 15.0484ZM19.8029 18.8989C19.4069 18.8989 19.0483 19.0595 18.7887 19.3191C18.5291 19.5787 18.3686 19.9373 18.3686 20.3334C18.3686 20.7294 18.5291 21.088 18.7887 21.3476C19.0483 21.6072 19.4069 21.7677 19.803 21.7677C20.1991 21.7677 20.5577 21.6072 20.8173 21.3476C21.0769 21.088 21.2374 20.7294 21.2374 20.3333C21.2374 19.9372 21.0769 19.5786 20.8173 19.319C20.5576 19.0595 20.199 18.8989 19.8029 18.8989ZM20.2415 19.8948C20.1293 19.7826 19.9743 19.7132 19.803 19.7132C19.6317 19.7132 19.4766 19.7826 19.3645 19.8948C19.2523 20.007 19.1829 20.162 19.1829 20.3333C19.1829 20.5046 19.2523 20.6597 19.3645 20.7718C19.4766 20.884 19.6317 20.9534 19.803 20.9534C19.9743 20.9534 20.1293 20.884 20.2415 20.7718C20.3537 20.6597 20.4231 20.5046 20.4231 20.3333C20.4231 20.162 20.3537 20.007 20.2415 19.8948ZM16.3651 14.7812C15.969 14.7812 15.6104 14.9418 15.3508 15.2014C15.0912 15.461 14.9307 15.8196 14.9307 16.2157C14.9307 16.6117 15.0912 16.9704 15.3508 17.2299C15.6104 17.4895 15.969 17.65 16.3651 17.65C16.7612 17.65 17.1198 17.4895 17.3793 17.2299C17.6389 16.9704 17.7995 16.6117 17.7995 16.2157C17.7995 15.8196 17.6389 15.461 17.3793 15.2014C17.1198 14.9418 16.7612 14.7812 16.3651 14.7812ZM16.8036 15.7772C16.6914 15.665 16.5364 15.5956 16.3651 15.5956C16.1938 15.5956 16.0387 15.6649 15.9266 15.7772C15.8144 15.8893 15.745 16.0444 15.745 16.2157C15.745 16.387 15.8144 16.542 15.9266 16.6542C16.0387 16.7664 16.1938 16.8358 16.3651 16.8358C16.5364 16.8358 16.6914 16.7664 16.8036 16.6542C16.9158 16.542 16.9852 16.387 16.9852 16.2157C16.9852 16.0444 16.9158 15.8893 16.8036 15.7772Z" fill="#4B5055"/>
<path fill-rule="evenodd" clip-rule="evenodd" d="M19.9199 15.0483C20.0508 14.8665 20.3043 14.8252 20.4861 14.9561C20.668 15.087 20.7093 15.3405 20.5784 15.5223L18.084 18.9943V17.6039L19.9199 15.0483ZM19.8029 18.8988C19.4068 18.8988 19.0482 19.0594 18.7887 19.319C18.5291 19.5786 18.3685 19.9372 18.3685 20.3333C18.3685 20.7293 18.5291 21.0879 18.7887 21.3475C19.0483 21.6071 19.4068 21.7676 19.8029 21.7676C20.199 21.7676 20.5576 21.6071 20.8172 21.3475C21.0768 21.0879 21.2374 20.7293 21.2374 20.3332C21.2374 19.9371 21.0768 19.5785 20.8172 19.3189C20.5576 19.0594 20.199 18.8988 19.8029 18.8988ZM20.2415 19.8947C20.3536 20.0069 20.423 20.1619 20.423 20.3332C20.423 20.5045 20.3536 20.6596 20.2415 20.7717C20.1293 20.8839 19.9742 20.9533 19.8029 20.9533C19.6317 20.9533 19.4766 20.8839 19.3644 20.7717C19.2523 20.6596 19.1828 20.5045 19.1828 20.3332C19.1828 20.1619 19.2523 20.0069 19.3644 19.8947C19.4766 19.7825 19.6317 19.7131 19.8029 19.7131C19.9742 19.7131 20.1292 19.7825 20.2415 19.8947Z" fill="#373C41"/>
</g>
<defs>
<clipPath id="clip0_366_26982">
<rect width="24" height="24" fill="white"/>
</clipPath>
</defs>
</svg>
