<svg width="18" height="18" viewBox="0 0 18 18" fill="none" xmlns="http://www.w3.org/2000/svg">
<path d="M7.30694 11.3731C7.30694 11.7956 7.05202 12.1758 6.66306 12.3375C6.27265 12.4991 5.82399 12.4103 5.52536 12.1117C5.22673 11.813 5.13786 11.3644 5.29957 10.974C5.46126 10.5836 5.84146 10.3301 6.2639 10.3301C6.83932 10.3301 7.30549 10.7977 7.30694 11.3731Z" fill="#DCDCDC"/>
<path d="M10.4504 6.14385C10.4504 7.53503 12.5364 7.53503 12.5364 6.14385C12.5364 4.75413 10.4504 4.75413 10.4504 6.14385Z" fill="#DCDCDC"/>
<path d="M8.87836 1.31802C9.58486 1.31948 10.252 0.993173 10.6847 0.433791C10.9833 0.0492359 11.4976 -0.0993724 11.9549 0.0681542C12.4138 0.234219 12.7124 0.678511 12.6935 1.16506C12.6673 1.87156 12.9688 2.55038 13.5093 3.00344C14.0512 3.45795 14.7708 3.63711 15.4613 3.48853C15.9376 3.38656 16.4271 3.60216 16.6704 4.02461C16.9136 4.44705 16.8583 4.97876 16.5305 5.34C16.0571 5.86295 15.8517 6.57676 15.974 7.27162C16.0964 7.96793 16.5334 8.56811 17.1584 8.89732C17.5881 9.12603 17.8241 9.60527 17.7381 10.086C17.6537 10.5667 17.2691 10.9367 16.7869 11.0037C16.0862 11.0999 15.4715 11.515 15.1175 12.1268C14.765 12.7387 14.714 13.4787 14.9806 14.1327C15.1626 14.5843 15.0345 15.1029 14.6615 15.4161C14.2872 15.7293 13.7555 15.7672 13.3417 15.5079C12.743 15.132 12.0059 15.0534 11.3417 15.2952C10.6774 15.537 10.1632 16.0716 9.94612 16.7432C9.79608 17.2079 9.36489 17.5225 8.87688 17.5225C8.38888 17.5225 7.95771 17.2078 7.80765 16.7432C7.5906 16.0716 7.07639 15.537 6.41211 15.2952C5.74932 15.0548 5.01075 15.1335 4.41203 15.5079C3.99977 15.7672 3.46661 15.7308 3.09369 15.4176C2.72077 15.1029 2.5911 14.5843 2.77466 14.1327C3.04124 13.4787 2.99026 12.7387 2.63628 12.1268C2.28375 11.5165 1.669 11.1013 0.968323 11.0037C0.486137 10.9367 0.101582 10.5667 0.0170784 10.086C-0.0674114 9.60673 0.167118 9.12603 0.59831 8.89878C1.22179 8.5681 1.65882 7.96793 1.77972 7.27162C1.90208 6.57676 1.69668 5.86299 1.22179 5.34C0.895489 4.97728 0.840149 4.44705 1.08486 4.02461C1.32813 3.60362 1.81757 3.38658 2.29394 3.48999C2.98444 3.63858 3.70403 3.4594 4.24595 3.0049C4.78639 2.55187 5.08793 1.87301 5.06171 1.16797C5.04278 0.679966 5.3414 0.237124 5.80028 0.0696085C6.2577 -0.0964563 6.77192 0.0506711 7.07201 0.435245L7.53234 0.0783498L7.07201 0.436703C7.50318 0.994628 8.17183 1.32093 8.87836 1.31802ZM13.7017 6.14401C13.7017 5.25105 13.1627 4.44547 12.3382 4.10458C11.5123 3.76226 10.5625 3.95163 9.93175 4.58237C9.29954 5.21458 9.11162 6.16437 9.45247 6.99031C9.7948 7.8148 10.6004 8.35232 11.4933 8.35232C12.7126 8.35087 13.7002 7.3633 13.7017 6.14401ZM4.0539 11.3738C4.0539 12.2668 4.59288 13.0723 5.41737 13.4147C6.24331 13.757 7.1931 13.5676 7.82531 12.9369C8.45752 12.3047 8.64544 11.3549 8.30459 10.5289C7.96226 9.70446 7.1567 9.16548 6.26371 9.16548C5.04445 9.16693 4.05536 10.1545 4.0539 11.3738ZM6.20255 5.12143C5.97967 4.88981 5.61114 4.88398 5.37952 5.10686C5.1479 5.32974 5.14062 5.69973 5.36495 5.93135L11.5532 12.3467C11.7761 12.5783 12.146 12.5856 12.3777 12.3612C12.6093 12.1384 12.6151 11.7684 12.3922 11.5368L6.20255 5.12143Z" fill="#DCDCDC"/>
</svg>
