<svg width="27" height="16" viewBox="0 0 27 16" fill="none" xmlns="http://www.w3.org/2000/svg">
<path fill-rule="evenodd" clip-rule="evenodd" d="M1.4867 0H24.6371C25.4159 0 26.1238 0.707975 26.1238 1.4867V9.69906C25.6282 9.48668 25.1326 9.41586 24.6371 9.41586C22.3008 9.41586 20.3893 11.2566 20.3893 13.5928C20.3893 14.5132 20.6725 15.2919 21.1681 15.9999H1.4867C0.707909 15.9999 0 15.2919 0 14.4424V1.4867C0 0.707975 0.707909 0 1.4867 0ZM18.6902 13.0265C18.9734 13.0265 19.115 13.2389 19.115 13.5221C19.115 13.8053 18.9734 13.9468 18.6902 13.9468C18.407 13.9468 18.1946 13.8053 18.1946 13.5221C18.1946 13.2389 18.407 13.0265 18.6902 13.0265ZM15.292 13.0973H17.2034C17.8406 13.0973 17.8406 14.0177 17.2034 14.0177H15.292C14.6548 14.0177 14.6548 13.0973 15.292 13.0973ZM15.292 11.2566H19.823C20.3893 11.2566 20.3893 12.1769 19.823 12.1769H15.292C14.6548 12.1769 14.6548 11.2566 15.292 11.2566ZM15.292 9.41593H20.8849C21.522 9.41593 21.522 10.3363 20.8849 10.3363H15.292C14.6548 10.3363 14.6548 9.41593 15.292 9.41593ZM2.76102 12.2478H6.93798C7.57514 12.2478 7.57514 13.1681 6.93798 13.1681H2.76102C2.12386 13.1681 2.12386 12.2478 2.76102 12.2478ZM1.69909 10.407H7.99998C8.63713 10.407 8.63713 11.3274 7.99998 11.3274H1.69909C1.06193 11.3274 1.06193 10.407 1.69909 10.407ZM16.3539 1.98229H23.7167C24.4954 1.98229 25.2034 2.61945 25.2034 3.46899V6.01769C25.2034 6.86723 24.4954 7.5752 23.7167 7.5752H16.3539C15.5752 7.5752 14.8672 6.86723 14.8672 6.01769V3.46899C14.8672 2.61945 15.5752 1.98229 16.3539 1.98229ZM4.81412 0.92036C6.93798 0.92036 8.70795 2.61945 8.70795 4.74337C8.70795 6.86729 6.93805 8.6372 4.81412 8.6372C2.6902 8.6372 0.991112 6.86729 0.991112 4.74337C0.991112 2.61945 2.69026 0.92036 4.81412 0.92036Z" fill="#FF3A70"/>
<path fill-rule="evenodd" clip-rule="evenodd" d="M4.81427 5.23894C5.80545 5.23894 6.65499 5.94691 6.79656 6.93802C7.43372 6.37168 7.78774 5.59289 7.78774 4.74335C7.78774 3.18583 6.44261 1.8407 4.81427 1.8407C3.25675 1.8407 1.91162 3.18583 1.91162 4.74335C1.91162 5.59289 2.26558 6.37168 2.83198 6.93802C3.04437 5.94691 3.82309 5.23894 4.81427 5.23894C4.24793 5.23894 3.75234 4.74335 3.75234 4.10619C3.75234 3.53985 4.24793 3.04426 4.81427 3.04426C5.45143 3.04426 5.94702 3.53985 5.94702 4.10619C5.94702 4.74341 5.45143 5.23894 4.81427 5.23894Z" fill="#FFB300"/>
<path fill-rule="evenodd" clip-rule="evenodd" d="M16.3539 2.90283H23.7168C24 2.90283 24.2831 3.18603 24.2831 3.46917V6.01787C24.2831 6.37182 23.9999 6.65503 23.7168 6.65503H16.3539C16.0707 6.65503 15.7876 6.37182 15.7876 6.01787V3.46917C15.7876 3.18603 16.0707 2.90283 16.3539 2.90283Z" fill="#FFB300"/>
<path d="M21.6551 9.56151L26.0596 9.19446V15.9848H19.8198L20.1869 12.8649L21.6551 9.56151Z" fill="#FF3A70"/>
</svg>
