<svg width="24" height="24" viewBox="0 0 24 24" fill="none" xmlns="http://www.w3.org/2000/svg">
<g clip-path="url(#clip0_366_26100)">
<path d="M14.1094 24H9.89062V20.8859C8.94305 20.6606 8.03255 20.2837 7.20722 19.7755L5.03878 21.9433L2.05598 18.9605L4.22442 16.7927C3.70945 15.9626 3.33727 15.0638 3.11344 14.1094H0V9.89062H3.11344C3.33727 8.9362 3.70945 8.03737 4.22442 7.20722L2.05598 5.03948L5.03878 2.05669L7.20722 4.22442C8.03255 3.7163 8.94305 3.33933 9.89062 3.11409V0H14.1094V3.11414C15.057 3.33937 15.9675 3.71634 16.7928 4.22447L18.9612 2.05673L21.944 5.03953L19.7756 7.20727C20.2905 8.03742 20.6627 8.93625 20.8866 9.89067H24V14.1094H20.8866C20.6627 15.0638 20.2905 15.9627 19.7756 16.7928L21.944 18.9606L18.9612 21.9434L16.7928 19.7756C15.9675 20.2838 15.057 20.6607 14.1094 20.886V24Z" fill="#0C75DD"/>
<path d="M19.7756 7.20722L21.944 5.03948L18.9612 2.05669L16.7928 4.22442C15.9675 3.7163 15.057 3.33933 14.1094 3.11414V0H12V24H14.1094V20.8859C15.057 20.6606 15.9675 20.2837 16.7928 19.7755L18.9612 21.9433L21.944 18.9605L19.7756 16.7927C20.2905 15.9626 20.6627 15.0637 20.8866 14.1093H24V9.89058H20.8866C20.6627 8.9362 20.2905 8.03737 19.7756 7.20722Z" fill="#0C75DD"/>
<path d="M18.3281 12C18.3281 14.0953 17.3016 15.9516 15.7266 17.0906L12 16.2188L8.25942 17.0906C6.68433 15.9375 5.67188 14.0812 5.67188 12C5.67188 8.51245 8.51255 5.67188 12 5.67188C15.4875 5.67188 18.3281 8.51245 18.3281 12Z" fill="#FEC007"/>
<path d="M15.7266 17.0906C17.3016 15.9516 18.3281 14.0953 18.3281 12C18.3281 8.51245 15.4875 5.67188 12 5.67188V16.2188L15.7266 17.0906Z" fill="#FE8F07"/>
<path d="M12.0003 14.8125C10.3691 14.8125 8.94883 15.7406 8.25977 17.0906C9.30039 17.8781 10.5941 18.3281 12.0003 18.3281C13.3925 18.3281 14.6862 17.8781 15.727 17.0906C15.0378 15.7265 13.6176 14.8125 12.0003 14.8125Z" fill="#FFF1C9"/>
<path d="M15.7266 17.0906C15.0375 15.7265 13.6172 14.8125 12 14.8125V18.3281C13.3922 18.3281 14.6859 17.8781 15.7266 17.0906Z" fill="#FAD4A6"/>
<path d="M12 14.8125C10.4496 14.8125 9.1875 13.5511 9.1875 12C9.1875 10.4489 10.4496 9.1875 12 9.1875C13.5504 9.1875 14.8125 10.4489 14.8125 12C14.8125 13.5511 13.5504 14.8125 12 14.8125Z" fill="#FFF1C9"/>
<path d="M14.8125 12C14.8125 10.4489 13.5504 9.1875 12 9.1875V14.8125C13.5504 14.8125 14.8125 13.5511 14.8125 12Z" fill="#FAD4A6"/>
</g>
<defs>
<clipPath id="clip0_366_26100">
<rect width="24" height="24" fill="white"/>
</clipPath>
</defs>
</svg>
