<svg width="27" height="26" viewBox="0 0 27 26" fill="none" xmlns="http://www.w3.org/2000/svg">
<path fill-rule="evenodd" clip-rule="evenodd" d="M21.3816 7.50768C23.6006 8.16555 25.5137 9.82777 26.4397 12.1968C27.7376 15.5149 26.7039 19.2036 24.1326 21.3441C24.1314 21.3453 24.1301 21.3466 24.1289 21.3478C23.9748 21.4734 23.8843 21.6642 23.883 21.8663L23.861 25.3339C23.8598 25.6063 23.6971 25.8499 23.4512 25.9516C23.2053 26.0533 22.924 25.9917 22.7393 25.7959C22.7393 25.7959 21.1784 24.1437 20.3845 23.3138L20.3821 23.3101C20.2463 23.167 20.0542 23.0941 19.8609 23.1117C19.8585 23.1117 19.856 23.1117 19.8536 23.113C17.9208 23.2712 16.0112 22.6748 14.5005 21.4859C17.3262 20.3271 19.7042 18.0309 20.9265 14.906C21.8831 12.4591 21.987 9.87679 21.3815 7.5065L21.3816 7.50768ZM13.8696 20.3021C12.4029 20.8759 10.8077 21.1068 9.20415 20.9411C9.20171 20.9411 9.20048 20.9411 9.19804 20.9399C8.99987 20.9173 8.80171 20.9901 8.66226 21.1382L8.66103 21.1395C7.65674 22.1941 5.34596 24.6398 5.34596 24.6398C5.16125 24.8344 4.87989 24.8959 4.63403 24.7955C4.38815 24.6938 4.22667 24.4502 4.22423 24.1778L4.19365 19.2955C4.19243 19.0883 4.09823 18.895 3.93798 18.7682C3.93676 18.7669 3.93431 18.7657 3.93309 18.7644C0.433251 15.9648 -0.997876 11.0233 0.737952 6.58645C2.84074 1.21176 8.79923 -1.40087 14.0374 0.757303C17.1078 2.0228 19.2521 4.64683 20.0779 7.68498C20.6614 9.83055 20.5868 12.1807 19.717 14.4054C18.6124 17.2301 16.4411 19.2928 13.8698 20.2997L13.8696 20.3021ZM5.06328 9.04074C4.16296 9.04074 3.43268 9.79148 3.43268 10.7142C3.43268 11.6383 4.16418 12.389 5.06328 12.389C5.96361 12.389 6.69511 11.6383 6.69511 10.7142C6.69511 9.79023 5.96361 9.04074 5.06328 9.04074ZM14.8494 9.04074C13.9491 9.04074 13.2188 9.79148 13.2188 10.7142C13.2188 11.6383 13.9503 12.389 14.8494 12.389C15.7498 12.389 16.4813 11.6383 16.4813 10.7142C16.4813 9.79023 15.7498 9.04074 14.8494 9.04074ZM9.95636 9.04074C9.05603 9.04074 8.32575 9.79148 8.32575 10.7142C8.32575 11.6383 9.05725 12.389 9.95636 12.389C10.8567 12.389 11.5882 11.6383 11.5882 10.7142C11.5882 9.79023 10.8567 9.04074 9.95636 9.04074Z" fill="white"/>
</svg>
