<svg width="172" height="172" viewBox="0 0 172 172" fill="none" xmlns="http://www.w3.org/2000/svg">
<path d="M21.8062 128.795C20.2805 128.795 18.8374 128.671 17.4769 128.425C16.1147 128.179 14.9537 127.834 13.9922 127.387V121.931C15.0483 122.423 16.2213 122.823 17.513 123.128C18.803 123.432 20.0122 123.585 21.1388 123.585C22.2654 123.585 23.1976 123.486 23.7962 123.286C24.3948 123.087 24.694 122.634 24.694 121.931C24.694 121.439 24.5238 121.05 24.1832 120.77C23.8426 120.488 23.3146 120.23 22.5991 119.996C21.8836 119.762 20.9496 119.468 19.8006 119.115C18.275 118.623 17.0658 118.083 16.1749 117.495C15.2822 116.908 14.6441 116.193 14.2571 115.348C13.8701 114.504 13.6757 113.472 13.6757 112.251C13.6757 110.021 14.4686 108.325 16.0528 107.164C17.6369 106.003 19.9898 105.422 23.1116 105.422C24.3552 105.422 25.64 105.527 26.9662 105.739C28.2923 105.95 29.3656 106.184 30.1877 106.442V111.934C29.0835 111.489 28.0274 111.172 27.0195 110.983C26.0098 110.795 25.0604 110.701 24.1677 110.701C23.134 110.701 22.2551 110.783 21.5275 110.947C20.8 111.112 20.4353 111.533 20.4353 112.214C20.4353 112.801 20.7466 113.229 21.3676 113.499C21.9885 113.769 23.0979 114.115 24.694 114.538C26.5482 115.03 27.962 115.63 28.9356 116.334C29.9091 117.037 30.573 117.854 30.9239 118.78C31.2765 119.707 31.4519 120.758 31.4519 121.931C31.4519 123.996 30.6538 125.656 29.0577 126.912C27.4615 128.167 25.0449 128.795 21.8062 128.795Z" fill="white"/>
<path d="M33.9167 128.444V105.773H40.5352V114.222H48.3509V105.773H54.9695V128.444H48.3509V119.996H40.5352V128.444H33.9167Z" fill="white"/>
<path d="M58.136 128.444V105.773H64.7545V128.444H58.136Z" fill="white"/>
<path d="M67.9228 128.444V105.773H79.6102C81.4644 105.773 82.9952 106.143 84.2043 106.882C85.4135 107.622 86.3113 108.625 86.8978 109.892C87.4844 111.16 87.7785 112.567 87.7785 114.117C87.7785 115.666 87.4379 117.132 86.7568 118.375C86.0757 119.619 85.1142 120.592 83.8706 121.298C82.6271 122.001 81.1599 122.354 79.4709 122.354H74.5431V128.444H67.9245H67.9228ZM74.5414 117.285H77.9556C78.9876 117.285 79.7564 116.993 80.2621 116.404C80.766 115.818 81.0189 115.056 81.0189 114.117C81.0189 113.107 80.7832 112.309 80.3154 111.722C79.8458 111.136 79.1183 110.842 78.1327 110.842H74.5414V117.285Z" fill="white"/>
<path d="M89.538 128.444V105.773H96.1566V114.222H103.972V105.773H110.591V128.444H103.972V119.996H96.1566V128.444H89.538Z" fill="white"/>
<path d="M124.32 128.795C122.208 128.795 120.347 128.449 118.74 127.756C117.132 127.065 115.871 126.043 114.956 124.693C114.041 123.343 113.584 121.683 113.584 119.712V105.771H120.202V119.008C120.202 121.778 121.575 123.162 124.322 123.162C125.636 123.162 126.645 122.822 127.349 122.142C128.052 121.461 128.405 120.417 128.405 119.008V105.771H135.023V119.712C135.023 121.683 134.571 123.344 133.668 124.693C132.765 126.043 131.508 127.063 129.901 127.756C128.293 128.448 126.434 128.795 124.322 128.795H124.32Z" fill="white"/>
<path d="M138.013 128.444V105.773H150.474C152.774 105.773 154.523 106.313 155.72 107.391C156.917 108.472 157.516 110.02 157.516 112.039C157.516 113.214 157.299 114.199 156.864 114.996C156.429 115.794 155.861 116.427 155.156 116.896C156.118 117.271 156.886 117.818 157.463 118.534C158.037 119.249 158.324 120.31 158.324 121.719C158.324 123.855 157.667 125.51 156.353 126.683C155.039 127.858 153.173 128.443 150.756 128.443H138.013V128.444ZM144.385 114.82H148.68C150.299 114.82 151.109 114.093 151.109 112.637C151.109 111.91 150.915 111.358 150.528 110.983C150.141 110.608 149.465 110.42 148.503 110.42H144.384V114.82H144.385ZM144.385 123.831H148.962C149.853 123.831 150.512 123.644 150.933 123.269C151.357 122.894 151.566 122.271 151.566 121.403C151.566 120.675 151.355 120.123 150.933 119.748C150.51 119.373 149.807 119.184 148.821 119.184H144.385V123.831Z" fill="white"/>
<path d="M14.5082 141.601V136.902H13.674V135.875H14.5082V135.175C14.5082 134.604 14.6665 134.143 14.9847 133.792C15.3029 133.441 15.7759 133.267 16.4037 133.267C16.6376 133.267 16.8509 133.286 17.0435 133.322C17.2361 133.358 17.4133 133.408 17.575 133.474V134.416C17.3256 134.329 17.071 134.284 16.8147 134.284C16.4363 134.284 16.1749 134.353 16.0287 134.489C15.8825 134.624 15.812 134.858 15.812 135.189V135.877H17.3101L17.2499 136.903H15.812V141.602H14.5065L14.5082 141.601Z" fill="white"/>
<path d="M27.7109 141.721C26.6806 141.721 25.9256 141.463 25.4457 140.947C24.9658 140.431 24.7267 139.695 24.7267 138.737C24.7267 137.779 24.9675 137.041 25.4508 136.527C25.9342 136.011 26.6875 135.754 27.7092 135.754C28.7309 135.754 29.4963 136.012 29.9796 136.527C30.4629 137.043 30.7037 137.779 30.7037 138.737C30.7037 139.695 30.4646 140.433 29.9848 140.947C29.5049 141.463 28.7464 141.721 27.7075 141.721H27.7109ZM27.7109 140.61C28.3146 140.61 28.7446 140.464 28.9975 140.17C29.2503 139.876 29.3776 139.399 29.3776 138.739C29.3776 138.078 29.2503 137.603 28.9975 137.313C28.7446 137.024 28.3146 136.878 27.7109 136.878C27.1072 136.878 26.6892 137.022 26.4364 137.313C26.1818 137.603 26.0563 138.078 26.0563 138.739C26.0563 139.399 26.1836 139.876 26.4364 140.17C26.6892 140.464 27.1141 140.61 27.7109 140.61Z" fill="white"/>
<path d="M38.8737 141.601V135.875H40.0812L40.1534 136.539C40.4269 136.362 40.7537 136.2 41.1321 136.055C41.5105 135.911 41.8854 135.809 42.2552 135.753V136.755C42.0299 136.797 41.7857 136.853 41.5242 136.931C41.2628 137.007 41.0151 137.093 40.7812 137.184C40.5473 137.277 40.3495 137.371 40.1895 137.468V141.599H38.872L38.8737 141.601Z" fill="white"/>
<path d="M61.1873 141.721C60.7194 141.721 60.3651 141.606 60.1243 141.377C59.8835 141.148 59.7614 140.767 59.7614 140.235V133.458H61.0789V140.115C61.0789 140.34 61.1185 140.493 61.1993 140.574C61.2802 140.655 61.4006 140.694 61.5623 140.694C61.7549 140.694 61.9407 140.67 62.1178 140.622V141.577C61.9647 141.633 61.8185 141.671 61.6775 141.692C61.5365 141.713 61.3731 141.723 61.189 141.723L61.1873 141.721Z" fill="white"/>
<path d="M72.7715 141.721C71.7412 141.721 70.9861 141.463 70.5063 140.947C70.0264 140.431 69.7873 139.695 69.7873 138.737C69.7873 137.779 70.0281 137.041 70.5114 136.527C70.9947 136.011 71.7481 135.754 72.7698 135.754C73.7915 135.754 74.5569 136.012 75.0402 136.527C75.5235 137.043 75.7643 137.779 75.7643 138.737C75.7643 139.695 75.5252 140.433 75.0453 140.947C74.5655 141.463 73.8069 141.721 72.7681 141.721H72.7715ZM72.7715 140.61C73.3752 140.61 73.8052 140.464 74.0581 140.17C74.3109 139.876 74.4382 139.399 74.4382 138.739C74.4382 138.078 74.3109 137.603 74.0581 137.313C73.8052 137.024 73.3752 136.878 72.7715 136.878C72.1678 136.878 71.7498 137.022 71.497 137.313C71.2424 137.603 71.1169 138.078 71.1169 138.739C71.1169 139.399 71.2441 139.876 71.497 140.17C71.7498 140.464 72.1747 140.61 72.7715 140.61Z" fill="white"/>
<path d="M86.2529 143.727C85.8263 143.727 85.3997 143.701 84.9732 143.647C84.5466 143.594 84.1837 143.517 83.8861 143.412V142.397C84.2078 142.502 84.5793 142.583 84.9973 142.638C85.4152 142.695 85.8142 142.722 86.1926 142.722C86.7723 142.722 87.1954 142.689 87.4603 142.626C87.7269 142.56 87.8593 142.416 87.8593 142.191C87.8593 142.022 87.794 141.903 87.6667 141.835C87.5377 141.766 87.2917 141.731 86.9305 141.731H85.3843C84.3454 141.731 83.8259 141.365 83.8259 140.632C83.8259 140.398 83.8947 140.182 84.0306 139.98C84.1682 139.779 84.3849 139.626 84.6825 139.521C84.3522 139.36 84.108 139.139 83.9515 138.857C83.795 138.575 83.7159 138.236 83.7159 137.842C83.7159 137.11 83.9343 136.578 84.3746 136.248C84.8132 135.918 85.472 135.753 86.3492 135.753C86.5349 135.753 86.7276 135.766 86.9288 135.796C87.13 135.825 87.2866 135.851 87.4001 135.875H89.5019L89.4658 136.733H88.4992C88.6523 136.862 88.7658 137.024 88.838 137.216C88.9103 137.409 88.9464 137.619 88.9464 137.844C88.9464 138.457 88.7606 138.938 88.3908 139.287C88.021 139.638 87.4603 139.814 86.7121 139.814C86.5831 139.814 86.4644 139.807 86.3561 139.795C86.2477 139.783 86.129 139.769 86 139.752C85.7592 139.776 85.5408 139.841 85.3481 139.944C85.1555 140.049 85.0574 140.19 85.0574 140.367C85.0574 140.488 85.1056 140.576 85.2019 140.627C85.2982 140.679 85.4599 140.706 85.6853 140.706H87.2917C87.8628 140.706 88.3048 140.828 88.6144 141.074C88.924 141.32 89.0788 141.676 89.0788 142.144C89.0788 142.708 88.8346 143.113 88.3478 143.359C87.8611 143.604 87.161 143.727 86.2511 143.727H86.2529ZM86.3509 138.979C86.8738 138.979 87.2384 138.892 87.4448 138.715C87.6495 138.537 87.7527 138.235 87.7527 137.808C87.7527 137.382 87.6495 137.072 87.4448 136.878C87.2401 136.685 86.8755 136.587 86.3509 136.587C85.859 136.587 85.5012 136.68 85.2759 136.866C85.0506 137.051 84.9371 137.364 84.9371 137.808C84.9371 138.219 85.0437 138.517 85.257 138.702C85.4702 138.888 85.8349 138.979 86.3509 138.979Z" fill="white"/>
<path d="M97.8026 141.601V136.878H96.9323L97.0527 135.875H99.1184V141.601H97.8009H97.8026ZM97.6943 134.68V133.593H99.1322V134.68H97.6943Z" fill="white"/>
<path d="M109.449 141.721C109.055 141.721 108.678 141.692 108.319 141.637C107.961 141.58 107.663 141.513 107.431 141.432V140.321C107.705 140.426 108.007 140.507 108.338 140.562C108.668 140.619 108.983 140.646 109.28 140.646C109.731 140.646 110.052 140.607 110.247 140.526C110.439 140.445 110.538 140.288 110.538 140.054C110.538 139.886 110.479 139.752 110.362 139.655C110.245 139.559 110.071 139.47 109.843 139.389C109.614 139.308 109.322 139.212 108.967 139.1C108.628 138.986 108.334 138.864 108.085 138.732C107.835 138.599 107.641 138.427 107.505 138.219C107.368 138.009 107.301 137.736 107.301 137.397C107.301 136.874 107.49 136.468 107.868 136.183C108.247 135.897 108.855 135.754 109.693 135.754C110.023 135.754 110.338 135.778 110.636 135.827C110.933 135.875 111.188 135.935 111.396 136.007V137.106C111.171 137.019 110.923 136.95 110.653 136.902C110.383 136.853 110.132 136.829 109.898 136.829C109.48 136.829 109.163 136.866 108.95 136.938C108.737 137.01 108.63 137.154 108.63 137.373C108.63 137.591 108.74 137.758 108.962 137.849C109.184 137.942 109.54 138.07 110.032 138.229C110.482 138.367 110.842 138.512 111.107 138.665C111.373 138.818 111.564 139.002 111.681 139.215C111.798 139.428 111.857 139.704 111.857 140.042C111.857 140.607 111.652 141.028 111.241 141.305C110.83 141.583 110.235 141.721 109.454 141.721H109.449Z" fill="white"/>
<path d="M122.036 141.721C121.423 141.721 120.966 141.558 120.665 141.231C120.362 140.904 120.213 140.46 120.213 139.896V136.9H119.366V135.873H120.213V134.556L121.518 134.156V135.871H123.04L122.956 136.898H121.518V139.822C121.518 140.152 121.594 140.385 121.747 140.517C121.9 140.65 122.149 140.717 122.495 140.717C122.712 140.717 122.942 140.677 123.183 140.596V141.527C122.868 141.656 122.486 141.719 122.036 141.719V141.721Z" fill="white"/>
<path d="M131.664 141.601V136.878H130.794L130.914 135.875H132.98V141.601H131.663H131.664ZM131.556 134.68V133.593H132.994V134.68H131.556Z" fill="white"/>
<path d="M144.217 141.721C143.211 141.721 142.449 141.465 141.933 140.954C141.417 140.443 141.16 139.704 141.16 138.737C141.16 137.77 141.444 136.981 142.012 136.491C142.579 135.999 143.338 135.754 144.289 135.754C144.683 135.754 145.017 135.782 145.285 135.839C145.555 135.895 145.815 135.983 146.064 136.104V137.082C145.646 136.872 145.137 136.767 144.542 136.767C143.881 136.767 143.374 136.915 143.02 137.208C142.665 137.502 142.488 138.011 142.488 138.735C142.488 139.42 142.645 139.922 142.96 140.238C143.274 140.557 143.794 140.715 144.518 140.715C145.089 140.715 145.608 140.607 146.076 140.388V141.391C145.811 141.496 145.526 141.577 145.225 141.632C144.922 141.688 144.587 141.716 144.217 141.716V141.721Z" fill="white"/>
<path d="M155.921 141.721C155.528 141.721 155.151 141.692 154.791 141.637C154.434 141.58 154.136 141.513 153.904 141.432V140.321C154.177 140.426 154.48 140.507 154.81 140.562C155.141 140.619 155.455 140.646 155.753 140.646C156.204 140.646 156.525 140.607 156.72 140.526C156.912 140.445 157.01 140.288 157.01 140.054C157.01 139.886 156.952 139.752 156.835 139.655C156.718 139.559 156.544 139.47 156.315 139.389C156.087 139.308 155.794 139.212 155.44 139.1C155.101 138.986 154.807 138.864 154.558 138.732C154.308 138.599 154.114 138.427 153.978 138.219C153.84 138.009 153.773 137.736 153.773 137.397C153.773 136.874 153.962 136.468 154.341 136.183C154.719 135.897 155.328 135.754 156.166 135.754C156.496 135.754 156.811 135.778 157.108 135.827C157.406 135.875 157.66 135.935 157.869 136.007V137.106C157.643 137.019 157.396 136.95 157.125 136.902C156.855 136.853 156.604 136.829 156.37 136.829C155.952 136.829 155.636 136.866 155.423 136.938C155.209 137.01 155.103 137.154 155.103 137.373C155.103 137.591 155.213 137.758 155.435 137.849C155.657 137.942 156.013 138.07 156.505 138.229C156.955 138.367 157.315 138.512 157.58 138.665C157.846 138.818 158.037 139.002 158.154 139.215C158.271 139.428 158.329 139.704 158.329 140.042C158.329 140.607 158.125 141.028 157.714 141.305C157.303 141.583 156.708 141.721 155.927 141.721H155.921Z" fill="white"/>
<path d="M98.0538 57.2039V86.1343H78.7674V95.7766H98.0538H107.698V86.1343V57.2039H98.0538Z" fill="#048372"/>
<path d="M93.2326 28.2734H73.9462H64.3022V37.9158V66.8462H73.9462V37.9158H93.2326V28.2734Z" fill="#048372"/>
<path d="M73.9462 71.6689H64.3022V95.7782H73.9462V71.6689Z" fill="#AECF5C"/>
<path d="M107.698 28.2734H98.0537V52.3827H107.698V28.2734Z" fill="#AECF5C"/>
<path d="M107.698 57.2039H64.3022V66.8479H107.698V57.2039Z" fill="#AECF5C"/>
</svg>
