<svg width="18" height="27" viewBox="0 0 18 27" fill="none" xmlns="http://www.w3.org/2000/svg">
<g clip-path="url(#clip0_366_26019)">
<path d="M15.5143 18.42L11.381 17.8748C10.8735 17.8079 10.4934 17.3625 10.4934 16.835V14.9016H7.50746V16.835C7.50746 17.3625 7.1273 17.8079 6.61988 17.8748L2.48656 18.42C1.2213 18.5869 0.273438 19.6974 0.273438 21.0128V22.9887C2.547 25.2132 5.61906 26.5782 9.00044 26.5782C12.3818 26.5782 15.4539 25.2132 17.7274 22.9887V21.0128C17.7274 19.6974 16.7796 18.5869 15.5143 18.42Z" fill="#FFC776"/>
<path d="M15.5138 18.42L11.3804 17.8748C10.873 17.8079 10.4929 17.3625 10.4929 16.835V14.9016H8.99756V26.5782C8.99835 26.5782 8.99914 26.5783 8.99994 26.5783C12.3813 26.5783 15.4534 25.2133 17.7269 22.9888V21.0129C17.7269 19.6974 16.7791 18.5869 15.5138 18.42Z" fill="#FFBB61"/>
<path d="M11.4352 15.7037L10.7336 16.0933C9.65552 16.6919 8.35791 16.6919 7.27981 16.0933L6.5782 15.7037C5.28258 14.9842 4.47461 13.5893 4.47461 12.0717V7.60889H13.5388V12.0717C13.5388 13.5893 12.7309 14.9842 11.4352 15.7037Z" fill="#FED080"/>
<path d="M13.5389 7.60889H8.99756V16.5421C9.59454 16.5437 10.1919 16.3942 10.7337 16.0933L11.4353 15.7037C12.731 14.9842 13.5389 13.5893 13.5389 12.0717L13.5389 7.60889Z" fill="#FFC776"/>
<path d="M15.5142 18.42L12.016 17.9585C11.2618 18.7882 10.1902 19.3073 9.00039 19.3073C7.81063 19.3073 6.73892 18.7882 5.98475 17.9585L2.48656 18.42C1.2213 18.5869 0.273438 19.6974 0.273438 21.0127V22.9887C2.54695 25.2132 5.61901 26.5781 9.00039 26.5781C12.3818 26.5781 15.4538 25.2132 17.7274 22.9887V21.0127C17.7274 19.6974 16.7795 18.5869 15.5142 18.42Z" fill="#283592"/>
<path d="M9 26.5781C12.3814 26.5781 15.4534 25.2132 17.727 22.9887V21.0127C17.727 19.6973 16.7791 18.5869 15.5138 18.42L12.0156 17.9585C11.2614 18.7882 10.1898 19.3073 9 19.3073V26.5781Z" fill="#1A237E"/>
<path d="M8.78469 19.3012C7.68122 19.2428 6.69268 18.7376 5.98424 17.9583L4.47461 18.1574L6.86503 21.3386L8.99988 19.3081C8.9276 19.3081 8.85587 19.3057 8.78469 19.3012Z" fill="#303F9E"/>
<path d="M9 19.3083L11.1349 21.3388L13.5253 18.1576L12.0156 17.9585C11.3072 18.7378 10.3186 19.243 9.21519 19.3015C9.14406 19.3059 9.07233 19.3083 9 19.3083Z" fill="#283592"/>
<path d="M14.1642 8.99177C14.1642 6.05042 11.852 3.66602 8.99981 3.66602C6.1476 3.66602 3.83545 6.05042 3.83545 8.99177C3.83545 9.0359 3.83545 12.9198 3.83545 12.9198H4.75983V10.3105C5.83575 9.0355 7.32453 8.2127 8.99981 8.2127C10.6751 8.2127 12.1639 9.0355 13.2398 10.3105V12.9198H14.1642C14.1642 12.9198 14.1642 9.0359 14.1642 8.99177Z" fill="#FEC007"/>
<path d="M14.4783 11.9644H13.4158V8.78659C13.4158 6.27575 11.4349 4.23301 9.00016 4.23301C6.56541 4.23301 4.58457 6.27575 4.58457 8.78659V11.9644H3.52197V8.78659C3.52197 5.67155 5.97947 3.13721 9.00016 3.13721C12.0209 3.13721 14.4783 5.6715 14.4783 8.78659V11.9644Z" fill="#37474F"/>
<path d="M8.99994 3.13721C8.99914 3.13721 8.99835 3.13726 8.99756 3.13726V4.23301C8.99835 4.23301 8.99914 4.23301 8.99994 4.23301C11.4347 4.23301 13.4155 6.27575 13.4155 8.78659V11.9644H14.4781V8.78659C14.4781 5.6715 12.0206 3.13721 8.99994 3.13721Z" fill="#263238"/>
<path d="M11.3969 15.3901H8.37451V14.2943H11.3969C12.4841 14.2943 13.3686 13.3822 13.3686 12.261H14.4312C14.4312 13.9864 13.0699 15.3901 11.3969 15.3901Z" fill="#263238"/>
<path d="M4.62169 13.3037H3.45987C2.60182 13.3037 1.90625 12.5864 1.90625 11.7015V9.83899C1.90625 8.95412 2.60182 8.23682 3.45987 8.23682H4.62174L4.62169 13.3037Z" fill="#3F51B4"/>
<path d="M14.5403 13.3036H13.3784V8.23682H14.5403C15.3983 8.23682 16.0939 8.95412 16.0939 9.83899V11.7015C16.0939 12.5863 15.3983 13.3036 14.5403 13.3036Z" fill="#303F9E"/>
<path d="M8.71732 16.011H7.46583C6.84641 16.011 6.34424 15.4932 6.34424 14.8544C6.34424 14.2156 6.84641 13.6978 7.46583 13.6978H8.71732C9.33675 13.6978 9.83891 14.2156 9.83891 14.8544C9.83891 15.4932 9.33679 16.011 8.71732 16.011Z" fill="#DC2C00"/>
<path d="M8.99756 13.7344V15.9745C9.481 15.8458 9.83817 15.3931 9.83817 14.8544C9.83817 14.3157 9.48105 13.863 8.99756 13.7344Z" fill="#B21F02"/>
</g>
<defs>
<clipPath id="clip0_366_26019">
<rect width="18" height="27" fill="white"/>
</clipPath>
</defs>
</svg>
