<svg width="39" height="39" viewBox="0 0 39 39" fill="none" xmlns="http://www.w3.org/2000/svg">
<path d="M34.125 6.5H13C10.3074 6.5 8.125 8.68237 8.125 11.375V16.25C8.125 18.9426 10.3074 21.125 13 21.125H34.125C36.8176 21.125 39 18.9426 39 16.25V11.375C39 8.68237 36.8176 6.5 34.125 6.5ZM17.6637 15.0052C18.1707 15.5122 18.1707 16.3361 17.6637 16.8447C17.4102 17.0982 17.0788 17.225 16.7456 17.225C16.4125 17.225 16.081 17.0982 15.8275 16.8447L14.6347 15.652L13.442 16.8447C13.1885 17.0982 12.857 17.225 12.5239 17.225C12.1907 17.225 11.8593 17.0982 11.6058 16.8447C11.0988 16.3377 11.0988 15.5139 11.6058 15.0052L12.7985 13.8125L11.6058 12.6198C11.0988 12.1128 11.0988 11.2889 11.6058 10.7802C12.1128 10.2732 12.935 10.2732 13.4436 10.7802L14.6364 11.973L15.8291 10.7802C16.3361 10.2732 17.1584 10.2732 17.667 10.7802C18.174 11.2872 18.174 12.1111 17.667 12.6198L16.4742 13.8125L17.667 15.0052H17.6637ZM26.5931 15.0052C27.1001 15.5122 27.1001 16.3361 26.5931 16.8447C26.3396 17.0982 26.0081 17.225 25.675 17.225C25.3419 17.225 25.0104 17.0982 24.7569 16.8447L23.5641 15.652L22.3714 16.8447C22.1179 17.0982 21.7864 17.225 21.4532 17.225C21.1201 17.225 20.7886 17.0982 20.5351 16.8447C20.0281 16.3377 20.0281 15.5139 20.5351 15.0052L21.7279 13.8125L20.5351 12.6198C20.0281 12.1128 20.0281 11.2889 20.5351 10.7802C21.0421 10.2732 21.8644 10.2732 22.373 10.7802L23.5658 11.973L24.7585 10.7802C25.2655 10.2732 26.0878 10.2732 26.5964 10.7802C27.1034 11.2872 27.1034 12.1111 26.5964 12.6198L25.4036 13.8125L26.5964 15.0052H26.5931ZM35.581 15.0052C36.088 15.5122 36.088 16.3361 35.581 16.8431C35.3275 17.0966 34.996 17.2234 34.6629 17.2234C34.3298 17.2234 33.9983 17.0966 33.7448 16.8431L32.5504 15.6488L31.356 16.8431C31.1025 17.0966 30.771 17.2234 30.4379 17.2234C30.1048 17.2234 29.7733 17.0966 29.5198 16.8431C29.0128 16.3361 29.0128 15.5122 29.5198 15.0052L30.7125 13.8125L29.5198 12.6198C29.0128 12.1128 29.0128 11.2889 29.5198 10.7819C30.0268 10.2749 30.849 10.2733 31.3576 10.7819L32.552 11.9762L33.7464 10.7819C34.2534 10.2749 35.0756 10.2749 35.5843 10.7819C36.0929 11.2889 36.0913 12.1128 35.5843 12.6198L34.3915 13.8125L35.5843 15.0052H35.581ZM24.375 24.375C23.4764 24.375 22.75 25.103 22.75 26H3.25V8.125C3.25 5.43725 5.43725 3.25 8.125 3.25H19.5C20.3986 3.25 21.125 2.522 21.125 1.625C21.125 0.728 20.3986 0 19.5 0H8.125C3.64488 0 0 3.64488 0 8.125V30.875C0 35.3551 3.64488 39 8.125 39H17.875C22.3551 39 26 35.3551 26 30.875V26C26 25.103 25.2736 24.375 24.375 24.375ZM17.875 35.75H8.125C5.43725 35.75 3.25 33.5628 3.25 30.875V29.25H22.75V30.875C22.75 33.5628 20.5627 35.75 17.875 35.75ZM15.8438 32.5C15.8438 33.397 15.1174 34.125 14.2188 34.125H11.7812C10.8826 34.125 10.1562 33.397 10.1562 32.5C10.1562 31.603 10.8826 30.875 11.7812 30.875H14.2188C15.1174 30.875 15.8438 31.603 15.8438 32.5Z" fill="#048372"/>
</svg>
