<svg width="12" height="9" viewBox="0 0 12 9" fill="none" xmlns="http://www.w3.org/2000/svg">
<path d="M0.346924 4.58483H2.10945C2.567 4.57102 2.56792 3.90587 2.10945 3.8916H0.346924C-0.110624 3.90541 -0.111543 4.57056 0.346924 4.58483Z" fill="#048372"/>
<path d="M0.346924 2.72765H3.60731C3.7988 2.72765 3.95393 2.57253 3.95393 2.38104C3.95393 2.18955 3.7988 2.03442 3.60731 2.03442H0.346924C-0.110164 2.04823 -0.112003 2.71338 0.346924 2.72765Z" fill="#048372"/>
<path d="M9.3953 2.19882L8.45534 2.01009C8.00332 1.93414 7.87259 2.58548 8.3191 2.68996L9.2586 2.8787C9.91869 3.01173 10.3974 3.59863 10.3974 4.27392V6.72004C9.82801 5.5513 8.13501 5.55222 7.56608 6.72004V1.76205C7.56608 0.790788 6.77802 0.000460199 5.80956 0.000460199L0.346626 0C0.155136 0 1.17719e-05 0.155124 1.17719e-05 0.346614C1.17719e-05 0.538103 0.155136 0.693228 0.346626 0.693228H5.80956C6.396 0.693228 6.87287 1.17241 6.87287 1.76161V7.25224H4.38492C4.14004 5.37741 1.48724 5.37882 1.24284 7.25224H0.693228V5.65822C0.679418 5.20067 0.0142704 5.19975 0 5.65822V7.59892C0 7.79041 0.155124 7.94553 0.346614 7.94553H1.32247C1.81822 9.35231 3.80948 9.35136 4.30487 7.94553H7.49067C7.98642 9.35231 9.97768 9.35136 10.4731 7.94553H10.7442C10.9357 7.94553 11.0908 7.79041 11.0908 7.59892V4.27313C11.0908 3.26919 10.3783 2.39641 9.39546 2.19856L9.3953 2.19882ZM2.81372 8.31411C2.36077 8.31411 1.98654 7.97072 1.9336 7.52975C1.86547 7.00546 2.28712 6.52719 2.81372 6.53133C3.34032 6.52719 3.76196 7.00545 3.69384 7.52975C3.6409 7.97073 3.26667 8.31411 2.81372 8.31411ZM8.98192 8.31411C8.52944 8.31411 8.15567 7.97165 8.10227 7.53113C8.10227 7.53067 8.10227 7.52975 8.10181 7.52929C8.03369 7.00499 8.45533 6.52719 8.98193 6.53133C10.158 6.57782 10.1576 8.26805 8.98193 8.3146L8.98192 8.31411Z" fill="#048372"/>
</svg>
