<svg width="22" height="22" viewBox="0 0 22 22" fill="none" xmlns="http://www.w3.org/2000/svg">
<g clip-path="url(#clip0_366_26067)">
<path d="M21.6562 11V14.0938C21.6557 14.2759 21.5831 14.4505 21.4543 14.5793C21.3255 14.7081 21.1509 14.7807 20.9688 14.7812H16.1562C15.9741 14.7807 15.7995 14.7081 15.6707 14.5793C15.5419 14.4505 15.4693 14.2759 15.4688 14.0938V12.0312C15.4693 11.8491 15.5419 11.6745 15.6707 11.5457C15.7995 11.4169 15.9741 11.3443 16.1562 11.3438H20.2812V10.3125H20.9688C21.1509 10.313 21.3255 10.3857 21.4543 10.5145C21.5831 10.6433 21.6557 10.8178 21.6562 11ZM17.875 13.0625C17.875 12.9265 17.8347 12.7936 17.7591 12.6805C17.6836 12.5675 17.5762 12.4794 17.4506 12.4273C17.325 12.3753 17.1867 12.3617 17.0534 12.3882C16.92 12.4147 16.7975 12.4802 16.7014 12.5764C16.6052 12.6725 16.5397 12.795 16.5132 12.9284C16.4867 13.0617 16.5003 13.2 16.5523 13.3256C16.6044 13.4512 16.6925 13.5586 16.8055 13.6341C16.9186 13.7097 17.0515 13.75 17.1875 13.75C17.3697 13.7495 17.5442 13.6768 17.673 13.548C17.8018 13.4192 17.8745 13.2447 17.875 13.0625Z" fill="#E03E3E"/>
<path d="M18.7825 0.34375L21.6562 8.51813L20.2812 9.00969V6.875C20.2807 6.69283 20.2081 6.51828 20.0793 6.38946C19.9505 6.26065 19.7759 6.18804 19.5938 6.1875H19.0266L18.0572 3.43062C17.8927 3.48924 17.7182 3.51473 17.5438 3.50564C17.3694 3.49655 17.1985 3.45305 17.041 3.37764C16.8835 3.30224 16.7425 3.19643 16.626 3.06629C16.5096 2.93615 16.42 2.78427 16.3625 2.61937L6.3525 6.17375V6.1875H3.4375C3.35229 6.18761 3.26721 6.18071 3.18313 6.16688L3.09375 5.91937L14.795 1.76L18.7825 0.34375Z" fill="#36CE94"/>
<path d="M1.75312 4.80217C1.82145 5.14943 1.99559 5.46703 2.25163 5.71138C2.50766 5.95572 2.83305 6.11483 3.18313 6.16686C3.26721 6.18069 3.35229 6.18759 3.4375 6.18748H19.5938C19.7759 6.18803 19.9505 6.26063 20.0793 6.38945C20.2081 6.51826 20.2807 6.69281 20.2812 6.87498V11.3437H16.1562C15.9741 11.3443 15.7995 11.4169 15.6707 11.5457C15.5419 11.6745 15.4693 11.8491 15.4688 12.0312V14.0937C15.4693 14.2759 15.5419 14.4505 15.6707 14.5793C15.7995 14.7081 15.9741 14.7807 16.1562 14.7812H20.2812V18.5625C20.2812 18.9784 19.6659 19.5937 18.9062 19.5937H14.0938V14.0937C14.0932 13.9116 14.0206 13.737 13.8918 13.6082C13.763 13.4794 13.5884 13.4068 13.4062 13.4062H2.40625C2.22408 13.4068 2.04953 13.4794 1.92072 13.6082C1.7919 13.737 1.71929 13.9116 1.71875 14.0937V19.5937C1.35408 19.5937 1.00434 19.4489 0.746478 19.191C0.488616 18.9331 0.34375 18.5834 0.34375 18.2187V4.81248C0.34375 4.26547 0.561048 3.74087 0.947842 3.35408C1.33464 2.96728 1.85924 2.74998 2.40625 2.74998H3.50969C3.0735 2.74299 2.6501 2.8974 2.32081 3.18354C1.99152 3.46969 1.77956 3.8674 1.72563 4.3003C1.70865 4.468 1.71793 4.63733 1.75312 4.80217Z" fill="#FEBD55"/>
<path d="M18.0572 3.43063L19.0266 6.18751H6.35254V6.17376L16.3625 2.61938C16.42 2.78428 16.5096 2.93616 16.6261 3.0663C16.7425 3.19644 16.8836 3.30225 17.0411 3.37765C17.1986 3.45306 17.3695 3.49656 17.5439 3.50565C17.7183 3.51474 17.8927 3.48925 18.0572 3.43063Z" fill="#2FB380"/>
<path d="M17.1875 13.75C17.5672 13.75 17.875 13.4422 17.875 13.0625C17.875 12.6828 17.5672 12.375 17.1875 12.375C16.8078 12.375 16.5 12.6828 16.5 13.0625C16.5 13.4422 16.8078 13.75 17.1875 13.75Z" fill="#2B2B37"/>
<path d="M7.43168 2.75L14.0936 0.34375L14.7811 1.71875L14.7948 1.76L3.09355 5.91937L3.18293 6.16687C2.83286 6.11484 2.50747 5.95573 2.25143 5.71139C1.99539 5.46705 1.82126 5.14945 1.75293 4.80219L7.43168 2.75Z" fill="#2FB380"/>
<path d="M7.43227 2.74998L1.75352 4.80217C1.71832 4.63733 1.70904 4.468 1.72602 4.3003C1.77995 3.8674 1.99192 3.46969 2.32121 3.18354C2.65049 2.8974 3.07389 2.74299 3.51008 2.74998H7.43227Z" fill="#BD6F08"/>
<path d="M14.0938 19.5938V20.9688C14.0932 21.1509 14.0206 21.3255 13.8918 21.4543C13.763 21.5831 13.5884 21.6557 13.4062 21.6562H2.40625C2.22408 21.6557 2.04953 21.5831 1.92072 21.4543C1.7919 21.3255 1.71929 21.1509 1.71875 20.9688V16.5H14.0938V19.5938Z" fill="#FF6161"/>
<path d="M14.0938 15.4688V16.5H13.75H2.0625H1.71875V15.4688H2.0625H13.75H14.0938Z" fill="#EDF4FA"/>
<path d="M14.0938 14.0938V15.4688H1.71875V14.0938C1.71929 13.9116 1.7919 13.737 1.92072 13.6082C2.04953 13.4794 2.22408 13.4068 2.40625 13.4062H13.4062C13.5884 13.4068 13.763 13.4794 13.8918 13.6082C14.0206 13.737 14.0932 13.9116 14.0938 14.0938Z" fill="#CB3541"/>
<path d="M13.4062 20.625H9.625C8.34634 20.6242 7.09934 20.2272 6.05566 19.4884C5.01197 18.7497 4.2229 17.7057 3.79706 16.5H1.71875V20.9688C1.71929 21.1509 1.7919 21.3255 1.92072 21.4543C2.04953 21.5831 2.22408 21.6557 2.40625 21.6562H13.4062C13.5884 21.6557 13.763 21.5831 13.8918 21.4543C14.0206 21.3255 14.0932 21.1509 14.0938 20.9688V19.9375C14.0938 20.1198 14.0213 20.2947 13.8924 20.4236C13.7635 20.5526 13.5886 20.625 13.4062 20.625Z" fill="#E03E3E"/>
<path d="M3.79706 16.5C3.67846 16.1646 3.5892 15.8196 3.53031 15.4688H1.71875V16.5H3.79706Z" fill="#C1CFE8"/>
<path d="M3.53031 15.4688C3.47076 15.1282 3.43972 14.7832 3.4375 14.4375V13.4062H2.40625C2.22408 13.4068 2.04953 13.4794 1.92072 13.6082C1.7919 13.737 1.71929 13.9116 1.71875 14.0938V15.4688H3.53031Z" fill="#A81E29"/>
<path d="M14.7811 1.71865L14.5019 1.1604L4.06224 4.93031C3.89457 4.99084 3.70994 4.98389 3.5473 4.91091C3.38466 4.83792 3.25673 4.70462 3.19049 4.53912L3.10077 4.31499L1.75293 4.80209C1.82126 5.14935 1.99539 5.46695 2.25143 5.71129C2.50747 5.95564 2.83286 6.11474 3.18293 6.16678L3.09355 5.91928L14.7948 1.7599L14.7811 1.71865Z" fill="#2AA173"/>
<path d="M9.218 5.15625H5.24047L3.09375 5.91937L3.18313 6.16688C3.26721 6.18071 3.35229 6.18761 3.4375 6.1875H6.3525V6.17375L9.218 5.15625Z" fill="#2FB380"/>
<path d="M21.6566 8.51813L20.4748 5.15625H18.666L19.0287 6.1875H19.5941C19.7763 6.18804 19.9509 6.26065 20.0797 6.38946C20.2085 6.51828 20.2811 6.69283 20.2816 6.875V9.00969L21.6566 8.51813Z" fill="#2FB380"/>
<path d="M9.21804 5.15625L6.35254 6.17375V6.1875H19.0266L18.6639 5.15625H9.21804Z" fill="#2AA173"/>
<path d="M21.3125 14.0938H17.875C17.7288 14.0934 17.5844 14.0618 17.4515 14.001C17.3186 13.9402 17.2002 13.8517 17.1043 13.7414C16.9377 13.7223 16.7839 13.6425 16.6723 13.5173C16.5606 13.3921 16.499 13.2302 16.499 13.0625C16.499 12.8948 16.5606 12.7329 16.6723 12.6077C16.7839 12.4825 16.9377 12.4027 17.1043 12.3836C17.2002 12.2733 17.3186 12.1848 17.4515 12.124C17.5844 12.0632 17.7288 12.0316 17.875 12.0312H20.2812C20.4636 12.0312 20.6385 11.9588 20.7674 11.8299C20.8963 11.701 20.9688 11.5261 20.9688 11.3438V10.3125H20.2812V11.3438H16.1562C15.9741 11.3443 15.7995 11.4169 15.6707 11.5457C15.5419 11.6745 15.4693 11.8491 15.4688 12.0312V14.0938C15.4693 14.2759 15.5419 14.4505 15.6707 14.5793C15.7995 14.7081 15.9741 14.7807 16.1562 14.7812H20.9688C21.1509 14.7807 21.3255 14.7081 21.4543 14.5793C21.5831 14.4505 21.6557 14.2759 21.6562 14.0938V13.75C21.6562 13.8412 21.62 13.9286 21.5556 13.9931C21.4911 14.0575 21.4037 14.0938 21.3125 14.0938Z" fill="#CB3541"/>
<path d="M16.5 15.8125H20.2812V14.7812H16.1562C16.0352 14.7805 15.9165 14.7474 15.8125 14.6853V15.125C15.8125 15.3073 15.8849 15.4822 16.0139 15.6111C16.1428 15.74 16.3177 15.8125 16.5 15.8125Z" fill="#FC9E20"/>
<path d="M1.71875 15.4687V14.0937C1.71929 13.9116 1.7919 13.737 1.92072 13.6082C2.04953 13.4794 2.22408 13.4068 2.40625 13.4062H3.09375V6.14623C2.76253 6.07964 2.45846 5.91645 2.21987 5.67725C1.98128 5.43805 1.81887 5.13356 1.75312 4.80217C1.71793 4.63733 1.70865 4.468 1.72563 4.3003C1.77956 3.8674 1.99152 3.46969 2.32081 3.18354C2.6501 2.8974 3.0735 2.74299 3.50969 2.74998H2.40625C1.85924 2.74998 1.33464 2.96728 0.947842 3.35408C0.561048 3.74087 0.34375 4.26547 0.34375 4.81248V18.2187C0.34375 18.5834 0.488616 18.9331 0.746478 19.191C1.00434 19.4489 1.35408 19.5937 1.71875 19.5937V15.4687Z" fill="#FC9E20"/>
<path d="M19.25 18.2188H16.5C16.1353 18.2188 15.7856 18.0739 15.5277 17.816C15.2699 17.5582 15.125 17.2084 15.125 16.8438V15.125C15.125 14.9427 15.0526 14.7678 14.9236 14.6389C14.7947 14.5099 14.6198 14.4375 14.4375 14.4375H14.0938V19.5938H18.9062C19.6659 19.5938 20.2812 18.9784 20.2812 18.5625V17.1875C20.2812 17.461 20.1726 17.7233 19.9792 17.9167C19.7858 18.1101 19.5235 18.2188 19.25 18.2188Z" fill="#FC9E20"/>
</g>
<defs>
<clipPath id="clip0_366_26067">
<rect width="22" height="22" fill="white"/>
</clipPath>
</defs>
</svg>
