<svg width="65" height="65" viewBox="0 0 65 65" fill="none" xmlns="http://www.w3.org/2000/svg">
<path d="M63.9844 32.5V41.6406C63.9828 42.1789 63.7682 42.6946 63.3877 43.0752C63.0071 43.4557 62.4914 43.6703 61.9531 43.6719H47.7344C47.1961 43.6703 46.6804 43.4557 46.2998 43.0752C45.9193 42.6946 45.7047 42.1789 45.7031 41.6406V35.5469C45.7047 35.0086 45.9193 34.4929 46.2998 34.1123C46.6804 33.7318 47.1961 33.5172 47.7344 33.5156H59.9219V30.4688H61.9531C62.4914 30.4704 63.0071 30.6849 63.3877 31.0655C63.7682 31.446 63.9828 31.9618 63.9844 32.5ZM52.8125 38.5938C52.8125 38.192 52.6934 37.7993 52.4702 37.4652C52.247 37.1312 51.9297 36.8709 51.5586 36.7171C51.1874 36.5634 50.779 36.5232 50.385 36.6015C49.9909 36.6799 49.629 36.8734 49.3449 37.1574C49.0609 37.4415 48.8674 37.8034 48.789 38.1975C48.7107 38.5915 48.7509 38.9999 48.9046 39.3711C49.0584 39.7422 49.3187 40.0595 49.6527 40.2827C49.9868 40.5059 50.3795 40.625 50.7812 40.625C51.3195 40.6234 51.8352 40.4089 52.2158 40.0283C52.5964 39.6477 52.8109 39.132 52.8125 38.5938Z" fill="#E03E3E"/>
<path d="M55.4937 1.01562L63.9844 25.1672L59.9219 26.6195V20.3125C59.9203 19.7743 59.7057 19.2585 59.3252 18.878C58.9446 18.4974 58.4289 18.2829 57.8906 18.2812H56.2148L53.3508 10.1359C52.8647 10.3091 52.3493 10.3844 51.834 10.3576C51.3187 10.3307 50.8139 10.2022 50.3485 9.9794C49.8831 9.75662 49.4664 9.44398 49.1223 9.05949C48.7783 8.675 48.5137 8.22624 48.3438 7.73906L18.7687 18.2406V18.2812H10.1562C9.90448 18.2816 9.65312 18.2612 9.40469 18.2203L9.14062 17.4891L43.7125 5.2L55.4937 1.01562Z" fill="#36CE94"/>
<path d="M5.17969 14.1882C5.38157 15.2142 5.89606 16.1526 6.65253 16.8745C7.40901 17.5964 8.37038 18.0665 9.40469 18.2203C9.65312 18.2611 9.90448 18.2815 10.1562 18.2812H57.8906C58.4289 18.2828 58.9446 18.4973 59.3252 18.8779C59.7057 19.2585 59.9203 19.7742 59.9219 20.3124V33.5156H47.7344C47.1961 33.5172 46.6804 33.7317 46.2998 34.1123C45.9193 34.4929 45.7047 35.0086 45.7031 35.5468V41.6406C45.7047 42.1788 45.9193 42.6945 46.2998 43.0751C46.6804 43.4557 47.1961 43.6702 47.7344 43.6718H59.9219V54.8437C59.9219 56.0726 58.1039 57.8906 55.8594 57.8906H41.6406V41.6406C41.639 41.1023 41.4245 40.5866 41.0439 40.206C40.6633 39.8254 40.1476 39.6109 39.6094 39.6093H7.10938C6.57115 39.6109 6.05543 39.8254 5.67484 40.206C5.29425 40.5866 5.07973 41.1023 5.07812 41.6406V57.8906C4.00068 57.8906 2.96737 57.4626 2.2055 56.7007C1.44364 55.9388 1.01563 54.9055 1.01562 53.8281V14.2187C1.01563 12.6025 1.65764 11.0526 2.80044 9.90976C3.94324 8.76696 5.49321 8.12494 7.10938 8.12494H10.3695C9.08079 8.10428 7.82985 8.56047 6.85695 9.4059C5.88405 10.2513 5.25779 11.4264 5.09844 12.7054C5.04828 13.2009 5.0757 13.7012 5.17969 14.1882Z" fill="#FEBD55"/>
<path d="M53.3508 10.1359L56.2148 18.2812H18.7687V18.2406L48.3437 7.73901C48.5137 8.22619 48.7783 8.67495 49.1223 9.05944C49.4664 9.44394 49.8831 9.75657 50.3485 9.97935C50.8139 10.2021 51.3187 10.3307 51.834 10.3575C52.3493 10.3844 52.8647 10.3091 53.3508 10.1359Z" fill="#2FB380"/>
<path d="M50.7812 40.625C51.9031 40.625 52.8125 39.7156 52.8125 38.5938C52.8125 37.4719 51.9031 36.5625 50.7812 36.5625C49.6594 36.5625 48.75 37.4719 48.75 38.5938C48.75 39.7156 49.6594 40.625 50.7812 40.625Z" fill="#2B2B37"/>
<path d="M21.9578 8.125L41.6406 1.01562L43.6719 5.07812L43.7125 5.2L9.14062 17.4891L9.40469 18.2203C8.37038 18.0666 7.40901 17.5965 6.65253 16.8746C5.89606 16.1526 5.38157 15.2143 5.17969 14.1883L21.9578 8.125Z" fill="#2FB380"/>
<path d="M21.9578 8.12494L5.1797 14.1882C5.07571 13.7012 5.0483 13.2009 5.09845 12.7054C5.2578 11.4264 5.88407 10.2513 6.85696 9.4059C7.82986 8.56047 9.0808 8.10428 10.3695 8.12494H21.9578Z" fill="#BD6F08"/>
<path d="M41.6406 57.8906V61.9531C41.639 62.4914 41.4245 63.0071 41.0439 63.3877C40.6633 63.7682 40.1476 63.9828 39.6094 63.9844H7.10938C6.57115 63.9828 6.05543 63.7682 5.67484 63.3877C5.29425 63.0071 5.07973 62.4914 5.07812 61.9531V48.75H41.6406V57.8906Z" fill="#FF6161"/>
<path d="M41.6406 45.7031V48.75H40.625H6.09375H5.07812V45.7031H6.09375H40.625H41.6406Z" fill="#EDF4FA"/>
<path d="M41.6406 41.6406V45.7031H5.07812V41.6406C5.07973 41.1024 5.29425 40.5867 5.67484 40.2061C6.05543 39.8255 6.57115 39.611 7.10938 39.6094H39.6094C40.1476 39.611 40.6633 39.8255 41.0439 40.2061C41.4245 40.5867 41.639 41.1024 41.6406 41.6406Z" fill="#CB3541"/>
<path d="M39.6094 60.9375H28.4375C24.6596 60.9352 20.9753 59.762 17.8917 57.5795C14.8081 55.3969 12.4768 52.3122 11.2186 48.75H5.07812V61.9531C5.07973 62.4914 5.29425 63.0071 5.67484 63.3877C6.05543 63.7682 6.57115 63.9828 7.10938 63.9844H39.6094C40.1476 63.9828 40.6633 63.7682 41.0439 63.3877C41.4245 63.0071 41.639 62.4914 41.6406 61.9531V58.9062C41.6406 59.445 41.4266 59.9616 41.0457 60.3426C40.6648 60.7235 40.1481 60.9375 39.6094 60.9375Z" fill="#E03E3E"/>
<path d="M11.2186 48.75C10.8682 47.7591 10.6045 46.7397 10.4305 45.7031H5.07812V48.75H11.2186Z" fill="#C1CFE8"/>
<path d="M10.4305 45.7031C10.2545 44.6969 10.1628 43.6777 10.1562 42.6562V39.6094H7.10938C6.57115 39.611 6.05543 39.8255 5.67484 40.2061C5.29425 40.5867 5.07973 41.1024 5.07812 41.6406V45.7031H10.4305Z" fill="#A81E29"/>
<path d="M43.6719 5.07809L42.8472 3.42871L12.0027 14.5671C11.5073 14.7459 10.9618 14.7254 10.4812 14.5097C10.0007 14.2941 9.62273 13.9003 9.42703 13.4113L9.16195 12.7491L5.17969 14.1882C5.38157 15.2142 5.89606 16.1526 6.65253 16.8745C7.40901 17.5965 8.37038 18.0665 9.40469 18.2203L9.14062 17.489L43.7125 5.19996L43.6719 5.07809Z" fill="#2AA173"/>
<path d="M27.235 15.2344H15.4832L9.14062 17.4891L9.40469 18.2203C9.65312 18.2612 9.90448 18.2816 10.1562 18.2812H18.7687V18.2406L27.235 15.2344Z" fill="#2FB380"/>
<path d="M63.9844 25.1672L60.4927 15.2344H55.1484L56.2199 18.2812H57.8906C58.4289 18.2829 58.9446 18.4974 59.3252 18.878C59.7057 19.2585 59.9203 19.7743 59.9219 20.3125V26.6195L63.9844 25.1672Z" fill="#2FB380"/>
<path d="M27.235 15.2344L18.7687 18.2406V18.2812H56.2148L55.1433 15.2344H27.235Z" fill="#2AA173"/>
<path d="M62.9688 41.6406H52.8125C52.3807 41.6396 51.954 41.5462 51.5613 41.3666C51.1685 41.1871 50.8188 40.9255 50.5355 40.5996C50.0431 40.543 49.5888 40.3074 49.259 39.9375C48.9292 39.5676 48.7469 39.0893 48.7469 38.5938C48.7469 38.0982 48.9292 37.6199 49.259 37.25C49.5888 36.8801 50.0431 36.6445 50.5355 36.5879C50.8188 36.262 51.1685 36.0004 51.5613 35.8209C51.954 35.6413 52.3807 35.5479 52.8125 35.5469H59.9219C60.4606 35.5469 60.9773 35.3329 61.3582 34.9519C61.7391 34.571 61.9531 34.0543 61.9531 33.5156V30.4688H59.9219V33.5156H47.7344C47.1961 33.5172 46.6804 33.7318 46.2998 34.1123C45.9193 34.4929 45.7047 35.0086 45.7031 35.5469V41.6406C45.7047 42.1789 45.9193 42.6946 46.2998 43.0752C46.6804 43.4557 47.1961 43.6703 47.7344 43.6719H61.9531C62.4914 43.6703 63.0071 43.4557 63.3877 43.0752C63.7682 42.6946 63.9828 42.1789 63.9844 41.6406V40.625C63.9844 40.8944 63.8774 41.1527 63.6869 41.3432C63.4964 41.5336 63.2381 41.6406 62.9688 41.6406Z" fill="#CB3541"/>
<path d="M48.75 46.7187H59.9219V43.6718H47.7344C47.3766 43.6696 47.026 43.5718 46.7188 43.3884V44.6874C46.7188 45.2261 46.9328 45.7428 47.3137 46.1237C47.6946 46.5047 48.2113 46.7187 48.75 46.7187Z" fill="#FC9E20"/>
<path d="M5.07812 45.7031V41.6406C5.07973 41.1023 5.29425 40.5866 5.67484 40.206C6.05543 39.8254 6.57115 39.6109 7.10938 39.6093H9.14062V18.1593C8.16203 17.9626 7.26362 17.4804 6.5587 16.7737C5.85379 16.067 5.37394 15.1673 5.17969 14.1882C5.0757 13.7012 5.04828 13.2009 5.09844 12.7054C5.25779 11.4264 5.88405 10.2513 6.85695 9.4059C7.82985 8.56047 9.08079 8.10428 10.3695 8.12494H7.10938C5.49321 8.12494 3.94324 8.76696 2.80044 9.90976C1.65764 11.0526 1.01563 12.6025 1.01562 14.2187V53.8281C1.01563 54.9055 1.44364 55.9388 2.2055 56.7007C2.96737 57.4626 4.00068 57.8906 5.07812 57.8906V45.7031Z" fill="#FC9E20"/>
<path d="M56.875 53.8281H48.75C47.6726 53.8281 46.6392 53.4001 45.8774 52.6382C45.1155 51.8764 44.6875 50.8431 44.6875 49.7656V44.6875C44.6875 44.1488 44.4735 43.6321 44.0926 43.2512C43.7116 42.8703 43.195 42.6562 42.6562 42.6562H41.6406V57.8906H55.8594C58.1039 57.8906 59.9219 56.0727 59.9219 54.8438V50.7812C59.9219 51.5893 59.6009 52.3643 59.0295 52.9357C58.4581 53.5071 57.6831 53.8281 56.875 53.8281Z" fill="#FC9E20"/>
</svg>
