<svg width="19" height="17" viewBox="0 0 19 17" fill="none" xmlns="http://www.w3.org/2000/svg">
<path d="M12.6786 6.67686H5.72582C5.33063 6.67686 5.01025 6.35648 5.01025 5.9613V0.715562C5.01025 0.320381 5.33063 0 5.72582 0H12.6786C13.0738 0 13.3942 0.320381 13.3942 0.715562V5.9613C13.3942 6.35648 13.0739 6.67686 12.6786 6.67686ZM6.44138 5.24574H11.9631V1.43112H6.44138V5.24574Z" fill="#734536"/>
<path d="M12.6789 0H9.17676V1.43112H11.9633V5.24574H9.17676V6.67686H12.6789C13.074 6.67686 13.3944 6.35648 13.3944 5.9613V0.715562C13.3944 0.320381 13.0741 0 12.6789 0Z" fill="#4F2E26"/>
<path d="M17.6887 16.9999H0.715562C0.320381 16.9999 0 16.6795 0 16.2844V6.73338C0 6.3382 0.320381 6.01782 0.715562 6.01782H17.6887C18.0839 6.01782 18.4042 6.3382 18.4042 6.73338V16.2844C18.4042 16.6796 18.0839 16.9999 17.6887 16.9999Z" fill="#9D5E4A"/>
<path d="M17.689 6.01782H9.17676V16.9999H17.689C18.0842 16.9999 18.4045 16.6795 18.4045 16.2844V6.73338C18.4045 6.3382 18.0842 6.01782 17.689 6.01782Z" fill="#734536"/>
<path d="M15.2894 10.6488H3.10239C2.87651 10.6488 2.66389 10.5422 2.5288 10.3611L0.142015 7.16124C0.0498031 7.03764 0 6.88761 0 6.73338V4.21336C0 3.81818 0.320381 3.4978 0.715562 3.4978H17.6887C18.0839 3.4978 18.4042 3.81818 18.4042 4.21336V6.73338C18.4042 6.88818 18.3541 7.03878 18.2612 7.16262L15.8619 10.3625C15.7268 10.5427 15.5147 10.6488 15.2894 10.6488Z" fill="#C6865C"/>
<path d="M17.689 3.4978H9.17676V10.6488H15.2897C15.515 10.6488 15.7271 10.5427 15.8622 10.3625L18.2615 7.16262C18.3544 7.03878 18.4045 6.88818 18.4045 6.73338V4.21336C18.4045 3.81818 18.0842 3.4978 17.689 3.4978Z" fill="#9D5E4A"/>
<path d="M9.20238 12.0161C8.8072 12.0161 8.48682 11.6957 8.48682 11.3005V9.99754C8.48682 9.60236 8.8072 9.28198 9.20238 9.28198C9.59756 9.28198 9.91794 9.60236 9.91794 9.99754V11.3005C9.91794 11.6957 9.59756 12.0161 9.20238 12.0161Z" fill="#FFE278"/>
<path d="M9.20242 9.28174C9.19374 9.28174 9.18534 9.28269 9.17676 9.28303V12.0146C9.18534 12.0149 9.19379 12.0159 9.20242 12.0159C9.5976 12.0159 9.91798 11.6955 9.91798 11.3003V9.9973C9.91798 9.60212 9.5976 9.28174 9.20242 9.28174Z" fill="#FFC178"/>
</svg>
