<svg width="20" height="20" viewBox="0 0 20 20" fill="none" xmlns="http://www.w3.org/2000/svg">
<path fill-rule="evenodd" clip-rule="evenodd" d="M10.0003 2.29102C5.74313 2.29102 2.29199 5.74215 2.29199 9.99935C2.29199 14.2565 5.74313 17.7077 10.0003 17.7077C14.2575 17.7077 17.7087 14.2565 17.7087 9.99935C17.7087 5.74215 14.2575 2.29102 10.0003 2.29102ZM1.04199 9.99935C1.04199 5.0518 5.05277 1.04102 10.0003 1.04102C14.9479 1.04102 18.9587 5.0518 18.9587 9.99935C18.9587 14.9469 14.9479 18.9577 10.0003 18.9577C5.05277 18.9577 1.04199 14.9469 1.04199 9.99935ZM7.05838 8.30741C7.30246 8.06333 7.69819 8.06333 7.94227 8.30741L10.0003 10.3655L12.0584 8.30741C12.3025 8.06333 12.6982 8.06333 12.9423 8.30741C13.1863 8.55148 13.1863 8.94721 12.9423 9.19129L10.4423 11.6913C10.1982 11.9354 9.80246 11.9354 9.55838 11.6913L7.05838 9.19129C6.81431 8.94721 6.81431 8.55148 7.05838 8.30741Z" fill="#8286AB"/>
</svg>
