<svg width="12" height="12" viewBox="0 0 12 12" fill="none" xmlns="http://www.w3.org/2000/svg">
<rect x="-0.25" y="0.25" width="11.5" height="11.5" rx="5.75" transform="matrix(-1 0 0 1 11.5 0)" stroke="white" stroke-width="0.5"/>
<path d="M4.70823 3.97639C4.76875 4.0221 4.9494 4.15857 5.05354 4.23984C5.26212 4.40262 5.53928 4.62503 5.81562 4.86496C6.09335 5.1061 6.36383 5.35942 6.56267 5.58446C6.66238 5.6973 6.73814 5.79643 6.78745 5.87823C6.83383 5.95516 6.84347 6.0006 6.84347 6.0006C6.84347 6.0006 6.83383 6.04471 6.78745 6.12164C6.73814 6.20344 6.66238 6.30256 6.56268 6.41541C6.36383 6.64045 6.09335 6.89377 5.81561 7.13491C5.53927 7.37483 5.26211 7.59725 5.05353 7.76003C4.94939 7.8413 4.76899 7.97758 4.70847 8.02328C4.5834 8.1154 4.55643 8.29165 4.64854 8.41672C4.74065 8.54179 4.91671 8.56851 5.04178 8.4764L5.04274 8.47567C5.10621 8.42773 5.29334 8.2864 5.3996 8.20347C5.61289 8.03702 5.89823 7.80811 6.18439 7.55965C6.46916 7.31241 6.76117 7.04028 6.9842 6.78786C7.09544 6.66197 7.19545 6.53436 7.26919 6.41205C7.33827 6.29746 7.40625 6.15237 7.40625 5.99993C7.40625 5.84749 7.33827 5.70241 7.26919 5.58782C7.19545 5.46551 7.09543 5.3379 6.9842 5.21201C6.76117 4.95959 6.46916 4.68746 6.1844 4.44022C5.89824 4.19176 5.6129 3.96285 5.39961 3.79639C5.29328 3.71341 5.10613 3.57206 5.04279 3.52422L5.04198 3.5236C4.91691 3.43149 4.74067 3.45808 4.64856 3.58315C4.55645 3.70821 4.58317 3.88428 4.70823 3.97639Z" fill="white"/>
</svg>
