<svg width="28" height="9" viewBox="0 0 28 9" fill="none" xmlns="http://www.w3.org/2000/svg">
<path d="M14.0001 8.98601C6.26811 8.98601 9.15527e-05 8.93023 9.15527e-05 8.86141C9.15527e-05 8.7926 6.26811 8.73682 14.0001 8.73682C21.7321 8.73682 28.0001 8.7926 28.0001 8.86141C28.0001 8.93023 21.7321 8.98601 14.0001 8.98601Z" fill="#58595B"/>
<path d="M10.9143 8.82558C10.9392 8.81971 10.9638 8.81313 10.9883 8.80588C11.0371 8.79136 11.085 8.77415 11.1318 8.75436C11.1552 8.74446 11.1783 8.73392 11.2012 8.72274C11.2926 8.67809 11.3795 8.62346 11.4608 8.56001C11.6234 8.43311 11.7637 8.27107 11.8735 8.08326C12.0383 7.80156 12.1345 7.46197 12.1345 7.09641V7.09606C12.1345 7.052 12.1327 7.00844 12.1298 6.96523C12.1295 6.95939 12.1291 6.95357 12.1287 6.94774C12.1254 6.90392 12.121 6.86044 12.1151 6.81757C12.1069 6.75828 12.0963 6.69999 12.0832 6.64281C12.083 6.64183 12.0827 6.64086 12.0825 6.6399C12.0699 6.58484 12.0549 6.5309 12.0378 6.47814C12.036 6.4727 12.0341 6.46739 12.0322 6.46197C12.0177 6.41836 12.002 6.37537 11.9846 6.33348C11.9844 6.33298 11.9842 6.33243 11.984 6.33189C11.9664 6.28984 11.9471 6.24896 11.9269 6.20881C11.9241 6.20343 11.9215 6.19795 11.9188 6.19258C11.8991 6.15459 11.8781 6.11766 11.8561 6.08158C11.8522 6.07516 11.8483 6.06876 11.8443 6.0624C11.822 6.02696 11.7987 5.99249 11.7743 5.95911C11.7693 5.9522 11.7641 5.94544 11.759 5.93865C11.7439 5.91865 11.7284 5.89905 11.7126 5.87985C11.7073 5.87339 11.7021 5.86683 11.6966 5.86046C11.6753 5.83542 11.6535 5.8109 11.6309 5.78735C11.6306 5.78696 11.6301 5.78656 11.6297 5.78618C11.6074 5.76292 11.5843 5.7406 11.5608 5.71888C11.556 5.71448 11.5512 5.71014 11.5464 5.7058C11.525 5.68645 11.5031 5.6677 11.4808 5.64966C11.4778 5.64723 11.4748 5.64471 11.4718 5.64229C11.4431 5.61948 11.4137 5.59785 11.3836 5.5773C11.3799 5.57471 11.376 5.57224 11.3722 5.56969C11.3438 5.55061 11.3148 5.53247 11.2851 5.5155C11.2828 5.5141 11.2804 5.51261 11.278 5.51125C11.2469 5.49365 11.2152 5.4774 11.183 5.46221C11.1775 5.45964 11.172 5.45722 11.1665 5.45472C11.1363 5.44093 11.1056 5.42806 11.0745 5.4165C11.0719 5.41555 11.0695 5.41448 11.0669 5.41353C11.0341 5.40158 11.0008 5.39114 10.9671 5.3817C10.96 5.37972 10.9528 5.37787 10.9457 5.37601C10.9135 5.36757 10.881 5.36004 10.8481 5.35399C10.8461 5.35362 10.844 5.3531 10.842 5.35273C10.8078 5.3466 10.773 5.34222 10.7381 5.33876C10.7298 5.33792 10.7214 5.33723 10.713 5.33656C10.6777 5.33373 10.6422 5.33179 10.6063 5.33179H11.4902C11.5261 5.33179 11.5616 5.33373 11.5969 5.33654C11.6053 5.33721 11.6137 5.33794 11.622 5.33876C11.6569 5.34219 11.6917 5.34662 11.7259 5.35273C11.728 5.3531 11.73 5.3536 11.7321 5.354C11.765 5.36005 11.7974 5.36758 11.8295 5.37601C11.8367 5.37788 11.8439 5.37974 11.851 5.38173C11.8847 5.39117 11.918 5.40158 11.9508 5.41353C11.9533 5.41447 11.9558 5.41555 11.9584 5.4165C11.9895 5.42808 12.0202 5.44093 12.0504 5.45472C12.0559 5.45722 12.0614 5.45962 12.0669 5.46221C12.0991 5.47738 12.1308 5.49364 12.1619 5.51125C12.1643 5.5126 12.1667 5.5141 12.1691 5.5155C12.1987 5.53247 12.2277 5.55062 12.2562 5.56969C12.26 5.57224 12.2638 5.5747 12.2676 5.5773C12.2976 5.59785 12.3271 5.61951 12.3558 5.64234C12.3566 5.64299 12.3575 5.64356 12.3583 5.64419C12.3605 5.6459 12.3625 5.64783 12.3646 5.64956C12.387 5.66766 12.4089 5.68645 12.4304 5.70588C12.4352 5.71016 12.44 5.71446 12.4447 5.71882C12.4683 5.74065 12.4914 5.763 12.5139 5.78637L12.5148 5.78731C12.5374 5.81087 12.5592 5.83539 12.5805 5.86046C12.5859 5.86685 12.5912 5.87339 12.5966 5.87985C12.6124 5.89905 12.6278 5.91865 12.6429 5.93865C12.6463 5.94321 12.6501 5.94743 12.6534 5.95202C12.6551 5.9543 12.6566 5.95682 12.6583 5.95911C12.6827 5.99249 12.7059 6.02696 12.7282 6.0624C12.7322 6.06876 12.7361 6.07516 12.74 6.08158C12.762 6.11769 12.7831 6.15463 12.8027 6.19267C12.8055 6.19796 12.808 6.20336 12.8107 6.20868C12.831 6.24889 12.8504 6.28984 12.8679 6.33198C12.8681 6.33241 12.8682 6.33284 12.8684 6.33326C12.8859 6.37528 12.9016 6.41837 12.9162 6.46216C12.9175 6.46585 12.919 6.46936 12.9203 6.47307C12.9208 6.47471 12.9211 6.47645 12.9217 6.47808C12.9388 6.53086 12.9537 6.58486 12.9664 6.63991C12.9667 6.6409 12.9669 6.64185 12.9672 6.64283C12.9898 6.74136 13.005 6.84328 13.0126 6.94777C13.013 6.95358 13.0133 6.95942 13.0137 6.96526C13.0165 7.00861 13.0184 7.05226 13.0184 7.09644C13.0184 7.58383 12.8474 8.0251 12.5709 8.34451C12.4671 8.46429 12.3486 8.56692 12.2187 8.64844C12.1104 8.7164 11.9943 8.76964 11.8722 8.80592C11.7501 8.84221 11.6221 8.8615 11.4902 8.8615H10.6063C10.6591 8.8615 10.7112 8.85842 10.7626 8.85239C10.814 8.84636 10.8646 8.83734 10.9143 8.82558Z" fill="#231F20"/>
<path d="M10.6408 5.33203C9.77764 5.33203 9.07826 6.1223 9.07826 7.09664C9.07826 8.07143 9.77764 8.8617 10.6408 8.8617C11.504 8.8617 12.2033 8.07143 12.2033 7.09664C12.2033 6.1223 11.504 5.33203 10.6408 5.33203Z" fill="#939598"/>
<path d="M10.6065 5.33203C9.76231 5.33203 9.07831 6.1223 9.07831 7.09664C9.07831 8.07143 9.76233 8.8617 10.6065 8.8617C11.4507 8.8617 12.1347 8.07143 12.1347 7.09664C12.1347 6.1223 11.4507 5.33203 10.6065 5.33203Z" fill="black"/>
<path d="M4.34587 6.08594H11.1012V7.5544H4.34587V6.08594Z" fill="black"/>
<path d="M7.73386 7.90747C7.34409 7.74602 7.159 7.29917 7.32045 6.9094C7.48191 6.51964 7.92876 6.33455 8.31852 6.496C8.70829 6.65745 8.89338 7.1043 8.73193 7.49407C8.57048 7.88384 8.12363 8.06892 7.73386 7.90747Z" fill="black"/>
<path d="M24.7945 8.82558C24.8194 8.81971 24.844 8.81313 24.8684 8.80588C24.9173 8.79136 24.9652 8.77415 25.012 8.75436C25.0354 8.74446 25.0585 8.73392 25.0814 8.72274C25.1728 8.67809 25.2597 8.62346 25.3409 8.56001C25.5036 8.43311 25.6439 8.27107 25.7537 8.08326C25.9184 7.80156 26.0146 7.46197 26.0146 7.09641V7.09606C26.0146 7.052 26.0129 7.00844 26.01 6.96523C26.0096 6.95939 26.0093 6.95357 26.0088 6.94774C26.0056 6.90392 26.0012 6.86044 25.9953 6.81757C25.9871 6.75828 25.9765 6.69999 25.9634 6.64281C25.9632 6.64183 25.9629 6.64086 25.9627 6.6399C25.9501 6.58484 25.9351 6.5309 25.918 6.47814C25.9162 6.4727 25.9143 6.46739 25.9124 6.46197C25.8979 6.41836 25.8822 6.37537 25.8648 6.33348C25.8645 6.33298 25.8644 6.33243 25.8642 6.33189C25.8466 6.28984 25.8273 6.24896 25.807 6.20881C25.8043 6.20343 25.8017 6.19795 25.799 6.19258C25.7793 6.15459 25.7583 6.11766 25.7363 6.08158C25.7324 6.07516 25.7285 6.06876 25.7245 6.0624C25.7022 6.02696 25.6789 5.99249 25.6545 5.95911C25.6495 5.9522 25.6443 5.94544 25.6392 5.93865C25.6241 5.91865 25.6086 5.89905 25.5928 5.87985C25.5875 5.87339 25.5822 5.86683 25.5768 5.86046C25.5555 5.83542 25.5337 5.8109 25.5111 5.78735C25.5107 5.78696 25.5103 5.78656 25.5099 5.78618C25.4876 5.76292 25.4645 5.7406 25.441 5.71888C25.4362 5.71448 25.4314 5.71014 25.4266 5.7058C25.4052 5.68645 25.3833 5.6677 25.361 5.64966C25.3579 5.64723 25.355 5.64471 25.352 5.64229C25.3233 5.61948 25.2939 5.59785 25.2638 5.5773C25.26 5.57471 25.2562 5.57224 25.2524 5.56969C25.224 5.55061 25.195 5.53247 25.1653 5.5155C25.1629 5.5141 25.1606 5.51261 25.1582 5.51125C25.1271 5.49365 25.0954 5.4774 25.0631 5.46221C25.0577 5.45964 25.0522 5.45722 25.0467 5.45472C25.0165 5.44093 24.9858 5.42806 24.9546 5.4165C24.9521 5.41555 24.9496 5.41448 24.9471 5.41353C24.9143 5.40158 24.881 5.39114 24.8473 5.3817C24.8401 5.37972 24.833 5.37787 24.8259 5.37601C24.7937 5.36757 24.7612 5.36004 24.7283 5.35399C24.7263 5.35362 24.7242 5.3531 24.7222 5.35273C24.688 5.3466 24.6532 5.34222 24.6183 5.33876C24.6099 5.33792 24.6016 5.33723 24.5932 5.33656C24.5579 5.33373 24.5224 5.33179 24.4865 5.33179H25.3703C25.4063 5.33179 25.4418 5.33373 25.4771 5.33654C25.4855 5.33721 25.4938 5.33794 25.5022 5.33876C25.5371 5.34219 25.5718 5.34662 25.606 5.35273C25.6081 5.3531 25.6102 5.3536 25.6122 5.354C25.6451 5.36005 25.6775 5.36758 25.7097 5.37601C25.7169 5.37788 25.7241 5.37974 25.7312 5.38173C25.7649 5.39117 25.7982 5.40158 25.831 5.41353C25.8335 5.41447 25.836 5.41555 25.8385 5.4165C25.8697 5.42808 25.9003 5.44093 25.9306 5.45472C25.9361 5.45722 25.9416 5.45962 25.9471 5.46221C25.9793 5.47738 26.011 5.49364 26.0421 5.51125C26.0445 5.5126 26.0469 5.5141 26.0493 5.5155C26.0788 5.53247 26.1078 5.55062 26.1363 5.56969C26.1401 5.57224 26.144 5.5747 26.1478 5.5773C26.1778 5.59785 26.2072 5.61951 26.2359 5.64234C26.2368 5.64299 26.2376 5.64356 26.2385 5.64419C26.2406 5.6459 26.2426 5.64783 26.2447 5.64956C26.2672 5.66766 26.2891 5.68645 26.3106 5.70588C26.3154 5.71016 26.3201 5.71446 26.3249 5.71882C26.3484 5.74065 26.3716 5.763 26.394 5.78637L26.395 5.78731C26.4175 5.81087 26.4394 5.83539 26.4607 5.86046C26.4661 5.86685 26.4714 5.87339 26.4767 5.87985C26.4925 5.89905 26.508 5.91865 26.5231 5.93865C26.5265 5.94321 26.5302 5.94743 26.5336 5.95202C26.5353 5.9543 26.5367 5.95682 26.5384 5.95911C26.5628 5.99249 26.5861 6.02696 26.6083 6.0624C26.6123 6.06876 26.6163 6.07516 26.6202 6.08158C26.6422 6.11769 26.6632 6.15463 26.6829 6.19267C26.6856 6.19796 26.6882 6.20336 26.6909 6.20868C26.7112 6.24889 26.7305 6.28984 26.7481 6.33198C26.7482 6.33241 26.7484 6.33284 26.7486 6.33326C26.766 6.37528 26.7818 6.41837 26.7964 6.46216C26.7976 6.46585 26.7992 6.46936 26.8004 6.47307C26.801 6.47471 26.8013 6.47645 26.8018 6.47808C26.8189 6.53086 26.8339 6.58486 26.8466 6.63991C26.8468 6.6409 26.8471 6.64185 26.8473 6.64283C26.87 6.74136 26.8852 6.84328 26.8927 6.94777C26.8932 6.95358 26.8935 6.95942 26.8939 6.96526C26.8966 7.00861 26.8985 7.05226 26.8985 7.09644C26.8985 7.58383 26.7275 8.0251 26.451 8.34451C26.3473 8.46429 26.2288 8.56692 26.0989 8.64844C25.9906 8.7164 25.8744 8.76964 25.7523 8.80592C25.6303 8.84221 25.5023 8.8615 25.3703 8.8615H24.4865C24.5392 8.8615 24.5914 8.85842 24.6428 8.85239C24.6941 8.84636 24.7447 8.83734 24.7945 8.82558Z" fill="#231F20"/>
<path d="M24.5208 5.33203C23.6576 5.33203 22.9582 6.1223 22.9582 7.09664C22.9582 8.07143 23.6576 8.8617 24.5208 8.8617C25.3839 8.8617 26.0833 8.07143 26.0833 7.09664C26.0833 6.1223 25.3839 5.33203 24.5208 5.33203Z" fill="#939598"/>
<path d="M24.4865 5.33203C23.6423 5.33203 22.9582 6.1223 22.9582 7.09664C22.9582 8.07143 23.6423 8.8617 24.4865 8.8617C25.3307 8.8617 26.0146 8.07143 26.0146 7.09664C26.0146 6.1223 25.3306 5.33203 24.4865 5.33203Z" fill="black"/>
<path d="M18.2261 6.08594H24.9815V7.5544H18.2261V6.08594Z" fill="black"/>
<path d="M21.3681 7.74252C21.0698 7.44422 21.0698 6.96057 21.3681 6.66226C21.6664 6.36396 22.1501 6.36396 22.4484 6.66226C22.7467 6.96057 22.7467 7.44422 22.4484 7.74252C22.1501 8.04083 21.6664 8.04083 21.3681 7.74252Z" fill="black"/>
<path d="M3.05981 7.23452H27.3521C27.5753 7.23452 27.7563 7.05355 27.7563 6.83031V6.12145C27.7563 4.88064 26.7504 3.87476 25.5096 3.87476H0.865599V5.04031C0.865599 6.25213 1.84797 7.23452 3.05981 7.23452Z" fill="black"/>
<path d="M4.56493 8.8617H5.44882C6.29302 8.8617 6.97702 8.07143 6.97702 7.09664C6.97702 6.12229 6.29302 5.33203 5.44882 5.33203H4.56493C5.40913 5.33203 6.09313 6.1223 6.09313 7.09664C6.09313 8.07144 5.40912 8.8617 4.56493 8.8617Z" fill="black"/>
<mask id="mask0_9938_2762" style="mask-type:luminance" maskUnits="userSpaceOnUse" x="4" y="5" width="3" height="4">
<path d="M4.56493 8.8617H5.44882C6.29302 8.8617 6.97702 8.07143 6.97702 7.09664C6.97702 6.12229 6.29302 5.33203 5.44882 5.33203H4.56493C5.40913 5.33203 6.09313 6.1223 6.09313 7.09664C6.09313 8.07144 5.40912 8.8617 4.56493 8.8617Z" fill="white"/>
</mask>
<g mask="url(#mask0_9938_2762)">
<path d="M6.09305 7.09624C6.09305 7.0013 6.08619 6.90826 6.07368 6.81738H6.95756C6.97006 6.90826 6.97693 7.0013 6.97693 7.09624C6.97693 8.07102 6.29293 8.86129 5.44873 8.86129H4.56484C5.40904 8.86128 6.09305 8.07102 6.09305 7.09624Z" fill="black"/>
<path d="M6.61201 5.95166C6.72521 6.10494 6.81607 6.28086 6.87883 6.47271C6.9148 6.58268 6.94116 6.69804 6.95755 6.81723H6.07366C6.05726 6.69804 6.03091 6.58268 5.99494 6.47271C5.93218 6.28086 5.84131 6.10494 5.72812 5.95166H6.61201Z" fill="black"/>
<path d="M6.31691 5.64404C6.42651 5.73157 6.52582 5.83508 6.61206 5.95186H5.72817C5.64193 5.83508 5.54262 5.73157 5.43302 5.64404H6.31691Z" fill="black"/>
<path d="M4.56498 5.33179H5.44887C5.77139 5.33179 6.07044 5.44728 6.31699 5.64418H5.4331C5.18655 5.44728 4.8875 5.33179 4.56498 5.33179Z" fill="black"/>
</g>
<path d="M4.59919 5.33203C3.73603 5.33203 3.03665 6.1223 3.03665 7.09664C3.03665 8.07143 3.73603 8.8617 4.59919 8.8617C5.46235 8.8617 6.16171 8.07143 6.16171 7.09664C6.16171 6.1223 5.46235 5.33203 4.59919 5.33203Z" fill="#939598"/>
<path d="M4.56488 5.33203C3.72068 5.33203 3.03667 6.1223 3.03667 7.09664C3.03667 8.07143 3.72067 8.8617 4.56488 8.8617C5.40908 8.8617 6.09308 8.07143 6.09308 7.09664C6.09308 6.1223 5.40907 5.33203 4.56488 5.33203Z" fill="#414042"/>
<path d="M4.56487 5.78369C3.93703 5.78369 3.42831 6.37143 3.42831 7.09607C3.42831 7.82103 3.93703 8.40877 4.56487 8.40877C5.19271 8.40877 5.70142 7.82103 5.70142 7.09607C5.70142 6.37143 5.19271 5.78369 4.56487 5.78369Z" fill="#231F20"/>
<path d="M4.56496 5.9751C4.02857 5.9751 3.59396 6.47723 3.59396 7.09631C3.59396 7.71567 4.02857 8.2178 4.56496 8.2178C5.10134 8.2178 5.53595 7.71567 5.53595 7.09631C5.53595 6.47721 5.10134 5.9751 4.56496 5.9751Z" fill="black"/>
<path d="M4.56492 5.84521C5.16392 5.84521 5.64929 6.40603 5.64929 7.09745C5.64929 7.78916 5.16392 8.34996 4.56492 8.34996C3.96583 8.34996 3.48046 7.78918 3.48046 7.09745C3.48046 6.40603 3.96582 5.84521 4.56492 5.84521ZM4.39827 7.22299L3.61186 7.46711C3.65758 7.62442 3.73169 7.76619 3.82707 7.88532L4.39827 7.22299ZM3.81361 6.32699C3.72028 6.44821 3.64792 6.59134 3.60489 6.74989L4.38791 6.99299L3.81361 6.32699ZM4.34567 5.96448L4.55452 6.86761L4.76465 5.95905C4.70007 5.94403 4.63328 5.93598 4.56492 5.93598C4.4895 5.93598 4.4163 5.9463 4.34567 5.96448ZM5.31613 7.86814C5.40942 7.74693 5.48177 7.60384 5.52476 7.44528L4.74187 7.20221L5.31613 7.86814ZM5.51787 6.72806C5.47215 6.57079 5.39805 6.429 5.30267 6.30987L4.73153 6.9722L5.51787 6.72806ZM4.78409 8.23074L4.57523 7.32758L4.36511 8.23614C4.42969 8.25116 4.49648 8.25921 4.56492 8.25921C4.64024 8.25921 4.71344 8.24889 4.78409 8.23074Z" fill="#E6E7E8"/>
<path d="M4.56474 7.05715C4.19603 7.05715 3.85385 7.13121 3.57052 7.25777C3.56412 7.20487 3.55969 7.15127 3.55969 7.09633C3.55969 6.45553 4.00956 5.93579 4.56475 5.93579C5.11995 5.93579 5.56982 6.45553 5.56982 7.09633C5.56982 7.15125 5.56538 7.20487 5.55899 7.25777C5.27564 7.13121 4.93345 7.05715 4.56474 7.05715Z" fill="#D1D3D4"/>
<path d="M4.56373 5.84521C5.16214 5.84521 5.64703 6.40571 5.64703 7.09677C5.64703 7.78811 5.16214 8.34859 4.56373 8.34859C3.96532 8.34859 3.48043 7.78811 3.48043 7.09677C3.48043 6.40571 3.96532 5.84521 4.56373 5.84521ZM4.56373 8.26058C5.12007 8.26058 5.5708 7.7395 5.5708 7.09677C5.5708 6.45433 5.12006 5.93327 4.56373 5.93327C4.00741 5.93327 3.5566 6.45433 3.5566 7.09677C3.5566 7.7395 4.00739 8.26058 4.56373 8.26058Z" fill="white"/>
<path d="M4.70624 6.71338C4.52309 6.71338 4.37469 6.88483 4.37469 7.09622C4.37469 7.3077 4.52309 7.81827 4.70624 7.81827C4.88938 7.81827 5.03778 7.3077 5.03778 7.09622C5.03778 6.88483 4.88938 6.71338 4.70624 6.71338Z" fill="#939598"/>
<path d="M4.70624 6.71338C4.52309 6.71338 4.37469 6.88483 4.37469 7.09622C4.37469 7.3077 4.52309 7.47915 4.70624 7.47915C4.88938 7.47915 5.03778 7.3077 5.03778 7.09622C5.03778 6.88483 4.88938 6.71338 4.70624 6.71338Z" fill="black"/>
<path d="M4.56491 6.71338C4.38177 6.71338 4.23336 6.88483 4.23336 7.09622C4.23336 7.3077 4.38177 7.47915 4.56491 7.47915C4.74805 7.47915 4.89645 7.3077 4.89645 7.09622C4.89645 6.88483 4.74805 6.71338 4.56491 6.71338Z" fill="white"/>
<path d="M18.4453 8.8617H19.3292C20.1734 8.8617 20.8574 8.07143 20.8574 7.09664C20.8574 6.12229 20.1734 5.33203 19.3292 5.33203H18.4453C19.2895 5.33203 19.9735 6.1223 19.9735 7.09664C19.9735 8.07144 19.2895 8.8617 18.4453 8.8617Z" fill="black"/>
<mask id="mask1_9938_2762" style="mask-type:luminance" maskUnits="userSpaceOnUse" x="18" y="5" width="3" height="4">
<path d="M18.4453 8.8617H19.3292C20.1734 8.8617 20.8574 8.07143 20.8574 7.09664C20.8574 6.12229 20.1734 5.33203 19.3292 5.33203H18.4453C19.2895 5.33203 19.9735 6.1223 19.9735 7.09664C19.9735 8.07144 19.2895 8.8617 18.4453 8.8617Z" fill="white"/>
</mask>
<g mask="url(#mask1_9938_2762)">
<path d="M19.9734 7.09624C19.9734 7.0013 19.9665 6.90826 19.954 6.81738H20.8379C20.8504 6.90826 20.8572 7.0013 20.8572 7.09624C20.8572 8.07102 20.1732 8.86129 19.329 8.86129H18.4452C19.2894 8.86128 19.9734 8.07102 19.9734 7.09624Z" fill="black"/>
<path d="M20.4923 5.95166C20.6055 6.10494 20.6964 6.28086 20.7591 6.47271C20.7951 6.58268 20.8215 6.69804 20.8379 6.81723H19.954C19.9376 6.69804 19.9112 6.58268 19.8752 6.47271C19.8125 6.28086 19.7216 6.10494 19.6084 5.95166H20.4923Z" fill="black"/>
<path d="M20.1972 5.64404C20.3068 5.73157 20.4061 5.83508 20.4924 5.95186H19.6085C19.5222 5.83508 19.4229 5.73157 19.3133 5.64404H20.1972Z" fill="black"/>
<path d="M18.445 5.33179H19.3289C19.6514 5.33179 19.9505 5.44728 20.197 5.64418H19.3131C19.0666 5.44728 18.7675 5.33179 18.445 5.33179Z" fill="black"/>
</g>
<path d="M18.4796 5.33203C17.6164 5.33203 16.917 6.1223 16.917 7.09664C16.917 8.07143 17.6164 8.8617 18.4796 8.8617C19.3427 8.8617 20.0421 8.07143 20.0421 7.09664C20.0421 6.1223 19.3427 5.33203 18.4796 5.33203Z" fill="#939598"/>
<path d="M18.4453 5.33203C17.6011 5.33203 16.917 6.1223 16.917 7.09664C16.917 8.07143 17.6011 8.8617 18.4453 8.8617C19.2895 8.8617 19.9734 8.07143 19.9734 7.09664C19.9734 6.1223 19.2895 5.33203 18.4453 5.33203Z" fill="#414042"/>
<path d="M18.4452 5.78369C17.8174 5.78369 17.3087 6.37143 17.3087 7.09607C17.3087 7.82103 17.8174 8.40877 18.4452 8.40877C19.0731 8.40877 19.5818 7.82103 19.5818 7.09607C19.5818 6.37143 19.0731 5.78369 18.4452 5.78369Z" fill="#231F20"/>
<path d="M18.445 5.9751C17.9086 5.9751 17.474 6.47723 17.474 7.09631C17.474 7.71567 17.9086 8.2178 18.445 8.2178C18.9814 8.2178 19.416 7.71567 19.416 7.09631C19.416 6.47721 18.9814 5.9751 18.445 5.9751Z" fill="black"/>
<path d="M18.4453 5.84521C19.0443 5.84521 19.5297 6.40603 19.5297 7.09745C19.5297 7.78916 19.0443 8.34996 18.4453 8.34996C17.8462 8.34996 17.3608 7.78918 17.3608 7.09745C17.3608 6.40603 17.8462 5.84521 18.4453 5.84521ZM18.2786 7.22299L17.4922 7.46711C17.538 7.62442 17.6121 7.76619 17.7074 7.88532L18.2786 7.22299ZM17.694 6.32699C17.6007 6.44821 17.5283 6.59134 17.4853 6.74989L18.2683 6.99299L17.694 6.32699ZM18.226 5.96448L18.4349 6.86761L18.645 5.95905C18.5804 5.94403 18.5136 5.93598 18.4453 5.93598C18.3699 5.93598 18.2967 5.9463 18.226 5.96448ZM19.1965 7.86814C19.2898 7.74693 19.3621 7.60384 19.4051 7.44528L18.6222 7.20221L19.1965 7.86814ZM19.3982 6.72806C19.3525 6.57079 19.2784 6.429 19.183 6.30987L18.6119 6.9722L19.3982 6.72806ZM18.6645 8.23074L18.4556 7.32758L18.2455 8.23614C18.3101 8.25116 18.3768 8.25921 18.4453 8.25921C18.5206 8.25921 18.5938 8.24889 18.6645 8.23074Z" fill="#E6E7E8"/>
<path d="M18.4451 7.05715C18.0764 7.05715 17.7342 7.13121 17.4509 7.25777C17.4445 7.20487 17.4401 7.15127 17.4401 7.09633C17.4401 6.45553 17.8899 5.93579 18.4451 5.93579C19.0003 5.93579 19.4502 6.45553 19.4502 7.09633C19.4502 7.15125 19.4458 7.20487 19.4393 7.25777C19.156 7.13121 18.8138 7.05715 18.4451 7.05715Z" fill="#D1D3D4"/>
<path d="M18.4441 5.84521C19.0425 5.84521 19.5274 6.40571 19.5274 7.09677C19.5274 7.78811 19.0425 8.34859 18.4441 8.34859C17.8457 8.34859 17.3608 7.78811 17.3608 7.09677C17.3608 6.40571 17.8457 5.84521 18.4441 5.84521ZM18.4441 8.26058C19.0004 8.26058 19.4512 7.7395 19.4512 7.09677C19.4512 6.45433 19.0004 5.93327 18.4441 5.93327C17.8878 5.93327 17.437 6.45433 17.437 7.09677C17.437 7.7395 17.8878 8.26058 18.4441 8.26058Z" fill="white"/>
<path d="M18.5866 6.71338C18.4035 6.71338 18.2551 6.88483 18.2551 7.09622C18.2551 7.3077 18.4035 7.81827 18.5866 7.81827C18.7698 7.81827 18.9182 7.3077 18.9182 7.09622C18.9182 6.88483 18.7698 6.71338 18.5866 6.71338Z" fill="#939598"/>
<path d="M18.5866 6.71338C18.4035 6.71338 18.2551 6.88483 18.2551 7.09622C18.2551 7.3077 18.4035 7.47915 18.5866 7.47915C18.7698 7.47915 18.9182 7.3077 18.9182 7.09622C18.9182 6.88483 18.7698 6.71338 18.5866 6.71338Z" fill="black"/>
<path d="M18.445 6.71338C18.2619 6.71338 18.1135 6.88483 18.1135 7.09622C18.1135 7.3077 18.2619 7.47915 18.445 7.47915C18.6281 7.47915 18.7766 7.3077 18.7766 7.09622C18.7766 6.88483 18.6281 6.71338 18.445 6.71338Z" fill="white"/>
<path d="M8.06874 7.07056H8.54599V7.93091H8.06874V7.07056Z" fill="black"/>
<path d="M15.3823 7.07056H15.8596V7.93091H15.3823V7.07056Z" fill="black"/>
<path d="M11.7257 7.07056H12.2029V7.93091H11.7257V7.07056Z" fill="black"/>
<path d="M7.12489 7.93013H15.9991C16.2482 7.93013 16.4502 7.72819 16.4502 7.47907V7.38794H7.12489V7.93013Z" fill="#231F20"/>
<path d="M7.91997 7.65904H15.0253C15.1744 7.65904 15.2952 7.53823 15.2952 7.38922V7.38794H7.65014V7.38922C7.65014 7.53824 7.77096 7.65904 7.91997 7.65904Z" fill="white"/>
<path d="M15.8598 7.93013H16.0134C16.2546 7.93013 16.4502 7.73457 16.4502 7.49334V7.38794H15.8598L15.8598 7.93013Z" fill="#414042"/>
<path d="M8.33881 7.65904H15.0253C15.1744 7.65904 15.2952 7.53823 15.2952 7.38922V7.38794H8.06899V7.38922C8.06899 7.53824 8.1898 7.65904 8.33881 7.65904Z" fill="#D1D3D4"/>
<path d="M0.199972 2.64301V2.64299H8.17438C8.17438 2.26292 8.7901 0.31231 8.79114 0.311359C9.20686 -0.064809 14.6977 -0.146046 19.2839 0.325208C19.7369 0.371763 20.8707 0.978582 22.8422 2.68829C23.8086 2.79947 26.6595 3.14996 27.0901 3.46172C27.61 3.83808 28.2678 5.19305 27.8859 6.90558H20.4375C20.4375 5.59082 19.5361 4.52498 18.4243 4.52498C17.3124 4.52498 16.4111 5.59082 16.4111 6.90558H6.59972C6.59972 5.59082 5.69837 4.52498 4.58648 4.52498C3.47463 4.52498 2.57328 5.59082 2.57328 6.90558H2.41543C1.78811 6.66094 1.53533 6.54174 0.496712 6.09636C-0.25194 5.7753 0.0845871 3.10414 0.199972 2.64301Z" fill="#2B3990"/>
<path d="M0.200296 2.64311V2.64309H8.1747C8.1747 2.26302 8.42706 0.57248 8.76986 0.325307C9.20485 0.0116672 11.3209 0.0970499 12.5202 0.325307C12.9676 0.410481 14.107 0.97868 16.0785 2.68838C17.0449 2.79956 19.8958 3.15005 20.3264 3.46182C20.5938 3.6554 20.8975 4.1079 21.0775 4.73475C21.2961 5.49604 21.9937 6.01988 22.7858 6.01988H27.9978C27.9895 6.30123 27.9549 6.59755 27.8862 6.90567H20.4379C20.4379 5.59092 19.5365 4.52508 18.4246 4.52508C17.3127 4.52508 16.4114 5.59092 16.4114 6.90567H6.60004C6.60004 5.59092 5.6987 4.52508 4.58681 4.52508C3.47496 4.52508 2.57361 5.59092 2.57361 6.90567H2.41575C1.78843 6.66104 1.53566 6.54184 0.497036 6.09645C-0.251616 5.7754 0.0849113 3.10424 0.200296 2.64311Z" fill="#202B6C"/>
<path d="M23.5463 6.24756H26.0288C26.7424 6.24756 26.7794 6.60983 26.8987 7.08612H22.1219C22.2412 6.60983 22.8327 6.24756 23.5463 6.24756Z" fill="black"/>
<path d="M9.3543 3.2094H0.107212C0.139725 2.94765 0.175198 2.74322 0.200251 2.64311V2.64309H8.17466C8.17466 2.26302 8.42702 0.57248 8.76981 0.325307C9.20481 0.0116672 11.3209 0.0970499 12.5202 0.325307C12.9676 0.410481 14.1069 0.97868 16.0785 2.68838C17.0448 2.79956 19.8958 3.15005 20.3264 3.46182C20.4451 3.54774 20.5709 3.68519 20.6899 3.86573C18.9688 3.26183 15.4514 3.2094 9.3543 3.2094Z" fill="#5561A6"/>
<path d="M2.30253 4.99693C2.41018 4.99693 2.51024 4.94228 2.56908 4.85212C3.03642 4.13616 3.75211 3.67773 4.55527 3.67773C5.17422 3.67773 5.74131 3.95006 6.18287 4.40266C6.55106 4.78003 7.05315 4.99693 7.58038 4.99693H15.4C15.9272 4.99693 16.4293 4.78003 16.7975 4.40264C17.2391 3.95005 17.8061 3.67773 18.4251 3.67773C19.8554 3.67773 21.0103 5.13034 20.9757 6.90474C20.9754 6.90507 20.9752 6.90526 20.9748 6.90559H20.4377C20.4377 5.59084 19.5363 4.52499 18.4245 4.52499C17.3126 4.52499 16.4113 5.59084 16.4113 6.90559H15.8754C15.8751 6.90526 15.8749 6.90508 15.8745 6.90476C15.8673 6.53844 15.9114 6.18621 15.9976 5.8573H6.98274C7.06893 6.18621 7.11305 6.53844 7.10583 6.90476C7.1055 6.90508 7.1053 6.90526 7.10498 6.90559H6.59992C6.59992 5.59084 5.69857 4.52499 4.58668 4.52499C3.47483 4.52499 2.57348 5.59084 2.57348 6.90559H2.41563C2.26222 6.84575 2.13124 6.79344 2.00564 6.742C2.01228 6.43398 2.05519 6.13719 2.12849 5.8573H1.04237C0.777977 5.8573 0.544638 5.68452 0.467503 5.43163L0.334913 4.99695H2.30253V4.99693Z" fill="#AAB0D3"/>
<path d="M1.92851 4.99693C2.24319 4.99693 2.54501 4.85926 2.7416 4.61354C3.20373 4.03592 3.84532 3.67773 4.55527 3.67773C5.39301 3.67773 6.13592 4.17637 6.60093 4.94593C6.72869 5.15737 6.95271 5.29167 7.19975 5.29167H15.7806C16.0277 5.29167 16.2517 5.15737 16.3794 4.94593C16.8445 4.17637 17.5874 3.67773 18.4251 3.67773C19.8554 3.67773 21.0103 5.13034 20.9757 6.90474C20.9754 6.90507 20.9752 6.90526 20.9748 6.90559H20.4377C20.4377 5.59084 19.5363 4.52499 18.4245 4.52499C17.3126 4.52499 16.4113 5.59084 16.4113 6.90559H15.8754C15.8751 6.90526 15.8749 6.90508 15.8745 6.90476C15.8673 6.53844 15.9114 6.18621 15.9976 5.8573H6.98274C7.06893 6.18621 7.11305 6.53844 7.10583 6.90476C7.1055 6.90508 7.1053 6.90526 7.10498 6.90559H6.59992C6.59992 5.59084 5.69857 4.52499 4.58668 4.52499C3.47483 4.52499 2.57348 5.59084 2.57348 6.90559H2.41563C2.26222 6.84575 2.13124 6.79344 2.00564 6.742C2.01228 6.43398 2.05519 6.13719 2.12849 5.8573H1.04237C0.777977 5.8573 0.544638 5.68452 0.467503 5.43163L0.334913 4.99695H1.92851V4.99693Z" fill="#2B3990"/>
<path d="M22.1523 2.10596C22.3698 2.284 22.5997 2.47756 22.8424 2.68802C23.6585 2.78191 25.8187 3.04653 26.73 3.3143C24.6269 3.26555 20.1149 3.10612 19.1908 2.62591C18.587 2.31212 20.2889 2.16978 22.1523 2.10596Z" fill="#8088BC"/>
<path d="M8.14004 6.99977H8.23682L8.14004 6.33611V3.16758L8.17469 2.64331H8.07789L8.04324 3.16754V6.33611L8.14004 6.99977Z" fill="black"/>
<path d="M12.4224 0.72314C12.7714 0.799637 13.6021 1.26321 15.0016 2.58468C15.064 2.64367 15.0995 2.72697 15.0995 2.81375C15.0995 2.91 15.0207 2.98733 14.9245 2.9848C14.3433 2.96967 12.4158 2.91716 10.6736 2.84344C10.6704 1.69034 10.6969 0.876654 10.7104 0.54126C11.3923 0.574114 12.0379 0.638901 12.4224 0.72314Z" fill="#231F20"/>
<path d="M16.4376 2.68828C14.9493 1.39768 13.9355 0.757773 13.3354 0.484863H19.7782C20.3831 0.761889 21.383 1.42271 22.8424 2.68828C22.8425 2.68829 22.8426 2.68829 22.8427 2.68829H16.4378C16.4377 2.68829 16.4376 2.68828 16.4376 2.68828Z" fill="black"/>
<path d="M23.5463 5.85742H26.0288C26.7424 5.85742 26.7794 5.48574 26.8987 4.99707H22.1219C22.2412 5.48575 22.8327 5.85742 23.5463 5.85742Z" fill="black"/>
<path d="M20.1573 0.680664C20.7302 1.00536 21.538 1.57547 22.6088 2.48739H16.903C16.6074 2.48739 16.3208 2.38399 16.0924 2.19622C15.2713 1.52091 14.62 1.06862 14.1253 0.777044C14.0798 0.750178 14.0987 0.680664 14.1516 0.680664H20.1573Z" fill="#709AA3"/>
<path d="M0.384574 3.64593L0.560334 4.51079C0.588805 4.6509 0.481711 4.78194 0.338733 4.78194H0.0202769C0.000394881 4.33677 0.0278397 3.85357 0.0685993 3.45288H0.148368C0.263009 3.45288 0.36178 3.5336 0.384574 3.64593Z" fill="#BE1E2D"/>
<path d="M0.281442 3.99196L0.396161 4.5565C0.41475 4.64796 0.344853 4.73349 0.25152 4.73349C0.135007 4.73349 0.0391437 4.63954 0.0393369 4.52302C0.039649 4.31515 0.0524462 4.10433 0.0701588 3.91723C0.0729375 3.88784 0.0977347 3.86597 0.12726 3.86597C0.202078 3.86597 0.266538 3.91864 0.281442 3.99196Z" fill="#ED1C24"/>
<path opacity="0.5" d="M0.32204 3.63186L0.397201 4.0017C0.409371 4.06161 0.363589 4.11765 0.302442 4.11765C0.226109 4.11765 0.163313 4.0561 0.163432 3.97976C0.16364 3.84359 0.172019 3.70546 0.183624 3.5829C0.185452 3.56364 0.201695 3.54932 0.221042 3.54932C0.270048 3.54932 0.312292 3.58383 0.32204 3.63186Z" fill="white"/>
<path d="M0.0201117 4.80215H0.338568C0.412747 4.80215 0.482246 4.76921 0.529188 4.71177C0.576129 4.6543 0.594638 4.57961 0.579868 4.50688L0.404101 3.64202C0.379508 3.52083 0.271908 3.43286 0.148188 3.43286H0.0684342C0.0573192 3.43286 0.0483143 3.44185 0.0483143 3.45298C0.0483143 3.46411 0.0573044 3.4731 0.0684342 3.4731H0.148188C0.252843 3.4731 0.343871 3.5475 0.364659 3.65005L0.540434 4.5149C0.552812 4.57575 0.537328 4.63823 0.498039 4.68631C0.458751 4.73438 0.400651 4.76193 0.338583 4.76193H0.0201263C0.00901133 4.76193 6.4373e-06 4.77092 6.4373e-06 4.78205C6.4373e-06 4.79316 0.00899684 4.80215 0.0201117 4.80215Z" fill="black"/>
<path d="M20.6582 3.83032H21.8375C22.1299 3.94999 22.5852 4.02729 23.0988 4.02729H25.8435C26.3571 4.02729 26.5531 3.94999 26.6642 3.83032H27.4304C27.6531 4.15505 27.855 4.63201 27.9471 5.21368H21.1156C20.6808 5.21368 20.3283 4.8612 20.3283 4.4264V4.16012C20.3283 3.97797 20.476 3.83032 20.6582 3.83032Z" fill="black"/>
<path d="M21.9952 4.32744L22.1052 4.55485C22.155 4.65771 22.08 4.7772 21.9658 4.7772H20.5608C20.5083 4.7772 20.4609 4.74461 20.443 4.69526C20.4129 4.6122 20.3961 4.52277 20.3961 4.42927V4.16299C20.3961 4.13122 20.4008 4.10063 20.4094 4.0717C20.4277 4.00982 20.4842 3.96704 20.5488 3.96704H21.4204C21.6653 3.96703 21.8885 4.10705 21.9952 4.32744Z" fill="#E6E7E8"/>
<path d="M21.681 4.43432L21.7511 4.57927C21.7828 4.64483 21.7351 4.72099 21.6623 4.72099H20.7139C20.6809 4.65404 20.6618 4.57896 20.6618 4.49922V4.3295C20.6618 4.28253 20.6777 4.23958 20.7038 4.20459H21.3147C21.4708 4.2046 21.613 4.29385 21.681 4.43432Z" fill="#D1D3D4"/>
<path d="M21.8422 4.23381L21.8899 4.33234C21.9114 4.37691 21.879 4.42868 21.8295 4.42868H21.1848C21.1623 4.38316 21.1494 4.33212 21.1494 4.27793V4.16254C21.1494 4.13061 21.1602 4.10143 21.1779 4.07764H21.5932C21.6993 4.07764 21.796 4.13831 21.8422 4.23381Z" fill="white"/>
<path d="M21.0645 4.36269L21.139 4.51665C21.1727 4.58628 21.1219 4.66719 21.0446 4.66719H20.4346C20.4104 4.59197 20.3961 4.51237 20.3961 4.42905V4.16277C20.3961 4.14772 20.3978 4.13313 20.3998 4.11865H20.6754C20.8411 4.11867 20.9923 4.21347 21.0645 4.36269Z" fill="#F7941D"/>
<path d="M27.1941 3.96704H27.5148C27.6454 4.18696 27.7638 4.46078 27.8511 4.77721H26.9193C26.805 4.77721 26.6902 4.65772 26.7056 4.55487L26.7397 4.32746C26.7728 4.10706 26.9493 3.96704 27.1941 3.96704Z" fill="#E6E7E8"/>
<path d="M26.9768 4.50554L26.962 4.60407C26.9553 4.64864 27.0051 4.70041 27.0546 4.70041H27.6992C27.7065 4.65489 27.7025 4.60385 27.6844 4.54966L27.6459 4.43427C27.6352 4.40234 27.6146 4.37316 27.589 4.34937H27.1737C27.0676 4.34938 26.9911 4.41004 26.9768 4.50554Z" fill="#D1D3D4"/>
<path d="M27.6272 4.66701C27.5498 4.66701 27.4721 4.5861 27.4825 4.51647L27.5056 4.36251C27.518 4.27967 27.5612 4.21448 27.6248 4.17212C27.697 4.32027 27.7631 4.48574 27.8189 4.66703H27.6272V4.66701Z" fill="#F7941D"/>
<path d="M26.872 4.27483L26.8572 4.37336C26.8505 4.41792 26.9003 4.46969 26.9498 4.46969H27.5944C27.6017 4.42418 27.5976 4.37314 27.5795 4.31894L27.541 4.20356C27.5304 4.17163 27.5098 4.14244 27.4841 4.11865H27.0689C26.9628 4.11867 26.8863 4.17934 26.872 4.27483Z" fill="white"/>
<path d="M9.40648 3.79193H9.82537C9.97728 3.79193 10.1019 3.67158 10.1072 3.51975L10.2141 0.392775C10.2141 0.253438 9.18524 0.36435 9.18524 0.36435C8.77897 0.474919 8.60841 1.82964 8.51377 2.81022C8.46293 3.33671 8.87754 3.79193 9.40648 3.79193Z" fill="black"/>
<path d="M9.40956 3.20916H9.73526C9.85338 3.20916 9.95027 3.11557 9.95437 2.99753L10.0375 0.566112C10.0375 0.457772 9.23752 0.544001 9.23752 0.544001C8.92162 0.629978 8.789 1.68335 8.71541 2.44582C8.6759 2.85519 8.99829 3.20916 9.40956 3.20916Z" fill="#58595B"/>
<path opacity="0.5" d="M9.73448 1.5195C9.73448 1.41572 8.90575 1.4904 8.8357 1.49691C8.92021 1.00967 9.04467 0.596481 9.23753 0.543997C9.23753 0.543997 10.0375 0.457768 10.0375 0.566123L9.95438 2.99752C9.95028 3.11558 9.8534 3.20915 9.73528 3.20915H9.66917L9.73448 1.5195Z" fill="white"/>
<path d="M14.1516 0.680664H20.1573C20.7302 1.00537 21.538 1.57547 22.6088 2.48739H21.7704C20.1318 1.38738 19.2287 0.995834 18.8715 0.929486C18.4652 0.854074 17.8029 0.796094 17.1125 0.766687C17.1773 1.03273 17.329 1.63549 17.572 2.48739H16.9549L16.6145 0.820819C16.5887 0.712493 15.8093 0.798722 15.8093 0.798722C15.6189 0.854118 15.6005 1.31123 15.6404 1.83327C15.0282 1.35408 14.5255 1.01291 14.1254 0.777059C14.0798 0.750193 14.0987 0.680664 14.1516 0.680664Z" fill="#231F20"/>
<path d="M14.9055 1.07373H16.003C16.1795 1.07373 16.3413 1.19654 16.3643 1.34802L16.4377 1.83036C16.4504 1.91337 16.539 1.98065 16.6357 1.98065C16.7774 1.98065 16.9073 2.07926 16.9258 2.20088L16.9695 2.48758H16.903C16.6074 2.48758 16.3207 2.38421 16.0924 2.19641C15.5584 1.75727 15.0967 1.41296 14.7028 1.14531C14.7528 1.10127 14.823 1.07373 14.9055 1.07373ZM15.0015 2.58487C15.0639 2.64386 15.0995 2.72716 15.0995 2.81394C15.0995 2.91019 15.0206 2.98752 14.9244 2.98499C14.8114 2.98205 14.6468 2.97766 14.4431 2.972L14.3257 2.20088C14.3154 2.13278 14.343 2.07265 14.3934 2.03227C14.5828 2.19721 14.7853 2.38073 15.0015 2.58487ZM11.251 1.98067C11.3477 1.98067 11.4159 1.91338 11.4033 1.83038L11.3299 1.34804C11.3068 1.19655 11.4312 1.07375 11.6077 1.07375H12.7053C12.8818 1.07375 13.0435 1.19656 13.0666 1.34804L13.14 1.83038C13.1526 1.91338 13.2412 1.98067 13.3379 1.98067C13.4796 1.98067 13.6095 2.07927 13.628 2.2009L13.7423 2.95184C13.0071 2.92989 12.0607 2.89925 11.1286 2.86227L11.028 2.2009C11.0095 2.07927 11.1093 1.98067 11.251 1.98067Z" fill="#58595B"/>
<path d="M21.336 2.05762C21.6866 2.05762 22.0214 2.20352 22.26 2.46034L22.2855 2.48778H16.903C16.6074 2.48778 16.3207 2.38438 16.0924 2.19661C16.0346 2.14909 15.9779 2.10295 15.9218 2.05762H21.336Z" fill="#939598"/>
<path opacity="0.5" d="M12.4225 0.723355C12.7715 0.799852 13.6022 1.26342 15.0017 2.58489C15.0659 2.6456 15.1017 2.73203 15.0996 2.82152C15.0973 2.9146 15.0182 2.98747 14.9251 2.98504C14.7249 2.97984 14.3646 2.97019 13.907 2.95675C12.879 2.06339 12.244 1.72469 11.9503 1.66031C11.651 1.59473 11.1932 1.54104 10.6836 1.50495C10.6918 1.05508 10.7031 0.725747 10.7105 0.541504C11.3924 0.574329 12.0379 0.639117 12.4225 0.723355Z" fill="white"/>
<path opacity="0.5" d="M17.3096 1.36918H15.0228C14.6806 1.1231 14.3818 0.928379 14.1254 0.777303C14.0798 0.750437 14.0988 0.680908 14.1517 0.680908H20.1574C20.7303 1.0056 21.5381 1.57572 22.6089 2.48763H20.8369C19.8082 1.76081 18.5759 1.36918 17.3096 1.36918Z" fill="white"/>
<path d="M11.0624 3.66211C10.8966 3.66211 10.7622 3.56805 10.7622 3.45203C10.7622 3.336 10.8966 3.24194 11.0624 3.24194C11.2282 3.24194 11.3626 3.336 11.3626 3.45203C11.3626 3.56805 11.2282 3.66211 11.0624 3.66211Z" fill="#939598"/>
<path d="M10.8407 3.57044H11.3593C11.4247 3.57044 11.4777 3.51741 11.4777 3.45197C11.4777 3.38654 11.4247 3.3335 11.3593 3.3335H10.8407C10.7753 3.3335 10.7222 3.38653 10.7222 3.45197C10.7222 3.51741 10.7753 3.57044 10.8407 3.57044Z" fill="#939598"/>
<path d="M10.7665 3.57044H11.2851C11.3505 3.57044 11.4036 3.51741 11.4036 3.45197C11.4036 3.38654 11.3505 3.3335 11.2851 3.3335H10.7665C10.7011 3.3335 10.6481 3.38653 10.6481 3.45197C10.6481 3.51741 10.7011 3.57044 10.7665 3.57044Z" fill="white"/>
<path d="M10.4358 0.373713V0.33374C11.2591 0.363756 12.0514 0.4385 12.5214 0.539589C12.7228 0.58292 13.5191 0.853348 15.3105 2.51403C15.3817 2.58001 15.4225 2.67373 15.4225 2.77116L15.4225 6.74969H10.5057V6.71362C10.3089 3.18619 10.4246 0.606695 10.4358 0.373713ZM15.3823 2.77114C15.3823 2.68489 15.3462 2.60193 15.2832 2.54351C13.4993 0.889813 12.7118 0.621688 12.513 0.578893C12.0623 0.48195 11.287 0.409376 10.4759 0.378527C10.464 0.626874 10.35 3.19746 10.5457 6.70943H15.3823L15.3823 2.77114Z" fill="black"/>
<path d="M10.6832 0.511483C10.6912 0.504261 10.7014 0.500889 10.7123 0.500978C11.4328 0.53569 12.0592 0.60229 12.431 0.68372C12.6193 0.724985 13.3629 0.981861 15.0292 2.55532C15.0995 2.6217 15.1398 2.71585 15.1398 2.81365C15.1398 2.87132 15.1171 2.92517 15.0759 2.96529C15.0363 3.00391 14.9844 3.02498 14.9292 3.02498C14.9273 3.02498 14.9254 3.02497 14.9235 3.02491C14.3686 3.01047 12.4221 2.95761 10.6717 2.88352C10.6502 2.88262 10.6334 2.86452 10.6334 2.84301C10.6303 1.71443 10.6551 0.915409 10.6702 0.539553C10.6706 0.528824 10.6753 0.518719 10.6832 0.511483ZM10.7137 2.80477C11.9877 2.85835 13.3585 2.90067 14.2177 2.92514V2.45942C14.2177 2.1174 14.0596 1.79429 13.7905 1.58324C12.9572 0.929883 12.5453 0.791139 12.4138 0.762311C12.0532 0.683303 11.4481 0.618324 10.749 0.58333C10.734 0.969142 10.7114 1.73659 10.7137 2.80477Z" fill="black"/>
<path d="M13.1845 4.18392L14.2035 3.35065C14.2711 3.29531 14.3104 3.21251 14.3104 3.12511V2.58079C14.3104 2.41954 14.1796 2.39573 14.0184 2.5276L13.1845 3.20953C13.1049 3.27464 13.0404 3.39196 13.0404 3.47157V4.15765C13.0403 4.23727 13.1049 4.24904 13.1845 4.18392Z" fill="#939598"/>
<path d="M13.1846 2.92923H14.3105V2.24679C14.3105 2.08555 14.1798 1.95483 14.0185 1.95483H13.1846C13.105 1.95483 13.0405 2.01938 13.0405 2.099V2.78508C13.0405 2.8647 13.105 2.92923 13.1846 2.92923Z" fill="#414042"/>
<path d="M13.3562 2.92923H14.3105V2.24679C14.3105 2.08555 14.1798 1.95483 14.0185 1.95483H13.3562C13.2766 1.95483 13.212 2.01938 13.212 2.099V2.78508C13.212 2.8647 13.2766 2.92923 13.3562 2.92923Z" fill="#808285"/>
<path d="M13.212 2.44232H14.2838V2.35139C14.2838 2.22084 14.178 2.11499 14.0475 2.11499H13.3287C13.2643 2.11499 13.212 2.16725 13.212 2.23171L13.212 2.44232Z" fill="#BCBEC0"/>
<path d="M13.5187 2.27546H14.0039C14.0841 2.27546 14.1491 2.21047 14.1491 2.13029C14.1491 2.0501 14.0841 1.98511 14.0039 1.98511H13.5187C13.4385 1.98511 13.3735 2.0501 13.3735 2.13029C13.3735 2.21047 13.4385 2.27546 13.5187 2.27546Z" fill="white"/>
<path d="M13.8961 2.92947H14.4017C14.4657 2.92947 14.5175 2.8776 14.5175 2.81361C14.5175 2.74963 14.4657 2.69775 14.4017 2.69775H13.8961C13.8322 2.69775 13.7803 2.74963 13.7803 2.81361C13.7803 2.8776 13.8322 2.92947 13.8961 2.92947Z" fill="#414042"/>
<path d="M13.9488 2.92947H14.4544C14.5184 2.92947 14.5703 2.8776 14.5703 2.81361C14.5703 2.74963 14.5184 2.69775 14.4544 2.69775H13.9488C13.8849 2.69775 13.833 2.74963 13.833 2.81361C13.833 2.8776 13.8849 2.92947 13.9488 2.92947Z" fill="#808285"/>
<path d="M13.9788 2.69775H14.4544C14.5184 2.69775 14.5703 2.74963 14.5703 2.81363H14.0946C14.0306 2.81363 13.9788 2.76175 13.9788 2.69775Z" fill="#E6E7E8"/>
<path d="M23.6567 5.62771H25.933C26.1646 5.62771 26.3579 5.46875 26.3783 5.26143L26.4592 4.43944C26.4734 4.29551 26.3472 4.17163 26.1864 4.17163H22.5892C22.3799 4.17163 22.2479 4.37402 22.3503 4.53808L22.7234 5.13632C22.9126 5.43978 23.2696 5.62771 23.6567 5.62771Z" fill="#E6E7E8"/>
<path d="M23.8067 5.53753H25.7323C25.9282 5.53753 26.0917 5.40458 26.1089 5.23122L26.1774 4.5438C26.1894 4.42344 26.0826 4.31982 25.9466 4.31982H22.9036C22.7266 4.31982 22.6149 4.48909 22.7015 4.62629L23.0171 5.12659C23.1772 5.38039 23.4792 5.53753 23.8067 5.53753Z" fill="black"/>
</svg>
