<svg width="14" height="14" viewBox="0 0 14 14" fill="none" xmlns="http://www.w3.org/2000/svg">
<path fill-rule="evenodd" clip-rule="evenodd" d="M5.09339 3.36693L3.30714 5.7837C2.55772 6.79766 2.18301 7.30464 2.38948 7.70327C2.3929 7.70987 2.39642 7.71642 2.40004 7.72292C2.61876 8.11547 3.26593 8.11547 4.56027 8.11547C5.27954 8.11547 5.63918 8.11547 5.86476 8.32763L5.87644 8.33886L8.13508 5.67304L8.1234 5.66182C7.90259 5.44508 7.90259 5.09954 7.90259 4.40847V4.22781C7.90259 2.31178 7.90259 1.35376 7.36396 1.1887C6.82533 1.02364 6.24802 1.80474 5.09339 3.36693Z" fill="#2979FF"/>
<path opacity="0.5" d="M6.09742 9.59203L6.09741 9.77261C6.09739 11.6887 6.09737 12.6467 6.636 12.8118C7.17463 12.9768 7.75195 12.1957 8.9066 10.6335L10.6929 8.21678C11.4423 7.20282 11.817 6.69584 11.6105 6.29721C11.6071 6.29061 11.6036 6.28406 11.6 6.27756C11.3812 5.88501 10.7341 5.88501 9.43973 5.88501C8.72047 5.88501 8.36084 5.88501 8.13526 5.67285L5.87662 8.33866C6.09743 8.55541 6.09743 8.90095 6.09742 9.59203Z" fill="#2979FF"/>
</svg>
