<svg width="80" height="80" viewBox="0 0 80 80" fill="none" xmlns="http://www.w3.org/2000/svg">
<g clip-path="url(#clip0_10019_5228)">
<path d="M80 62.3236V14.5828L40 0.175781L0 14.5828V65.0642L40 79.4712L62.9167 71.2172L80 62.3236Z" fill="#FB923C"/>
<path d="M80 62.9969V14.5828L40 0.175781V79.4712L62.9688 71.1984L80 62.9969Z" fill="#FA502E"/>
<path d="M40 0.175781L0 14.5828L40 29.9798L80 14.5828L40 0.175781Z" fill="#FDDA50"/>
<path d="M40 0.175781V29.9798L80 14.5828L40 0.175781Z" fill="#FBBF24"/>
<path d="M57.2738 23.332L17.6152 8.23938L24.4179 5.78906L63.8668 20.7942L57.2738 23.332Z" fill="#FBBF24"/>
<path d="M63.8669 20.793L40 11.7148V16.757L57.2739 23.3308L63.8669 20.793Z" fill="#FB923C"/>
<path d="M63.1056 46.0352C53.7899 46.0352 46.2112 53.6139 46.2112 62.9297C46.2112 72.2453 53.7899 79.8241 63.1056 79.8241C72.4212 79.8241 79.9999 72.2452 79.9999 62.9297C79.9999 53.6139 72.4212 46.0352 63.1056 46.0352Z" fill="#2161CC"/>
<path d="M63.1057 46.0352V79.8241C72.4213 79.8241 80.0001 72.2453 80.0001 62.9297C80.0001 53.6139 72.4213 46.0352 63.1057 46.0352Z" fill="#112272"/>
<path d="M69.2691 60.0762L65.9545 56.7617L63.1072 59.6091L60.2598 56.7617L56.9453 60.0762L59.7927 62.9236L56.9453 65.7709L60.2598 69.0855L63.1072 66.2381L65.9545 69.0855L69.2691 65.7709L66.4217 62.9236L69.2691 60.0762Z" fill="#9ED0FF"/>
<path d="M69.2693 60.0762L65.9548 56.7617L63.1074 59.6091V66.2381L65.9548 69.0855L69.2693 65.7709L66.422 62.9236L69.2693 60.0762Z" fill="#2979FF"/>
</g>
<defs>
<clipPath id="clip0_10019_5228">
<rect width="80" height="80" fill="white"/>
</clipPath>
</defs>
</svg>
