<svg width="14" height="14" viewBox="0 0 14 14" fill="none" xmlns="http://www.w3.org/2000/svg">
<path fill-rule="evenodd" clip-rule="evenodd" d="M4.82887 2.46531C5.03039 1.47242 5.90821 0.725098 6.96058 0.725098C8.01295 0.725098 8.89077 1.47242 9.09229 2.46531L9.53089 2.46529C9.83473 2.46509 10.0695 2.46493 10.2738 2.51967C10.8242 2.66717 11.2542 3.09714 11.4017 3.64761C11.4564 3.85188 11.4563 4.08664 11.4561 4.39048L11.4561 4.52089C11.4562 5.16938 11.4563 5.5825 11.3622 5.9337C11.2991 6.16914 11.2061 6.39181 11.0874 6.59748C11.149 6.704 11.1993 6.80141 11.2418 6.90275C11.3225 7.0954 11.3811 7.29661 11.4164 7.5025C11.4535 7.71911 11.4559 7.93923 11.456 8.26583L11.7032 8.26583C11.911 8.26582 12.0974 8.2658 12.2504 8.28074C12.4135 8.29667 12.5896 8.33319 12.7524 8.44093C13.0679 8.64978 13.1692 8.95835 13.191 9.21958C13.2069 9.41058 13.1816 9.62101 13.1644 9.76415C13.1608 9.79457 13.1575 9.82194 13.155 9.84545L13.1115 10.2625C13.0788 10.5783 13.0531 10.8265 12.9646 11.0389C12.7724 11.4998 12.3726 11.8419 11.8895 11.9752C11.6897 12.0303 11.4655 12.0358 11.1791 12.0362C11.0919 12.2283 10.9754 12.4029 10.8189 12.5594C10.4698 12.9085 10.0302 13.0587 9.50805 13.1289C9.00516 13.1965 8.36575 13.1965 7.57247 13.1965H6.3487C5.55542 13.1965 4.91601 13.1965 4.41312 13.1289C3.89101 13.0587 3.4514 12.9085 3.10225 12.5594C2.94582 12.4029 2.82933 12.2284 2.74208 12.0363C2.45568 12.0359 2.23151 12.0304 2.03176 11.9754C1.54883 11.8422 1.14894 11.5005 0.956671 11.0399C0.868064 10.8276 0.842348 10.5796 0.809643 10.2642L0.764036 9.82732C0.743508 9.63101 0.724678 9.45093 0.724979 9.30088C0.725305 9.13847 0.746691 8.95834 0.846435 8.78559C1.03747 8.45474 1.34742 8.33444 1.6036 8.29185C1.78965 8.26091 2.0004 8.26492 2.14492 8.26767L2.1456 8.26768C2.18043 8.26834 2.21139 8.26893 2.23721 8.26893H2.46515C2.46525 7.94062 2.46751 7.7198 2.50476 7.5025C2.54005 7.29661 2.59864 7.0954 2.67941 6.90275C2.7219 6.80139 2.7722 6.70395 2.83379 6.5974C2.71514 6.39176 2.62215 6.16911 2.55908 5.9337C2.46497 5.5825 2.46506 5.16938 2.46518 4.52089L2.46517 4.39049C2.46497 4.08665 2.46481 3.85188 2.51955 3.64761C2.66705 3.09714 3.09702 2.66717 3.64749 2.51967C3.85176 2.46493 4.08653 2.46509 4.39037 2.46529L4.82887 2.46531ZM5.7297 2.46531C5.90885 1.95838 6.3923 1.59518 6.96058 1.59518C7.52886 1.59518 8.01231 1.95838 8.19146 2.46531H5.7297ZM11.456 9.31294V9.13591H11.684C11.9171 9.13591 12.0603 9.1364 12.1658 9.14671C12.2401 9.15396 12.2668 9.16405 12.2725 9.16674C12.2945 9.18132 12.3161 9.19805 12.3239 9.29194C12.3318 9.38632 12.3207 9.48202 12.3052 9.61592C12.3003 9.65814 12.295 9.70417 12.2896 9.75514L12.2523 10.1131C12.2101 10.5171 12.1943 10.6254 12.1615 10.704C12.0763 10.9084 11.8935 11.0715 11.658 11.1365C11.602 11.1519 11.535 11.1595 11.3991 11.1631C11.456 10.6739 11.456 10.0619 11.456 9.31294ZM2.46515 9.13901H2.23721C2.17743 9.13901 2.12386 9.13814 2.07477 9.13734C1.94451 9.13523 1.84573 9.13362 1.74631 9.15015C1.6395 9.16791 1.61515 9.19538 1.60179 9.21751C1.59975 9.22524 1.59517 9.24922 1.59506 9.30263C1.59486 9.40067 1.6082 9.53388 1.63152 9.75705L1.66887 10.1146C1.71104 10.5182 1.7269 10.6263 1.75962 10.7047C1.84475 10.9087 2.02746 11.0716 2.26301 11.1366C2.31912 11.1521 2.38614 11.1596 2.52206 11.1632C2.46513 10.6739 2.46514 10.062 2.46515 9.31295L2.46515 9.13901ZM9.41391 7.88197C9.81035 7.77574 10.1706 7.5847 10.4744 7.32913C10.5119 7.43317 10.5401 7.54037 10.5588 7.6495C10.5845 7.79921 10.5859 7.95694 10.5859 8.37277V9.28111C10.5859 10.1137 10.585 10.6944 10.5261 11.1326C10.4689 11.5582 10.3642 11.7836 10.2037 11.9441C10.0431 12.1047 9.81774 12.2093 9.39211 12.2666C8.95397 12.3255 8.37326 12.3264 7.54064 12.3264H6.38053C5.54791 12.3264 4.96721 12.3255 4.52906 12.2666C4.10343 12.2093 3.87804 12.1047 3.7175 11.9441C3.55696 11.7836 3.45229 11.5582 3.39507 11.1326C3.33616 10.6944 3.33523 10.1137 3.33523 9.28111V8.37278C3.33523 7.95694 3.33667 7.79921 3.36233 7.6495C3.38104 7.54035 3.40932 7.43314 3.44681 7.32907C3.75061 7.58468 4.11088 7.77573 4.50734 7.88197C4.59524 7.90552 4.687 7.92317 4.78537 7.9364V8.41084C4.78537 8.65111 4.98014 8.84589 5.22041 8.84589C5.46068 8.84589 5.65545 8.65111 5.65545 8.41084V7.97564C5.73908 7.97589 5.82701 7.97588 5.91976 7.97586H8.00111C8.09396 7.97588 8.18199 7.97589 8.26571 7.97564V8.41084C8.26571 8.65111 8.46048 8.84589 8.70075 8.84589C8.94102 8.84589 9.13579 8.65111 9.13579 8.41084V7.93641C9.23419 7.92318 9.32599 7.90552 9.41391 7.88197ZM4.44705 3.3354C4.05942 3.3354 3.95094 3.33914 3.87269 3.36011C3.62247 3.42715 3.42703 3.62259 3.35998 3.87281C3.33901 3.95107 3.33528 4.05954 3.33528 4.44717C3.33528 5.19443 3.33901 5.48272 3.39951 5.7085C3.57383 6.35907 4.08198 6.86721 4.73254 7.04153C4.95833 7.10203 5.24661 7.10576 5.99387 7.10576H7.92739C8.67465 7.10576 8.96293 7.10203 9.18872 7.04153C9.83928 6.86721 10.3474 6.35907 10.5217 5.7085C10.5822 5.48272 10.586 5.19443 10.586 4.44717C10.586 4.05954 10.5822 3.95107 10.5613 3.87281C10.4942 3.62259 10.2988 3.42715 10.0486 3.36011C9.97031 3.33914 9.86184 3.3354 9.47421 3.3354H4.44705ZM12.2738 9.16742L12.2725 9.16674C12.2734 9.16716 12.2738 9.16741 12.2738 9.16742Z" fill="#8286AB"/>
</svg>
