<svg width="14" height="14" viewBox="0 0 14 14" fill="none" xmlns="http://www.w3.org/2000/svg">
<g clip-path="url(#clip0_9760_35403)">
<path d="M1.16669 3.06661C1.16669 2.01721 2.08077 1.1665 3.20835 1.1665C4.33594 1.1665 5.25002 2.01721 5.25002 3.06661C5.25002 4.10778 4.59839 5.32273 3.58171 5.75721C3.3447 5.85849 3.07201 5.85849 2.835 5.75721C1.81832 5.32273 1.16669 4.10778 1.16669 3.06661Z" stroke="#A3A3A3"/>
<path d="M8.75 10.0666C8.75 9.01721 9.66409 8.1665 10.7917 8.1665C11.9192 8.1665 12.8333 9.01721 12.8333 10.0666C12.8333 11.1078 12.1817 12.3227 11.165 12.7572C10.928 12.8585 10.6553 12.8585 10.4183 12.7572C9.40163 12.3227 8.75 11.1078 8.75 10.0666Z" stroke="#A3A3A3"/>
<path opacity="0.5" d="M6.99998 2.4165C6.72384 2.4165 6.49998 2.64036 6.49998 2.9165C6.49998 3.19265 6.72384 3.4165 6.99998 3.4165V2.9165V2.4165ZM6.99998 11.0832L7.35354 11.4367C7.5488 11.2415 7.5488 10.9249 7.35354 10.7296L6.99998 11.0832ZM10.0366 5.06744L10.305 5.48927V5.48927L10.0366 5.06744ZM3.96337 8.93223L4.23181 9.35406V9.35406L3.96337 8.93223ZM6.47854 9.85462C6.28328 9.65936 5.96669 9.65936 5.77143 9.85462C5.57617 10.0499 5.57617 10.3665 5.77143 10.5617L6.12498 10.2082L6.47854 9.85462ZM5.77143 11.6046C5.57617 11.7999 5.57617 12.1165 5.77143 12.3117C5.96669 12.507 6.28328 12.507 6.47854 12.3117L6.12498 11.9582L5.77143 11.6046ZM9.41025 2.9165V2.4165H6.99998V2.9165V3.4165H9.41025V2.9165ZM6.99998 11.0832V10.5832H4.58972V11.0832V11.5832H6.99998V11.0832ZM10.0366 5.06744L9.76817 4.64561L3.69493 8.5104L3.96337 8.93223L4.23181 9.35406L10.305 5.48927L10.0366 5.06744ZM6.99998 11.0832L7.35354 10.7296L6.47854 9.85462L6.12498 10.2082L5.77143 10.5617L6.64643 11.4367L6.99998 11.0832ZM6.99998 11.0832L6.64643 10.7296L5.77143 11.6046L6.12498 11.9582L6.47854 12.3117L7.35354 11.4367L6.99998 11.0832ZM4.58972 11.0832V10.5832C3.92276 10.5832 3.66911 9.71214 4.23181 9.35406L3.96337 8.93223L3.69493 8.5104C2.2882 9.40559 2.9223 11.5832 4.58972 11.5832V11.0832ZM9.41025 2.9165V3.4165C10.0772 3.4165 10.3309 4.28753 9.76817 4.64561L10.0366 5.06744L10.305 5.48927C11.7118 4.59408 11.0777 2.4165 9.41025 2.4165V2.9165Z" fill="#A3A3A3"/>
<path d="M10.7917 10.2085H10.7969" stroke="#A3A3A3" stroke-linecap="round" stroke-linejoin="round"/>
<path d="M3.20294 3.2085H3.20819" stroke="#A3A3A3" stroke-linecap="round" stroke-linejoin="round"/>
</g>
<defs>
<clipPath id="clip0_9760_35403">
<rect width="14" height="14" fill="white"/>
</clipPath>
</defs>
</svg>
