<svg width="12" height="12" viewBox="0 0 12 12" fill="none" xmlns="http://www.w3.org/2000/svg">
<path opacity="0.5" d="M1.5 5C1.5 3.11438 1.5 2.17157 2.08579 1.58579C2.67157 1 3.61438 1 5.5 1H6.5C8.38562 1 9.32843 1 9.91421 1.58579C10.5 2.17157 10.5 3.11438 10.5 5V7C10.5 8.88562 10.5 9.82843 9.91421 10.4142C9.32843 11 8.38562 11 6.5 11H5.5C3.61438 11 2.67157 11 2.08579 10.4142C1.5 9.82843 1.5 8.88562 1.5 7V5Z" stroke="#8286AB"/>
<path d="M4 6H8" stroke="#8286AB" stroke-linecap="round"/>
<path d="M4 4H8" stroke="#8286AB" stroke-linecap="round"/>
<path d="M4 8H6.5" stroke="#8286AB" stroke-linecap="round"/>
</svg>
