<svg width="12" height="12" viewBox="0 0 12 12" fill="none" xmlns="http://www.w3.org/2000/svg">
<rect x="-0.25" y="-0.25" width="11.5" height="11.5" rx="5.75" transform="matrix(0 -1 -1 0 11.5 11.5)" stroke="#94A3B8" stroke-width="0.5"/>
<path d="M8.02361 4.70823C7.9779 4.76875 7.84143 4.9494 7.76016 5.05354C7.59738 5.26212 7.37497 5.53928 7.13504 5.81562C6.8939 6.09335 6.64058 6.36383 6.41554 6.56267C6.3027 6.66238 6.20357 6.73814 6.12177 6.78745C6.04484 6.83383 5.9994 6.84347 5.9994 6.84347C5.9994 6.84347 5.95529 6.83383 5.87836 6.78745C5.79656 6.73814 5.69744 6.66238 5.58459 6.56268C5.35955 6.36383 5.10623 6.09335 4.86509 5.81561C4.62517 5.53927 4.40275 5.26211 4.23997 5.05353C4.1587 4.94939 4.02242 4.76899 3.97672 4.70847C3.8846 4.5834 3.70835 4.55643 3.58328 4.64854C3.45821 4.74065 3.43149 4.91671 3.5236 5.04178L3.52433 5.04274C3.57227 5.10621 3.7136 5.29334 3.79653 5.3996C3.96298 5.61289 4.19189 5.89823 4.44035 6.18439C4.68759 6.46916 4.95972 6.76117 5.21214 6.9842C5.33803 7.09544 5.46564 7.19545 5.58795 7.26919C5.70254 7.33827 5.84763 7.40625 6.00007 7.40625C6.15251 7.40625 6.29759 7.33827 6.41218 7.26919C6.53449 7.19545 6.6621 7.09543 6.78799 6.9842C7.04041 6.76117 7.31254 6.46916 7.55978 6.1844C7.80824 5.89824 8.03715 5.6129 8.20361 5.39961C8.28659 5.29328 8.42794 5.10613 8.47578 5.04279L8.4764 5.04198C8.56851 4.91691 8.54192 4.74067 8.41685 4.64856C8.29179 4.55645 8.11572 4.58317 8.02361 4.70823Z" fill="#94A3B8"/>
</svg>
