<svg width="15" height="10" viewBox="0 0 15 10" fill="none" xmlns="http://www.w3.org/2000/svg">
<path d="M0 4.79209C2.23199e-06 5.10339 0.138045 5.39219 0.268766 5.60905C0.40983 5.84306 0.599536 6.08467 0.807653 6.32023C1.22515 6.79279 1.76989 7.30027 2.29853 7.75933C2.83027 8.22108 3.36019 8.64626 3.75604 8.95524C3.9543 9.10999 4.1197 9.23618 4.23587 9.32394C4.29397 9.36783 4.3398 9.40214 4.37132 9.42564L4.40762 9.45263L4.41726 9.45975L4.4206 9.46222C4.69852 9.66694 5.09013 9.60786 5.29485 9.32994C5.49956 9.05204 5.44023 8.66081 5.16235 8.45608L5.15174 8.44824L5.11836 8.42343C5.08885 8.40143 5.04516 8.36873 4.98933 8.32655C4.87764 8.24217 4.71752 8.12001 4.52516 7.96987C4.13977 7.66906 3.62803 7.25831 3.11811 6.81552C2.60509 6.37003 2.10818 5.90434 1.74443 5.49261C1.72142 5.46657 1.69916 5.44098 1.67764 5.41585L13.9583 5.41584C14.3035 5.41584 14.5833 5.13602 14.5833 4.79084C14.5833 4.44567 14.3035 4.16584 13.9583 4.16584L1.67975 4.16585C1.70061 4.14151 1.72217 4.11674 1.74443 4.09155C2.10818 3.67982 2.60509 3.21413 3.11811 2.76864C3.62802 2.32585 4.13977 1.9151 4.52516 1.61429C4.71752 1.46415 4.87764 1.34198 4.98933 1.25761C5.04516 1.21543 5.08885 1.18273 5.11836 1.16073L5.15174 1.13592L5.16234 1.12808C5.44023 0.923351 5.49956 0.532119 5.29485 0.254214C5.09013 -0.0237046 4.69852 -0.08278 4.4206 0.121938L4.41726 0.124405L4.40762 0.131533L4.37132 0.15852C4.3398 0.182016 4.29397 0.216326 4.23586 0.260217C4.11969 0.347977 3.9543 0.474173 3.75604 0.62892C3.36018 0.937898 2.83027 1.36308 2.29853 1.82483C1.76989 2.28389 1.22515 2.79137 0.807652 3.26393C0.599536 3.49949 0.40983 3.7411 0.268766 3.97511C0.138831 4.19067 0.00166038 4.47732 1.43046e-05 4.78648" fill="#242327"/>
</svg>
