<svg width="16" height="16" viewBox="0 0 16 16" fill="none" xmlns="http://www.w3.org/2000/svg">
<path d="M6.33333 9.33324C7.4379 9.33324 8.33333 10.2287 8.33333 11.3332C8.33333 12.4378 7.4379 13.3332 6.33333 13.3332C5.22876 13.3332 4.33333 12.4378 4.33333 11.3332C4.33333 10.2287 5.22876 9.33324 6.33333 9.33324Z" stroke="#FF6F47"/>
<path d="M9.66667 2.66673C8.5621 2.66673 7.66667 3.56216 7.66667 4.66673C7.66667 5.7713 8.5621 6.66673 9.66667 6.66673C10.7712 6.66673 11.6667 5.7713 11.6667 4.66673C11.6667 3.56216 10.7712 2.66673 9.66667 2.66673Z" stroke="#FF6F47"/>
<path opacity="0.5" d="M8.66667 11.3333L14.6667 11.3333" stroke="#FF6F47" stroke-linecap="round"/>
<path opacity="0.5" d="M7.33333 4.66707L1.33333 4.6394" stroke="#FF6F47" stroke-linecap="round"/>
<path opacity="0.5" d="M1.33333 11.3333L3.99999 11.3333" stroke="#FF6F47" stroke-linecap="round"/>
<path opacity="0.5" d="M14.6667 4.66675L12 4.66675" stroke="#FF6F47" stroke-linecap="round"/>
</svg>
