<svg width="24" height="9" viewBox="0 0 24 9" fill="none" xmlns="http://www.w3.org/2000/svg">
<path opacity="0.3" d="M0.025219 8.33426C0.025219 8.58264 5.97574 8.78384 12.5372 8.78384C19.0986 8.78384 23.7863 8.58264 23.7863 8.33426C23.7863 8.0864 19.0986 7.88525 12.5372 7.88525C5.97574 7.8852 0.025219 8.0864 0.025219 8.33426Z" fill="#221F1F"/>
<path d="M21.6554 7.60621L1.64911 7.5861L1.90016 3.82935L21.6554 4.0506V7.60621Z" fill="#3C3C3B"/>
<path d="M0.33074 4.93343C0.33074 4.93343 0.29534 3.94912 0.33074 3.38265C0.366245 2.81623 4.57913 0.720551 6.42004 0.260285C8.26105 -0.199929 11.6704 0.0478785 13.2281 0.260285C13.6031 0.311396 13.9585 0.425298 14.308 0.581251C15.0427 0.908868 16.0879 1.80631 17.8659 2.66761C17.9161 2.69201 17.9681 2.71416 18.0212 2.73459C18.1243 2.77402 18.2347 2.78476 18.3498 2.80419C18.9137 2.89892 20.86 2.98439 22.7423 3.78876C23.8842 4.27668 23.8547 6.13367 23.7959 6.90856C23.7792 7.12846 23.6845 7.2157 23.6845 7.2157C23.4758 7.45665 22.3236 7.60213 20.9383 7.63533C21.0292 7.48006 21.1 7.31175 21.1479 7.13401C21.1935 6.96423 21.218 6.7856 21.218 6.60132C21.218 5.46728 20.2987 4.54795 19.1646 4.54795C18.0306 4.54795 17.1113 5.46723 17.1113 6.60132C17.1113 6.79141 17.1374 6.97538 17.1858 7.15003C17.2324 7.31782 17.2996 7.47702 17.3848 7.62454C16.3823 7.62915 10.3001 7.65759 5.86336 7.65544C5.95103 7.50933 6.02078 7.35123 6.07022 7.18454C6.12483 6.99973 6.15458 6.80398 6.15458 6.60132C6.15458 5.46728 5.23515 4.54795 4.10121 4.54795C2.96717 4.54795 2.04774 5.46723 2.04774 6.60132C2.04774 6.79026 2.0734 6.97313 2.12127 7.14684C2.16945 7.32138 2.23999 7.48666 2.32975 7.63942C2.0623 7.63523 1.88509 7.6302 1.81764 7.62407C1.15141 7.56348 0.398085 7.6114 0.0997429 6.85745C0.0493641 6.72993 0.0165291 6.57686 0.00642204 6.39252C-0.0512867 5.3317 0.33074 4.93343 0.33074 4.93343Z" fill="#F29100"/>
<path d="M23.4899 4.97901C23.4899 4.97901 22.4633 5.08522 22.0561 4.78426C21.649 4.4834 21.1887 3.92641 21.1887 3.92641C21.1887 3.92641 22.2328 3.72578 22.8881 4.14704C23.5432 4.56834 23.4899 4.97901 23.4899 4.97901Z" fill="white"/>
<path d="M0.325668 3.45294C0.325668 3.45294 2.02371 3.37355 1.9802 3.74442C1.96946 3.83664 1.41729 4.49234 1.06893 4.61562C0.71089 4.7424 0.378192 4.75387 0.324357 4.75387C0.29943 4.75382 0.325668 3.45294 0.325668 3.45294Z" fill="#E20613"/>
<path d="M0.320364 3.71077C0.320364 3.71077 1.27405 3.68275 1.24969 3.81367C1.24357 3.84625 0.933441 4.07777 0.737793 4.12128C0.536803 4.16606 0.349899 4.17014 0.319577 4.17014C0.30549 4.17014 0.320364 3.71077 0.320364 3.71077Z" fill="#EF6100"/>
<path d="M0.0176141 5.98709C0.061237 5.98274 0.428917 5.93975 0.575077 6.01207C0.696886 6.0724 0.70448 6.3123 0.422319 6.3257C0.0916121 6.34147 0.000174999 6.32591 0.000174999 6.32591C0.000174999 6.32591 -0.00307143 6.03705 0.0176141 5.98709Z" fill="#E20613"/>
<path d="M23.985 6.00293C23.985 6.00293 23.2254 6.01068 23.0357 6.05389C22.8674 6.09211 22.6621 6.35663 22.641 6.64539C22.6198 6.93221 23.7692 6.79045 23.9771 6.77961C24.0235 6.45597 23.985 6.00293 23.985 6.00293Z" fill="#1D1D1B"/>
<path d="M20.9384 7.63522C21.0292 7.47994 21.1001 7.31163 21.1479 7.13389C22.5543 7.1076 23.3793 6.99088 23.796 6.90845C23.7792 7.12834 23.6846 7.21559 23.6846 7.21559C23.4759 7.45653 22.3237 7.60201 20.9384 7.63522Z" fill="#E07A00"/>
<path d="M2.12126 7.14681C2.16944 7.32135 2.23998 7.48663 2.32974 7.63939C2.0623 7.6352 1.88508 7.63017 1.81763 7.62404C1.1514 7.56345 0.39808 7.61137 0.0997372 6.85742C0.311358 6.94357 0.519786 7.09329 1.14726 7.13869C1.33082 7.15194 1.69022 7.14189 2.12126 7.14681Z" fill="#E07A00"/>
<path d="M17.1858 7.1499C17.2324 7.31769 17.2996 7.47689 17.3848 7.62441C16.3823 7.62902 10.3001 7.65746 5.86335 7.65531C5.95102 7.5092 6.02077 7.3511 6.07021 7.18441L11.1091 7.16331C11.1091 7.16331 14.2309 7.15681 17.1858 7.1499Z" fill="#E07A00"/>
<path d="M21.9202 3.57602C21.9202 3.57602 20.678 3.31774 19.8059 3.21238C18.1727 3.0151 17.4206 3.05826 17.4206 3.05826C16.4216 3.0361 15.7632 2.96975 15.0274 2.97206C14.6224 2.97326 4.79582 2.56516 3.72494 2.56516C3.0099 2.56516 1.87581 2.54693 1.3581 2.8469C0.840332 3.14676 9.37503 3.18981 11.1255 3.27606C12.8759 3.36241 19.8183 3.32329 21.9202 3.57602Z" fill="#FCA635"/>
<path d="M17.328 6.58867C17.328 7.60305 18.1503 8.42539 19.1646 8.42539C20.179 8.42539 21.0014 7.60305 21.0014 6.58867C21.0014 5.57419 20.179 4.75195 19.1646 4.75195C18.1503 4.75195 17.328 5.57419 17.328 6.58867Z" fill="#1D1D1B"/>
<path d="M17.9075 6.58884C17.9075 7.28303 18.4703 7.84594 19.1645 7.84594C19.8589 7.84594 20.4217 7.28303 20.4217 6.58884C20.4217 5.89459 19.8589 5.33179 19.1645 5.33179C18.4703 5.33179 17.9075 5.89459 17.9075 6.58884Z" fill="#D9D9D9"/>
<path d="M18.0345 6.58885C18.0345 7.21298 18.5405 7.71886 19.1645 7.71886C19.7888 7.71886 20.2947 7.21292 20.2947 6.58885C20.2947 5.96472 19.7888 5.45874 19.1645 5.45874C18.5405 5.45874 18.0345 5.96467 18.0345 6.58885Z" fill="#3C3C3B"/>
<path d="M18.9059 5.35791L19.1517 6.2719L19.4234 5.35791H18.9059Z" fill="#9C9C9B"/>
<path d="M20.1013 5.74927L19.4327 6.41906L20.36 6.19749L20.1013 5.74927Z" fill="#9C9C9B"/>
<path d="M20.36 6.97998L19.4456 6.73584L20.1013 7.42805L20.36 6.97998Z" fill="#9C9C9B"/>
<path d="M19.4234 7.81945L19.1775 6.90552L18.9059 7.81945H19.4234Z" fill="#9C9C9B"/>
<path d="M18.2281 7.42825L18.8967 6.7583L17.9694 6.98003L18.2281 7.42825Z" fill="#9C9C9B"/>
<path d="M17.9692 6.19749L18.8836 6.44147L18.228 5.74927L17.9692 6.19749Z" fill="#9C9C9B"/>
<path d="M18.6839 6.58881C18.6839 6.85437 18.8992 7.06966 19.1646 7.06966C19.4303 7.06966 19.6455 6.85437 19.6455 6.58881C19.6455 6.3232 19.4303 6.10791 19.1646 6.10791C18.8992 6.10791 18.6839 6.3232 18.6839 6.58881Z" fill="#D9D9D9"/>
<path d="M2.26443 6.58867C2.26443 7.60305 3.08677 8.42539 4.1012 8.42539C5.11558 8.42539 5.93787 7.60305 5.93787 6.58867C5.93787 5.57419 5.11552 4.75195 4.1012 4.75195C3.08677 4.75195 2.26443 5.57419 2.26443 6.58867Z" fill="#1D1D1B"/>
<path d="M2.84403 6.58884C2.84403 7.28303 3.40673 7.84594 4.10108 7.84594C4.79539 7.84594 5.35803 7.28303 5.35803 6.58884C5.35803 5.89459 4.79539 5.33179 4.10108 5.33179C3.40668 5.33179 2.84403 5.89459 2.84403 6.58884Z" fill="#D9D9D9"/>
<path d="M2.97096 6.58885C2.97096 7.21298 3.47689 7.71886 4.10107 7.71886C4.7252 7.71886 5.23108 7.21292 5.23108 6.58885C5.23108 5.96472 4.7252 5.45874 4.10107 5.45874C3.47684 5.45874 2.97096 5.96467 2.97096 6.58885Z" fill="#3C3C3B"/>
<path d="M3.84229 5.35791L4.08811 6.2719L4.35974 5.35791H3.84229Z" fill="#9C9C9B"/>
<path d="M5.03755 5.74927L4.36912 6.41906L5.29636 6.19749L5.03755 5.74927Z" fill="#9C9C9B"/>
<path d="M5.29636 6.97998L4.3819 6.73584L5.03755 7.42805L5.29636 6.97998Z" fill="#9C9C9B"/>
<path d="M4.35989 7.81945L4.11392 6.90552L3.84228 7.81945H4.35989Z" fill="#9C9C9B"/>
<path d="M3.16452 7.42825L3.83301 6.7583L2.90572 6.98003L3.16452 7.42825Z" fill="#9C9C9B"/>
<path d="M2.90572 6.19749L3.82013 6.44147L3.16453 5.74927L2.90572 6.19749Z" fill="#9C9C9B"/>
<path d="M3.62019 6.58881C3.62019 6.85437 3.83543 7.06966 4.10109 7.06966C4.3665 7.06966 4.58194 6.85437 4.58194 6.58881C4.58194 6.3232 4.36655 6.10791 4.10109 6.10791C3.83548 6.10791 3.62019 6.3232 3.62019 6.58881Z" fill="#D9D9D9"/>
<path d="M9.03803 0.581299C9.03803 0.581299 9.0394 0.68834 9.0418 0.875715C9.04631 1.06298 9.04882 1.33074 9.05882 1.65166C9.06903 1.97257 9.07778 2.34716 9.09281 2.7482C9.09161 2.9482 9.0903 3.15495 9.08904 3.36494C9.08846 3.57562 9.08789 3.78965 9.08731 4.00368C9.08784 4.21771 9.08841 4.43179 9.08899 4.64247C9.0904 4.85315 9.09182 5.06048 9.09318 5.26115C9.09611 5.66245 9.10454 6.03704 9.10884 6.35811C9.11323 6.67918 9.12303 6.94673 9.12701 7.134C9.13313 7.32127 9.13664 7.42831 9.13664 7.42831C9.13664 7.42831 9.1401 7.32127 9.14628 7.134C9.15026 6.94673 9.16005 6.67918 9.16445 6.35811C9.16874 6.03704 9.17718 5.66245 9.18011 5.26115C9.18147 5.06048 9.18288 4.8531 9.1843 4.64247C9.18487 4.43179 9.1854 4.21771 9.18597 4.00368C9.1854 3.78965 9.18482 3.57562 9.18425 3.36494C9.18262 3.15358 9.18095 2.94558 9.17938 2.74427C9.15811 2.3435 9.13298 1.96969 9.11412 1.64914C9.09511 1.3286 9.07338 1.06178 9.06092 0.874876C9.04636 0.688026 9.03803 0.581299 9.03803 0.581299Z" fill="#E07A00"/>
<path d="M15.547 2.93066C15.547 2.93066 15.5427 3.00094 15.5374 3.1239C15.5332 3.24692 15.5244 3.42256 15.5188 3.63345C15.5125 3.84428 15.5072 4.09026 15.5037 4.35378C15.5024 4.48559 15.5009 4.62174 15.4995 4.7601C15.4989 4.89846 15.4984 5.03902 15.4977 5.17957C15.4983 5.32013 15.4988 5.46069 15.4994 5.59905C15.5008 5.7374 15.5022 5.87356 15.5036 6.00537C15.507 6.26889 15.5124 6.51486 15.5187 6.7257C15.5242 6.93653 15.5332 7.11223 15.5374 7.23519C15.5427 7.3582 15.5471 7.42843 15.5471 7.42843C15.5471 7.42843 15.5514 7.35815 15.5567 7.23519C15.5609 7.11218 15.5699 6.93653 15.5754 6.7257C15.5818 6.51486 15.5871 6.26889 15.5905 6.00537C15.5919 5.87356 15.5933 5.7374 15.5947 5.59905C15.5953 5.46069 15.5958 5.32013 15.5964 5.17957C15.5958 5.03902 15.5953 4.89846 15.5947 4.7601C15.5933 4.62174 15.5918 4.48559 15.5904 4.35378C15.5869 4.09026 15.5816 3.84428 15.5753 3.63345C15.5697 3.42261 15.5609 3.24692 15.5567 3.1239C15.5514 3.00094 15.547 2.93066 15.547 2.93066Z" fill="#E07A00"/>
<path d="M20.79 4.75213C20.79 4.75213 20.182 4.19671 19.1958 4.19671C18.2096 4.19671 17.5357 4.75213 17.5357 4.75213C17.5357 4.75213 17.9994 3.82788 19.1155 3.82788C20.2313 3.82788 20.79 4.75213 20.79 4.75213Z" fill="#FCA635"/>
<path d="M5.7261 4.75213C5.7261 4.75213 5.1179 4.19671 4.13175 4.19671C3.1456 4.19671 2.47177 4.75213 2.47177 4.75213C2.47177 4.75213 2.93539 3.82788 4.05131 3.82788C5.16728 3.82788 5.7261 4.75213 5.7261 4.75213Z" fill="#FCA635"/>
<path d="M17.8659 2.66758C17.9162 2.69198 17.9681 2.71413 18.0212 2.73456C17.5807 2.75912 16.4762 2.82028 16.3632 2.82222C16.2739 2.82363 16.2276 2.80106 16.1748 2.7389C16.1462 2.70539 15.5994 2.12719 15.0883 1.59198C15.2552 1.48908 15.3579 1.36941 15.9627 1.54899C16.4409 1.8567 17.2962 2.39149 17.8659 2.66758Z" fill="#3C3C3B"/>
<path d="M9.49949 0.497349C9.88219 0.481272 11.4111 0.488447 12.797 0.670532C13.175 0.720177 13.6116 1.06539 14.0008 1.46507C12.8018 1.33975 11.3025 1.227 9.51902 1.19202L9.44958 0.575744C9.44445 0.543695 9.44062 0.497349 9.49949 0.497349Z" fill="#3C3C3B"/>
<path d="M3.95944 1.95965C3.99715 1.8525 4.17929 1.68257 4.47486 1.49572C5.24263 1.01042 6.77734 0.410488 8.54184 0.496896C8.57881 0.496791 8.59735 0.528212 8.59735 0.567855V1.18135V2.52151C8.59735 2.57142 8.56651 2.63526 8.4824 2.63526L4.68538 2.45144C4.68538 2.45144 3.83355 2.31916 3.95944 1.95965Z" fill="#3C3C3B"/>
<path d="M14.2583 0.73411C14.2065 0.683051 14.2451 0.639637 14.2528 0.619737C14.2585 0.604602 14.2787 0.59193 14.308 0.581299C14.9655 0.874614 15.2568 1.09498 15.9626 1.54912C15.781 1.57096 15.3621 1.58326 15.0882 1.59211C14.7314 1.21862 14.3919 0.865921 14.2583 0.73411Z" fill="#3C3C3B"/>
<path d="M10.678 3.70825H9.72258C9.72258 3.70825 9.88644 3.95203 10.2003 3.95203C10.5143 3.95208 10.678 3.70825 10.678 3.70825Z" fill="#E07A00"/>
<path d="M15.0023 2.70726C15.0702 2.78314 14.988 2.84709 14.904 2.84709L9.78644 2.69857C9.70983 2.68857 9.69454 2.64547 9.68422 2.60986C9.68401 2.60886 9.68239 2.63363 9.6815 2.63321L9.519 1.19214C11.3026 1.22717 12.8018 1.33992 14.0007 1.46519C14.4571 1.93404 14.8481 2.47768 15.0023 2.70726Z" fill="#3C3C3B"/>
<path d="M14.616 1.98022C14.616 1.98022 14.3047 2.47097 14.388 2.95176C14.6196 2.97706 15.5713 3.08562 15.6631 2.80079C15.7803 2.43714 15.2174 2.1875 14.616 1.98022Z" fill="#E07A00"/>
</svg>
