<svg width="28" height="12" viewBox="0 0 28 12" fill="none" xmlns="http://www.w3.org/2000/svg">
<path d="M26.9774 7.84058H7.69302V10.3436H26.9774V7.84058Z" fill="#21242A"/>
<path d="M21.232 0.767578H20.496V7.99219H21.232V0.767578Z" fill="#131519"/>
<path d="M18.7858 9.29926C18.7858 9.8634 18.3285 10.3207 17.7644 10.3207H1.31918C0.755038 10.3207 0.297729 9.8634 0.297729 9.29926V6.64352C0.297729 6.07938 0.755038 5.62207 1.31918 5.62207H17.7644C18.3285 5.62207 18.7858 6.07938 18.7858 6.64352V9.29926Z" fill="#21242A"/>
<path d="M25.5255 10.0598C25.5255 10.9288 24.8209 11.6332 23.952 11.6332C23.083 11.6332 22.3785 10.9288 22.3785 10.0598C22.3785 9.19075 23.083 8.48633 23.952 8.48633C24.8209 8.48633 25.5255 9.19069 25.5255 10.0598Z" fill="#131519"/>
<path opacity="0.2" d="M25.2435 10.0598C25.2435 10.7731 24.6653 11.3515 23.952 11.3515C23.2387 11.3515 22.6605 10.7731 22.6605 10.0598C22.6605 9.34656 23.2387 8.76831 23.952 8.76831C24.6653 8.76831 25.2435 9.34656 25.2435 10.0598Z" fill="#A5AFD3"/>
<path d="M24.7069 10.0599C24.7069 10.4767 24.3688 10.8147 23.9519 10.8147C23.5351 10.8147 23.197 10.4767 23.197 10.0599C23.197 9.64295 23.5351 9.30493 23.9519 9.30493C24.3688 9.30493 24.7069 9.64295 24.7069 10.0599Z" fill="#4C7E92"/>
<path d="M23.5017 10.1644C23.5017 10.2095 23.4651 10.2462 23.4199 10.2462C23.3747 10.2462 23.3381 10.2095 23.3381 10.1644C23.3381 10.1192 23.3747 10.0825 23.4199 10.0825C23.4651 10.0825 23.5017 10.1192 23.5017 10.1644Z" fill="#9AC9DF"/>
<path d="M23.7656 10.5283C23.7656 10.5733 23.7288 10.6101 23.6836 10.6101C23.6385 10.6101 23.6018 10.5733 23.6018 10.5283C23.6018 10.483 23.6385 10.4463 23.6836 10.4463C23.7288 10.4463 23.7656 10.483 23.7656 10.5283Z" fill="#9AC9DF"/>
<path d="M24.2657 10.5464C24.2657 10.5916 24.2291 10.6284 24.1839 10.6284C24.1387 10.6284 24.1021 10.5916 24.1021 10.5464C24.1021 10.5011 24.1387 10.4646 24.1839 10.4646C24.2291 10.4646 24.2657 10.5011 24.2657 10.5464Z" fill="#9AC9DF"/>
<path d="M24.5841 10.1826C24.5841 10.2279 24.5476 10.2645 24.5023 10.2645C24.4569 10.2645 24.4204 10.2279 24.4204 10.1826C24.4204 10.1374 24.457 10.1008 24.5023 10.1008C24.5476 10.1008 24.5841 10.1374 24.5841 10.1826Z" fill="#9AC9DF"/>
<path d="M24.475 9.73695C24.475 9.78211 24.4383 9.81875 24.393 9.81875C24.3478 9.81875 24.3112 9.78206 24.3112 9.73695C24.3112 9.69166 24.3479 9.65503 24.393 9.65503C24.4383 9.65503 24.475 9.69166 24.475 9.73695Z" fill="#9AC9DF"/>
<path d="M24.093 9.54574C24.093 9.59102 24.0563 9.6276 24.0111 9.6276C23.9659 9.6276 23.9292 9.59102 23.9292 9.54574C23.9292 9.50069 23.9659 9.46411 24.0111 9.46411C24.0563 9.46411 24.093 9.50069 24.093 9.54574Z" fill="#9AC9DF"/>
<path d="M23.6382 9.66413C23.6382 9.70953 23.6015 9.74605 23.5564 9.74605C23.5111 9.74605 23.4745 9.70947 23.4745 9.66413C23.4745 9.61891 23.5111 9.58228 23.5564 9.58228C23.6015 9.58228 23.6382 9.61891 23.6382 9.66413Z" fill="#9AC9DF"/>
<path d="M24.2203 10.028C24.2203 10.1688 24.1061 10.2828 23.9656 10.2828C23.8249 10.2828 23.7108 10.1688 23.7108 10.028C23.7108 9.88725 23.825 9.77319 23.9656 9.77319C24.1061 9.77319 24.2203 9.88725 24.2203 10.028Z" fill="#131519"/>
<path opacity="0.3" d="M22.9367 9.90862C23.1157 9.83296 23.3196 9.7891 23.5148 9.79826C23.7649 9.81009 23.9665 9.9163 24.2018 9.98604C24.6203 10.1102 25.1087 9.96266 25.4957 9.75428C25.3533 9.03177 24.7164 8.48657 23.952 8.48657C23.0831 8.48657 22.3786 9.191 22.3786 10.06C22.3786 10.1404 22.3847 10.2192 22.3962 10.2964C22.5393 10.1274 22.7296 9.99634 22.9367 9.90862Z" fill="#2F3C4F"/>
<path d="M4.48371 10.0603C4.48371 10.9293 3.77917 11.6337 2.91012 11.6337C2.04118 11.6337 1.3367 10.9293 1.3367 10.0603C1.3367 9.19124 2.04118 8.48682 2.91012 8.48682C3.77911 8.48682 4.48371 9.19118 4.48371 10.0603Z" fill="#131519"/>
<path opacity="0.2" d="M4.20166 10.06C4.20166 10.7733 3.62341 11.3517 2.91011 11.3517C2.19687 11.3517 1.61862 10.7733 1.61862 10.06C1.61862 9.3468 2.19687 8.76855 2.91011 8.76855C3.62341 8.76855 4.20166 9.3468 4.20166 10.06Z" fill="#A5AFD3"/>
<path d="M3.66509 10.0601C3.66509 10.4769 3.32701 10.8149 2.91009 10.8149C2.49323 10.8149 2.15521 10.477 2.15521 10.0601C2.15521 9.64319 2.49323 9.30518 2.91009 9.30518C3.32701 9.30518 3.66509 9.64319 3.66509 10.0601Z" fill="#4C7E92"/>
<path d="M2.45978 10.1646C2.45978 10.2098 2.4232 10.2465 2.37797 10.2465C2.33275 10.2465 2.29617 10.2098 2.29617 10.1646C2.29617 10.1194 2.33275 10.0828 2.37797 10.0828C2.4232 10.0828 2.45978 10.1194 2.45978 10.1646Z" fill="#9AC9DF"/>
<path d="M2.72369 10.5285C2.72369 10.5736 2.68694 10.6103 2.64183 10.6103C2.59666 10.6103 2.55997 10.5736 2.55997 10.5285C2.55997 10.4832 2.59672 10.4465 2.64183 10.4465C2.68694 10.4465 2.72369 10.4832 2.72369 10.5285Z" fill="#9AC9DF"/>
<path d="M3.22393 10.5466C3.22393 10.5919 3.18724 10.6286 3.14207 10.6286C3.09679 10.6286 3.06021 10.5918 3.06021 10.5466C3.06021 10.5014 3.09679 10.4648 3.14207 10.4648C3.18724 10.4648 3.22393 10.5014 3.22393 10.5466Z" fill="#9AC9DF"/>
<path d="M3.54226 10.1828C3.54226 10.2282 3.50574 10.2647 3.46046 10.2647C3.41518 10.2647 3.3786 10.2281 3.3786 10.1828C3.3786 10.1377 3.41518 10.1011 3.46046 10.1011C3.50574 10.1011 3.54226 10.1377 3.54226 10.1828Z" fill="#9AC9DF"/>
<path d="M3.43309 9.73719C3.43309 9.78236 3.39646 9.81899 3.35123 9.81899C3.30595 9.81899 3.26932 9.7823 3.26932 9.73719C3.26932 9.69191 3.30595 9.65527 3.35123 9.65527C3.39646 9.65527 3.43309 9.69191 3.43309 9.73719Z" fill="#9AC9DF"/>
<path d="M3.05111 9.54599C3.05111 9.59127 3.01448 9.62785 2.96925 9.62785C2.92414 9.62785 2.88745 9.59127 2.88745 9.54599C2.88745 9.50093 2.92414 9.46436 2.96925 9.46436C3.01442 9.46436 3.05111 9.50093 3.05111 9.54599Z" fill="#9AC9DF"/>
<path d="M2.59637 9.66438C2.59637 9.70977 2.55968 9.7463 2.51451 9.7463C2.46928 9.7463 2.43265 9.70972 2.43265 9.66438C2.43265 9.61915 2.46923 9.58252 2.51451 9.58252C2.55968 9.58252 2.59637 9.61915 2.59637 9.66438Z" fill="#9AC9DF"/>
<path d="M3.17843 10.0283C3.17843 10.169 3.06437 10.283 2.92375 10.283C2.78313 10.283 2.66907 10.169 2.66907 10.0283C2.66907 9.8875 2.78313 9.77344 2.92375 9.77344C3.06437 9.77344 3.17843 9.8875 3.17843 10.0283Z" fill="#131519"/>
<path opacity="0.3" d="M1.89475 9.90886C2.07372 9.8332 2.27771 9.78934 2.47283 9.7985C2.72291 9.81033 2.92457 9.91654 3.15985 9.98628C3.57842 10.1105 4.06673 9.9629 4.45379 9.75453C4.3114 9.03201 3.6745 8.48682 2.91012 8.48682C2.04118 8.48682 1.3367 9.19124 1.3367 10.0603C1.3367 10.1406 1.34284 10.2195 1.35439 10.2966C1.49735 10.1276 1.68769 9.99658 1.89475 9.90886Z" fill="#2F3C4F"/>
<path d="M7.53516 10.0598C7.53516 10.9288 6.83063 11.6332 5.96163 11.6332C5.09269 11.6332 4.38821 10.9288 4.38821 10.0598C4.38821 9.19075 5.09269 8.48633 5.96163 8.48633C6.83063 8.48633 7.53516 9.19069 7.53516 10.0598Z" fill="#131519"/>
<path opacity="0.2" d="M7.25317 10.0598C7.25317 10.7731 6.67492 11.3515 5.96163 11.3515C5.24838 11.3515 4.67014 10.7731 4.67014 10.0598C4.67014 9.34656 5.24838 8.76831 5.96163 8.76831C6.67492 8.76831 7.25317 9.34656 7.25317 10.0598Z" fill="#A5AFD3"/>
<path d="M6.71666 10.0599C6.71666 10.4767 6.37859 10.8147 5.96167 10.8147C5.54481 10.8147 5.20679 10.4767 5.20679 10.0599C5.20679 9.64295 5.54481 9.30493 5.96167 9.30493C6.37853 9.30493 6.71666 9.64295 6.71666 10.0599Z" fill="#4C7E92"/>
<path d="M5.51144 10.1644C5.51144 10.2095 5.47487 10.2462 5.42964 10.2462C5.38442 10.2462 5.34784 10.2095 5.34784 10.1644C5.34784 10.1192 5.38442 10.0825 5.42964 10.0825C5.47481 10.0825 5.51144 10.1192 5.51144 10.1644Z" fill="#9AC9DF"/>
<path d="M5.77529 10.5283C5.77529 10.5733 5.7386 10.6101 5.69349 10.6101C5.64832 10.6101 5.61157 10.5733 5.61157 10.5283C5.61157 10.483 5.64832 10.4463 5.69349 10.4463C5.73854 10.4463 5.77529 10.483 5.77529 10.5283Z" fill="#9AC9DF"/>
<path d="M6.27554 10.5464C6.27554 10.5916 6.23885 10.6284 6.19368 10.6284C6.1484 10.6284 6.11188 10.5916 6.11188 10.5464C6.11188 10.5011 6.14845 10.4646 6.19368 10.4646C6.23885 10.4646 6.27554 10.5011 6.27554 10.5464Z" fill="#9AC9DF"/>
<path d="M6.59387 10.1826C6.59387 10.2279 6.55735 10.2645 6.51207 10.2645C6.46678 10.2645 6.43021 10.2279 6.43021 10.1826C6.43021 10.1374 6.46678 10.1008 6.51207 10.1008C6.55735 10.1008 6.59387 10.1374 6.59387 10.1826Z" fill="#9AC9DF"/>
<path d="M6.4847 9.73695C6.4847 9.78211 6.44807 9.81875 6.4029 9.81875C6.35762 9.81875 6.32098 9.78206 6.32098 9.73695C6.32098 9.69166 6.35762 9.65503 6.4029 9.65503C6.44807 9.65503 6.4847 9.69166 6.4847 9.73695Z" fill="#9AC9DF"/>
<path d="M6.10272 9.54574C6.10272 9.59102 6.06608 9.6276 6.02086 9.6276C5.97575 9.6276 5.93906 9.59102 5.93906 9.54574C5.93906 9.50069 5.97575 9.46411 6.02086 9.46411C6.06608 9.46411 6.10272 9.50069 6.10272 9.54574Z" fill="#9AC9DF"/>
<path d="M5.64797 9.66413C5.64797 9.70953 5.61128 9.74605 5.56611 9.74605C5.52089 9.74605 5.48425 9.70947 5.48425 9.66413C5.48425 9.61891 5.52083 9.58228 5.56611 9.58228C5.61128 9.58228 5.64797 9.61891 5.64797 9.66413Z" fill="#9AC9DF"/>
<path d="M6.22997 10.028C6.22997 10.1688 6.11591 10.2828 5.97529 10.2828C5.83467 10.2828 5.72061 10.1688 5.72061 10.028C5.72061 9.88725 5.83467 9.77319 5.97529 9.77319C6.11591 9.77319 6.22997 9.88725 6.22997 10.028Z" fill="#131519"/>
<path opacity="0.3" d="M4.9463 9.90862C5.12526 9.83296 5.32925 9.7891 5.52437 9.79826C5.77445 9.81009 5.97611 9.9163 6.21139 9.98604C6.62996 10.1102 7.11827 9.96266 7.50527 9.75428C7.36294 9.03177 6.72598 8.48657 5.9616 8.48657C5.09266 8.48657 4.38818 9.191 4.38818 10.06C4.38818 10.1404 4.39433 10.2192 4.40588 10.2964C4.54889 10.1274 4.73923 9.99634 4.9463 9.90862Z" fill="#2F3C4F"/>
<path d="M17.4784 10.0598C17.4784 10.9288 16.7739 11.6332 15.9048 11.6332C15.0359 11.6332 14.3315 10.9288 14.3315 10.0598C14.3315 9.19075 15.0359 8.48633 15.9048 8.48633C16.7739 8.48633 17.4784 9.19069 17.4784 10.0598Z" fill="#131519"/>
<path opacity="0.2" d="M17.1965 10.0598C17.1965 10.7731 16.6182 11.3515 15.9049 11.3515C15.1917 11.3515 14.6135 10.7731 14.6135 10.0598C14.6135 9.34656 15.1917 8.76831 15.9049 8.76831C16.6182 8.76831 17.1965 9.34656 17.1965 10.0598Z" fill="#A5AFD3"/>
<path d="M16.6599 10.0599C16.6599 10.4767 16.3218 10.8147 15.9048 10.8147C15.488 10.8147 15.15 10.4767 15.15 10.0599C15.15 9.64295 15.4879 9.30493 15.9048 9.30493C16.3218 9.30493 16.6599 9.64295 16.6599 10.0599Z" fill="#4C7E92"/>
<path d="M15.4546 10.1644C15.4546 10.2095 15.418 10.2462 15.3728 10.2462C15.3276 10.2462 15.291 10.2095 15.291 10.1644C15.291 10.1192 15.3277 10.0825 15.3728 10.0825C15.418 10.0825 15.4546 10.1192 15.4546 10.1644Z" fill="#9AC9DF"/>
<path d="M15.7184 10.5283C15.7184 10.5733 15.6817 10.6101 15.6366 10.6101C15.5915 10.6101 15.5547 10.5733 15.5547 10.5283C15.5547 10.483 15.5915 10.4463 15.6366 10.4463C15.6817 10.4463 15.7184 10.483 15.7184 10.5283Z" fill="#9AC9DF"/>
<path d="M16.2187 10.5464C16.2187 10.5916 16.182 10.6284 16.1368 10.6284C16.0916 10.6284 16.055 10.5916 16.055 10.5464C16.055 10.5011 16.0916 10.4646 16.1368 10.4646C16.1821 10.4646 16.2187 10.5011 16.2187 10.5464Z" fill="#9AC9DF"/>
<path d="M16.537 10.1826C16.537 10.2279 16.5004 10.2645 16.4552 10.2645C16.4099 10.2645 16.3733 10.2279 16.3733 10.1826C16.3733 10.1374 16.4099 10.1008 16.4552 10.1008C16.5004 10.1008 16.537 10.1374 16.537 10.1826Z" fill="#9AC9DF"/>
<path d="M16.4279 9.73695C16.4279 9.78211 16.3912 9.81875 16.346 9.81875C16.3007 9.81875 16.2641 9.78206 16.2641 9.73695C16.2641 9.69166 16.3007 9.65503 16.346 9.65503C16.3912 9.65503 16.4279 9.69166 16.4279 9.73695Z" fill="#9AC9DF"/>
<path d="M16.0458 9.54574C16.0458 9.59102 16.0093 9.6276 15.964 9.6276C15.9189 9.6276 15.8822 9.59102 15.8822 9.54574C15.8822 9.50069 15.9189 9.46411 15.964 9.46411C16.0093 9.46411 16.0458 9.50069 16.0458 9.54574Z" fill="#9AC9DF"/>
<path d="M15.5912 9.66413C15.5912 9.70953 15.5544 9.74605 15.5093 9.74605C15.4641 9.74605 15.4274 9.70947 15.4274 9.66413C15.4274 9.61891 15.4641 9.58228 15.5093 9.58228C15.5544 9.58228 15.5912 9.61891 15.5912 9.66413Z" fill="#9AC9DF"/>
<path d="M16.1733 10.028C16.1733 10.1688 16.0592 10.2828 15.9186 10.2828C15.7779 10.2828 15.6638 10.1688 15.6638 10.028C15.6638 9.88725 15.778 9.77319 15.9186 9.77319C16.0592 9.77319 16.1733 9.88725 16.1733 10.028Z" fill="#131519"/>
<path opacity="0.3" d="M14.8896 9.90862C15.0685 9.83296 15.2726 9.7891 15.4677 9.79826C15.7178 9.81009 15.9194 9.9163 16.1547 9.98604C16.5733 10.1102 17.0616 9.96266 17.4486 9.75428C17.3063 9.03177 16.6693 8.48657 15.9049 8.48657C15.0359 8.48657 14.3315 9.191 14.3315 10.06C14.3315 10.1404 14.3376 10.2192 14.3491 10.2964C14.4922 10.1274 14.6825 9.99634 14.8896 9.90862Z" fill="#2F3C4F"/>
<path d="M20.5299 10.0598C20.5299 10.9288 19.8254 11.6332 18.9565 11.6332C18.0875 11.6332 17.383 10.9288 17.383 10.0598C17.383 9.19075 18.0875 8.48633 18.9565 8.48633C19.8255 8.48633 20.5299 9.19069 20.5299 10.0598Z" fill="#131519"/>
<path opacity="0.2" d="M20.2479 10.0596C20.2479 10.7729 19.6697 11.3512 18.9564 11.3512C18.2431 11.3512 17.6649 10.7729 17.6649 10.0596C17.6649 9.34632 18.2431 8.76807 18.9564 8.76807C19.6697 8.76807 20.2479 9.34632 20.2479 10.0596Z" fill="#A5AFD3"/>
<path d="M19.7114 10.0596C19.7114 10.4764 19.3734 10.8144 18.9564 10.8144C18.5396 10.8144 18.2015 10.4765 18.2015 10.0596C18.2015 9.64271 18.5396 9.30469 18.9564 9.30469C19.3733 9.30469 19.7114 9.64271 19.7114 10.0596Z" fill="#4C7E92"/>
<path d="M18.4245 10.2461C18.4696 10.2461 18.5063 10.2095 18.5063 10.1643C18.5063 10.1191 18.4696 10.0825 18.4245 10.0825C18.3793 10.0825 18.3427 10.1191 18.3427 10.1643C18.3427 10.2095 18.3793 10.2461 18.4245 10.2461Z" fill="#9AC9DF"/>
<path d="M18.7701 10.528C18.7701 10.5731 18.7334 10.6098 18.6882 10.6098C18.6431 10.6098 18.6063 10.5731 18.6063 10.528C18.6063 10.4827 18.6431 10.446 18.6882 10.446C18.7333 10.446 18.7701 10.4827 18.7701 10.528Z" fill="#9AC9DF"/>
<path d="M19.2703 10.5462C19.2703 10.5914 19.2336 10.6281 19.1884 10.6281C19.1432 10.6281 19.1066 10.5913 19.1066 10.5462C19.1066 10.5009 19.1432 10.4644 19.1884 10.4644C19.2336 10.4644 19.2703 10.5009 19.2703 10.5462Z" fill="#9AC9DF"/>
<path d="M19.5886 10.1823C19.5886 10.2277 19.5522 10.2642 19.5068 10.2642C19.4615 10.2642 19.4249 10.2276 19.4249 10.1823C19.4249 10.1372 19.4615 10.1006 19.5068 10.1006C19.5522 10.1006 19.5886 10.1372 19.5886 10.1823Z" fill="#9AC9DF"/>
<path d="M19.4795 9.7367C19.4795 9.78187 19.4428 9.8185 19.3976 9.8185C19.3523 9.8185 19.3157 9.78181 19.3157 9.7367C19.3157 9.69142 19.3524 9.65479 19.3976 9.65479C19.4428 9.65479 19.4795 9.69142 19.4795 9.7367Z" fill="#9AC9DF"/>
<path d="M19.0976 9.5455C19.0976 9.59078 19.0609 9.62736 19.0157 9.62736C18.9705 9.62736 18.9338 9.59078 18.9338 9.5455C18.9338 9.50044 18.9705 9.46387 19.0157 9.46387C19.0609 9.46387 19.0976 9.50044 19.0976 9.5455Z" fill="#9AC9DF"/>
<path d="M18.6428 9.66389C18.6428 9.70929 18.6061 9.74581 18.5609 9.74581C18.5156 9.74581 18.4791 9.70923 18.4791 9.66389C18.4791 9.61867 18.5156 9.58203 18.5609 9.58203C18.6061 9.58203 18.6428 9.61867 18.6428 9.66389Z" fill="#9AC9DF"/>
<path d="M19.2248 10.0278C19.2248 10.1685 19.1107 10.2825 18.9701 10.2825C18.8294 10.2825 18.7153 10.1685 18.7153 10.0278C18.7153 9.88701 18.8294 9.77295 18.9701 9.77295C19.1107 9.77295 19.2248 9.88701 19.2248 10.0278Z" fill="#131519"/>
<path opacity="0.3" d="M17.9411 9.90837C18.1201 9.83271 18.3241 9.78885 18.5192 9.79801C18.7693 9.80985 18.9709 9.91605 19.2063 9.98579C19.6248 10.11 20.1131 9.96241 20.5001 9.75404C20.3577 9.03153 19.7208 8.48633 18.9565 8.48633C18.0875 8.48633 17.383 9.19075 17.383 10.0598C17.383 10.1401 17.3891 10.219 17.4006 10.2961C17.5436 10.1272 17.734 9.99609 17.9411 9.90837Z" fill="#2F3C4F"/>
<path d="M20.6248 0H0V9.38101H20.6248V0Z" fill="white"/>
<path d="M20.315 0.380859H0.309814V8.99981H20.315V0.380859Z" fill="#E7EDF0"/>
<path opacity="0.3" d="M19.6761 8.57381C18.9768 8.16793 18.2213 7.82667 17.4668 7.53723C15.8307 6.90955 14.095 6.55452 12.3443 6.48034C10.6083 6.40684 8.88178 6.68365 7.14697 6.62233C6.30927 6.59269 5.46496 6.48301 4.67305 6.19733C3.9874 5.94993 3.32797 5.63649 2.71758 5.23646C1.79665 4.63301 1.00644 3.87011 0.309753 3.02563V8.99983H20.3024C20.1051 8.84448 19.8967 8.70181 19.6761 8.57381Z" fill="#E7EDF0"/>
<path d="M1.33881 0.390625V9.00019" stroke="#6B9BB1" stroke-width="0.5" stroke-miterlimit="10"/>
<path d="M3.31467 0.390381V8.99995" stroke="#6B9BB1" stroke-width="0.5" stroke-miterlimit="10"/>
<path d="M5.29056 0.390381V8.99995" stroke="#6B9BB1" stroke-width="0.5" stroke-miterlimit="10"/>
<path d="M7.26639 0.390381V8.99995" stroke="#6B9BB1" stroke-width="0.5" stroke-miterlimit="10"/>
<path d="M9.24216 0.390381V8.99995" stroke="#6B9BB1" stroke-width="0.5" stroke-miterlimit="10"/>
<path d="M11.218 0.390381V8.99995" stroke="#6B9BB1" stroke-width="0.5" stroke-miterlimit="10"/>
<path d="M13.1938 0.390381V8.99995" stroke="#6B9BB1" stroke-width="0.5" stroke-miterlimit="10"/>
<path d="M15.1696 0.390381V8.99995" stroke="#6B9BB1" stroke-width="0.5" stroke-miterlimit="10"/>
<path d="M17.1453 0.390381V8.99995" stroke="#6B9BB1" stroke-width="0.5" stroke-miterlimit="10"/>
<path d="M19.1214 0.390381V8.99995" stroke="#6B9BB1" stroke-width="0.5" stroke-miterlimit="10"/>
<path d="M0.937836 0.390869V9.00044" stroke="#9AC9DF" stroke-width="0.5" stroke-miterlimit="10"/>
<path d="M2.90558 0.390625V9.00019" stroke="#9AC9DF" stroke-width="0.5" stroke-miterlimit="10"/>
<path d="M4.87341 0.390625V9.00019" stroke="#9AC9DF" stroke-width="0.5" stroke-miterlimit="10"/>
<path d="M6.84106 0.390625V9.00019" stroke="#9AC9DF" stroke-width="0.5" stroke-miterlimit="10"/>
<path d="M8.80884 0.390625V9.00019" stroke="#9AC9DF" stroke-width="0.5" stroke-miterlimit="10"/>
<path d="M10.7766 0.390625V9.00019" stroke="#9AC9DF" stroke-width="0.5" stroke-miterlimit="10"/>
<path d="M12.7442 0.390625V9.00019" stroke="#9AC9DF" stroke-width="0.5" stroke-miterlimit="10"/>
<path d="M14.7121 0.390625V9.00019" stroke="#9AC9DF" stroke-width="0.5" stroke-miterlimit="10"/>
<path d="M16.6798 0.390625V9.00019" stroke="#9AC9DF" stroke-width="0.5" stroke-miterlimit="10"/>
<path d="M18.6475 0.390625V9.00019" stroke="#9AC9DF" stroke-width="0.5" stroke-miterlimit="10"/>
<path d="M20.315 8.73755H0.227936V8.99149H20.315V8.73755Z" fill="#9AC9DF"/>
<path d="M11.7536 8.73779H10.7823V8.99173H11.7536V8.73779Z" fill="#FC4125"/>
<path d="M8.74505 8.73779H7.77344V8.99173H8.74505V8.73779Z" fill="#FC4125"/>
<path d="M10.2493 8.73779H9.27795V8.99173H10.2493V8.73779Z" fill="#FC4125"/>
<path d="M7.2405 8.73779H6.26917V8.99173H7.2405V8.73779Z" fill="#FC4125"/>
<path d="M2.72726 8.73779H1.75598V8.99173H2.72726V8.73779Z" fill="#FC4125"/>
<path d="M4.23174 8.73779H3.26035V8.99173H4.23174V8.73779Z" fill="#FC4125"/>
<path d="M5.73617 8.73779H4.76489V8.99173H5.73617V8.73779Z" fill="#FC4125"/>
<path d="M1.22293 8.73755H0.227936V8.99149H1.22293V8.73755Z" fill="#FC4125"/>
<path d="M19.2755 8.73779H18.3046V8.99173H19.2755V8.73779Z" fill="#FC4125"/>
<path d="M20.3149 8.73779H19.8087V8.99173H20.3149V8.73779Z" fill="#FC4125"/>
<path d="M16.267 8.73779H15.2956V8.99173H16.267V8.73779Z" fill="#FC4125"/>
<path d="M14.7625 8.73779H13.7911V8.99173H14.7625V8.73779Z" fill="#FC4125"/>
<path d="M17.7714 8.73779H16.8V8.99173H17.7714V8.73779Z" fill="#FC4125"/>
<path d="M13.258 8.73779H12.2868V8.99173H13.258V8.73779Z" fill="#FC4125"/>
<path d="M27.8875 7.41382H21.1655V6.13018L27.8667 6.07739L27.8875 7.41382Z" fill="#21242A"/>
<path d="M27.1182 6.916H21.1736V8.88256H25.0703C25.5573 8.88256 25.9521 9.28395 25.9521 9.77915V10.369H27.1182C27.6052 10.369 28 9.96761 28 9.47242V7.81253C28 7.31739 27.8212 6.89547 27.1182 6.916Z" fill="#298CCE"/>
<path d="M27.0318 10.369C27.056 10.1459 27.0793 9.92259 27.0891 9.69926C27.1079 9.27318 27.0414 8.8545 26.7559 8.52109C26.5249 8.25133 26.2169 8.06127 25.8854 7.93908C25.096 7.64805 24.2119 7.59418 23.3793 7.54207C22.9699 7.51647 22.56 7.50009 22.1504 7.47631C21.8126 7.45669 21.466 7.41607 21.1736 7.23438V8.88266H25.0703C25.5573 8.88266 25.952 9.28404 25.952 9.77924V10.3691L27.0318 10.369Z" fill="#0072BF"/>
<path d="M26.8351 6.89233V10.3435" stroke="#21242A" stroke-width="0.5" stroke-miterlimit="10"/>
<path d="M28 9.00708H27.4325V9.33987H28V9.00708Z" fill="#FF5A19"/>
<path d="M28 7.89771H27.4881V8.49501H28V7.89771Z" fill="#9AC9DF"/>
<path d="M28 7.96875H27.5521V8.43806H28V7.96875Z" fill="#D3F1FD"/>
<path d="M21.1749 8.29565H24.8211" stroke="#21242A" stroke-width="0.5" stroke-miterlimit="10"/>
<path d="M25.3675 1.41256C25.2322 1.0238 25.0647 0.626788 24.9058 0.475357C24.8074 0.383031 24.7901 0.287177 24.2659 0.231884C23.3725 0.141378 22.2648 0.073967 20.6535 0.0906916V1.41256H25.3675Z" fill="#0072BF"/>
<path d="M21.175 6.75048L27.6126 6.75042C27.6126 6.75042 27.8623 6.76362 27.9018 6.72198C27.9459 6.67556 27.9798 6.60229 27.9634 6.49443C27.7851 5.31916 27.4388 2.97385 27.0734 1.98858C27.0617 1.95701 27.0349 1.91492 27.0233 1.8863C26.9172 1.62673 26.7957 1.27967 26.0835 1.13284C24.8696 0.892782 23.3644 0.713875 21.175 0.758246L21.175 6.75048Z" fill="#298CCE"/>
<path d="M27.8592 5.7076C27.7799 5.67085 22.6825 6.73156 22.4692 4.31389C22.4374 3.9534 22.4324 1.09492 22.4123 0.758495C21.8615 0.735171 21.8416 0.744842 21.175 0.758324V6.75056L27.6126 6.7505C27.6126 6.7505 27.8623 6.7637 27.9018 6.72206C27.9459 6.67564 27.9798 6.60237 27.9634 6.49451C27.9247 6.23949 27.9108 6.04653 27.8592 5.7076Z" fill="#0072BF"/>
<path d="M23.8235 4.82589C23.8235 4.86264 23.7937 4.8925 23.7569 4.8925H23.2389C23.2021 4.8925 23.1722 4.8627 23.1722 4.82589C23.1722 4.78909 23.202 4.75928 23.2389 4.75928H23.7569C23.7937 4.75928 23.8235 4.78909 23.8235 4.82589Z" fill="#21242A"/>
<path d="M25.8018 2.20897L23.1058 2.08496C23.1058 2.08496 22.8344 2.08388 22.7757 2.37099C22.717 2.65809 22.7708 6.77745 22.7708 6.77745" stroke="#21242A" stroke-width="0.5" stroke-miterlimit="10"/>
<path d="M26.0198 4.9397L26.0387 6.76006" stroke="#21242A" stroke-width="0.5" stroke-miterlimit="10"/>
<path d="M26.0408 4.29581C25.937 3.75288 25.7025 3.1289 25.5166 2.7506C25.4899 2.69611 25.4378 2.59223 25.2697 2.52903C25.2224 2.51117 25.1663 2.49644 25.0984 2.48716C25.0513 2.48074 24.9989 2.47675 24.9404 2.47607L24.938 2.47556C24.8444 2.47067 24.7459 2.46583 24.6442 2.46105C24.1051 2.43551 23.4857 2.41088 23.1068 2.39819V4.49104C23.8586 4.49104 24.5508 4.49081 25.6584 4.4862C25.691 4.48603 25.7207 4.49104 25.749 4.49104C25.8677 4.49104 25.9364 4.4643 25.9724 4.44149C26.0295 4.40662 26.0528 4.35747 26.0408 4.29581Z" fill="#21242A"/>
<path d="M25.8704 4.23173C25.7764 3.73977 25.5638 3.17449 25.3955 2.83175C25.3711 2.78232 25.324 2.68823 25.1717 2.631C25.1288 2.6149 25.078 2.60154 25.0164 2.59306C24.9738 2.5872 24.9263 2.58362 24.8733 2.58299L24.871 2.58248C24.7863 2.5781 24.697 2.57372 24.6049 2.56939C24.1164 2.5463 23.5553 2.52394 23.2119 2.51245V4.4087C23.8932 4.4087 24.5202 4.40847 25.5239 4.40438C25.5534 4.40421 25.5802 4.4087 25.6059 4.4087C25.7134 4.4087 25.7756 4.38452 25.8083 4.36382C25.8602 4.33219 25.8812 4.28759 25.8704 4.23173Z" fill="#D3F1FD"/>
<path opacity="0.4" d="M23.7287 3.22751C23.888 3.00765 24.0408 2.78619 24.154 2.54914C23.7998 2.5339 23.4525 2.52053 23.2121 2.51245V4.16272C23.3136 3.82152 23.5154 3.52184 23.7287 3.22751Z" fill="#9AC9DF"/>
<path opacity="0.4" d="M25.4277 2.8989C25.4168 2.87574 25.4061 2.85333 25.3956 2.83188C25.3713 2.78245 25.3242 2.68836 25.1718 2.63113C25.1289 2.61503 25.0782 2.60166 25.0166 2.59319C25.016 2.59313 25.0154 2.59313 25.015 2.59302C24.6712 3.19402 24.0725 3.70998 24.0019 4.40849C24.2563 4.4082 24.5256 4.40775 24.8296 4.40689C24.9157 3.87654 25.1619 3.37435 25.4277 2.8989Z" fill="#9AC9DF"/>
<path opacity="0.4" d="M25.7683 3.81201C25.6586 4.00423 25.5504 4.1969 25.4782 4.40465C25.4935 4.4046 25.5083 4.40454 25.524 4.40448C25.5535 4.40431 25.5803 4.40881 25.6061 4.40881C25.7135 4.40881 25.7757 4.38463 25.8084 4.36392C25.8602 4.33235 25.8813 4.28775 25.8704 4.23189C25.8443 4.09542 25.8092 3.95337 25.7683 3.81201Z" fill="#9AC9DF"/>
<path d="M26.4877 3.51318H26.1532V4.89108H26.4877V3.51318Z" fill="#313B4C"/>
<path d="M26.4877 3.51318H25.6851V3.579H26.4877V3.51318Z" fill="#21242A"/>
<path d="M26.4877 4.85815H25.6851V4.92403H26.4877V4.85815Z" fill="#21242A"/>
<path d="M25.835 4.69234V3.46383C25.835 3.28145 25.6871 3.13354 25.5047 3.13354H25.4629C25.2805 3.13354 25.1327 3.28145 25.1327 3.46383V4.69234C25.1327 4.87472 25.2805 5.02263 25.4629 5.02263H25.5047C25.6871 5.02257 25.835 4.87472 25.835 4.69234Z" fill="#131519"/>
<path d="M25.4401 3.13672C25.4694 3.16437 25.4935 3.1969 25.5089 3.23433C25.5304 3.28673 25.5368 3.34361 25.5405 3.39948C25.5444 3.46034 25.5451 3.52207 25.5431 3.58316C25.5409 3.64904 25.5275 3.714 25.5186 3.77919C25.511 3.83392 25.5033 3.88847 25.4946 3.94302C25.4902 3.96988 25.486 3.99667 25.4824 4.02352C25.4786 4.05179 25.4785 4.08001 25.4761 4.10839C25.4715 4.16408 25.4621 4.21938 25.4605 4.27535C25.4587 4.33281 25.46 4.39044 25.4599 4.44795C25.4597 4.56178 25.4573 4.67583 25.4626 4.78961C25.4651 4.84524 25.4675 4.90321 25.4809 4.95736C25.4862 4.97892 25.491 5.0006 25.496 5.02216C25.4919 5.02227 25.488 5.02278 25.4839 5.02278C25.29 5.02278 25.1328 4.868 25.1328 4.67726V3.4794C25.1328 3.30317 25.2669 3.15811 25.4401 3.13672Z" fill="#313B4C"/>
<path d="M25.5419 3.37964C25.579 3.52225 25.5437 3.67192 25.5167 3.81664C25.4568 4.13765 25.4378 4.46588 25.4603 4.79133" stroke="#6B9BB1" stroke-width="0.5" stroke-miterlimit="10"/>
<path d="M26.5223 1.85815C26.5223 1.85815 27.2049 5.38516 27.2428 5.48943C27.2808 5.59371 27.3282 5.60321 27.4135 5.60321C27.4988 5.60321 27.8276 5.59029 27.8276 5.59029" stroke="#21242A" stroke-width="0.5" stroke-miterlimit="10"/>
<path d="M27.0949 2.04492C27.0949 2.04492 26.8828 2.13264 26.8828 2.24641C26.8828 2.36019 27.2904 4.42709 27.3757 4.75891C27.4611 5.09073 27.4801 5.28977 27.6033 5.30877C27.7266 5.32777 27.783 5.27879 27.783 5.27879C27.783 5.27879 27.7454 4.70197 27.5843 3.84867C27.4575 3.17787 27.0949 2.04492 27.0949 2.04492Z" fill="#D3F1FD"/>
<path d="M27.6462 5.27134C27.5204 5.25268 27.5011 5.05699 27.4141 4.73097C27.327 4.40484 26.9111 2.37361 26.9111 2.26182C26.9111 2.18338 27.0286 2.10641 27.1054 2.06659C27.0956 2.03712 27.0841 2.02393 27.0841 2.02393C27.0841 2.02393 26.8447 2.13298 26.8447 2.24675C26.8447 2.36052 27.2524 4.42743 27.3378 4.75925C27.4231 5.09106 27.442 5.29011 27.5653 5.30911C27.6885 5.32811 27.7833 5.30911 27.7833 5.30911C27.7833 5.30911 27.7833 5.2987 27.7829 5.27913C27.7455 5.28027 27.6986 5.27913 27.6462 5.27134Z" fill="#21242A"/>
<path d="M22.18 4.24974C22.18 4.48536 22.0569 4.67639 21.9051 4.67639C21.7532 4.67639 21.6301 4.48536 21.6301 4.24974V2.86097C21.6301 2.62535 21.7532 2.43433 21.9051 2.43433C22.0569 2.43433 22.18 2.62535 22.18 2.86097V4.24974Z" stroke="#21242A" stroke-width="0.5" stroke-miterlimit="10"/>
<path d="M26.9945 1.81604C26.8817 1.56727 26.7148 1.03027 26.006 0.896356C24.6813 0.656296 23.0337 0.581775 20.6444 0.626146L20.644 1.81604H26.9945Z" fill="#21242A"/>
<path d="M21.5262 1.2522H25.5082" stroke="#D3F1FD" stroke-width="0.5" stroke-miterlimit="10"/>
</svg>
