<svg width="20" height="20" viewBox="0 0 20 20" fill="none" xmlns="http://www.w3.org/2000/svg">
<path fill-rule="evenodd" clip-rule="evenodd" d="M2.44227 9.33359C2.50199 5.19973 5.89678 1.875 10.0657 1.875C12.8227 1.875 15.2392 3.32856 16.5778 5.50601C16.7586 5.80006 16.6667 6.18499 16.3727 6.36576C16.0786 6.54654 15.6937 6.45471 15.5129 6.16066C14.3939 4.34037 12.3736 3.125 10.0657 3.125C6.57871 3.125 3.75306 5.89808 3.69246 9.33181L4.02611 9.00077C4.27114 8.75765 4.66687 8.75921 4.90999 9.00424C5.1531 9.24928 5.15155 9.645 4.90651 9.88812L3.50667 11.277C3.263 11.5188 2.86994 11.5188 2.62627 11.277L1.22642 9.88812C0.981389 9.645 0.979835 9.24928 1.22295 9.00424C1.46607 8.75921 1.86179 8.75765 2.10683 9.00077L2.44227 9.33359ZM16.4886 8.72215C16.7321 8.4815 17.1239 8.4815 17.3674 8.72215L18.7726 10.111C19.0181 10.3537 19.0204 10.7494 18.7777 10.9949C18.5351 11.2404 18.1393 11.2427 17.8938 11.0001L17.5523 10.6624C17.4944 14.8003 14.0847 18.125 9.90203 18.125C7.13645 18.125 4.71146 16.6725 3.36762 14.4949C3.18635 14.2012 3.27752 13.8161 3.57126 13.6348C3.86501 13.4535 4.25009 13.5447 4.43137 13.8384C5.55462 15.6586 7.58328 16.875 9.90203 16.875C13.4072 16.875 16.2434 14.0976 16.3021 10.6641L15.9622 11.0001C15.7167 11.2427 15.3209 11.2404 15.0783 10.9949C14.8356 10.7494 14.838 10.3537 15.0835 10.111L16.4886 8.72215Z" fill="#6B7280"/>
</svg>
