<svg width="56" height="56" viewBox="0 0 56 56" fill="none" xmlns="http://www.w3.org/2000/svg">
<rect width="56" height="56" rx="28" fill="#DCE0E5"/>
<path d="M26.5562 28.9626L24.5624 27.0032C24.3103 26.7511 23.9954 26.6251 23.6178 26.6251C23.2401 26.6251 22.9133 26.7626 22.6374 27.0376C22.3853 27.2896 22.2593 27.6105 22.2593 28.0001C22.2593 28.3896 22.3853 28.7105 22.6374 28.9626L25.5937 31.9188C25.8687 32.1938 26.1895 32.3313 26.5562 32.3313C26.9228 32.3313 27.2437 32.1938 27.5187 31.9188L33.3624 26.0751C33.6374 25.8001 33.7689 25.4792 33.757 25.1126C33.7451 24.7459 33.6136 24.4251 33.3624 24.1501C33.0874 23.8751 32.7611 23.7321 32.3834 23.7211C32.0057 23.7101 31.6789 23.8416 31.403 24.1157L26.5562 28.9626ZM22.7062 41.4063L20.7124 38.0376L16.9312 37.2126C16.5874 37.1438 16.3124 36.9664 16.1062 36.6804C15.8999 36.3944 15.8197 36.0791 15.8655 35.7344L16.2437 31.8501L13.6655 28.8938C13.4364 28.6417 13.3218 28.3438 13.3218 28.0001C13.3218 27.6563 13.4364 27.3584 13.6655 27.1063L16.2437 24.1501L15.8655 20.2657C15.8197 19.9219 15.8999 19.6066 16.1062 19.3197C16.3124 19.0328 16.5874 18.8554 16.9312 18.7876L20.7124 17.9626L22.7062 14.5938C22.8895 14.2959 23.1416 14.0951 23.4624 13.9916C23.7832 13.888 24.1041 13.9054 24.4249 14.0438L27.9999 15.5563L31.5749 14.0438C31.8957 13.9063 32.2166 13.8889 32.5374 13.9916C32.8582 14.0942 33.1103 14.295 33.2937 14.5938L35.2874 17.9626L39.0686 18.7876C39.4124 18.8563 39.6874 19.0341 39.8937 19.3211C40.0999 19.608 40.1801 19.9228 40.1343 20.2657L39.7561 24.1501L42.3343 27.1063C42.5634 27.3584 42.678 27.6563 42.678 28.0001C42.678 28.3438 42.5634 28.6417 42.3343 28.8938L39.7561 31.8501L40.1343 35.7344C40.1801 36.0782 40.0999 36.3935 39.8937 36.6804C39.6874 36.9673 39.4124 37.1447 39.0686 37.2126L35.2874 38.0376L33.2937 41.4063C33.1103 41.7042 32.8582 41.905 32.5374 42.0086C32.2166 42.1121 31.8957 42.0947 31.5749 41.9563L27.9999 40.4438L24.4249 41.9563C24.1041 42.0938 23.7832 42.1112 23.4624 42.0086C23.1416 41.9059 22.8895 41.7051 22.7062 41.4063Z" fill="#16334F"/>
</svg>
