<svg width="20" height="20" viewBox="0 0 20 20" fill="none" xmlns="http://www.w3.org/2000/svg">
<path opacity="0.4" d="M15.7408 11.6666C16.604 11.6666 17.0359 11.6664 17.3707 11.8317C17.7258 12.0071 18.0118 12.3099 18.1774 12.6862C18.3335 13.0411 18.3336 13.4994 18.3336 14.4147C18.3336 15.3297 18.3334 15.7873 18.1774 16.1422C18.0118 16.5186 17.7259 16.8212 17.3707 16.9967C17.0359 17.1621 16.6042 17.1617 15.7408 17.1617H14.8981C14.3973 17.1617 14.1469 17.1622 13.9108 17.2379C13.6746 17.3137 13.4661 17.4611 13.0494 17.7555L12.9625 17.817C12.3922 18.22 12.1064 18.4213 11.8864 18.2965C11.6666 18.1715 11.6666 17.8078 11.6666 17.0817V15.1998C11.6666 13.5345 11.6668 12.7016 12.1549 12.1842C12.643 11.6669 13.4285 11.6666 14.9996 11.6666H15.7408ZM4.99963 1.66663C6.57098 1.66663 7.35718 1.66683 7.84534 2.1842C8.3333 2.7016 8.33362 3.53464 8.33362 5.19983V7.08167C8.33362 7.80812 8.33297 8.17169 8.11292 8.29651C7.89289 8.42107 7.60781 8.21982 7.03772 7.81702L6.95081 7.75549C6.53404 7.46102 6.32565 7.31371 6.08948 7.23792C5.85334 7.16214 5.60287 7.16174 5.10217 7.16174H4.2594C3.39579 7.16174 2.96341 7.16221 2.62854 6.9967C2.27356 6.82117 1.98843 6.51849 1.82288 6.14221C1.66675 5.78733 1.66663 5.32978 1.66663 4.41467C1.66663 3.49937 1.66672 3.04108 1.82288 2.68616C1.98848 2.30998 2.27358 2.00713 2.62854 1.83167C2.96341 1.66616 3.39579 1.66663 4.2594 1.66663H4.99963Z" fill="#EBEEED"/>
<path d="M15.7653 11.0416C16.1761 11.0416 16.5214 11.0414 16.8043 11.0641C17.1003 11.0879 17.3805 11.1399 17.6481 11.2721C18.14 11.5153 18.5274 11.9301 18.7496 12.4352C18.8686 12.7058 18.9153 12.9895 18.9371 13.2955C18.9583 13.5911 18.9586 13.9537 18.9586 14.3922V14.4371C18.9586 14.8755 18.9582 15.2373 18.9371 15.5328C18.9152 15.8391 18.8688 16.1233 18.7496 16.3942C18.5274 16.8993 18.1401 17.3141 17.6481 17.5573C17.3806 17.6895 17.1003 17.7405 16.8043 17.7643C16.5214 17.787 16.1761 17.7868 15.7653 17.7867H14.8981C14.3589 17.7867 14.2229 17.7936 14.1012 17.8326C13.9776 17.8723 13.8581 17.9495 13.4098 18.2662L13.3229 18.3278C13.3114 18.3358 13.3001 18.3441 13.2887 18.3522C13.0338 18.5324 12.7861 18.7064 12.5729 18.8131C12.3499 18.9247 11.9695 19.0618 11.5787 18.8405C11.2032 18.6274 11.1088 18.2448 11.0748 18.0016C11.0412 17.7607 11.0416 17.4508 11.0416 17.1227V15.1578C11.0416 14.3606 11.042 13.7027 11.108 13.1823C11.177 12.6386 11.3272 12.1506 11.6998 11.7555C12.0775 11.3552 12.5528 11.1885 13.0826 11.1129C13.5807 11.0419 14.2078 11.0416 14.9547 11.0416H15.7653ZM1.66663 9.37463C2.01169 9.37463 2.29144 9.65461 2.29163 9.99963C2.29163 10.6503 2.38208 11.2793 2.55042 11.8746H6.1178C6.09013 11.5422 6.07 11.202 6.05725 10.8561C6.04468 10.5113 6.31398 10.2214 6.65881 10.2086C7.00372 10.1959 7.2935 10.4653 7.30627 10.8102C7.31971 11.1749 7.34222 11.5304 7.37268 11.8746H9.16663C9.51169 11.8746 9.79144 12.1546 9.79163 12.4996C9.79163 12.8448 9.5118 13.1246 9.16663 13.1246H7.526C7.66275 13.9853 7.8529 14.7429 8.07971 15.3561C8.28753 15.918 8.51388 16.3254 8.73108 16.5807C8.95074 16.8389 9.09983 16.8746 9.16663 16.8746C9.51169 16.8746 9.79144 17.1546 9.79163 17.4996C9.79163 17.8448 9.5118 18.1246 9.16663 18.1246C5.62814 18.1246 2.61974 15.8633 1.50452 12.7086C1.20482 11.8607 1.04163 10.9482 1.04163 9.99963C1.04181 9.65461 1.32156 9.37463 1.66663 9.37463ZM14.9996 12.2916C14.1955 12.2916 13.6589 12.2933 13.2594 12.3502C12.8817 12.404 12.7194 12.4959 12.609 12.6129C12.4939 12.735 12.4003 12.9218 12.3473 13.3395C12.2924 13.772 12.2916 14.3504 12.2916 15.1998V17.0817C12.2916 17.2608 12.2922 17.4045 12.2946 17.5211C12.3829 17.461 12.4827 17.39 12.6012 17.3063L12.6881 17.2448C12.7091 17.2299 12.7301 17.2153 12.7506 17.2008C13.1058 16.9494 13.3898 16.749 13.7194 16.6432C14.0508 16.5368 14.3955 16.5364 14.8229 16.5367H15.7408C16.1824 16.5367 16.4768 16.5364 16.7037 16.5182C16.9232 16.5006 17.0271 16.4694 17.0944 16.4362C17.3124 16.3283 17.4962 16.1377 17.6051 15.8903C17.642 15.8062 17.6729 15.6837 17.6901 15.444C17.7076 15.1983 17.7086 14.8812 17.7086 14.4147C17.7086 13.948 17.7076 13.6301 17.6901 13.3844C17.6729 13.1447 17.6421 13.0221 17.6051 12.9381C17.4962 12.6906 17.3125 12.5001 17.0944 12.3922C17.0271 12.359 16.9232 12.3278 16.7037 12.3102C16.4768 12.292 16.1824 12.2916 15.7408 12.2916H14.9996ZM3.04065 13.1246C3.89783 14.8015 5.42351 16.0801 7.26526 16.609C7.13418 16.3572 7.01488 16.0817 6.90686 15.7897C6.62985 15.0407 6.41026 14.1335 6.26135 13.1246H3.04065ZM10.8444 1.87463C14.383 1.87463 17.3924 4.13674 18.5074 7.29163C18.7593 8.0042 18.9145 8.76245 18.9576 9.54944C18.9763 9.89385 18.7122 10.1886 18.3678 10.2076C18.0233 10.2265 17.7286 9.96229 17.7096 9.6178C17.6814 9.10282 17.5958 8.60269 17.4606 8.12463H13.8932C13.9322 8.59318 13.9564 9.07731 13.9655 9.5719C13.9717 9.91702 13.6973 10.2023 13.3522 10.2086C13.0071 10.2149 12.7227 9.93944 12.7164 9.59436C12.7072 9.0872 12.68 8.5954 12.6383 8.12463H10.8444C10.4993 8.12446 10.2194 7.84471 10.2194 7.49963C10.2195 7.15471 10.4994 6.8748 10.8444 6.87463H12.485C12.3575 6.0722 12.1835 5.35897 11.9762 4.76819C11.7649 4.16624 11.5308 3.72493 11.3033 3.4469C11.0721 3.16433 10.9135 3.12463 10.8444 3.12463C10.4993 3.12446 10.2194 2.84471 10.2194 2.49963C10.2195 2.15471 10.4994 1.8748 10.8444 1.87463ZM5.04553 1.04163C5.79228 1.0416 6.4186 1.04198 6.91663 1.11292C7.44667 1.18844 7.92165 1.35509 8.29944 1.75549C8.67226 2.15067 8.82319 2.63846 8.89221 3.18225C8.95824 3.70273 8.95864 4.36062 8.95862 5.15784V7.12268C8.95867 7.45082 8.95804 7.76071 8.92444 8.00159C8.89048 8.24476 8.797 8.62747 8.42151 8.84045C8.03074 9.062 7.65036 8.92472 7.42737 8.81311C7.21417 8.70639 6.96644 8.53236 6.71155 8.35217C6.7002 8.34415 6.68874 8.3358 6.67737 8.32776L6.59045 8.26624C6.14202 7.94939 6.02171 7.87232 5.89807 7.83264C5.77652 7.79373 5.64041 7.78675 5.10217 7.78674H4.23499C3.82417 7.78675 3.47883 7.78698 3.19592 7.76428C2.89998 7.74053 2.61969 7.68941 2.35217 7.55725C1.86017 7.31409 1.47287 6.89927 1.25061 6.39417C1.13144 6.12331 1.085 5.83915 1.06311 5.53284C1.04201 5.23732 1.04162 4.87547 1.04163 4.43713V4.39221C1.04162 3.95369 1.04199 3.59113 1.06311 3.29553C1.085 2.98945 1.13158 2.70586 1.25061 2.43518C1.47287 1.93002 1.86013 1.51527 2.35217 1.27209C2.61975 1.13986 2.8999 1.08785 3.19592 1.06409C3.47883 1.04139 3.82418 1.04162 4.23499 1.04163H5.04553ZM4.2594 2.29163C3.8175 2.29163 3.5225 2.29196 3.29553 2.31018C3.07634 2.32779 2.97315 2.35899 2.90588 2.39221C2.68773 2.50003 2.50409 2.6906 2.39514 2.93811C2.35818 3.02212 2.32636 3.14462 2.3092 3.3844C2.29165 3.63015 2.29163 3.94803 2.29163 4.41467C2.29163 4.88117 2.29165 5.19827 2.3092 5.44397C2.32634 5.68387 2.35819 5.80621 2.39514 5.89026C2.50407 6.13785 2.6877 6.32831 2.90588 6.43616C2.97315 6.4694 3.07623 6.50057 3.29553 6.51819C3.5225 6.5364 3.8175 6.53674 4.2594 6.53674H5.17737C5.60449 6.53639 5.94864 6.53696 6.27991 6.64319C6.60948 6.74895 6.8934 6.94937 7.24866 7.20081C7.26915 7.21531 7.29016 7.22992 7.31116 7.24475L7.39807 7.30627C7.51669 7.39009 7.61728 7.4609 7.70569 7.52112C7.70808 7.40454 7.70862 7.26078 7.70862 7.08167V5.19983C7.70862 4.35043 7.70684 3.772 7.65198 3.33948C7.59893 2.9217 7.50543 2.73498 7.39026 2.61292C7.27992 2.49604 7.11815 2.40402 6.74084 2.35022C6.34129 2.29329 5.804 2.29163 4.99963 2.29163H4.2594ZM12.7457 3.39124C12.8977 3.6832 13.0342 4.00746 13.1559 4.35413C13.4083 5.0734 13.61 5.92869 13.7496 6.87463H16.9703C16.1131 5.19784 14.5875 3.92006 12.7457 3.39124Z" fill="#EBEEED"/>
</svg>
