<svg width="51" height="34" viewBox="0 0 51 34" fill="none" xmlns="http://www.w3.org/2000/svg">
<path d="M47.3809 30.4905C47.91 29.9773 49.685 28.204 50.0398 25.4132C50.4496 22.1902 48.6805 19.7433 48.147 18.9681C44.8895 14.2348 38.5981 13.7504 37.1817 13.6298C27.8201 12.8317 20.5827 19.4173 17.755 21.9996C14.1269 25.3125 11.8744 28.7673 10.543 31.1829C13.5263 27.796 16.4112 25.4321 18.5633 23.8707C22.6335 20.9181 26.6625 18.0876 32.0518 17.9983C35.6332 17.9387 37.68 19.1234 38.6388 19.8163C39.9662 20.7752 41.9484 22.7703 41.4313 24.0618C40.8913 25.4107 37.8206 25.5021 35.9069 25.2142C34.0226 24.9308 30.5112 23.8002 25.0221 16.4235C22.5068 13.0436 19.1033 7.62436 16.7082 0H0C1.22659 2.10586 3.80049 6.39251 7.39431 11.2445C8.85191 13.2119 10.6314 15.5768 13.0429 18.2648C13.0429 18.2648 14.7374 20.1483 16.3381 21.7187C20.5564 25.8564 26.5408 31.7268 34.8522 33.0192C36.8856 33.3354 43.4055 34.3488 47.3809 30.4905Z" fill="#FF6F47"/>
</svg>
