<svg width="24" height="12" viewBox="0 0 24 12" fill="none" xmlns="http://www.w3.org/2000/svg">
<path opacity="0.5" d="M11.9549 11.371C18.5574 11.371 23.9098 11.1093 23.9098 10.7864C23.9098 10.4636 18.5574 10.2019 11.9549 10.2019C5.3524 10.2019 0 10.4636 0 10.7864C0 11.1093 5.3524 11.371 11.9549 11.371Z" fill="#70C9F7"/>
<path d="M2.73917 9.66911C2.73917 9.66911 3.36619 9.26432 4.54104 9.26432C5.71588 9.26432 6.36732 9.66911 6.36732 9.66911C6.36732 9.66911 7.09328 9.81215 7.09328 8.97108C7.09328 8.13002 7.53891 7.72736 6.8502 7.03045C6.1615 6.33354 5.89153 5.66509 4.85167 6.13098C3.81182 6.59686 3.26586 6.53609 2.88052 7.42736C2.49518 8.31861 2.33313 7.65017 2.43441 8.44015C2.53569 9.23013 2.73917 9.66911 2.73917 9.66911Z" fill="#181818"/>
<path d="M18.1747 9.66903C18.1747 9.66903 18.6194 9.2289 19.9965 9.2289C21.3737 9.2289 21.8028 9.66903 21.8028 9.66903C21.8028 9.66903 22.6597 9.14009 22.5737 8.84519C22.4878 8.5503 22.7789 8.0147 21.8028 7.46779C20.8268 6.92088 20.7199 6.60003 19.639 6.56802C18.5581 6.53602 17.4845 6.322 17.2212 7.31014C16.9579 8.29828 16.9376 8.59041 17.1807 8.971C17.4238 9.35158 18.1747 9.66903 18.1747 9.66903Z" fill="#181818"/>
<path d="M23.9955 8.50144C23.9948 8.5172 23.9939 8.53294 23.993 8.5487C23.993 8.54927 23.9929 8.54983 23.9929 8.5504C23.9917 8.57184 23.9902 8.59311 23.9886 8.61455C23.9856 8.6554 23.9818 8.69624 23.9774 8.73708C23.9769 8.74167 23.9764 8.74627 23.976 8.75086C23.974 8.76959 23.9718 8.7883 23.9694 8.80719C23.9672 8.8254 23.9648 8.84361 23.9623 8.86199C23.9595 8.88292 23.9565 8.90385 23.9532 8.92496C23.9509 8.94044 23.9485 8.95593 23.9459 8.97141C23.9439 8.984 23.9418 8.99677 23.9396 9.00954C23.9366 9.02774 23.9333 9.04613 23.9299 9.06433C23.8656 9.41507 23.5586 9.66914 23.2023 9.66914H21.8029C21.8058 9.65366 21.8088 9.63817 21.8119 9.62268C21.815 9.60787 21.8177 9.59341 21.8199 9.57894C21.8219 9.56754 21.824 9.55597 21.8257 9.5449C21.8869 9.15486 21.8422 8.82302 21.745 8.55039C21.6017 8.14792 21.3448 7.87428 21.1475 7.73252C21.13 7.71942 21.1128 7.70836 21.0953 7.6978C21.0931 7.69627 21.0903 7.69457 21.088 7.69321C20.8826 7.57238 20.4467 7.47743 19.9888 7.47368C19.5307 7.47743 19.0949 7.57239 18.8894 7.69321C18.8797 7.69883 18.8701 7.70495 18.8602 7.71125C18.8549 7.71465 18.8498 7.71839 18.8444 7.72214C18.8377 7.72656 18.8309 7.7315 18.8239 7.7366C18.8222 7.73762 18.8205 7.73898 18.8188 7.74034C18.8108 7.7463 18.8027 7.75277 18.7943 7.7594C18.7844 7.76723 18.7744 7.77557 18.765 7.78442C18.7586 7.78935 18.7525 7.7948 18.7465 7.80092C18.7441 7.8028 18.7417 7.80484 18.7397 7.80722C18.732 7.81402 18.7245 7.821 18.7172 7.82849C18.6777 7.8678 18.6391 7.91222 18.6017 7.96242C18.593 7.97382 18.5847 7.98556 18.5762 7.99781C18.5755 7.99849 18.5751 7.99866 18.5751 7.99935C18.5682 8.00922 18.561 8.01926 18.5547 8.02964C18.551 8.03441 18.5479 8.03917 18.5448 8.0441C18.5389 8.05363 18.5328 8.06333 18.5266 8.0732C18.5193 8.08461 18.5122 8.09635 18.5055 8.10843C18.4984 8.12017 18.4914 8.13242 18.4849 8.14485C18.4725 8.16731 18.4604 8.19028 18.4485 8.21377C18.4402 8.23095 18.4318 8.24882 18.4233 8.2667C18.4126 8.28984 18.4022 8.31383 18.3924 8.338C18.3867 8.35077 18.3816 8.36353 18.3765 8.37663C18.3692 8.39484 18.3621 8.41373 18.3558 8.43262C18.3514 8.44368 18.3473 8.45474 18.3435 8.46631C18.341 8.47295 18.3386 8.47976 18.3366 8.48674C18.3308 8.50256 18.3258 8.51873 18.3207 8.53524C18.3156 8.5514 18.3107 8.56757 18.3056 8.58408C18.2988 8.60654 18.2925 8.62951 18.2863 8.65266C18.2692 8.71835 18.2533 8.78727 18.2395 8.85942C18.2363 8.8761 18.2329 8.89329 18.2302 8.91047C18.2281 8.92154 18.2264 8.93277 18.2244 8.94417C18.2224 8.95625 18.2205 8.96868 18.2188 8.9811C18.2171 8.992 18.2154 9.00305 18.2137 9.01412C18.2109 9.03232 18.2086 9.05121 18.2064 9.0701C18.2057 9.07436 18.205 9.07913 18.2047 9.08355C18.2019 9.10499 18.1992 9.12694 18.1968 9.14907C18.1968 9.15043 18.1965 9.15213 18.1965 9.15349C18.1938 9.178 18.1915 9.20302 18.1895 9.2282C18.188 9.24488 18.1864 9.26172 18.1854 9.27857C18.1844 9.29133 18.1835 9.3041 18.1827 9.31703C18.179 9.37591 18.1764 9.4365 18.175 9.49844C18.1747 9.5146 18.1745 9.53078 18.1744 9.54728V9.54813C18.174 9.58778 18.174 9.62811 18.1747 9.66912H6.36731C6.36799 9.62845 6.36799 9.58846 6.36765 9.54915C6.36748 9.54864 6.36748 9.54796 6.36765 9.54727C6.36748 9.53076 6.36714 9.5146 6.36697 9.49843C6.36629 9.46797 6.36527 9.43785 6.3639 9.40807C6.3639 9.40756 6.36374 9.40704 6.3639 9.40654C6.36271 9.37624 6.36101 9.34646 6.35931 9.31702C6.35727 9.28707 6.35523 9.25746 6.35251 9.22819C6.35047 9.203 6.34809 9.17799 6.34536 9.15348C6.34536 9.15212 6.34519 9.15041 6.34519 9.14906C6.34281 9.12694 6.34042 9.10498 6.33736 9.08354C6.33702 9.07911 6.33634 9.07435 6.33566 9.07009C6.33362 9.0512 6.33089 9.03265 6.32834 9.0141C6.32664 9.00304 6.32493 8.99198 6.32323 8.98109C6.32153 8.96867 6.31949 8.95624 6.31745 8.94416C6.3154 8.93276 6.31387 8.92153 6.31183 8.91046C6.30876 8.89327 6.3057 8.87608 6.3023 8.85941C6.28852 8.78726 6.27269 8.71833 6.2555 8.65264C6.24955 8.6295 6.24308 8.60653 6.23644 8.58407C6.23133 8.56756 6.22623 8.55139 6.22129 8.53523C6.21619 8.51872 6.21108 8.50255 6.20547 8.48672C6.20343 8.47974 6.20105 8.47294 6.19832 8.4663C6.19457 8.45473 6.19066 8.44366 6.18658 8.43261C6.17977 8.41372 6.17279 8.39483 6.1653 8.37662C6.16037 8.36351 6.15527 8.35076 6.14948 8.33799C6.13978 8.31383 6.12939 8.28983 6.11851 8.26668C6.11017 8.24882 6.10183 8.23095 6.09332 8.21375C6.08158 8.19027 6.0695 8.1673 6.05707 8.14484C6.05061 8.13241 6.04346 8.12016 6.03648 8.10842C6.02967 8.09634 6.02269 8.08459 6.0152 8.07319C6.00925 8.06332 6.00312 8.05362 5.99717 8.04409C5.9941 8.03915 5.99104 8.03439 5.9873 8.02963C5.981 8.01925 5.97385 8.00921 5.96687 7.99934C5.96687 7.99866 5.96654 7.99849 5.96586 7.9978C5.95735 7.98555 5.94901 7.97381 5.94016 7.96241C5.90289 7.9122 5.86409 7.86779 5.82478 7.82848C5.8173 7.82099 5.80998 7.81402 5.80215 7.80721C5.80028 7.80482 5.7979 7.80278 5.79551 7.80091C5.78938 7.79479 5.78343 7.78934 5.77696 7.78441C5.7676 7.77555 5.75739 7.76722 5.74769 7.75939C5.73935 7.75276 5.73118 7.74628 5.72318 7.74033C5.72148 7.73897 5.71977 7.73761 5.71807 7.73659C5.71092 7.73148 5.70429 7.72655 5.69748 7.72212C5.69221 7.71838 5.68711 7.71463 5.68166 7.71123C5.67196 7.70494 5.66226 7.69881 5.65239 7.6932C5.44715 7.57237 5.01133 7.47742 4.55322 7.47367C4.21797 7.47639 3.89497 7.52796 3.66506 7.60301C3.66234 7.60386 3.65979 7.60471 3.6569 7.60556C3.56977 7.63228 3.39942 7.66427 3.34598 7.69559C3.30327 7.72043 3.25783 7.75174 3.21137 7.78901C3.02095 7.94183 2.81265 8.19675 2.70748 8.55038C2.61797 8.85177 2.60333 9.22497 2.73862 9.66777C2.73879 9.66811 2.73896 9.66846 2.73896 9.66879C2.73913 9.66896 2.73913 9.66896 2.73913 9.66913H0.972863C0.479862 9.66913 0.0772221 9.27262 0.0719448 8.77996C0.0710904 8.7032 0.0704119 8.6268 0.0700726 8.55038C0.0697334 8.5172 0.0693941 8.48419 0.0693941 8.451C0.0688853 8.39757 0.0687158 8.3443 0.0685461 8.29103C0.0683765 8.22415 0.0682068 8.15761 0.0682068 8.09108C0.0682068 8.02436 0.0682069 7.95766 0.0685461 7.89112C0.0685461 7.87784 0.0687156 7.86457 0.0687156 7.8513C0.0688852 7.80655 0.0690549 7.76196 0.0693941 7.71737C0.0695638 7.69729 0.0695639 7.67721 0.0697335 7.6573C0.0699031 7.63688 0.0700727 7.61663 0.0702423 7.59621C0.0704119 7.56541 0.0707513 7.53477 0.0710905 7.50414C0.0712601 7.48916 0.0714297 7.47402 0.0715993 7.45888C0.0722779 7.39182 0.0729626 7.32495 0.0738107 7.25807C0.0750044 7.182 0.0761918 7.10627 0.0775551 7.03054C0.0857222 6.60441 0.0991666 6.18373 0.118736 5.76935C0.139669 5.32604 0.167576 4.8897 0.203656 4.46137C0.319378 3.07732 0.518826 1.77665 0.834845 0.592388C0.92844 0.243017 1.2448 0 1.6066 0H14.4034C15.1941 0 15.958 0.286409 16.5534 0.805959L21.5018 5.12386C21.5018 5.12386 21.5018 5.12386 21.5022 5.1242L22.6182 6.09779L23.1572 6.56799L23.3156 6.70634L23.3379 6.72591C23.4432 6.81781 23.5375 6.91974 23.6199 7.03053C23.6279 7.04125 23.6359 7.05214 23.6437 7.0632C23.6595 7.08532 23.6748 7.10762 23.6895 7.13042C23.6951 7.13893 23.7005 7.14744 23.706 7.15612C23.7169 7.17331 23.7274 7.19067 23.7375 7.2082C23.7426 7.21688 23.7477 7.22572 23.7526 7.23457C23.7577 7.24342 23.7626 7.25227 23.7674 7.26112C23.7722 7.27014 23.7769 7.27899 23.7815 7.28801C23.7858 7.296 23.7899 7.304 23.794 7.31201C23.7999 7.32375 23.8059 7.33566 23.8115 7.34774C23.8169 7.35914 23.8222 7.37072 23.8275 7.38229C23.836 7.40101 23.8442 7.42007 23.852 7.43913C23.8571 7.45104 23.8619 7.46312 23.8665 7.47538C23.8721 7.48984 23.8775 7.50431 23.8826 7.51877C23.8879 7.53341 23.8928 7.54804 23.8978 7.56268C23.9216 7.63433 23.941 7.7075 23.9556 7.78204C23.9575 7.79157 23.9594 7.8011 23.9611 7.81063C23.968 7.84892 23.9737 7.88755 23.9781 7.92635C23.9813 7.95494 23.9842 7.9837 23.9866 8.01229C23.9878 8.02658 23.989 8.04088 23.99 8.05517C23.991 8.06947 23.992 8.08376 23.9929 8.09806C23.9954 8.13567 23.9971 8.17328 23.9982 8.21088C24.0005 8.28627 24.0005 8.36166 23.9982 8.43722C23.9975 8.45859 23.9966 8.48001 23.9955 8.50144Z" fill="#DFDBD6"/>
<path d="M23.9299 9.06439C23.8656 9.41509 23.5587 9.66918 23.2022 9.66918H21.8028C21.8058 9.6537 21.8089 9.63823 21.8119 9.62275C21.8146 9.60794 21.8173 9.59346 21.82 9.579C21.822 9.56756 21.824 9.55611 21.8257 9.545C22.0229 8.38285 21.5931 7.88574 21.1475 7.73262C21.13 7.71948 21.1128 7.70838 21.0953 7.69794C21.093 7.69626 21.0903 7.69457 21.0879 7.69322C20.8826 7.5724 20.4468 7.47749 19.9887 7.47379C19.5307 7.47749 19.0948 7.57239 18.8895 7.69322C18.8797 7.69895 18.87 7.705 18.8602 7.71139C18.8548 7.71476 18.8498 7.71846 18.8444 7.72217C18.8377 7.72655 18.8309 7.73159 18.8239 7.73664C18.8222 7.73765 18.8205 7.739 18.8188 7.74035C18.8108 7.7464 18.8027 7.75279 18.7943 7.75953C18.7845 7.76727 18.7744 7.77569 18.765 7.78443C18.7586 7.78949 18.7525 7.79486 18.7465 7.80092C18.7441 7.80295 18.7418 7.80497 18.7397 7.80732C18.732 7.81406 18.7246 7.82112 18.7172 7.82852C18.6778 7.86791 18.6391 7.91234 18.6017 7.96248C18.593 7.97393 18.5846 7.98572 18.5762 7.99783C18.5755 7.9985 18.5752 7.99883 18.5752 7.9995C18.5681 8.00927 18.561 8.01938 18.5546 8.02979C18.5509 8.03451 18.5479 8.03923 18.5449 8.04427C18.5388 8.05369 18.5327 8.06345 18.5267 8.07321C18.5193 8.08466 18.5122 8.09645 18.5055 8.10856C18.4984 8.12034 18.4917 8.13245 18.4849 8.14491C18.4725 8.16746 18.4604 8.19033 18.4486 8.2139C18.4402 8.23107 18.4318 8.24891 18.4234 8.26673C18.4126 8.28997 18.4022 8.31386 18.3924 8.33809C18.3867 8.35087 18.3816 8.36368 18.3766 8.37679C18.3692 8.39497 18.3621 8.41382 18.3557 8.43267C18.3513 8.44378 18.3473 8.45489 18.3436 8.46632C18.3409 8.47306 18.3385 8.47978 18.3365 8.48684C18.3308 8.50267 18.3258 8.51883 18.3207 8.53531C18.3157 8.55146 18.3106 8.56764 18.3056 8.58412C18.2992 8.60666 18.2928 8.62956 18.2864 8.65278C18.2692 8.7184 18.2534 8.7874 18.2396 8.85943C18.2362 8.87626 18.2332 8.89341 18.2302 8.91059C18.2281 8.92168 18.2265 8.93279 18.2244 8.94424C18.2224 8.95636 18.2204 8.96881 18.2187 8.98125C18.217 8.99203 18.2154 9.00314 18.2137 9.01424C18.211 9.03241 18.2086 9.05126 18.2063 9.07011C18.2056 9.07448 18.2049 9.0792 18.2046 9.08357C18.2019 9.10511 18.1992 9.12699 18.1968 9.14921C18.1968 9.15055 18.1965 9.15223 18.1965 9.15358C18.1938 9.17815 18.1915 9.20306 18.1894 9.2283C18.1868 9.25759 18.1847 9.2872 18.1827 9.31714C18.179 9.37604 18.1763 9.43663 18.175 9.49855C18.174 9.55408 18.1736 9.61098 18.1746 9.66918H6.3673C6.36831 9.61098 6.36797 9.55408 6.36696 9.49855C6.36561 9.43663 6.36292 9.37604 6.35922 9.31714C6.3572 9.2872 6.35518 9.25759 6.35249 9.2283C6.35047 9.20306 6.34811 9.17815 6.34542 9.15358C6.34542 9.15223 6.34508 9.15056 6.34508 9.14921C6.34273 9.12699 6.34003 9.10512 6.33734 9.08357C6.337 9.0792 6.33633 9.07448 6.33566 9.07011C6.3333 9.05126 6.33095 9.03241 6.32825 9.01424C6.32657 9.00314 6.32488 8.99203 6.3232 8.98125C6.32152 8.96881 6.3195 8.95636 6.31748 8.94424C6.31546 8.93279 6.31378 8.92168 6.31176 8.91059C6.30873 8.89341 6.3057 8.87626 6.30234 8.85943C6.28854 8.7874 6.27272 8.7184 6.25555 8.65278C6.24916 8.62956 6.24276 8.60666 6.23637 8.58412C6.23132 8.56763 6.22628 8.55146 6.22122 8.53531C6.21617 8.51882 6.21113 8.50267 6.2054 8.48684C6.20339 8.47978 6.20103 8.47306 6.19834 8.46632C6.19464 8.45488 6.19059 8.44377 6.18656 8.43267C6.17982 8.41382 6.17275 8.39497 6.16535 8.37679C6.1603 8.36368 6.15525 8.35087 6.14953 8.33809C6.13977 8.31386 6.12934 8.28997 6.11857 8.26673C6.11016 8.24891 6.10174 8.23107 6.09333 8.2139C6.08155 8.19033 6.06943 8.16746 6.05698 8.14491C6.05025 8.13245 6.04352 8.12034 6.03645 8.10856C6.02972 8.09645 6.02265 8.08467 6.01524 8.07321C6.00919 8.06345 6.00313 8.05369 5.99707 8.04427C5.99405 8.03923 5.99101 8.03451 5.98731 8.02979C5.98092 8.01938 5.97385 8.00927 5.96678 7.9995C5.96678 7.99883 5.96644 7.9985 5.96577 7.99783C5.95736 7.98572 5.94894 7.97394 5.94019 7.96248C5.90283 7.91234 5.86413 7.86791 5.82475 7.82852C5.81735 7.82113 5.80994 7.81406 5.80221 7.80732C5.80019 7.80497 5.79783 7.80295 5.79547 7.80092C5.78941 7.79486 5.78336 7.78948 5.77696 7.78443C5.76754 7.77568 5.75744 7.76727 5.74768 7.75953C5.73927 7.75279 5.73119 7.7464 5.72311 7.74035C5.72143 7.739 5.71974 7.73765 5.71806 7.73664C5.71099 7.73159 5.70426 7.72655 5.69753 7.72217C5.69214 7.71846 5.68709 7.71476 5.68171 7.71139C5.67195 7.705 5.66218 7.69895 5.65243 7.69322C5.44713 7.5724 5.01127 7.47749 4.55321 7.47379C4.21799 7.47647 3.89489 7.52798 3.66502 7.60303C3.58088 7.63029 3.42942 7.63164 3.37422 7.66395C3.32239 7.69456 3.2672 7.73631 3.21133 7.78914C2.87543 8.1055 2.52036 8.80355 2.73913 9.66918H0.97285C0.47978 9.66918 0.0772529 9.27271 0.0718689 8.77998C0.0685015 8.45385 0.0671569 8.13041 0.0688406 7.80933C0.0691798 7.73832 0.0695129 7.66731 0.0701851 7.59628C0.0705244 7.55051 0.0708573 7.50475 0.0715295 7.45896C0.0728802 7.31559 0.0748969 7.17288 0.077592 7.03052H23.6199C23.8144 7.29136 23.941 7.59931 23.978 7.92645C24.0204 8.30342 23.9999 8.68306 23.9299 9.06439Z" fill="url(#paint0_linear_9938_2138)"/>
<path d="M3.66503 7.60302C3.58089 7.63028 3.5092 7.6609 3.45401 7.69321C3.23591 7.82178 3.01715 8.10617 2.8805 8.55044C2.78795 8.85033 2.73241 9.22257 2.73914 9.66917H0.972859C0.479789 9.66917 0.0772616 9.27271 0.0718775 8.77997C0.0708724 8.70324 0.0701938 8.62684 0.0698608 8.55044C0.0661542 8.03718 0.0681771 7.53032 0.0776007 7.03052H2.77853C2.97946 7.03052 3.1723 7.11028 3.31434 7.25265L3.66503 7.60302Z" fill="#424242"/>
<path d="M17.6149 8.40138L17.5557 8.55048L17.5241 8.63058C17.4426 8.83488 17.2316 8.97119 16.995 8.97119H7.31507C7.0953 8.97119 6.89572 8.85339 6.80383 8.66996L6.74392 8.55048L6.6692 8.40173C6.60559 8.27484 6.70623 8.13013 6.85802 8.13013H17.4086C17.5611 8.13012 17.6671 8.26979 17.6149 8.40138Z" fill="#424242"/>
<path d="M23.9928 8.55044C23.9827 8.72142 23.9615 8.89273 23.9299 9.06438C23.8656 9.41507 23.5587 9.66917 23.2023 9.66917H21.8028C21.8095 9.22257 21.754 8.84998 21.6618 8.55044C21.5373 8.14656 21.3454 7.87496 21.1475 7.7326L21.4491 7.43102C21.7055 7.17457 22.0532 7.03052 22.416 7.03052H23.6199C23.7683 7.22943 23.8771 7.45561 23.9363 7.69693C23.9555 7.77198 23.9693 7.84871 23.978 7.92645C23.9844 7.98367 23.9895 8.04088 23.9928 8.0981C24.0023 8.24853 24.0023 8.39933 23.9928 8.55044Z" fill="#424242"/>
<path d="M14.5044 1.54783H1.27845C1.18816 1.54783 1.12222 1.46249 1.14501 1.37512L1.31016 0.741901C1.35524 0.569077 1.51131 0.448486 1.68991 0.448486H14.5044L14.5044 1.54783Z" fill="url(#paint1_linear_9938_2138)"/>
<path d="M15.9578 5.43196C15.5095 5.43196 15.1448 5.0832 15.1448 4.65451V2.6697C15.1448 2.35227 15.4149 2.09399 15.7468 2.09399H16.4206C16.6806 2.09399 16.9376 2.15394 17.1639 2.26737C17.9767 2.6748 18.9176 3.53991 20.0402 4.91209C20.1201 5.00974 20.1344 5.13967 20.0775 5.25116C20.0207 5.36268 19.9049 5.43196 19.7752 5.43196L15.9578 5.43196Z" fill="#424242"/>
<path d="M19.4869 4.79842C19.4869 5.08989 19.3526 5.21274 19.2567 5.26322C19.2126 5.28677 19.1628 5.29721 19.113 5.29721H15.9577C15.8133 5.29721 15.6794 5.25346 15.5696 5.17941C15.3977 5.06296 15.2856 4.87113 15.2856 4.65437V2.66966C15.2856 2.42598 15.4922 2.22876 15.7467 2.22876H16.4205C16.5588 2.22876 16.6958 2.24693 16.8277 2.28328C16.921 2.30853 17.0118 2.34319 17.0987 2.38661C17.2003 2.43776 17.3053 2.49666 17.4134 2.56432C17.7536 2.77703 18.1255 3.07321 18.5324 3.46159C18.632 3.55651 18.7334 3.65681 18.837 3.76282C18.837 3.76282 18.837 3.76282 18.8374 3.76317C18.8501 3.77628 18.8626 3.78906 18.8754 3.80254C18.9595 3.88903 19.045 3.97923 19.1318 4.07347C19.1322 4.07414 19.1325 4.07481 19.1332 4.07515C19.3045 4.28213 19.4869 4.55845 19.4869 4.79842Z" fill="url(#paint2_linear_9938_2138)"/>
<path d="M6.74393 8.55029H17.5557L17.5241 8.63039C17.4426 8.8347 17.2316 8.971 16.995 8.971H7.31508C7.0953 8.971 6.89572 8.85321 6.80384 8.66977L6.74393 8.55029Z" fill="#2C2C2C"/>
<path d="M1.07135 5.43196C0.835112 5.43196 0.640174 5.23926 0.636788 5.00235C0.623984 4.10227 0.644163 3.08755 0.890987 2.38622C0.952517 2.21143 1.11744 2.09399 1.30137 2.09399H13.6134C13.8972 2.09399 14.1282 2.32594 14.1285 2.611L14.1306 4.914C14.1307 5.05217 14.0773 5.18213 13.9802 5.27995C13.8828 5.37796 13.7533 5.43196 13.6155 5.43196L1.07135 5.43196Z" fill="#424242"/>
<path d="M13.9959 4.9142C13.9962 5.12555 13.8259 5.29721 13.6156 5.29721H1.07149C0.931817 5.29721 0.813682 5.20128 0.780699 5.0707C0.774643 5.04815 0.771609 5.02459 0.771276 5.00036C0.766564 4.66784 0.767575 4.34374 0.778676 4.03577C0.801902 3.41414 0.867529 2.85814 1.01797 2.43104C1.06072 2.30987 1.1738 2.22876 1.30136 2.22876H13.6135C13.7138 2.22876 13.805 2.26781 13.8727 2.33108C13.9471 2.40141 13.9935 2.50071 13.9939 2.61109L13.9959 4.9142Z" fill="url(#paint3_linear_9938_2138)"/>
<path d="M14.0023 6.72152H13.5786C13.5221 6.72152 13.4763 6.67571 13.4763 6.6192V5.8323C13.4763 5.77579 13.5221 5.72998 13.5786 5.72998H14.0023C14.0588 5.72998 14.1046 5.77579 14.1046 5.8323V6.6192C14.1046 6.67572 14.0588 6.72152 14.0023 6.72152Z" fill="#424242"/>
<path d="M15.6962 6.72078H15.2725C15.216 6.72078 15.1702 6.67497 15.1702 6.61846V5.83156C15.1702 5.77505 15.216 5.72925 15.2725 5.72925H15.6962C15.7527 5.72925 15.7985 5.77506 15.7985 5.83156V6.61846C15.7985 6.67497 15.7527 6.72078 15.6962 6.72078Z" fill="#424242"/>
<path d="M18.1747 9.66915H6.36732C6.36967 9.51333 6.36429 9.36625 6.35251 9.22827H18.1895C18.1777 9.36625 18.1723 9.51332 18.1747 9.66915Z" fill="url(#paint4_linear_9938_2138)"/>
<path d="M8.05796 0.444336V0.511652L8.05224 9.19298L8.0519 9.26029L7.98459 9.25995L7.98493 9.19264L7.99065 0.511652V0.444336H8.05796Z" fill="url(#paint5_linear_9938_2138)"/>
<path d="M14.5045 0.44873V0.51604L14.4984 9.19738V9.26469L14.4311 9.26436V9.19704L14.4372 0.51604V0.44873H14.5045Z" fill="url(#paint6_linear_9938_2138)"/>
<path d="M14.4985 9.19734V9.26466L14.4311 9.26433L8.0519 9.26028L7.98459 9.25994L7.98493 9.19263L8.05224 9.19297L14.4311 9.19701L14.4985 9.19734Z" fill="url(#paint7_linear_9938_2138)"/>
<path d="M14.5045 0.448708V0.516018H14.4372L8.05794 0.511652H7.99063V0.444336H8.05794L14.4372 0.448708H14.5045Z" fill="url(#paint8_linear_9938_2138)"/>
<path d="M8.02127 0.442383V0.509699H7.95395L1.68225 0.448778L7.95395 0.442383H8.02127Z" fill="url(#paint9_linear_9938_2138)"/>
<path d="M8.02128 1.48071V1.54802H7.95396H1.31781L7.95396 1.48071H8.02128Z" fill="url(#paint10_linear_9938_2138)"/>
<path d="M14.5045 1.48069V1.548H14.4372L8.05794 1.54363H7.99063V1.47632H8.05794L14.4372 1.48069H14.5045Z" fill="url(#paint11_linear_9938_2138)"/>
<path d="M14.8524 1.81104V1.87834L14.8474 9.19422V9.26154H14.7801V9.19422L14.7851 1.87834V1.81104H14.8524Z" fill="url(#paint12_linear_9938_2138)"/>
<path d="M19.7084 4.40345V4.41319L19.7064 7.22485V7.31034H19.6522V7.31001H19.6391V7.24269L19.6411 4.42632V4.23584C19.6721 4.29709 19.697 4.35296 19.7084 4.40345Z" fill="url(#paint13_linear_9938_2138)"/>
<path d="M17.9919 9.19636C17.9896 9.2179 17.9886 9.23001 17.9886 9.23104V9.26368H17.9219L14.8474 9.26165H14.7801V9.19434H14.8474L17.9239 9.19636H17.9919Z" fill="url(#paint14_linear_9938_2138)"/>
<path d="M16.58 1.87934L15.7985 1.87902L14.8524 1.87834H14.7851V1.81104H14.8524L15.7995 1.81171C15.8049 1.8117 16.1637 1.81707 16.58 1.87934Z" fill="url(#paint15_linear_9938_2138)"/>
<path d="M19.7084 4.40331V4.41305L19.6411 4.42619H19.6407C19.5903 4.16839 19.183 3.66185 18.5782 3.10382C18.0172 2.58619 17.4329 2.16346 17.1579 2.0763C16.5719 1.89052 15.8063 1.87908 15.7985 1.87908L15.7995 1.81177C15.8049 1.81177 16.1637 1.81714 16.58 1.87941H16.581C16.7776 1.90903 16.9873 1.95144 17.1781 2.01201C17.7052 2.1793 19.2843 3.52689 19.6411 4.2357C19.672 4.29695 19.697 4.35283 19.7084 4.40331Z" fill="url(#paint16_linear_9938_2138)"/>
<path d="M19.7064 7.22485V7.31035H19.6522V7.31002H19.6391C19.0437 7.31372 18.7004 7.40829 18.3857 7.90135C18.2194 8.16151 18.1205 8.49203 18.0626 8.75859C18.0188 8.96153 17.999 9.12746 17.9919 9.19645C17.9895 9.21799 17.9885 9.2301 17.9885 9.23113V9.26377H17.9219V9.22574H17.9212C17.9216 9.22237 17.9222 9.21261 17.9239 9.19645C17.9384 9.04432 18.0195 8.34967 18.3288 7.86535C18.6586 7.34872 19.0312 7.2464 19.6391 7.2427H19.6522V7.22485H19.7064Z" fill="url(#paint17_linear_9938_2138)"/>
<path d="M23.1572 6.56798C22.9848 6.56899 22.8297 6.56091 22.6897 6.54509C22.406 6.51312 22.1848 6.45019 22.0128 6.36705C21.5208 6.12978 21.4346 5.73127 21.4447 5.44923C21.4518 5.26008 21.5019 5.12378 21.5019 5.12378C21.5019 5.12378 21.5019 5.12378 21.5023 5.12412L22.6183 6.09779L23.1572 6.56798Z" fill="url(#paint18_linear_9938_2138)"/>
<path d="M0.701592 6.75171C0.701592 7.74491 0.70058 7.87583 0.068512 7.89099C0.0695234 7.60186 0.0722123 7.31478 0.0776026 7.03038C0.0856818 6.6043 0.0991388 6.1836 0.118665 5.76929C0.378487 5.82009 0.701592 6.02877 0.701592 6.75171Z" fill="url(#paint19_linear_9938_2138)"/>
<path d="M22.0846 6.39936C22.101 6.40621 22.118 6.41277 22.1352 6.41927C22.1422 6.42192 22.1489 6.42465 22.1561 6.42723C22.1736 6.43359 22.1918 6.43965 22.2101 6.44563C22.2175 6.44803 22.2245 6.45054 22.2319 6.45287C22.2513 6.45893 22.2715 6.46465 22.2918 6.4703C22.2988 6.47224 22.3055 6.47431 22.3126 6.4762C22.3349 6.48215 22.358 6.48772 22.3814 6.49316C22.3871 6.49447 22.3925 6.4959 22.3982 6.49718C22.4246 6.5031 22.4519 6.5086 22.4797 6.51384C22.4829 6.51445 22.486 6.51516 22.4892 6.51577C22.5206 6.52153 22.5528 6.52691 22.586 6.53177C22.586 6.53179 22.5861 6.5318 22.5862 6.53182C22.6198 6.53676 22.6542 6.54125 22.6897 6.54524C22.8297 6.56106 22.9848 6.56913 23.1572 6.56813L22.6183 6.09794H22.559C22.323 6.09794 22.0954 6.01062 21.92 5.85281L21.4521 5.43188C21.4521 5.43188 21.4494 5.43795 21.4447 5.44939C21.4345 5.73124 21.521 6.12955 22.0128 6.367V6.3672C22.0143 6.36789 22.0159 6.36853 22.0173 6.36922C22.0332 6.37681 22.0496 6.38414 22.0663 6.39139C22.0724 6.39403 22.0784 6.39676 22.0846 6.39936Z" fill="url(#paint20_linear_9938_2138)"/>
<path d="M0.0698547 8.55029H2.8805C2.78795 8.85018 2.73241 9.22242 2.73914 9.66902H0.972852C0.479783 9.66902 0.0772555 9.27256 0.0718715 8.77982C0.0708663 8.7031 0.070194 8.62669 0.0698547 8.55029Z" fill="#2C2C2C"/>
<path d="M23.9928 8.55029C23.9828 8.72127 23.9615 8.89258 23.9299 9.06423C23.8656 9.41493 23.5587 9.66902 23.2023 9.66902H21.8028C21.8096 9.22242 21.754 8.84983 21.6618 8.55029H23.9928Z" fill="#2C2C2C"/>
<path d="M6.11791 9.4299C6.11791 10.2952 5.41684 10.9963 4.55154 10.9963C3.96727 10.9963 3.45771 10.6762 3.18845 10.202C3.05888 9.97412 2.98517 9.71093 2.98517 9.4299C2.98517 8.56494 3.68657 7.86353 4.55154 7.86353C5.08163 7.86353 5.55046 8.12706 5.83351 8.52993C6.01291 8.7847 6.11791 9.09502 6.11791 9.4299Z" fill="#424242"/>
<path d="M5.52294 9.86595C5.28229 10.4024 4.65224 10.6421 4.11576 10.4014C4.08917 10.3896 4.06359 10.3769 4.03869 10.3631C3.55673 10.0989 3.35143 9.50414 3.58028 8.99426C3.82093 8.45776 4.45098 8.21814 4.98746 8.45878C5.15742 8.53483 5.29777 8.65028 5.40177 8.78962C5.6276 9.0895 5.68718 9.49943 5.52294 9.86595Z" fill="#DFDBD6"/>
<path d="M5.1914 10.0701C5.5448 9.71666 5.5448 9.14369 5.1914 8.79028C4.838 8.43688 4.26502 8.43688 3.91162 8.79028C3.55822 9.14369 3.55822 9.71666 3.91162 10.0701C4.26502 10.4235 4.838 10.4235 5.1914 10.0701Z" fill="#181818"/>
<path d="M4.88504 8.48232L4.84365 8.5742L4.71776 8.85456L4.69589 8.90337L4.65988 8.98379L4.51717 8.91985L4.50674 8.91513L4.52021 8.88484L4.67738 8.53415L4.73157 8.41333L4.88504 8.48232Z" fill="#DFDBD6"/>
<path d="M5.19162 8.61944L5.13743 8.74026L5.11253 8.79546L4.97992 9.09096L4.96646 9.12092L4.81332 9.05226L4.84934 8.97216L4.91934 8.81532H4.91967L4.99708 8.64266L5.03815 8.55078L5.19162 8.61944Z" fill="#DFDBD6"/>
<path d="M4.28998 9.80816L4.25397 9.88861L4.10622 10.2178L4.06482 10.31L4.02443 10.2918L3.91168 10.241L3.96587 10.1202L3.99111 10.064L4.12304 9.76981L4.1365 9.7395L4.28998 9.80816Z" fill="#DFDBD6"/>
<path d="M4.59724 9.94595L4.44397 9.8772L4.21895 10.3788L4.37222 10.4476L4.59724 9.94595Z" fill="#DFDBD6"/>
<path d="M5.56873 9.61008L5.50008 9.76356L5.40785 9.72216L5.07904 9.5744L4.9986 9.5384L5.06726 9.38525L5.09754 9.39873L5.44791 9.5559L5.56873 9.61008Z" fill="#DFDBD6"/>
<path d="M5.36252 10.0708L5.43127 9.91748L4.92967 9.69246L4.86091 9.84573L5.36252 10.0708Z" fill="#DFDBD6"/>
<path d="M4.24235 9.01509L4.18412 9.14535L4.17369 9.16857L4.16729 9.16554L4.09359 9.13256L3.76409 8.98481L3.67221 8.94341L3.74087 8.79028L3.86169 8.84446L4.21239 9.00164L4.24235 9.01509Z" fill="#DFDBD6"/>
<path d="M4.10502 9.32176L4.03636 9.47523L4.02223 9.46882L4.00607 9.46176L3.65538 9.30426L3.53455 9.25006L3.60321 9.09692L3.69543 9.13833L4.02459 9.28574L4.07911 9.30997L4.10502 9.32176Z" fill="#DFDBD6"/>
<path d="M5.07903 9.5744C5.07162 9.60098 5.0622 9.62758 5.05042 9.65382C5.03864 9.68008 5.02518 9.70465 5.01003 9.72787C4.97738 9.77868 4.93699 9.82245 4.89123 9.85845C4.80304 9.92813 4.69534 9.96952 4.58326 9.97592C4.52504 9.97929 4.4658 9.97323 4.40724 9.9574C4.38065 9.95001 4.35407 9.94058 4.32782 9.9288C4.3019 9.91702 4.27733 9.90388 4.25411 9.88841C4.20329 9.85575 4.15954 9.81537 4.12318 9.7696C4.06428 9.69523 4.02592 9.60704 4.01177 9.51382V9.51347C4.00875 9.49631 4.00706 9.47914 4.00606 9.46164C4.00269 9.40341 4.00875 9.34419 4.02457 9.28562C4.03197 9.25903 4.0414 9.23246 4.05318 9.20652C4.06496 9.18028 4.07842 9.15571 4.09357 9.13249C4.12622 9.08166 4.1666 9.03792 4.21237 9.00157C4.30021 8.9319 4.40825 8.89084 4.52033 8.88444C4.54894 8.88277 4.57754 8.88344 4.60615 8.88647H4.60649C4.63644 8.88916 4.6664 8.89488 4.69601 8.90296C4.72261 8.91036 4.74919 8.91979 4.77544 8.93156C4.8017 8.94334 4.82626 8.9568 4.84949 8.97196C4.9003 9.00459 4.94406 9.04499 4.98007 9.09076C5.04974 9.17894 5.09114 9.28665 5.09753 9.39873C5.1009 9.45695 5.09485 9.51617 5.07903 9.5744Z" fill="#DFDBD6"/>
<path d="M4.55166 9.77715C4.74335 9.77715 4.89873 9.62176 4.89873 9.43008C4.89873 9.2384 4.74335 9.08301 4.55166 9.08301C4.35998 9.08301 4.20459 9.2384 4.20459 9.43008C4.20459 9.62176 4.35998 9.77715 4.55166 9.77715Z" fill="url(#paint21_linear_9938_2138)"/>
<path d="M5.83352 8.52993C5.02946 7.83391 3.83198 8.15063 3.43449 8.676C3.0912 9.12968 3.12384 9.7934 3.18845 10.202C3.05888 9.97412 2.98517 9.71093 2.98517 9.4299C2.98517 8.56494 3.68657 7.86353 4.55154 7.86353C5.08163 7.86353 5.55047 8.12705 5.83352 8.52993Z" fill="#2C2C2C"/>
<path d="M4.98741 8.45877C4.45101 8.21814 3.82101 8.45776 3.58021 8.99432C3.52321 9.12127 3.49308 9.2535 3.48764 9.38454C3.47096 9.77986 3.67671 10.1648 4.03867 10.3631C4.03391 10.3406 4.02931 10.3166 4.02454 10.2918C4.01621 10.2472 4.00803 10.1992 4.0014 10.1488V10.1483C3.99766 10.1207 3.99425 10.0928 3.99119 10.0639L3.96601 10.12C3.95971 10.1146 3.95341 10.1092 3.94711 10.1037C3.93469 10.0928 3.92261 10.0814 3.91103 10.0695C3.89946 10.0578 3.88806 10.0457 3.87717 10.0334C3.87172 10.0273 3.86628 10.0212 3.86101 10.0149C3.85028 10.0023 3.84007 9.98951 3.8302 9.97641C3.82527 9.96994 3.8205 9.9633 3.81574 9.95667C3.81098 9.95003 3.80638 9.94339 3.80179 9.93658C3.7926 9.92314 3.78392 9.90935 3.77558 9.8954C3.77303 9.89132 3.77064 9.88723 3.76843 9.88315C3.76435 9.87634 3.7606 9.86953 3.75703 9.86272C3.75379 9.85711 3.75073 9.85132 3.74784 9.8457C3.7429 9.83617 3.73814 9.82665 3.73388 9.81711C3.72656 9.80214 3.71993 9.78682 3.71363 9.77133C3.71108 9.76521 3.70869 9.75908 3.70631 9.75295C3.70495 9.74921 3.70341 9.74546 3.70206 9.74155C3.69933 9.73389 3.69661 9.72623 3.69406 9.71857C3.69185 9.71211 3.68963 9.70547 3.68759 9.69883C3.68691 9.69679 3.68623 9.69475 3.68572 9.69271C3.68436 9.68812 3.683 9.68352 3.68164 9.67893C3.67943 9.6711 3.67721 9.66344 3.67534 9.65561C3.67466 9.65323 3.67398 9.65084 3.67347 9.64846C3.67126 9.63944 3.66905 9.63043 3.66718 9.62123C3.66513 9.61238 3.66343 9.60354 3.6619 9.59452C3.66105 9.59077 3.66037 9.58703 3.65986 9.58328C3.65832 9.57495 3.65697 9.56643 3.65577 9.5581C3.65424 9.54823 3.65305 9.53819 3.65203 9.52832C3.65186 9.52764 3.65186 9.52695 3.65186 9.52628C3.65066 9.51572 3.64965 9.50517 3.64897 9.49445C3.6488 9.49411 3.6488 9.49377 3.64897 9.49343C3.64828 9.4856 3.64778 9.47761 3.64761 9.46961C3.64727 9.46535 3.6471 9.46127 3.6471 9.45701C3.64642 9.43948 3.64642 9.42196 3.64693 9.40426C3.6471 9.40018 3.64727 9.39609 3.64744 9.39201C3.64778 9.38469 3.64811 9.3772 3.64863 9.36971C3.64863 9.36852 3.6488 9.36716 3.64897 9.3658C3.64931 9.36018 3.64982 9.35456 3.65033 9.34878C3.65067 9.34453 3.65101 9.3401 3.65153 9.33567C3.65272 9.32513 3.65391 9.31474 3.65544 9.30419L3.72385 9.33483L4.00601 9.46178C4.00703 9.47931 4.00873 9.49633 4.01179 9.51352C4.01486 9.49837 4.01843 9.48356 4.02217 9.46876C4.03663 9.41362 4.05552 9.36036 4.07901 9.30998C4.08292 9.30165 4.087 9.29331 4.09126 9.28514C4.11287 9.24276 4.13789 9.20277 4.16733 9.1655C4.17294 9.15852 4.17839 9.15172 4.18417 9.14542C4.21243 9.11241 4.24408 9.08178 4.2793 9.05421C4.3501 8.9989 4.43076 8.95483 4.51721 8.9196C4.54631 8.90735 4.57627 8.89663 4.60622 8.88659H4.60655C4.64314 8.87451 4.68024 8.86395 4.71785 8.85425L4.84378 8.5738C4.85637 8.57805 4.8688 8.58265 4.88139 8.58741C4.895 8.59286 4.90861 8.59848 4.92223 8.60443C4.93006 8.60801 4.93771 8.61158 4.9452 8.61532C4.95031 8.6177 4.95524 8.62026 4.96035 8.62281C4.96664 8.62588 4.97277 8.62911 4.9789 8.63251C4.98384 8.63506 4.98877 8.63779 4.99353 8.64051C4.99473 8.64119 4.99608 8.64187 4.99728 8.64255L4.91985 8.81511C4.98451 8.80609 5.04867 8.79963 5.11265 8.79537L5.1375 8.74024V8.74007C5.14074 8.74279 5.14397 8.74568 5.1472 8.74857C5.1535 8.75402 5.15962 8.75964 5.16575 8.76525C5.17494 8.77376 5.18413 8.78261 5.19281 8.79129C5.26513 8.78823 5.33508 8.78789 5.40179 8.78959C5.29782 8.65022 5.15742 8.53485 4.98741 8.45877ZM4.05314 9.2067C4.04139 9.23257 4.03203 9.25912 4.02454 9.28567L3.69542 9.13829C3.69984 9.12519 3.70461 9.11209 3.70972 9.09898C3.71227 9.09252 3.715 9.08588 3.71772 9.07941C3.72044 9.07294 3.72316 9.06631 3.72605 9.05984C3.72894 9.05338 3.73201 9.04691 3.73508 9.04061C3.73797 9.03432 3.74103 9.02802 3.74427 9.02172C3.7475 9.01542 3.75056 9.0093 3.75397 9.00317C3.75669 8.99789 3.75958 8.99262 3.76247 8.98751C3.76298 8.98667 3.7635 8.98564 3.76401 8.98479L4.09364 9.13251C4.07832 9.15582 4.06488 9.18033 4.05314 9.2067ZM4.52027 8.88456C4.40829 8.89085 4.30023 8.93203 4.21242 9.00164L3.86169 8.84456C3.86713 8.83827 3.87258 8.83197 3.87819 8.82567C3.88364 8.81955 3.88942 8.81342 3.89504 8.8073C3.90644 8.79522 3.91818 8.78347 3.93026 8.77224C3.93622 8.76662 3.94235 8.76101 3.94847 8.75556C3.99765 8.71165 4.05126 8.67354 4.10793 8.64171C4.11507 8.63763 4.12222 8.63371 4.12937 8.62997C4.14383 8.62231 4.15847 8.61516 4.17311 8.60836C4.18059 8.60495 4.18791 8.60172 4.1954 8.59849C4.20272 8.59542 4.21003 8.59236 4.21752 8.5893C4.22518 8.58623 4.23284 8.58334 4.24067 8.58045C4.25598 8.575 4.27147 8.56973 4.28696 8.56496C4.29478 8.56258 4.30244 8.56037 4.31027 8.55816C4.34958 8.54727 4.3894 8.5391 4.42991 8.53348C4.44607 8.53127 4.46241 8.52957 4.47858 8.52821C4.48674 8.52753 4.49491 8.52701 4.50308 8.5265C4.5298 8.52497 4.55669 8.52463 4.58358 8.52565C4.61489 8.52684 4.6462 8.52939 4.67752 8.53382L4.52027 8.88456Z" fill="url(#paint22_linear_9938_2138)"/>
<path d="M20.962 10.6201C20.3045 11.1826 19.316 11.1057 18.7535 10.4482C18.3736 10.0042 18.2855 9.40894 18.4709 8.89605C18.5597 8.64947 18.7118 8.42236 18.9254 8.23966C19.5826 7.67735 20.5715 7.75432 21.1339 8.41156C21.4785 8.81435 21.583 9.34192 21.4609 9.8189C21.3839 10.1208 21.2164 10.4024 20.962 10.6201Z" fill="#424242"/>
<path d="M20.2438 10.4516C19.6798 10.6175 19.0881 10.2945 18.9222 9.73044C18.9138 9.70258 18.9069 9.67483 18.9012 9.64694C18.7886 9.10896 19.1071 8.56635 19.6433 8.40877C20.2074 8.24284 20.7991 8.56581 20.965 9.12989C21.0177 9.30848 21.0212 9.49018 20.9829 9.65979C20.9019 10.0263 20.6291 10.3381 20.2438 10.4516Z" fill="#DFDBD6"/>
<path d="M20.5832 10.0701C20.9366 9.71666 20.9366 9.14369 20.5832 8.79028C20.2298 8.43688 19.6568 8.43688 19.3034 8.79028C18.95 9.14369 18.95 9.71666 19.3034 10.0701C19.6568 10.4235 20.2298 10.4235 20.5832 10.0701Z" fill="#181818"/>
<path d="M20.8808 9.06747L20.7841 9.09575L20.4892 9.18236L20.4379 9.19747L20.3534 9.22239L20.3092 9.07238L20.306 9.06139L20.3378 9.05193L20.7065 8.94337L20.8335 8.90601L20.8808 9.06747Z" fill="#DFDBD6"/>
<path d="M20.9758 9.38952L20.8488 9.4269L20.7907 9.44386L20.4799 9.5352L20.4484 9.54445L20.401 9.38345L20.4853 9.35875L20.65 9.30998L20.6502 9.31023L20.8317 9.25681L20.9282 9.22827L20.9758 9.38952Z" fill="#DFDBD6"/>
<path d="M19.4864 9.47741L19.4019 9.50235L19.0557 9.60406L18.9587 9.63256L18.9463 9.59006L18.9116 9.47135L19.0386 9.43397L19.0978 9.41661L19.407 9.32564L19.4388 9.31616L19.4864 9.47741Z" fill="#DFDBD6"/>
<path d="M19.5806 9.79984L19.5332 9.63867L19.0058 9.79376L19.0532 9.95493L19.5806 9.79984Z" fill="#DFDBD6"/>
<path d="M20.468 10.3197L20.3068 10.3673L20.2783 10.2703L20.1768 9.92439L20.1519 9.83986L20.3129 9.79248L20.3223 9.82425L20.4307 10.1927L20.468 10.3197Z" fill="#DFDBD6"/>
<path d="M19.9841 10.4617L20.1453 10.4143L19.9902 9.88686L19.829 9.93425L19.9841 10.4617Z" fill="#DFDBD6"/>
<path d="M20.0579 8.92491L19.9211 8.96534L19.8966 8.97251L19.8948 8.96569L19.8719 8.88824L19.77 8.54181L19.7417 8.44509L19.9027 8.39771L19.9401 8.52474L20.0486 8.89339L20.0579 8.92491Z" fill="#DFDBD6"/>
<path d="M19.7356 9.02014L19.5744 9.06774L19.57 9.05284L19.5649 9.03597L19.4566 8.6671L19.4192 8.54005L19.5802 8.49268L19.6087 8.58966L19.7107 8.93561L19.7277 8.99279L19.7356 9.02014Z" fill="#DFDBD6"/>
<path d="M20.1767 9.92458C20.1517 9.93624 20.1254 9.94636 20.0978 9.95448C20.0701 9.96259 20.0427 9.96834 20.0152 9.97193C19.9554 9.98015 19.8959 9.97791 19.8388 9.96654C19.7285 9.94484 19.627 9.88991 19.5493 9.8089C19.5089 9.76685 19.475 9.7179 19.449 9.66311C19.4373 9.6381 19.4272 9.61177 19.4191 9.58418C19.4112 9.55682 19.4052 9.52962 19.4018 9.50191C19.3936 9.44206 19.3958 9.38257 19.407 9.3252C19.4252 9.23208 19.4673 9.14561 19.5289 9.07426L19.5292 9.07403C19.5403 9.06058 19.5522 9.04813 19.5649 9.03599C19.6069 8.99557 19.6559 8.96168 19.7106 8.93562C19.7357 8.92396 19.762 8.91385 19.7893 8.90594C19.8169 8.89783 19.8444 8.89209 19.8719 8.8885C19.9317 8.88026 19.9912 8.88251 20.0486 8.89366C20.1586 8.91512 20.2601 8.97051 20.3378 9.05151C20.3576 9.07217 20.3757 9.09433 20.392 9.11804L20.3922 9.1183C20.4097 9.14281 20.4248 9.16929 20.4379 9.19705C20.4496 9.22206 20.4597 9.24839 20.4678 9.27599C20.4759 9.3036 20.4817 9.33102 20.4853 9.35852C20.4935 9.41835 20.4913 9.47786 20.4799 9.53497C20.4582 9.64524 20.4033 9.74671 20.3222 9.82443C20.2802 9.86485 20.2312 9.89874 20.1767 9.92458Z" fill="#DFDBD6"/>
<path d="M19.9435 9.77715C20.1352 9.77715 20.2906 9.62176 20.2906 9.43008C20.2906 9.2384 20.1352 9.08301 19.9435 9.08301C19.7519 9.08301 19.5965 9.2384 19.5965 9.43008C19.5965 9.62176 19.7519 9.77715 19.9435 9.77715Z" fill="url(#paint23_linear_9938_2138)"/>
<path d="M21.4608 9.81915C21.467 8.7557 20.4478 8.05169 19.7902 8.0912C19.2223 8.1253 18.7392 8.58158 18.4708 8.8963C18.5597 8.64971 18.7117 8.4226 18.9253 8.2399C19.5825 7.67759 20.5715 7.75456 21.1338 8.41181C21.4784 8.81459 21.5829 9.34216 21.4608 9.81915Z" fill="#2C2C2C"/>
<path d="M21.0035 9.32653C20.997 9.26101 20.9843 9.19515 20.965 9.1298C20.7991 8.56584 20.2074 8.24284 19.6433 8.40876C19.2061 8.53725 18.9135 8.92168 18.8817 9.35103C18.8744 9.4482 18.8805 9.54759 18.9013 9.64697C18.9152 9.62859 18.9304 9.60954 18.9462 9.58979C18.9746 9.5544 19.0058 9.51712 19.0398 9.47951C19.0398 9.47934 19.04 9.47918 19.0401 9.47901C19.0587 9.45824 19.0778 9.43749 19.0977 9.41638L19.0386 9.43374C19.0385 9.39341 19.041 9.35342 19.0461 9.3141C19.0582 9.22016 19.0851 9.12946 19.1247 9.04505C19.1365 9.02004 19.1494 8.9957 19.1632 8.97188C19.1642 8.97017 19.1652 8.96864 19.1661 8.96711C19.1702 8.9603 19.1743 8.95349 19.1785 8.94686C19.1838 8.93835 19.1894 8.93001 19.1948 8.92184C19.1994 8.91504 19.2042 8.90823 19.209 8.90159C19.2149 8.89343 19.2209 8.88525 19.227 8.87743C19.2323 8.87063 19.2376 8.86399 19.2428 8.85735C19.2486 8.85037 19.2544 8.84356 19.2602 8.83675C19.2639 8.8325 19.2679 8.82808 19.2716 8.82382L19.2724 8.82297C19.2762 8.81872 19.2801 8.81446 19.2842 8.81021C19.2898 8.80425 19.2956 8.7983 19.3014 8.79234C19.308 8.78571 19.3147 8.77907 19.3216 8.7726C19.3288 8.7658 19.3359 8.75916 19.3434 8.75269C19.3497 8.74691 19.3562 8.74129 19.3628 8.73585C19.372 8.72819 19.3815 8.7207 19.3911 8.71321C19.3968 8.70879 19.4028 8.70419 19.4089 8.69976C19.4176 8.69347 19.4263 8.68734 19.4353 8.68121C19.4423 8.67645 19.4494 8.67185 19.4566 8.66726L19.5648 9.0362C19.5522 9.04828 19.5403 9.06071 19.5292 9.07415C19.5427 9.06666 19.5563 9.05986 19.5699 9.05305C19.6213 9.0282 19.6741 9.00796 19.7277 8.99298C19.7826 8.97783 19.8383 8.9683 19.8948 8.96609C19.9038 8.96592 19.9125 8.96558 19.921 8.96575C19.9644 8.96575 20.0083 8.97 20.0522 8.97886C20.1402 8.99672 20.2261 9.0294 20.3092 9.07211C20.3372 9.08623 20.3648 9.10206 20.3921 9.11823L20.3922 9.1184C20.4252 9.13848 20.4574 9.15976 20.4892 9.18205L20.7841 9.09543C20.7892 9.10836 20.7942 9.12129 20.7988 9.13456C20.8013 9.14188 20.8039 9.1492 20.8061 9.15652C20.8081 9.16264 20.81 9.16877 20.8119 9.1749C20.8144 9.18408 20.817 9.19311 20.8192 9.20213C20.8241 9.22033 20.8282 9.23855 20.8316 9.25675L20.7508 9.28058L20.6502 9.31018C20.6991 9.35341 20.7457 9.39799 20.7906 9.44377L20.8488 9.42675V9.43067C20.8485 9.45466 20.8476 9.47849 20.8457 9.50197C20.8459 9.50214 20.8459 9.50214 20.8461 9.50231C20.8953 9.55524 20.941 9.60817 20.9829 9.65973C21.0072 9.55218 21.0146 9.43987 21.0035 9.32653ZM19.7893 8.90602C19.7621 8.91401 19.7357 8.92405 19.7107 8.9358L19.6087 8.58982C19.628 8.58199 19.6477 8.57485 19.6679 8.56838C19.6746 8.56617 19.6814 8.56413 19.6882 8.56209C19.695 8.56004 19.7018 8.55817 19.7086 8.55647C19.7154 8.5546 19.7222 8.55289 19.729 8.55119C19.7358 8.54949 19.7426 8.54796 19.7495 8.54643C19.7556 8.54507 19.7617 8.5437 19.7678 8.54269C19.7685 8.54252 19.7692 8.54235 19.7699 8.54218L19.8718 8.88866C19.8444 8.89223 19.817 8.89802 19.7893 8.90602ZM20.3378 9.05169C20.26 8.97068 20.1586 8.91521 20.0486 8.89377L19.9401 8.52516C20.0279 8.52482 20.1143 8.53741 20.1967 8.56141C20.269 8.58252 20.3383 8.61263 20.4028 8.65059C20.4271 8.66488 20.4506 8.68037 20.4734 8.69671C20.481 8.70232 20.4885 8.70794 20.496 8.71355C20.5035 8.71934 20.5108 8.72513 20.5181 8.73108C20.5255 8.73704 20.5326 8.74316 20.5396 8.74929C20.546 8.75491 20.5523 8.76069 20.5586 8.76631C20.5602 8.76784 20.5619 8.76937 20.5636 8.7709C20.5695 8.77652 20.5753 8.78213 20.5811 8.78792C20.5945 8.80119 20.6075 8.81481 20.6201 8.8291C20.6264 8.83608 20.6327 8.84323 20.6386 8.85054C20.6447 8.85786 20.6507 8.86534 20.6567 8.87283C20.6684 8.88781 20.6796 8.9033 20.6905 8.91912C20.6912 8.91997 20.6917 8.92099 20.6926 8.92201C20.6972 8.92899 20.7018 8.93597 20.7064 8.94311L20.3378 9.05169Z" fill="url(#paint24_linear_9938_2138)"/>
<path d="M5.31023 2.229L3.37296 5.29746H1.50671L4.06965 2.229H5.31023Z" fill="url(#paint25_linear_9938_2138)"/>
<path d="M7.02099 2.229L4.65293 5.29746H4.14572L6.51447 2.229H7.02099Z" fill="url(#paint26_linear_9938_2138)"/>
<path d="M10.0349 2.229L8.94377 5.29746H7.32355C7.79642 4.32984 8.33257 3.23231 8.82226 2.229H10.0349Z" fill="url(#paint27_linear_9938_2138)"/>
<path d="M12.2084 2.229L10.7181 5.29746H10.1988L11.5956 2.229H12.2084Z" fill="url(#paint28_linear_9938_2138)"/>
<path d="M13.8728 2.33133L13.3565 5.29746H12.2091L13.2461 2.229H13.6136C13.7139 2.22901 13.8051 2.26806 13.8728 2.33133Z" fill="url(#paint29_linear_9938_2138)"/>
<path d="M2.45012 2.229L0.78076 5.07095C0.774704 5.0484 0.77167 5.02484 0.771337 5.00061C0.766625 4.66809 0.767636 4.34399 0.778737 4.03602L1.92676 2.229H2.45012Z" fill="url(#paint30_linear_9938_2138)"/>
<path d="M17.4134 2.56448L16.7379 5.29737H15.9578C15.8134 5.29737 15.6794 5.25363 15.5697 5.17958L16.8278 2.28345C16.921 2.30869 17.0119 2.34335 17.0987 2.38677C17.2003 2.43792 17.3054 2.49682 17.4134 2.56448Z" fill="url(#paint31_linear_9938_2138)"/>
<path d="M18.8754 3.80262L18.1515 5.29729H17.4188C17.7392 4.77225 18.1505 4.09542 18.5325 3.46167C18.6321 3.55659 18.7334 3.65689 18.8371 3.7629C18.8371 3.7629 18.8371 3.7629 18.8374 3.76324C18.8502 3.77636 18.8626 3.78915 18.8754 3.80262Z" fill="url(#paint32_linear_9938_2138)"/>
<path d="M19.3019 5.43188H18.5907C18.4799 5.43188 18.3901 5.3421 18.3901 5.23136V4.00432C18.3901 3.96795 18.4196 3.93848 18.456 3.93848H18.9546C19.1464 3.93848 19.3019 4.09399 19.3019 4.28583V5.43188Z" fill="#424242"/>
<path d="M19.147 5.43201H19.3511C19.4446 5.43201 19.5203 5.35626 19.5203 5.26282V4.85449C19.5203 4.76105 19.4446 4.6853 19.3511 4.6853H19.147V5.43201Z" fill="#424242"/>
<path d="M13.7037 6.55005H13.8772C13.9169 6.55005 13.9491 6.51786 13.9491 6.47815V5.97352C13.9491 5.93381 13.9169 5.90161 13.8772 5.90161H13.7037C13.6639 5.90161 13.6317 5.9338 13.6317 5.97352V6.47815C13.6317 6.51786 13.6639 6.55005 13.7037 6.55005Z" fill="#2C2C2C"/>
<path d="M15.3976 6.55542H15.5711C15.6108 6.55542 15.643 6.52322 15.643 6.48351V5.97888C15.643 5.93917 15.6108 5.90698 15.5711 5.90698H15.3976C15.3578 5.90698 15.3257 5.93917 15.3257 5.97888V6.48351C15.3257 6.52322 15.3578 6.55542 15.3976 6.55542Z" fill="#2C2C2C"/>
<path d="M23.9928 8.09796H23.1571C23.0463 8.09796 22.9565 8.00815 22.9565 7.89737C22.9565 7.78658 23.0463 7.69678 23.1571 7.69678H23.9363C23.9555 7.77183 23.9693 7.84856 23.978 7.92631C23.9844 7.98353 23.9895 8.04073 23.9928 8.09796Z" fill="#2C2C2C"/>
<path d="M0.701599 7.03268H22.1264C22.1264 7.03268 9.09889 6.51366 0.701599 7.03268Z" fill="url(#paint33_linear_9938_2138)"/>
<defs>
<linearGradient id="paint0_linear_9938_2138" x1="12.0618" y1="10.6579" x2="11.9957" y2="5.24257" gradientUnits="userSpaceOnUse">
<stop stop-color="#DFDBD6"/>
<stop offset="1" stop-color="#BBB8B3"/>
</linearGradient>
<linearGradient id="paint1_linear_9938_2138" x1="7.6622" y1="-0.682052" x2="8.01451" y2="2.86817" gradientUnits="userSpaceOnUse">
<stop stop-color="#DFDBD6"/>
<stop offset="1" stop-color="#BBB8B3"/>
</linearGradient>
<linearGradient id="paint2_linear_9938_2138" x1="17.3271" y1="7.19397" x2="17.4378" y2="0.718925" gradientUnits="userSpaceOnUse">
<stop stop-color="white"/>
<stop offset="1" stop-color="#99DEE8"/>
</linearGradient>
<linearGradient id="paint3_linear_9938_2138" x1="7.34248" y1="7.02304" x2="7.45315" y2="0.548544" gradientUnits="userSpaceOnUse">
<stop stop-color="white"/>
<stop offset="1" stop-color="#99DEE8"/>
</linearGradient>
<linearGradient id="paint4_linear_9938_2138" x1="12.271" y1="8.50169" x2="12.271" y2="8.79224" gradientUnits="userSpaceOnUse">
<stop stop-color="#C8C5C0"/>
<stop offset="1" stop-color="#A4A19D"/>
</linearGradient>
<linearGradient id="paint5_linear_9938_2138" x1="8.68178" y1="20.2502" x2="7.66467" y2="-3.46128" gradientUnits="userSpaceOnUse">
<stop offset="0.0056" stop-color="#424242"/>
<stop offset="1" stop-color="#D5CFCA"/>
</linearGradient>
<linearGradient id="paint6_linear_9938_2138" x1="15.1163" y1="19.9742" x2="14.0992" y2="-3.73733" gradientUnits="userSpaceOnUse">
<stop offset="0.0056" stop-color="#424242"/>
<stop offset="1" stop-color="#D5CFCA"/>
</linearGradient>
<linearGradient id="paint7_linear_9938_2138" x1="11.7087" y1="20.1204" x2="10.6916" y2="-3.59119" gradientUnits="userSpaceOnUse">
<stop offset="0.0056" stop-color="#424242"/>
<stop offset="1" stop-color="#D5CFCA"/>
</linearGradient>
<linearGradient id="paint8_linear_9938_2138" x1="12.0893" y1="20.1037" x2="11.0722" y2="-3.60746" gradientUnits="userSpaceOnUse">
<stop offset="0.0056" stop-color="#424242"/>
<stop offset="1" stop-color="#D5CFCA"/>
</linearGradient>
<linearGradient id="paint9_linear_9938_2138" x1="5.6627" y1="19.3508" x2="4.69853" y2="-3.12668" gradientUnits="userSpaceOnUse">
<stop offset="0.0056" stop-color="#424242"/>
<stop offset="1" stop-color="#D5CFCA"/>
</linearGradient>
<linearGradient id="paint10_linear_9938_2138" x1="5.33394" y1="17.0033" x2="4.50094" y2="-2.41614" gradientUnits="userSpaceOnUse">
<stop offset="0.0056" stop-color="#424242"/>
<stop offset="1" stop-color="#D5CFCA"/>
</linearGradient>
<linearGradient id="paint11_linear_9938_2138" x1="12.0451" y1="20.1058" x2="11.028" y2="-3.60568" gradientUnits="userSpaceOnUse">
<stop offset="0.0056" stop-color="#424242"/>
<stop offset="1" stop-color="#D5CFCA"/>
</linearGradient>
<linearGradient id="paint12_linear_9938_2138" x1="15.435" y1="19.9601" x2="14.4178" y2="-3.75147" gradientUnits="userSpaceOnUse">
<stop offset="0.0056" stop-color="#424242"/>
<stop offset="1" stop-color="#D5CFCA"/>
</linearGradient>
<linearGradient id="paint13_linear_9938_2138" x1="20.2698" y1="19.7529" x2="19.2527" y2="-3.95866" gradientUnits="userSpaceOnUse">
<stop offset="0.0056" stop-color="#424242"/>
<stop offset="1" stop-color="#D5CFCA"/>
</linearGradient>
<linearGradient id="paint14_linear_9938_2138" x1="16.8437" y1="19.8998" x2="15.8266" y2="-3.81183" gradientUnits="userSpaceOnUse">
<stop offset="0.0056" stop-color="#424242"/>
<stop offset="1" stop-color="#D5CFCA"/>
</linearGradient>
<linearGradient id="paint15_linear_9938_2138" x1="16.4563" y1="19.9162" x2="15.4392" y2="-3.79529" gradientUnits="userSpaceOnUse">
<stop offset="0.0056" stop-color="#424242"/>
<stop offset="1" stop-color="#D5CFCA"/>
</linearGradient>
<linearGradient id="paint16_linear_9938_2138" x1="18.4693" y1="19.83" x2="17.4522" y2="-3.88156" gradientUnits="userSpaceOnUse">
<stop offset="0.0056" stop-color="#424242"/>
<stop offset="1" stop-color="#D5CFCA"/>
</linearGradient>
<linearGradient id="paint17_linear_9938_2138" x1="19.3096" y1="19.7941" x2="18.2924" y2="-3.91746" gradientUnits="userSpaceOnUse">
<stop offset="0.0056" stop-color="#424242"/>
<stop offset="1" stop-color="#D5CFCA"/>
</linearGradient>
<linearGradient id="paint18_linear_9938_2138" x1="22.2868" y1="6.83213" x2="22.3976" y2="0.345847" gradientUnits="userSpaceOnUse">
<stop stop-color="white"/>
<stop offset="1" stop-color="#99DEE8"/>
</linearGradient>
<linearGradient id="paint19_linear_9938_2138" x1="-0.518474" y1="6.8584" x2="1.30146" y2="6.77568" gradientUnits="userSpaceOnUse">
<stop stop-color="#FFB200"/>
<stop offset="1" stop-color="#FF6D55"/>
</linearGradient>
<linearGradient id="paint20_linear_9938_2138" x1="22.2878" y1="6.77177" x2="22.3745" y2="1.69886" gradientUnits="userSpaceOnUse">
<stop stop-color="#FFB200"/>
<stop offset="1" stop-color="#FF6D55"/>
</linearGradient>
<linearGradient id="paint21_linear_9938_2138" x1="5.1324" y1="8.73583" x2="4.96017" y2="8.94171" gradientUnits="userSpaceOnUse">
<stop stop-color="#DFDBD6"/>
<stop offset="1" stop-color="#BBB8B3"/>
</linearGradient>
<linearGradient id="paint22_linear_9938_2138" x1="3.4867" y1="9.36415" x2="5.40179" y2="9.36415" gradientUnits="userSpaceOnUse">
<stop stop-color="white"/>
<stop offset="1" stop-color="white"/>
</linearGradient>
<linearGradient id="paint23_linear_9938_2138" x1="20.8486" y1="9.42006" x2="20.5802" y2="9.42303" gradientUnits="userSpaceOnUse">
<stop stop-color="#DFDBD6"/>
<stop offset="1" stop-color="#BBB8B3"/>
</linearGradient>
<linearGradient id="paint24_linear_9938_2138" x1="19.3014" y1="8.57808" x2="20.5464" y2="10.0332" gradientUnits="userSpaceOnUse">
<stop stop-color="white"/>
<stop offset="1" stop-color="white"/>
</linearGradient>
<linearGradient id="paint25_linear_9938_2138" x1="4.04349" y1="-5.02923" x2="3.16692" y2="7.10779" gradientUnits="userSpaceOnUse">
<stop stop-color="white"/>
<stop offset="1" stop-color="white"/>
</linearGradient>
<linearGradient id="paint26_linear_9938_2138" x1="6.20709" y1="-4.87296" x2="5.33052" y2="7.26404" gradientUnits="userSpaceOnUse">
<stop stop-color="white"/>
<stop offset="1" stop-color="white"/>
</linearGradient>
<linearGradient id="paint27_linear_9938_2138" x1="9.2869" y1="-4.65052" x2="8.41033" y2="7.48649" gradientUnits="userSpaceOnUse">
<stop stop-color="white"/>
<stop offset="1" stop-color="white"/>
</linearGradient>
<linearGradient id="paint28_linear_9938_2138" x1="11.7982" y1="-4.46915" x2="10.9216" y2="7.66785" gradientUnits="userSpaceOnUse">
<stop stop-color="white"/>
<stop offset="1" stop-color="white"/>
</linearGradient>
<linearGradient id="paint29_linear_9938_2138" x1="13.6297" y1="-4.33689" x2="12.7531" y2="7.80012" gradientUnits="userSpaceOnUse">
<stop stop-color="white"/>
<stop offset="1" stop-color="white"/>
</linearGradient>
<linearGradient id="paint30_linear_9938_2138" x1="2.21344" y1="-5.16139" x2="1.33687" y2="6.9756" gradientUnits="userSpaceOnUse">
<stop stop-color="white"/>
<stop offset="1" stop-color="white"/>
</linearGradient>
<linearGradient id="paint31_linear_9938_2138" x1="17.0665" y1="-4.08876" x2="16.1899" y2="8.04826" gradientUnits="userSpaceOnUse">
<stop stop-color="white"/>
<stop offset="1" stop-color="white"/>
</linearGradient>
<linearGradient id="paint32_linear_9938_2138" x1="18.7622" y1="-3.96636" x2="17.8856" y2="8.17064" gradientUnits="userSpaceOnUse">
<stop stop-color="white"/>
<stop offset="1" stop-color="white"/>
</linearGradient>
<linearGradient id="paint33_linear_9938_2138" x1="9.03186" y1="-6.76979" x2="12.3389" y2="12.3915" gradientUnits="userSpaceOnUse">
<stop stop-color="white"/>
<stop offset="1" stop-color="white"/>
</linearGradient>
</defs>
</svg>
