<svg width="28" height="28" viewBox="0 0 28 28" fill="none" xmlns="http://www.w3.org/2000/svg">
<rect width="28" height="28" rx="14" fill="white"/>
<path fill-rule="evenodd" clip-rule="evenodd" d="M14 6.5C10.6863 6.5 8 9.50194 8 12.875C8 16.2216 9.91499 19.8593 12.9028 21.2558C13.5993 21.5814 14.4007 21.5814 15.0972 21.2558C18.085 19.8593 20 16.2216 20 12.875C20 9.50194 17.3137 6.5 14 6.5ZM14 14C14.8284 14 15.5 13.3284 15.5 12.5C15.5 11.6716 14.8284 11 14 11C13.1716 11 12.5 11.6716 12.5 12.5C12.5 13.3284 13.1716 14 14 14Z" fill="#FF6F47"/>
</svg>
