<svg width="12" height="12" viewBox="0 0 12 12" fill="none" xmlns="http://www.w3.org/2000/svg">
<g clip-path="url(#clip0_10019_3974)">
<path fill-rule="evenodd" clip-rule="evenodd" d="M6 1.375C3.44568 1.375 1.375 3.44568 1.375 6C1.375 8.55432 3.44568 10.625 6 10.625C8.55432 10.625 10.625 8.55432 10.625 6C10.625 3.44568 8.55432 1.375 6 1.375ZM0.625 6C0.625 3.03147 3.03147 0.625 6 0.625C8.96853 0.625 11.375 3.03147 11.375 6C11.375 8.96853 8.96853 11.375 6 11.375C3.03147 11.375 0.625 8.96853 0.625 6ZM6 2.625C6.20711 2.625 6.375 2.79289 6.375 3V3.15837C7.19022 3.30433 7.875 3.9168 7.875 4.75C7.875 4.95711 7.70711 5.125 7.5 5.125C7.29289 5.125 7.125 4.95711 7.125 4.75C7.125 4.32787 6.68824 3.875 6 3.875C5.31176 3.875 4.875 4.32787 4.875 4.75C4.875 5.17213 5.31176 5.625 6 5.625C6.96861 5.625 7.875 6.29142 7.875 7.25C7.875 8.0832 7.19022 8.69567 6.375 8.84163V9C6.375 9.20711 6.20711 9.375 6 9.375C5.79289 9.375 5.625 9.20711 5.625 9V8.84163C4.80978 8.69567 4.125 8.0832 4.125 7.25C4.125 7.04289 4.29289 6.875 4.5 6.875C4.70711 6.875 4.875 7.04289 4.875 7.25C4.875 7.67213 5.31176 8.125 6 8.125C6.68824 8.125 7.125 7.67213 7.125 7.25C7.125 6.82787 6.68824 6.375 6 6.375C5.03139 6.375 4.125 5.70858 4.125 4.75C4.125 3.9168 4.80978 3.30433 5.625 3.15837V3C5.625 2.79289 5.79289 2.625 6 2.625Z" fill="#9CA3AF"/>
</g>
<defs>
<clipPath id="clip0_10019_3974">
<rect width="12" height="12" fill="white"/>
</clipPath>
</defs>
</svg>
