<svg width="14" height="14" viewBox="0 0 14 14" fill="none" xmlns="http://www.w3.org/2000/svg">
<path d="M7.875 1.1665C7.875 1.1665 9.23618 1.29025 10.9686 3.02266C12.701 4.75507 12.8247 6.11625 12.8247 6.11625" stroke="#FF6F47" stroke-linecap="round"/>
<path d="M8.28711 3.229C8.28711 3.229 8.86458 3.394 9.73079 4.2602C10.597 5.12641 10.762 5.70388 10.762 5.70388" stroke="#FF6F47" stroke-linecap="round"/>
<path opacity="0.5" d="M8.80875 8.76587L8.44622 8.42153V8.42153L8.80875 8.76587ZM9.07443 8.48616L9.43696 8.8305V8.8305L9.07443 8.48616ZM10.4841 8.29052L10.2347 8.72386H10.2347L10.4841 8.29052ZM11.5986 8.93199L11.3492 9.36533L11.5986 8.93199ZM11.9126 10.9424L12.2752 11.2868V11.2868L11.9126 10.9424ZM11.084 11.8148L10.7215 11.4705V11.4705L11.084 11.8148ZM10.3112 12.2285L10.3603 12.7261V12.7261L10.3112 12.2285ZM4.55896 9.61052L4.92149 9.26618L4.55896 9.61052ZM1.75168 4.06346L1.2524 4.09026L1.2524 4.09026L1.75168 4.06346ZM5.52855 4.96015L5.89108 5.30449H5.89108L5.52855 4.96015ZM5.61997 3.32098L6.02824 3.03232V3.03232L5.61997 3.32098ZM4.8844 2.28061L4.47614 2.56926L4.47614 2.56926L4.8844 2.28061ZM3.06918 2.10504L3.43171 2.44938L3.43171 2.44938L3.06918 2.10504ZM2.15358 3.069L1.79105 2.72465L1.79105 2.72465L2.15358 3.069ZM6.45349 7.61594L6.81602 7.2716L6.45349 7.61594ZM8.80875 8.76587L9.17128 9.11021L9.43696 8.8305L9.07443 8.48616L8.7119 8.14182L8.44622 8.42153L8.80875 8.76587ZM10.4841 8.29052L10.2347 8.72386L11.3492 9.36533L11.5986 8.93199L11.848 8.49865L10.7336 7.85718L10.4841 8.29052ZM11.9126 10.9424L11.5501 10.5981L10.7215 11.4705L11.084 11.8148L11.4465 12.1592L12.2752 11.2868L11.9126 10.9424ZM10.3112 12.2285L10.262 11.7309C9.44116 11.8119 7.27704 11.7461 4.92149 9.26618L4.55896 9.61052L4.19643 9.95487C6.79545 12.6911 9.28015 12.8327 10.3603 12.7261L10.3112 12.2285ZM4.55896 9.61052L4.92149 9.26618C2.67113 6.89697 2.29748 4.90325 2.25097 4.03666L1.75168 4.06346L1.2524 4.09026C1.31106 5.18312 1.77471 7.40525 4.19643 9.95487L4.55896 9.61052ZM5.36124 5.13629L5.72377 5.48064L5.89108 5.30449L5.52855 4.96015L5.16602 4.61581L4.99871 4.79195L5.36124 5.13629ZM5.61997 3.32098L6.02824 3.03232L5.29266 1.99195L4.8844 2.28061L4.47614 2.56926L5.21171 3.60963L5.61997 3.32098ZM3.06918 2.10504L2.70665 1.7607L1.79105 2.72465L2.15358 3.069L2.51611 3.41334L3.43171 2.44938L3.06918 2.10504ZM5.36124 5.13629C4.99871 4.79195 4.99825 4.79244 4.99779 4.79293C4.99763 4.79309 4.99717 4.79359 4.99685 4.79392C4.99622 4.79459 4.99558 4.79528 4.99493 4.79598C4.99363 4.79738 4.99229 4.79884 4.99091 4.80035C4.98815 4.80338 4.98525 4.80664 4.98221 4.81013C4.97614 4.81711 4.96953 4.82503 4.9625 4.83391C4.94845 4.85167 4.93272 4.87329 4.91632 4.89891C4.88343 4.95032 4.84817 5.01737 4.81844 5.10091C4.75791 5.271 4.726 5.49342 4.76624 5.76806C4.84515 6.30665 5.19585 7.0179 6.09096 7.96029L6.45349 7.61594L6.81602 7.2716C5.98737 6.39919 5.79195 5.87063 5.75568 5.62309C5.73832 5.50466 5.75655 5.44744 5.76057 5.43616C5.76311 5.42901 5.76372 5.42995 5.75863 5.4379C5.75613 5.4418 5.75229 5.44736 5.74664 5.45449C5.74382 5.45806 5.74055 5.46202 5.73676 5.46638C5.73486 5.46856 5.73284 5.47084 5.73068 5.47321C5.7296 5.4744 5.72848 5.47561 5.72733 5.47685C5.72676 5.47747 5.72617 5.47809 5.72558 5.47873C5.72528 5.47904 5.72483 5.47952 5.72468 5.47968C5.72423 5.48016 5.72377 5.48064 5.36124 5.13629ZM6.45349 7.61594L6.09096 7.96029C6.98307 8.89951 7.6657 9.27864 8.19737 9.36498C8.47089 9.40941 8.6949 9.37425 8.8666 9.30652C8.9504 9.27347 9.01705 9.23451 9.06751 9.19873C9.09268 9.18087 9.11377 9.16385 9.13096 9.14877C9.13956 9.14123 9.1472 9.13415 9.1539 9.12769C9.15726 9.12446 9.16038 9.12137 9.16327 9.11846C9.16472 9.117 9.16611 9.11558 9.16745 9.11421C9.16811 9.11352 9.16877 9.11284 9.1694 9.11218C9.16972 9.11184 9.17019 9.11135 9.17035 9.11119C9.17082 9.1107 9.17128 9.11021 8.80875 8.76587C8.44622 8.42153 8.44668 8.42104 8.44713 8.42057C8.44728 8.42041 8.44774 8.41993 8.44804 8.41962C8.44864 8.419 8.44923 8.41838 8.44982 8.41777C8.451 8.41656 8.45216 8.41538 8.4533 8.41423C8.45557 8.41194 8.45776 8.40978 8.45987 8.40775C8.46408 8.40369 8.46796 8.40013 8.47152 8.39702C8.47862 8.39079 8.48445 8.38628 8.48899 8.38306C8.49818 8.37654 8.50203 8.37535 8.49969 8.37627C8.49911 8.3765 8.45751 8.39413 8.35768 8.37792C8.14266 8.343 7.64766 8.14716 6.81602 7.2716L6.45349 7.61594ZM4.8844 2.28061L5.29266 1.99195C4.68052 1.12616 3.45123 0.976795 2.70665 1.7607L3.06918 2.10504L3.43171 2.44938C3.70739 2.15915 4.19815 2.17609 4.47614 2.56926L4.8844 2.28061ZM1.75168 4.06346L2.25097 4.03666C2.23961 3.82517 2.33132 3.60789 2.51611 3.41334L2.15358 3.069L1.79105 2.72465C1.46995 3.06271 1.22265 3.53586 1.2524 4.09026L1.75168 4.06346ZM11.084 11.8148L10.7215 11.4705C10.5655 11.6347 10.4083 11.7165 10.262 11.7309L10.3112 12.2285L10.3603 12.7261C10.8154 12.6811 11.181 12.4387 11.4465 12.1592L11.084 11.8148ZM5.52855 4.96015L5.89108 5.30449C6.47725 4.68737 6.51736 3.72411 6.02824 3.03232L5.61997 3.32098L5.21171 3.60963C5.44177 3.93502 5.40417 4.36509 5.16602 4.61581L5.52855 4.96015ZM11.5986 8.93199L11.3492 9.36533C11.7942 9.62147 11.8787 10.2521 11.5501 10.5981L11.9126 10.9424L12.2752 11.2868C13.0653 10.455 12.8344 9.06639 11.848 8.49865L11.5986 8.93199ZM9.07443 8.48616L9.43696 8.8305C9.64145 8.61521 9.96006 8.56577 10.2347 8.72386L10.4841 8.29052L10.7336 7.85718C10.0684 7.47431 9.24195 7.58378 8.7119 8.14182L9.07443 8.48616Z" fill="#FF6F47"/>
</svg>
