<svg width="148" height="147" viewBox="0 0 148 147" fill="none" xmlns="http://www.w3.org/2000/svg">
<path d="M117.925 76.5796C118.966 75.5701 122.458 72.0818 123.156 66.5922C123.962 60.2523 120.482 55.4392 119.432 53.9143C113.025 44.6035 100.649 43.6507 97.863 43.4134C79.4481 41.8436 65.2119 54.7978 59.6495 59.8774C52.5128 66.394 48.0821 73.1899 45.4631 77.9415C51.3313 71.2793 57.0061 66.6293 61.2394 63.558C69.2459 57.7501 77.1712 52.1824 87.7721 52.0066C94.817 51.8895 98.8431 54.2199 100.729 55.5827C103.34 57.4689 107.239 61.3935 106.222 63.9338C105.16 66.5873 99.1197 66.767 95.3554 66.2007C91.6488 65.6433 84.7417 63.4193 73.9444 48.9089C68.9967 42.2605 62.3017 31.6005 57.5905 16.6029H24.7244C27.1371 20.7453 32.2002 29.1774 39.2694 38.7215C42.1366 42.5914 45.637 47.2434 50.3805 52.5309C50.3805 52.5309 53.7138 56.2359 56.8624 59.3248C65.1601 67.464 76.9318 79.0115 93.2808 81.5537C97.2806 82.1756 110.106 84.1691 117.925 76.5796Z" fill="#FF6F47"/>
<path d="M0 97.2402H8.92697C14.7727 97.2402 17.4845 99.7912 17.4845 103.502C17.4845 106.669 15.4421 108.673 12.5193 108.92C16.3754 109.325 18.4354 111.295 18.4354 115.007C18.4354 119.949 15.0014 122.817 9.01492 122.817H0V97.2393V97.2402ZM8.53999 107.637C10.7407 107.637 11.8323 106.581 11.8323 104.558C11.8323 102.659 10.5296 101.849 8.39829 101.849H5.49299V107.637H8.53901H8.53999ZM8.6983 118.174C11.4981 118.174 12.5896 117.259 12.5896 114.849C12.5896 112.052 11.0925 111.613 8.46963 111.613H5.49397V118.175H8.6983V118.174Z" fill="white"/>
<path d="M20.9537 117.657C20.9537 114.174 23.2961 112.697 26.3949 112.063C28.4725 111.64 30.9028 111.447 32.2758 111.342V110.813C32.2758 108.386 31.5712 107.507 29.5464 107.507C27.5216 107.507 26.5884 108.14 26.6235 110.673H21.4472C21.024 105.607 24.5108 103.249 29.7223 103.249C33.772 103.249 37.6633 104.727 37.6633 110.25V122.81H32.2397L32.2748 118.324C31.8517 120.91 30.3204 123.021 26.7985 123.021C23.5052 123.021 20.9527 121.156 20.9527 117.655L20.9537 117.657ZM32.2758 116.902V113.876C31.3426 114.017 30.3038 114.192 29.5816 114.368C27.2402 114.896 26.518 115.757 26.518 117.2C26.518 118.643 27.2578 119.399 28.6132 119.399C30.3214 119.399 31.9944 118.326 32.2758 116.901V116.902Z" fill="white"/>
<path d="M40.9399 113.122C40.9399 107.001 44.2498 103.254 50.0076 103.254C55.7655 103.254 58.3707 106.42 58.1773 110.677H52.8777C52.7898 108.514 51.8214 107.564 50.0076 107.564C47.5421 107.564 46.3626 109.341 46.3626 113.035C46.3626 117.081 47.7532 118.647 50.2011 118.77C51.6455 118.84 53.0361 118.066 53.0185 116.008H58.2476C58.3531 120.264 55.3247 123.149 50.0946 123.149C44.0378 123.149 40.939 119.104 40.939 113.123L40.9399 113.122Z" fill="white"/>
<path d="M61.3307 95.3582H66.6664V109.326L66.3498 112.246L69.0967 108.235L72.1428 103.626H78.9218L72.9529 110.82L71.6854 112.299L73.0418 113.882L79.557 122.818H72.8659L66.3507 112.474L66.6674 115.517V122.818H61.3317V95.3591L61.3307 95.3582Z" fill="white"/>
<path d="M79.5208 103.624H85.2259L86.9692 112.807L88.0256 118.453H88.2015L89.1172 112.807L90.9837 103.624H97.7803L99.6644 112.807L100.58 118.506L100.756 118.489L101.812 112.807L103.556 103.624H109.261L103.82 122.815H97.322L95.3675 114.266L94.5046 108.707H94.2936L93.3955 114.266L91.4762 122.815H84.961L79.5198 103.624H79.5208Z" fill="white"/>
<path d="M110.724 117.657C110.724 114.174 113.066 112.697 116.165 112.063C118.242 111.64 120.673 111.447 122.046 111.342V110.813C122.046 108.386 121.341 107.507 119.316 107.507C117.292 107.507 116.358 108.14 116.394 110.673H111.217C110.794 105.607 114.281 103.249 119.492 103.249C123.542 103.249 127.433 104.727 127.433 110.25V122.81H122.01L122.045 118.324C121.622 120.91 120.09 123.021 116.568 123.021C113.275 123.021 110.723 121.156 110.723 117.655L110.724 117.657ZM122.045 116.902V113.876C121.112 114.017 120.073 114.192 119.351 114.368C117.009 114.896 116.287 115.757 116.287 117.2C116.287 118.643 117.027 119.399 118.382 119.399C120.09 119.399 121.763 118.326 122.045 116.901V116.902Z" fill="white"/>
<path d="M131.343 125.753H133.438C135.974 125.753 136.484 125.119 136.89 124.082C137.189 123.29 137.435 122.956 137.876 122.815H135.746L129.354 103.624H135.27L137.823 113.88L138.704 117.609H138.862L139.672 113.897L142.119 103.624H148L141.908 122.815C140.411 127.512 138.386 130.397 133.438 130.397H131.343V125.753Z" fill="white"/>
</svg>
