<svg width="12" height="12" viewBox="0 0 12 12" fill="none" xmlns="http://www.w3.org/2000/svg">
<path d="M9.64998 3.95975V6.53476C9.64998 8.07476 8.76998 8.73474 7.44998 8.73474H3.05498C2.82998 8.73474 2.61498 8.71477 2.41498 8.66977C2.28998 8.64977 2.16998 8.61477 2.05998 8.57477C1.30998 8.29477 0.85498 7.64476 0.85498 6.53476V3.95975C0.85498 2.41975 1.73498 1.75977 3.05498 1.75977H7.44998C8.56998 1.75977 9.37498 2.23476 9.58998 3.31976C9.62498 3.51976 9.64998 3.72475 9.64998 3.95975Z" stroke="#9CA3AF" stroke-miterlimit="10" stroke-linecap="round" stroke-linejoin="round"/>
<path d="M11.1505 5.45981V8.03482C11.1505 9.57482 10.2705 10.2348 8.95053 10.2348H4.55553C4.18553 10.2348 3.85053 10.1848 3.56053 10.0748C2.96553 9.85483 2.56053 9.39983 2.41553 8.66983C2.61553 8.71483 2.83053 8.7348 3.05553 8.7348H7.45053C8.77053 8.7348 9.65053 8.07482 9.65053 6.53482V3.95981C9.65053 3.72481 9.63053 3.51482 9.59053 3.31982C10.5405 3.51982 11.1505 4.18981 11.1505 5.45981Z" stroke="#9CA3AF" stroke-miterlimit="10" stroke-linecap="round" stroke-linejoin="round"/>
<path d="M5.24921 6.5697C5.97822 6.5697 6.56921 5.97871 6.56921 5.24969C6.56921 4.52068 5.97822 3.92969 5.24921 3.92969C4.52019 3.92969 3.9292 4.52068 3.9292 5.24969C3.9292 5.97871 4.52019 6.5697 5.24921 6.5697Z" stroke="#9CA3AF" stroke-miterlimit="10" stroke-linecap="round" stroke-linejoin="round"/>
<path d="M2.39001 4.1499V6.34991" stroke="#9CA3AF" stroke-miterlimit="10" stroke-linecap="round" stroke-linejoin="round"/>
<path d="M8.11084 4.1499V6.34991" stroke="#9CA3AF" stroke-miterlimit="10" stroke-linecap="round" stroke-linejoin="round"/>
</svg>
