<svg width="14" height="14" viewBox="0 0 14 14" fill="none" xmlns="http://www.w3.org/2000/svg">
<g clip-path="url(#clip0_9760_35281)">
<circle cx="7" cy="7" r="3" fill="white"/>
<path fill-rule="evenodd" clip-rule="evenodd" d="M6.52789 7.41923L5.76298 6.68262C5.72459 6.64338 5.67872 6.61225 5.62808 6.59107C5.57744 6.56988 5.52306 6.55908 5.46817 6.5593C5.41328 6.55951 5.35899 6.57075 5.30852 6.59233C5.25805 6.61391 5.21243 6.64541 5.17435 6.68495C5.13627 6.72449 5.10652 6.77127 5.08686 6.82252C5.06719 6.87377 5.05802 6.92844 5.05987 6.9833C5.06172 7.03816 5.07457 7.09209 5.09765 7.1419C5.12073 7.1917 5.15357 7.23637 5.19423 7.27325L6.24855 8.28876C6.32577 8.36355 6.42932 8.40495 6.53681 8.40401C6.64431 8.40307 6.74711 8.35986 6.82301 8.28373L8.81142 6.29535C8.88835 6.21842 8.93156 6.11409 8.93156 6.0053C8.93156 5.89651 8.88835 5.79218 8.81142 5.71525C8.7345 5.63833 8.63016 5.59511 8.52137 5.59511C8.41258 5.59511 8.30825 5.63833 8.23133 5.71525L6.52797 7.41923H6.52789ZM7.02806 0C7.26945 0.00666848 7.49912 0.105488 7.66993 0.276172L8.51001 1.11688C8.52496 1.13386 8.54457 1.14606 8.5664 1.15196C8.58823 1.15786 8.61132 1.15721 8.63279 1.15008L9.78122 0.842488C10.0239 0.777587 10.2824 0.811667 10.4999 0.93724C10.7175 1.06281 10.8763 1.26961 10.9414 1.51219L11.249 2.66063C11.2536 2.68267 11.2645 2.70289 11.2804 2.71881C11.2963 2.73473 11.3166 2.74564 11.3386 2.75021L12.4875 3.05782C12.73 3.12327 12.9365 3.28212 13.0621 3.49958C13.1876 3.71703 13.2218 3.97538 13.1572 4.21802L12.849 5.36646C12.8422 5.38794 12.8416 5.41096 12.8475 5.43274C12.8534 5.45452 12.8655 5.47413 12.8822 5.48923L13.7228 6.32989C13.9003 6.50756 14 6.74843 14 6.99958C14 7.25072 13.9003 7.49159 13.7228 7.66926L12.8821 8.50998C12.8653 8.52508 12.8533 8.5447 12.8474 8.56648C12.8415 8.58826 12.842 8.61128 12.8489 8.63278L13.1571 9.78121C13.2217 10.0239 13.1875 10.2822 13.062 10.4997C12.9364 10.7171 12.7298 10.876 12.4874 10.9414L11.3385 11.249C11.3165 11.2536 11.2962 11.2645 11.2803 11.2804C11.2644 11.2963 11.2535 11.3166 11.2489 11.3386L10.9413 12.487C10.8761 12.7296 10.7173 12.9364 10.4998 13.062C10.2823 13.1876 10.0238 13.2216 9.78111 13.1567L8.63268 12.8491C8.61121 12.842 8.58813 12.8413 8.56629 12.8472C8.54446 12.8531 8.52485 12.8653 8.5099 12.8823L7.66982 13.7227C7.49193 13.9 7.251 13.9996 6.99982 13.9996C6.74864 13.9996 6.5077 13.9 6.32981 13.7227L5.48921 12.882C5.47432 12.8651 5.45482 12.853 5.4331 12.8471C5.41139 12.8412 5.38842 12.8418 5.36704 12.8488L4.21841 13.1564C3.97577 13.2213 3.71729 13.1872 3.49976 13.0616C3.28223 12.9361 3.12344 12.7293 3.05827 12.4867L2.75063 11.3383C2.74606 11.3162 2.73512 11.296 2.71918 11.2801C2.70324 11.2641 2.68298 11.2532 2.66091 11.2487L1.51247 10.9411C1.27 10.8757 1.06333 10.7169 0.937754 10.4994C0.812179 10.282 0.777944 10.0236 0.842551 9.78089L1.15041 8.63259C1.15754 8.61113 1.15821 8.58805 1.15233 8.56621C1.14644 8.54438 1.13427 8.52476 1.11733 8.50978L0.276836 7.66918C0.0994093 7.49147 -0.000244141 7.25061 -0.000244141 6.99949C-0.000244141 6.74837 0.0994093 6.50751 0.276836 6.3298L1.11766 5.48909C1.13451 5.47406 1.14659 5.45443 1.15242 5.43261C1.15825 5.4108 1.15758 5.38775 1.15047 5.36632L0.842606 4.21788C0.778007 3.97521 0.812246 3.71682 0.93782 3.49935C1.06339 3.28188 1.27006 3.12305 1.51253 3.05769L2.66097 2.75007C2.68303 2.74553 2.70329 2.73463 2.71923 2.71871C2.73518 2.70279 2.74611 2.68255 2.75068 2.66049L3.05832 1.51219C3.12353 1.26964 3.28232 1.06289 3.49984 0.937322C3.71736 0.811757 3.97582 0.777649 4.21847 0.842488L5.36709 1.15008C5.38846 1.15721 5.41146 1.15786 5.4332 1.15195C5.45494 1.14604 5.47444 1.13384 5.48927 1.11688L6.32998 0.276281C6.50075 0.105572 6.73039 0.00671294 6.97176 0H7.02806ZM6.9996 10.051C6.39606 10.051 5.80607 9.87204 5.30424 9.53673C4.80241 9.20142 4.41129 8.72483 4.18032 8.16723C3.94936 7.60963 3.88893 6.99607 4.00667 6.40412C4.12442 5.81218 4.41505 5.26844 4.84182 4.84167C5.26859 4.4149 5.81232 4.12427 6.40427 4.00652C6.99621 3.88878 7.60978 3.94921 8.16738 4.18018C8.72498 4.41114 9.20157 4.80227 9.53688 5.3041C9.87219 5.80592 10.0512 6.39591 10.0512 6.99945C10.0503 7.80852 9.72856 8.58421 9.15646 9.15631C8.58436 9.72841 7.80867 10.0502 6.9996 10.051Z" fill="#22C55E"/>
</g>
<defs>
<clipPath id="clip0_9760_35281">
<rect width="14" height="14" fill="white"/>
</clipPath>
</defs>
</svg>
